<?xml version="1.0" standalone="yes"?>
<svg xmlns="http://www.w3.org/2000/svg" width="1080" height="1080">
<path style="fill:#000000; stroke:none;" d="M0 0L0 1080L1080 1080L1080 0L0 0z"/>
<path style="fill:#53627d; stroke:none;" d="M256 616C257.789 610.183 256.004 601.092 255.285 595C254.083 584.806 253.792 574.252 253.09 564C250.993 533.385 252.639 501.691 253.004 471C253.258 449.664 256.419 428.275 257.91 407C259.95 377.903 261.887 348.638 267.665 320C276.238 277.51 293.272 236.103 317.355 200C331.049 179.47 349.009 160.861 367 144.089C381.118 130.929 397.352 121.205 414 111.719C439.451 97.2182 465.797 86.5103 494 78.7053C503.623 76.0421 515.99 70.4344 526 72C532.936 65.7648 545.187 65.8545 554 65.5486C569.245 65.0193 583.726 63.7944 599 65C593.767 59.7155 586.094 58.5251 579 57.4244C563.96 55.0908 548.152 53.7506 533 55.7184C474.968 63.2549 418.183 87.0674 372 123.21C310.449 171.379 271.022 242.587 256.611 319C248.989 359.414 248.71 401.116 245.91 442C242.817 487.176 241.066 534.156 248.586 579C250.629 591.18 252.034 604.288 256 616z"/>
<path style="fill:#005555; stroke:none;" d="M579 57L580 58L579 57z"/>
<path style="fill:#53627d; stroke:none;" d="M587 93C593.002 88.0395 595.447 79.0176 603.001 75.8542C610.975 72.5147 619.985 74.7929 628 76.49C639.137 78.848 650.005 80.7296 661 83.8596C721.762 101.156 777.041 142.768 809.6 197C821.291 216.473 831.769 236.15 838.279 258C849.289 294.95 848.708 334.903 847.039 373C846.515 384.971 847.551 397.049 846.795 409C845.425 430.643 839.925 452.912 835.112 474C829.291 499.501 819.141 523.915 811.91 549C806.866 566.497 803.655 584.444 798.848 602C793.133 622.871 785.695 643.424 779 664C782.228 661.886 783.697 658.331 785.576 655C789.779 647.547 793.134 639.72 796.781 632C811.429 600.988 819.812 568.825 829.424 536C838.594 504.685 849.761 474.241 855.576 442C861.224 410.683 862 378.733 862 347C862 310.295 860.532 274.054 848.305 239C835.258 201.597 811.23 166.381 783.961 138.001C749.386 102.018 697.768 69.4657 647 65C635.443 63.9834 623.556 63.0781 612 64.7292C606.501 65.515 601.297 66.2092 597.043 70.1335C590.851 75.8458 588.836 85.0657 587 93z"/>
<path style="fill:#677d99; stroke:none;" d="M547 65C548.248 65.6848 548.549 65.7488 550 66C548.752 65.3151 548.452 65.2512 547 65z"/>
<path style="fill:#7995b4; stroke:none;" d="M550.667 65.3333C550.222 65.7778 551.278 65.7222 551.333 65.6667C551.778 65.222 550.722 65.2778 550.667 65.3333z"/>
<path style="fill:#005555; stroke:none;" d="M481 66L482 67L481 66z"/>
<path style="fill:#718aa7; stroke:none;" d="M541 66C542.248 66.6848 542.549 66.7488 544 67C542.752 66.3151 542.452 66.2512 541 66z"/>
<path style="fill:#9cc3e2; stroke:none;" d="M496 93C495.817 90.9214 495.6 88.9808 494.891 86.9962C492.67 80.7732 487.879 78.6447 482 81.9946C474.173 86.4548 467.666 93.2262 460 98L459 90C451.45 91.3416 443.836 95.3438 437 98.7531C426.034 104.222 414.281 109.669 406 119C401.524 116.502 396.829 120.802 393 123.355C381.805 130.818 370.239 138.993 361.17 149C348.296 163.205 334.009 176.647 322.475 192C311.047 207.213 302.232 224.04 293.753 241C287.49 253.529 280.063 268.032 278 282L283 281C279.87 286.871 275.601 292.885 273.13 299C269.491 308.003 268.161 318.482 266.565 328C263.167 348.256 261.319 368.541 259.91 389C256.917 432.476 253 475.325 253 519C253 537.042 252.747 555.028 253.975 573C254.468 580.204 255.631 591.468 261.275 596.681C264.782 599.922 269.208 598.668 271.633 594.891C274.976 589.683 274.996 582.954 275 577C276.649 581.371 276.711 588.083 279.738 591.682C285.84 598.935 293.391 588.417 295 583L297 583C303.9 603.127 331.406 588.913 345.83 591.032C351.069 591.802 354.34 598.519 358.015 601.815C365.092 608.164 373.707 609.987 383 608.815C387.05 608.304 392.437 606.349 393.526 601.907C394.253 598.942 392.881 595.78 392 593C399.689 598.416 405.464 606.698 415 609.097C421.497 610.732 438.012 611.468 439.099 601.985C439.696 596.769 434.86 590.937 432 587C444.692 594.824 460.278 601.648 474 592C470.576 603.977 462.427 614.105 459 626L467 627C469.735 608.411 478.917 591.015 483.848 573C488.329 556.63 488.872 538.822 491 522C488.327 521.149 485.774 520.41 483 520L482 524C466.896 512.804 449.889 504.298 433 495.904C427.684 493.262 421.704 495.036 417.09 490.852C411.888 486.134 408.011 479.965 402.996 475.015C391.443 463.609 379.775 453.247 370.158 440C366.072 434.371 362.448 428.178 359.258 422C357.284 418.175 355.705 413.492 351.895 411.089C342.809 405.361 334.138 411.333 325 410.693C322.184 410.495 319.604 408.665 317 407.711C310.006 405.148 293.717 403.775 290.644 413.018C289.431 416.667 291.757 420.743 293.15 424C296.733 432.373 300.424 441.13 305 449L295 449C293.53 440.885 288.847 438.028 281 438C283.597 428.487 290.709 414.29 282 406C281.658 422.57 278.225 439.419 277.09 456C276.317 467.274 277.262 478.703 276.985 490C276.165 523.494 277.763 555.897 284 589C279.216 579.92 277.496 569.03 275.75 559C272.417 539.854 271.232 521.302 269.91 502C265.135 432.261 274.038 354.211 310.453 293C318.234 279.92 327.656 267.075 338.285 256.17C342.225 252.129 346.945 248.922 350.907 244.911C362.024 233.654 372.782 222.038 386 213C379.813 221.817 370.254 228.95 366 239C375.008 237.328 383.931 238.642 393 239.039C396.261 239.182 399.789 240.386 403 239.421C410.184 237.263 415.935 229.222 422 225C423.823 235.03 430.753 232.868 438 229.247C449.234 223.634 459.631 216.308 471 211C469.345 215.297 464.643 225.08 468.029 229.397C469.732 231.568 473.591 230.995 476 231C485.664 231.02 490.66 228.626 499 224L499 230C503.623 230.013 510.59 232.698 514.829 231.306C519.317 229.833 522.777 223.252 526.015 220.015C535.038 210.99 548.115 204.236 554.637 193C558.247 186.779 556.812 178.975 560.028 173.17C562.156 169.328 566.705 167.459 569.146 163.83C571.899 159.736 572.665 153.706 574 149C574.9 152.041 574.992 154.831 575 158C581.811 152.655 588.588 134.392 579.772 127.742C575.997 124.896 570.22 125.995 566 127C566.238 122.784 568.921 119.818 570.536 116C574.696 106.157 578.029 76.7778 559 83.1049C555.201 84.3681 551.691 86.4632 548 88C549.88 83.4152 555.651 72.3629 551.968 67.6034C550.616 65.855 547.955 66.0208 545.999 66.1744C540.805 66.5823 534.927 67.5369 530 69.2485C524.408 71.1911 519.718 75.4086 515 78.8488C508.631 83.4932 501.999 87.8834 496 93z"/>
<path style="fill:#005555; stroke:none;" d="M478 67L479 68L478 67z"/>
<path style="fill:#7b97b4; stroke:none;" d="M536.667 67.3333C536.222 67.7779 537.278 67.7222 537.333 67.6667C537.778 67.2221 536.722 67.2776 536.667 67.3333z"/>
<path style="fill:#7893af; stroke:none;" d="M531.667 68.3333C531.222 68.7778 532.278 68.7222 532.333 68.6667C532.778 68.222 531.722 68.2778 531.667 68.3333z"/>
<path style="fill:#000000; stroke:none;" d="M526 70L527 71L526 70M491 79C492.895 83.746 495.241 87.8625 496 93C505.581 87.0861 517.878 79.7491 525 71C513.443 71.9441 502.311 76.659 491 79z"/>
<path style="fill:#808080; stroke:none;" d="M552 73L553 74L552 73z"/>
<path style="fill:#9cc3e2; stroke:none;" d="M601 195C595.038 205.254 588.925 217.845 591.518 230C593.728 240.362 603.425 249.2 614 243C617.123 250.499 622.592 260.538 631.998 254.853C634.623 253.267 636.798 251.101 639 249C636.497 255.103 631.18 268.744 638.514 273.972C641.434 276.054 646.605 274.817 650 275.3C653.222 275.759 656.792 277.44 659.961 275.933C664.854 273.606 668.388 266.924 672 263C673.834 269.46 677.563 283.438 687 281.331C690.264 280.602 693.207 277.737 696 276C696.427 278.207 696.909 280.056 698.148 281.989C705.917 294.113 719.258 283.135 724 274C726.597 282.783 727.604 306.051 743 299.466C746.652 297.904 749.709 295.168 753 293C752.36 295.535 752.336 297.395 752.808 300.002C753.531 303.993 754.367 308.63 757.394 311.581C760.6 314.706 765.891 315.598 770 317.003C776.199 319.123 781.992 321.929 786.829 326.44C792.891 332.092 795.097 343.082 802 347C800.039 353.826 803.278 361.065 803.925 368C805.257 382.261 805.337 396.659 804.985 411C804.301 438.95 801.723 467.958 794.091 495C788.089 516.266 779.448 536.546 771.201 557C767.32 566.625 762.837 576.2 759.443 585.999C757.055 592.893 756.515 599.543 751 605C750.945 598.833 749.087 594.29 746 589L755 591C766.764 554.848 780.576 518.511 787.386 481C791.222 459.87 792 438.423 792 417C789.168 420.136 787.62 424.207 785.756 428C780.477 438.745 775.177 450.728 777.329 463C778.347 468.809 784.494 474.378 784.446 480C784.409 484.329 780.777 488.64 780 493C770.8 490.37 753.451 481.201 745.589 491.212C744.074 493.142 743.625 495.69 743 498C736.939 496.208 723.961 498.99 721.708 506.185C720.58 509.787 723.727 514.718 725 518C718.606 518 711.576 516.93 709 524C702.815 520.483 695.172 517.259 688.001 519.164C685.268 519.889 682.008 520.951 681.411 524.108C680.332 529.824 685.896 536.945 688 542C681.329 536.935 673.709 527.739 665 526.481C657.139 525.345 648.05 529.834 640 530L641 534C633.708 530.91 626.632 532.348 619 532.911C616.509 533.095 612.816 532.542 611.028 534.742C609.534 536.581 610.008 539.806 610 542C610.984 539.669 610.981 537.543 611 535C619.018 551.416 629.93 566.782 640 582C633.461 579.281 627.139 575.907 620 575.055C617.875 574.801 614.517 573.96 612.603 575.269C609.084 577.675 611.95 585.75 612.6 589C613.509 593.544 613.919 598.704 615.699 603C618.599 610 626.083 616.958 632 621.468C636.405 624.825 642.348 627.523 648 626.786C655.608 625.795 661.997 621.361 670 622.106C679.764 623.014 687.964 630.125 698 631C697.355 626.696 695.641 623 694 619C698.718 623.08 704.363 628.019 711 627.863C716.466 627.735 721.607 624.797 727 624C726.447 611.929 716.079 601.21 709 592C721.133 600.446 732.439 614.895 749 610C747.587 615.028 744.913 625.008 750.433 628.682C754.745 631.552 763.041 630 768 630C762.81 632.312 757.573 633.916 752 635C754.366 639.451 759.49 644.291 764.674 640.396C767.693 638.128 769.592 634.045 771.72 631C776.321 624.415 781.569 617.995 785.532 611C788.961 604.945 786.996 598.217 789.799 592C796.846 576.376 806.457 561.842 813.124 546C819.356 531.193 823.41 514.451 827.859 499C830.801 488.782 842.552 466.184 828 461C832.315 450.639 839.719 441.595 843.452 431C845.399 425.474 845.512 418.819 845.911 413C846.547 403.7 844.476 394.114 834 392C838.282 381.563 842.959 371.609 840.482 360C839.337 354.634 834.561 349.326 834.336 344C834.185 340.413 836.868 336.19 838.306 333C841.325 326.303 844.634 319.469 844.961 312C845.4 301.971 840.65 295.202 838.418 286C836.948 279.937 837.901 274.044 835.536 268C833.474 262.73 829.455 258.396 827.846 253C826.591 248.788 825.51 244.737 823.034 241.015C821.15 238.183 817.864 236.107 816.603 232.911C815.632 230.449 816.106 227.575 815.674 225C814.527 218.147 809.728 203.564 801 203.738C796.8 203.821 792.845 207.545 789 209C788.776 198.189 781.469 180.631 768 187C767.851 179.792 766.412 171.729 761.61 166.055C759.546 163.617 756.421 161.099 753 161.931C749.388 162.81 746.52 166.503 744 169C742.306 164.026 737.76 159.263 736.646 154.424C735.953 151.415 738.185 147.087 738.557 144C739.534 135.885 736.119 116.362 725 116.503C721.735 116.545 718.504 119.081 716 120.924C709.525 125.691 704.24 131.919 698 137C699.615 129.971 697.761 120.87 693.362 115.043C691.287 112.295 687.741 109.157 684 109.952C677.473 111.338 672.318 119.489 668 124C668.822 113.58 668.818 104.733 664.084 95C662.116 90.9539 658.09 85.8309 653 86.5278C643.521 87.8255 635.914 100.579 630 107C631.701 99.8557 631.351 92.0988 629.522 85C628.814 82.2545 628.014 78.7464 625.581 76.9884C622.977 75.1067 619.056 75.1893 616 74.9259C613.264 74.6902 610.562 74.083 608.089 75.6428C604.398 77.9716 601.525 82.6021 598.884 86C594.445 91.7124 588.591 97.5338 587.507 105C586.761 110.136 588.434 116.332 590.517 121C591.668 123.581 593.672 126.063 593.704 129C593.754 133.445 590.731 138.807 589.333 143C585.264 155.209 580.178 169.068 584.221 182C585.757 186.915 588.741 192.85 594.013 194.486C596.236 195.176 598.705 194.992 601 195z"/>
<path style="fill:#85a4c3; stroke:none;" d="M612 74C613.248 74.6848 613.548 74.7488 615 75C613.752 74.3151 613.452 74.2512 612 74z"/>
<path style="fill:#7089a6; stroke:none;" d="M615 74C616.248 74.6848 616.548 74.7488 618 75C616.752 74.3152 616.452 74.2512 615 74z"/>
<path style="fill:#87a7c5; stroke:none;" d="M621 75C622.506 75.6831 623.315 75.8259 625 76C623.494 75.317 622.685 75.1741 621 75z"/>
<path style="fill:#000000; stroke:none;" d="M626 76C630.186 86.2591 632.046 95.9789 630 107C637.221 101.478 643.191 88.4459 653 86.9313C657.272 86.2718 661.002 90.7933 663.005 94.0008C668.969 103.55 668.454 113.414 668 124C673.097 120.102 677.375 112.034 684 110.534C687.471 109.748 690.566 112.586 692.61 115.043C697.488 120.909 699.216 129.631 698 137C705.955 131.738 714.258 118.403 724 116.931C727.571 116.391 730.567 119.488 732.61 122.015C737.555 128.134 739.388 137.303 738.228 145C737.76 148.101 735.597 151.895 736.402 155C737.591 159.585 741.902 164.573 744 169C746.912 166.957 750.324 162.573 754 162.176C757.128 161.838 759.84 164.829 761.61 167.015C766.114 172.581 767.855 179.993 768 187C781.393 182.404 788.509 197.724 789 209C793.374 207.874 798.341 202.752 802.996 204.451C810.029 207.017 814.262 218.265 815.532 225C816.069 227.843 815.507 231.13 816.603 233.83C817.901 237.025 821.228 239.177 823.15 242.004C825.656 245.692 826.598 249.808 827.846 254C829.747 260.384 834.545 265.547 836.64 272C838.351 277.268 837.041 282.837 838.698 288C841.362 296.297 845.36 302.866 844.959 312C844.604 320.102 840.147 327.709 837 335C835.818 337.738 833.723 340.929 833.809 344C833.976 349.989 839.644 355.829 840.674 362C842.545 373.202 836.941 381.713 834 392C839.703 393.939 842.853 398.048 846 403C848.907 396.073 846.988 385.488 847 378C847.027 360.923 847.789 344.113 847.039 327C846.733 320.014 847.388 312.978 846.911 306C845.391 283.807 840.603 261.878 832.947 241C827.828 227.042 820.227 213.719 812.6 201C786.064 156.748 747.122 119.946 700 98.3087C675.987 87.2827 651.843 80.8152 626 76z"/>
<path style="fill:#005555; stroke:none;" d="M696 78L697 79L696 78z"/>
<path style="fill:#55aaaa; stroke:none;" d="M604 79L605 80L604 79z"/>
<path style="fill:#808080; stroke:none;" d="M628 81L629 82L628 81z"/>
<path style="fill:#000000; stroke:none;" d="M460 98C467.352 94.5065 473.493 88.8226 480 84C475.353 83.0242 469.348 86.0738 465.005 87.8117C463.089 88.5782 460.538 89.351 459.643 91.4166C458.783 93.4014 459.634 95.9952 460 98z"/>
<path style="fill:#808080; stroke:none;" d="M493 83L494 84L493 83z"/>
<path style="fill:#005555; stroke:none;" d="M589 84L590 85L589 84z"/>
<path style="fill:#55aaaa; stroke:none;" d="M477 85L478 86L477 85z"/>
<path style="fill:#005555; stroke:none;" d="M463 88L464 89L463 88z"/>
<path style="fill:#000000; stroke:none;" d="M547 88L548 89L547 88z"/>
<path style="fill:#808080; stroke:none;" d="M573 92L574 93L573 92M640 95L641 96L640 95z"/>
<path style="fill:#005555; stroke:none;" d="M695 96L696 97L695 96z"/>
<path style="fill:#55aaaa; stroke:none;" d="M461 97L462 98L461 97M588 100L589 101L588 100z"/>
<path style="fill:#000000; stroke:none;" d="M417 109L418 110L417 109z"/>
<path style="fill:#808080; stroke:none;" d="M587 109L588 110L587 109z"/>
<path style="fill:#000000; stroke:none;" d="M414 111L415 112L414 111M405 119C408.152 117.205 411.051 115.112 414 113C409.931 112.406 406.282 115.219 405 119z"/>
<path style="fill:#55aaaa; stroke:none;" d="M678 113L679 114L678 113z"/>
<path style="fill:#005555; stroke:none;" d="M755 113L756 114L755 113z"/>
<path style="fill:#55aaaa; stroke:none;" d="M721 117L722 118L721 117z"/>
<path style="fill:#005555; stroke:none;" d="M760 117L761 118L760 117z"/>
<path style="fill:#7792af; stroke:none;" d="M399 119L400 120L399 119z"/>
<path style="fill:#808080; stroke:none;" d="M672 119L673 120L672 119z"/>
<path style="fill:#005555; stroke:none;" d="M736 119L737 120L736 119z"/>
<path style="fill:#808080; stroke:none;" d="M715 121L716 122L715 121z"/>
<path style="fill:#000000; stroke:none;" d="M667 124L668 125L667 124z"/>
<path style="fill:#7691af; stroke:none;" d="M387 127L388 128L387 127z"/>
<path style="fill:#55aaaa; stroke:none;" d="M593 131L594 132L593 131z"/>
<path style="fill:#808080; stroke:none;" d="M737 131L738 132L737 131z"/>
<path style="fill:#7994b1; stroke:none;" d="M380 132L381 133L380 132z"/>
<path style="fill:#808080; stroke:none;" d="M702 133L703 134L702 133z"/>
<path style="fill:#55aaaa; stroke:none;" d="M701 134L702 135L701 134z"/>
<path style="fill:#808080; stroke:none;" d="M582 145L583 146L582 145z"/>
<path style="fill:#83a1bf; stroke:none;" d="M574 149C573.435 152.34 573.932 155.602 574 159C575.346 155.793 575.346 152.207 574 149z"/>
<path style="fill:#53627d; stroke:none;" d="M573 152C566.995 175.153 558.758 197.08 545.33 217C539.42 225.768 532.713 234.862 524 241C517.938 225.484 492.228 230.938 479 231.001C474.79 231.021 470.859 231.929 467 230C455.201 236.548 441.846 234.927 429 236.17C418.336 237.202 407.845 240.524 397 239.907C382.484 239.081 364.949 235.684 352 243.962C342.051 250.323 333.895 259.868 326.6 269C308.223 292.006 295.568 318.901 287.23 347C269.296 407.437 265.884 471.387 272.169 534C273.97 551.946 278.578 569.353 282 587C284.501 580.592 280.487 570.656 279.439 564C276.997 548.486 276 532.68 276 517C276 489.31 275.535 461.552 278.17 434C282 393.94 293.629 351.475 312.692 316C321.766 299.114 332.433 284.611 346.001 271C351.81 265.172 358.122 258.626 366 255.711C373.466 252.948 379.533 254.718 387 255.792C395.54 257.019 404.377 257.342 413 256.961C419.131 256.69 424.905 254.258 431 253.9C438.636 253.452 446.395 254.749 454 253.561C460.108 252.607 465.907 249.923 472 249.184C483.869 247.745 496.014 249.946 508 249C508.356 251.411 508.809 253.721 509.765 255.986C512.094 261.508 518.225 264.81 523.961 261.821C530.374 258.479 536.918 249.502 541.561 244C557.52 225.087 569.266 203.546 573.246 179C574.593 170.695 576.426 159.941 573 152z"/>
<path style="fill:#000000; stroke:none;" d="M356 153L356 155C357.635 154.455 357.455 154.635 358 153L356 153z"/>
<path style="fill:#005555; stroke:none;" d="M798 154L799 155L798 154z"/>
<path style="fill:#000000; stroke:none;" d="M355 155L356 156L355 155M354 156L355 157L354 156M353 157L354 158L353 157z"/>
<path style="fill:#6e86a3; stroke:none;" d="M571.333 157.667C571.278 157.722 571.222 158.778 571.667 158.333C571.722 158.278 571.778 157.222 571.333 157.667z"/>
<path style="fill:#000000; stroke:none;" d="M352 158L353 159L352 158M351 159L352 160L351 159z"/>
<path style="fill:#005555; stroke:none;" d="M332 160L333 161L332 160z"/>
<path style="fill:#000000; stroke:none;" d="M350 160L351 161L350 160M349 161L350 162L349 161z"/>
<path style="fill:#7995b2; stroke:none;" d="M570 161L571 162L570 161z"/>
<path style="fill:#808080; stroke:none;" d="M755 161L756 162L755 161z"/>
<path style="fill:#000000; stroke:none;" d="M348 162L349 163L348 162M347 163L348 164L347 163M346 164L347 165L346 164M345 165L346 166L345 165M568 165C565.072 167.209 561.051 169.637 559.603 173.17C556.941 179.665 558.366 186.67 554.147 193C547.068 203.619 534.999 210.233 526.015 219.039C523.287 221.713 517.369 226.732 517.341 230.911C517.319 234.188 522.353 238.174 524 241C530.217 238.101 534.61 232.308 538.789 227C548.741 214.362 557.396 200.137 562.947 185C564.997 179.41 569.246 170.914 568 165M344 166C342.652 167.768 341.878 168.983 341 171C343.015 169.356 344.098 168.587 344 166M340 171L341 172L340 171z"/>
<path style="fill:#005555; stroke:none;" d="M322 172L323 173L322 172z"/>
<path style="fill:#000000; stroke:none;" d="M339 172L340 173L339 172M338 173L339 174L338 173M337 174L338 175L337 174M336 175L337 176L336 175M335 176L336 177L335 176z"/>
<path style="fill:#005555; stroke:none;" d="M816 178L817 179L816 178z"/>
<path style="fill:#808080; stroke:none;" d="M583 179L584 180L583 179z"/>
<path style="fill:#000000; stroke:none;" d="M332 180L333 181L332 180z"/>
<path style="fill:#808080; stroke:none;" d="M767 180L768 181L767 180z"/>
<path style="fill:#000000; stroke:none;" d="M331 181L332 182L331 181z"/>
<path style="fill:#005555; stroke:none;" d="M572 183L573 184L572 183z"/>
<path style="fill:#808080; stroke:none;" d="M782 190L783 191L782 190z"/>
<path style="fill:#55aaaa; stroke:none;" d="M555 191L556 192L555 191M785 194L786 195L785 194z"/>
<path style="fill:#7994b1; stroke:none;" d="M319 196L320 197L319 196z"/>
<path style="fill:#53627d; stroke:none;" d="M576 199C574.231 204.983 574.453 211.778 573.831 218C573.101 225.305 572.009 232.648 572 240C571.994 245.205 571.784 250.712 576.214 254.348C583.731 260.518 594.219 253.783 600.826 259.318C609.895 266.914 613.371 278.616 624 285.073C632.355 290.149 641.073 289.673 650 292.598C657.962 295.206 664.929 300.149 673 302.652C681.252 305.211 689.954 303.354 698 305.637C702.55 306.929 706.718 309.731 711 311.691C717.195 314.528 723.665 316.714 730 319.203C737.945 322.325 745.837 325.448 754 327.974C765.309 331.475 775.956 333.485 782.015 345C791.988 363.956 790.967 388.25 791 409C791.022 422.644 792.85 436.284 791.911 450C789.894 479.443 781.5 507.94 772.961 536C768.573 550.416 763.428 564.703 758.667 579C755.986 587.051 752.182 595.453 752 604C756.136 598.88 757.51 592.058 759.814 586C763.642 575.934 767.902 565.958 772.011 556C780.935 534.371 789.705 512.83 795.116 490C802.224 460.01 803.853 429.666 804.001 399C804.119 374.472 806.335 343.205 785.996 325.185C776.267 316.565 760.893 313.257 749 308.397C739.695 304.594 729.988 300.682 721 296.191C715.034 293.21 709.556 289.43 703 287.761C696.733 286.165 690.385 288.642 684 287.699C674.908 286.357 667.634 279.909 659 277.221C652.45 275.181 645.41 277.218 639 274.895C624.479 269.632 621.584 253.26 609 246.089C604.854 243.727 598.647 242.77 594 243.764C590.788 244.451 585.602 247.188 582.742 244.382C579.723 241.419 581.127 234.797 580.961 231C580.536 221.305 580.232 207.806 576 199z"/>
<path style="fill:#7792af; stroke:none;" d="M315 202L316 203L315 202z"/>
<path style="fill:#55aaaa; stroke:none;" d="M799 203L800 204L799 203z"/>
<path style="fill:#808080; stroke:none;" d="M596 204L597 205L596 204M794 206L795 207L794 206z"/>
<path style="fill:#000000; stroke:none;" d="M390 208L386 213C388.089 211.444 389.403 210.512 390 208M471 210L472 211L471 210M422 225C415.565 227.983 409.798 233.815 405 239C412.771 240.315 420.348 237.284 428 236.289C435.633 235.297 443.327 236.088 451 234.999C455.04 234.426 462.21 233.775 465.397 231.012C467.29 229.371 467.066 226.262 467.438 224C468.178 219.509 469.81 215.362 471 211C459.695 214.577 449.563 222.875 439 228.244C431.469 232.072 425.036 235.186 422 225M353 243C356.975 241.864 362.137 240.465 365.536 238.066C369.983 234.927 373.278 229.148 376.754 225C380.024 221.097 383.841 217.631 386 213C381.087 215.25 377.126 219.126 373 222.589C365.923 228.53 357.115 234.53 353 243z"/>
<path style="fill:#55aaaa; stroke:none;" d="M814 220L815 221L814 220z"/>
<path style="fill:#808080; stroke:none;" d="M378 222L379 223L378 222z"/>
<path style="fill:#000000; stroke:none;" d="M499 223L500 224L499 223M488 230C491.602 231.497 495.22 230.478 499 230L499 224C495.062 225.49 491.586 227.798 488 230z"/>
<path style="fill:#7088a5; stroke:none;" d="M499 230C501.89 231.213 504.874 230.998 508 231C505.11 229.787 502.126 230.002 499 230z"/>
<path style="fill:#758fab; stroke:none;" d="M468 231C469.506 231.683 470.315 231.826 472 232C470.494 231.317 469.685 231.174 468 231z"/>
<path style="fill:#55aaaa; stroke:none;" d="M592 233L593 234L592 233M357 236L358 237L357 236z"/>
<path style="fill:#005555; stroke:none;" d="M426 236L427 237L426 236z"/>
<path style="fill:#808080; stroke:none;" d="M406 237L407 238L406 237z"/>
<path style="fill:#7b97b4; stroke:none;" d="M368 238C372.471 239.876 378.183 239 383 239C378.529 237.124 372.817 238 368 238z"/>
<path style="fill:#7893b0; stroke:none;" d="M393 239C394.769 239.779 396.036 239.912 398 240C396.231 239.221 394.964 239.088 393 239z"/>
<path style="fill:#005555; stroke:none;" d="M280 242L281 243L280 242z"/>
<path style="fill:#000000; stroke:none;" d="M352 243L353 244L352 243z"/>
<path style="fill:#6c839f; stroke:none;" d="M599 243C600.506 243.683 601.315 243.826 603 244C601.494 243.317 600.685 243.174 599 243z"/>
<path style="fill:#000000; stroke:none;" d="M610 245C611.965 249.219 615.292 252.31 618.101 256C623.573 263.186 627.912 271.098 637 274C636.451 269.748 634.877 265.307 635.225 261C635.562 256.814 637.859 252.991 639 249C635.601 251.322 632.124 255.255 628 256.188C620.908 257.794 616.457 248.024 614 243L610 245z"/>
<path style="fill:#55aaaa; stroke:none;" d="M824 243L825 244L824 243z"/>
<path style="fill:#808080; stroke:none;" d="M615 246L616 247L615 246z"/>
<path style="fill:#005555; stroke:none;" d="M850 246L851 247L850 246z"/>
<path style="fill:#7690ad; stroke:none;" d="M346 248L347 249L346 248z"/>
<path style="fill:#55aaaa; stroke:none;" d="M616 248L617 249L616 248z"/>
<path style="fill:#000000; stroke:none;" d="M639 248L640 249L639 248z"/>
<path style="fill:#005555; stroke:none;" d="M459 252L460 253L459 252M431 253L432 254L431 253z"/>
<path style="fill:#7994b1; stroke:none;" d="M339 254L340 255L339 254z"/>
<path style="fill:#809ebb; stroke:none;" d="M369 254C371.613 255.098 374.165 254.993 377 255C374.387 253.902 371.836 254.007 369 254z"/>
<path style="fill:#657a96; stroke:none;" d="M377 254C379.052 254.874 380.747 254.953 383 255C380.948 254.126 379.253 254.047 377 254z"/>
<path style="fill:#7691af; stroke:none;" d="M338 255L339 256L338 255z"/>
<path style="fill:#9cc3e2; stroke:none;" d="M385 255C379.704 255 374.279 254.659 369 255.093C365.374 255.392 361.026 256.607 358.603 259.532C355.725 263.008 356.928 269.777 361.109 271.727C363.825 272.994 366.692 271.637 369 270.149C374.721 266.461 381.607 260.925 385 255z"/>
<path style="fill:#7a96b2; stroke:none;" d="M337 256L338 257L337 256z"/>
<path style="fill:#808080; stroke:none;" d="M383 257L384 258L383 257z"/>
<path style="fill:#005555; stroke:none;" d="M528 257L529 258L528 257z"/>
<path style="fill:#000000; stroke:none;" d="M671 263C667.026 267.593 662.531 272.474 660 278C667.277 281.03 674.172 286.056 682 287.532C688.706 288.798 695.304 287.138 702 287C699.753 283.355 697.311 280.107 696 276C692.794 277.355 689.487 280.716 686 281.042C676.808 281.899 675.177 268.078 671 263z"/>
<path style="fill:#7792af; stroke:none;" d="M330 264L331 265L330 264z"/>
<path style="fill:#7691ae; stroke:none;" d="M326 269L327 270L326 269z"/>
<path style="fill:#005555; stroke:none;" d="M856 269L857 270L856 269M269 270L270 271L269 270M631 271L632 272L631 271z"/>
<path style="fill:#808080; stroke:none;" d="M664 271L665 272L664 271z"/>
<path style="fill:#000000; stroke:none;" d="M724 274C719.217 280.277 713.181 286.912 705 288C714.48 294.377 725.54 298.515 736 303.001C742.628 305.843 748.937 309.326 756 311C754.482 305.323 752.757 299.858 752 294C747.972 295.694 744.332 299.42 740 300.242C736.447 300.917 733.535 298.525 731.39 295.956C725.72 289.166 727.089 281.36 724 274z"/>
<path style="fill:#808080; stroke:none;" d="M837 274L838 275L837 274z"/>
<path style="fill:#8db0ce; stroke:none;" d="M639 275C641.052 275.874 642.747 275.953 645 276C642.948 275.126 641.253 275.047 639 275z"/>
<path style="fill:#809ebc; stroke:none;" d="M645 275C647.332 275.985 649.456 275.981 652 276C649.669 275.015 647.543 275.019 645 275z"/>
<path style="fill:#005555; stroke:none;" d="M843 279L844 280L843 279z"/>
<path style="fill:#000000; stroke:none;" d="M275 295C279.007 291.024 280.985 286.194 283 281C276.64 282.375 275.505 289.214 275 295z"/>
<path style="fill:#808080; stroke:none;" d="M715 283L716 284L715 283z"/>
<path style="fill:#005555; stroke:none;" d="M333 284L334 285L333 284M844 285L845 286L844 285z"/>
<path style="fill:#9cc3e2; stroke:none;" d="M331 286C321.8 298.808 313.936 311.714 307.22 326C304.387 332.026 300.685 338.313 300 345C311.008 334.174 320.667 317.938 327.218 304C329.604 298.925 332.714 291.575 331 286z"/>
<path style="fill:#000000; stroke:none;" d="M702.667 287.333C702.222 287.778 703.278 287.722 703.333 287.667C703.778 287.222 702.722 287.278 702.667 287.333z"/>
<path style="fill:#758fab; stroke:none;" d="M329 288L330 289L329 288z"/>
<path style="fill:#55aaaa; stroke:none;" d="M331 289L332 290L331 289z"/>
<path style="fill:#005555; stroke:none;" d="M263 290L264 291L263 290z"/>
<path style="fill:#7893b0; stroke:none;" d="M310 292L311 293L310 292z"/>
<path style="fill:#808080; stroke:none;" d="M276 293L277 294L276 293z"/>
<path style="fill:#55aaaa; stroke:none;" d="M751.667 293.333C751.222 293.778 752.278 293.722 752.333 293.667C752.778 293.222 751.722 293.278 751.667 293.333z"/>
<path style="fill:#000000; stroke:none;" d="M274 295L275 296L274 295z"/>
<path style="fill:#7694ae; stroke:none;" d="M273 297L274 298L273 297z"/>
<path style="fill:#7d9ab8; stroke:none;" d="M272.333 299.667C272.278 299.722 272.222 300.778 272.667 300.333C272.722 300.278 272.778 299.222 272.333 299.667z"/>
<path style="fill:#55aaaa; stroke:none;" d="M740 300L741 301L740 300z"/>
<path style="fill:#7d9ab8; stroke:none;" d="M271.333 303.667C271.278 303.722 271.222 304.778 271.667 304.333C271.722 304.278 271.778 303.222 271.333 303.667z"/>
<path style="fill:#53627d; stroke:none;" d="M395 304C397.321 317.011 407.734 322.643 420 323.83C438.368 325.608 457.857 321.178 476 324.808C481.536 325.915 485.964 328.65 491 331C487.789 321.556 478.168 317.831 469 316.286C458.018 314.434 446.115 314.328 435 315.089C428.299 315.548 420.663 317.612 414 316.518C405.61 315.141 401.032 309.216 395 304z"/>
<path style="fill:#808080; stroke:none;" d="M326 305L327 306L326 305z"/>
<path style="fill:#7d9ab8; stroke:none;" d="M270.333 307.667C270.278 307.722 270.222 308.778 270.667 308.333C270.722 308.278 270.778 307.222 270.333 307.667z"/>
<path style="fill:#7994b1; stroke:none;" d="M269.333 311.667C269.278 311.722 269.222 312.778 269.667 312.333C269.722 312.278 269.778 311.222 269.333 311.667z"/>
<path style="fill:#005555; stroke:none;" d="M756 311L757 312L756 311M715 313L716 314L715 313z"/>
<path style="fill:#55aaaa; stroke:none;" d="M296 314L297 315L296 314z"/>
<path style="fill:#000000; stroke:none;" d="M289 324C291.947 321.383 294.05 318.421 296 315C291.62 316.819 290.443 319.648 289 324z"/>
<path style="fill:#82a2c0; stroke:none;" d="M268.333 316.667C268.278 316.722 268.222 317.778 268.667 317.333C268.722 317.278 268.778 316.222 268.333 316.667z"/>
<path style="fill:#55aaaa; stroke:none;" d="M844 316L845 317L844 316z"/>
<path style="fill:#808080; stroke:none;" d="M290 319L291 320L290 319z"/>
<path style="fill:#7c98b6; stroke:none;" d="M267.333 320.667C267.278 320.722 267.222 321.778 267.667 321.333C267.722 321.278 267.778 320.222 267.333 320.667z"/>
<path style="fill:#808080; stroke:none;" d="M289 322L290 323L289 322z"/>
<path style="fill:#7893af; stroke:none;" d="M782 322L783 323L782 322z"/>
<path style="fill:#55aaaa; stroke:none;" d="M313 326L314 327L313 326z"/>
<path style="fill:#7a96b3; stroke:none;" d="M787 326L788 327L787 326z"/>
<path style="fill:#53627d; stroke:none;" d="M604 346C613.309 344.195 623.463 341.483 633 342.09C655.298 343.51 677.523 351.483 700 348.424C714.415 346.461 725.882 341.762 731 327C726.738 329.04 723.926 332.788 719.996 335.39C715.597 338.304 710.213 339.359 705 339.625C695.161 340.128 684.713 337.67 675 336.271C660.706 334.211 647.4 332.733 633 334C624.005 334.791 609.048 337.746 604 346z"/>
<path style="fill:#7995b3; stroke:none;" d="M788 327L789 328L788 327z"/>
<path style="fill:#7691ae; stroke:none;" d="M792 332L793 333L792 332z"/>
<path style="fill:#005555; stroke:none;" d="M669 335L670 336L669 335z"/>
<path style="fill:#7c99b6; stroke:none;" d="M264.333 338.667C264.278 338.722 264.222 339.778 264.667 339.333C264.722 339.278 264.778 338.222 264.333 338.667z"/>
<path style="fill:#9cc3e2; stroke:none;" d="M393 388C390.513 391.524 388.077 395.496 388.279 399.999C388.483 404.559 391.127 408.328 396.004 406.823C405.252 403.968 413.006 394.282 421 389C416.733 394.662 411.676 399.403 412.048 406.999C412.201 410.133 413.235 413.725 417.044 413.623C422.942 413.466 428.462 406.159 433 403C432.389 405.068 432.053 406.83 432.015 409.005C431.67 428.678 452.835 410.682 460 405C463.053 413.657 468.633 407.358 473 403C476.635 399.373 481.398 395.694 483.682 391C486.496 385.218 485.643 376.973 479 375C481.306 370.06 485.339 356.811 475.981 356.253C470.249 355.912 463.712 361.221 459 364C460.092 359.41 461.393 348.297 453.981 348.478C449.197 348.594 444.862 352.619 441 355C441.511 353.268 441.947 351.81 441.922 349.975C441.723 335.208 425.722 348.814 420 352C419.998 348.815 420.865 343.013 417.566 341.083C414.736 339.426 411.266 342.2 409 343.671C401.941 348.256 392.295 353.725 387.742 361.004C385.639 364.367 386.233 368.27 385.486 372C384.031 379.268 382.144 389.604 393 388z"/>
<path style="fill:#005555; stroke:none;" d="M722 340L723 341L722 340z"/>
<path style="fill:#6b839f; stroke:none;" d="M263 343L263 346C263.696 344.446 263.696 344.554 263 343z"/>
<path style="fill:#005555; stroke:none;" d="M781 343L782 344L781 343z"/>
<path style="fill:#809fbb; stroke:none;" d="M299.333 344.667C299.278 344.722 299.222 345.778 299.667 345.333C299.723 345.277 299.777 344.223 299.333 344.667z"/>
<path style="fill:#7892af; stroke:none;" d="M798 344L799 345L798 344z"/>
<path style="fill:#677d98; stroke:none;" d="M287.333 345.667C287.278 345.722 287.222 346.778 287.667 346.333C287.722 346.278 287.778 345.222 287.333 345.667z"/>
<path style="fill:#83a2c0; stroke:none;" d="M263 346L263 349C263.696 347.446 263.696 347.554 263 346z"/>
<path style="fill:#000000; stroke:none;" d="M800 347L800 349C801.635 348.455 801.455 348.635 802 347L800 347z"/>
<path style="fill:#6a819d; stroke:none;" d="M286.333 348.667C286.278 348.722 286.222 349.778 286.667 349.333C286.722 349.278 286.778 348.222 286.333 348.667z"/>
<path style="fill:#005555; stroke:none;" d="M679 348L680 349L679 348z"/>
<path style="fill:#6a809d; stroke:none;" d="M262 352L262 355C262.696 353.446 262.696 353.554 262 352z"/>
<path style="fill:#005555; stroke:none;" d="M296 354L297 355L296 354z"/>
<path style="fill:#808080; stroke:none;" d="M394 354L395 355L394 354z"/>
<path style="fill:#000000; stroke:none;" d="M441 354L442 355L441 354z"/>
<path style="fill:#55aaaa; stroke:none;" d="M442 354L443 355L442 354z"/>
<path style="fill:#7088a5; stroke:none;" d="M801.333 354.667C801.278 354.722 801.222 355.778 801.667 355.333C801.722 355.278 801.778 354.222 801.333 354.667z"/>
<path style="fill:#82a2c0; stroke:none;" d="M262 355L262 358C262.696 356.446 262.696 356.554 262 355z"/>
<path style="fill:#6b839f; stroke:none;" d="M284.333 355.667C284.278 355.722 284.222 356.778 284.667 356.333C284.722 356.278 284.778 355.222 284.333 355.667z"/>
<path style="fill:#005555; stroke:none;" d="M295 357L296 358L295 357z"/>
<path style="fill:#7e9bb9; stroke:none;" d="M802.333 358.667C802.278 358.722 802.222 359.778 802.667 359.333C802.722 359.278 802.778 358.222 802.333 358.667z"/>
<path style="fill:#55aaaa; stroke:none;" d="M465 360L466 361L465 360z"/>
<path style="fill:#7792af; stroke:none;" d="M261 361L261 367C261.951 364.715 261.951 363.285 261 361z"/>
<path style="fill:#728ba8; stroke:none;" d="M282.333 362.667C282.278 362.722 282.222 363.778 282.667 363.333C282.722 363.278 282.778 362.222 282.333 362.667z"/>
<path style="fill:#8bb9d1; stroke:none;" d="M293.333 363.667C293.278 363.722 293.222 364.778 293.667 364.333C293.722 364.278 293.778 363.222 293.333 363.667z"/>
<path style="fill:#88a9c7; stroke:none;" d="M803 364L803 367C803.696 365.446 803.696 365.554 803 364z"/>
<path style="fill:#9cc1e1; stroke:none;" d="M292 365C290.63 370.989 288.821 376.9 288 383C291.32 378.562 294.178 370.339 292 365z"/>
<path style="fill:#6d85a1; stroke:none;" d="M281.333 366.667C281.278 366.722 281.222 367.778 281.667 367.333C281.722 367.278 281.778 366.222 281.333 366.667z"/>
<path style="fill:#6c839f; stroke:none;" d="M803 367L803 370C803.696 368.446 803.696 368.554 803 367z"/>
<path style="fill:#6e86a2; stroke:none;" d="M280.333 370.667C280.278 370.722 280.222 371.778 280.667 371.333C280.722 371.278 280.778 370.222 280.333 370.667z"/>
<path style="fill:#005555; stroke:none;" d="M789 372L790 373L789 372z"/>
<path style="fill:#6c83a0; stroke:none;" d="M260 373L260 380C261.059 377.466 261.059 375.534 260 373z"/>
<path style="fill:#9cc3e2; stroke:none;" d="M653 383C652.742 380.16 652.424 375.779 648.867 375.136C645.432 374.515 641.651 377.936 639 379.657C632.856 383.644 626.544 387.457 620 390.752C616.467 392.531 611.493 394.074 609.089 397.39C605.481 402.369 607.124 410.15 613 412C610.39 415.837 607.214 419.228 606.508 424C604.879 435.004 613.651 434.199 620 429C620.036 430.681 620.016 432.36 620.329 434.021C622.711 446.63 634.521 434.621 640 431C636.853 435.253 633.121 448.935 643.005 447.548C649.085 446.694 654.754 440.921 660 438C657.389 442.262 654.292 456.71 664.004 454.062C667.29 453.167 670.223 450.537 673 448.67C678.703 444.835 684.55 441.189 690 437C692.548 446.647 699.306 442.57 706 439.248C710.294 437.116 717.259 435.634 720.258 431.725C722.485 428.822 721.359 425.528 722.174 422.286C722.856 419.575 725.131 417.605 726.108 414.996C728.955 407.393 725.059 401.175 717 403C714.739 386.641 699.687 397.026 690 401C692.325 396.564 696.432 382.912 688.867 380.789C684.564 379.581 678.516 383.948 675 386C674.995 384.013 675.091 381.969 674.811 379.996C672.888 366.466 658.385 378.729 653 383z"/>
<path style="fill:#84a3c1; stroke:none;" d="M804 373L804 378C804.83 375.97 804.83 375.03 804 373z"/>
<path style="fill:#718aa7; stroke:none;" d="M279.333 374.667C279.278 374.722 279.222 375.778 279.667 375.333C279.722 375.278 279.778 374.222 279.333 374.667z"/>
<path style="fill:#7c99b6; stroke:none;" d="M289.333 374.667C289.278 374.722 289.222 375.778 289.667 375.333C289.722 375.278 289.778 374.222 289.333 374.667z"/>
<path style="fill:#000000; stroke:none;" d="M478 375L479 376L478 375z"/>
<path style="fill:#748eab; stroke:none;" d="M278.333 378.667C278.278 378.722 278.222 379.778 278.667 379.333C278.722 379.278 278.778 378.222 278.333 378.667z"/>
<path style="fill:#82a0be; stroke:none;" d="M288.333 378.667C288.278 378.722 288.222 379.778 288.667 379.333C288.722 379.278 288.778 378.222 288.333 378.667z"/>
<path style="fill:#808080; stroke:none;" d="M652 378L653 379L652 378z"/>
<path style="fill:#7089a5; stroke:none;" d="M804 378L804 386C805.161 383.23 805.161 380.77 804 378z"/>
<path style="fill:#808080; stroke:none;" d="M656 380L657 381L656 380z"/>
<path style="fill:#55aaaa; stroke:none;" d="M686 380L687 381L686 380z"/>
<path style="fill:#7f9cb9; stroke:none;" d="M287 382L287 385C287.696 383.446 287.696 383.554 287 382z"/>
<path style="fill:#6d84a1; stroke:none;" d="M277.333 383.667C277.278 383.722 277.222 384.778 277.667 384.333C277.722 384.278 277.778 383.222 277.333 383.667z"/>
<path style="fill:#005555; stroke:none;" d="M790 384L791 385L790 384z"/>
<path style="fill:#53627d; stroke:none;" d="M498 385C494.598 393.169 486.619 401.731 490.805 410.996C495.364 421.087 508.93 419.949 518 417.985C521.855 417.151 525.716 416.337 528 413C519.56 414.567 499.38 416.241 496.557 404.985C494.88 398.297 500.98 392.103 498 385z"/>
<path style="fill:#6f88a5; stroke:none;" d="M259 386L259 393C260.059 390.466 260.059 388.534 259 386z"/>
<path style="fill:#000000; stroke:none;" d="M423 386C421.814 387.186 421.472 387.584 421 389C422.548 387.738 422.808 387.806 423 386z"/>
<path style="fill:#005555; stroke:none;" d="M249 387L250 388L249 387z"/>
<path style="fill:#7d99b6; stroke:none;" d="M276.333 387.667C276.278 387.722 276.222 388.778 276.667 388.333C276.722 388.278 276.778 387.222 276.333 387.667z"/>
<path style="fill:#55aaaa; stroke:none;" d="M388 388L389 389L388 388z"/>
<path style="fill:#808080; stroke:none;" d="M419 389L420 390L419 389z"/>
<path style="fill:#000000; stroke:none;" d="M420 389L421 390L420 389z"/>
<path style="fill:#808080; stroke:none;" d="M484 389L485 390L484 389z"/>
<path style="fill:#6c839f; stroke:none;" d="M804 391L804 399C805.161 396.23 805.161 393.77 804 391z"/>
<path style="fill:#7d9ab8; stroke:none;" d="M275 392L275 395C275.696 393.446 275.696 393.554 275 392z"/>
<path style="fill:#55aaaa; stroke:none;" d="M610 395L611 396L610 395z"/>
<path style="fill:#808080; stroke:none;" d="M692 395L693 396L692 395z"/>
<path style="fill:#819fbd; stroke:none;" d="M274 397L274 400C274.696 398.446 274.696 398.554 274 397z"/>
<path style="fill:#7089a6; stroke:none;" d="M258 398L258 402C258.71 400.241 258.71 399.759 258 398z"/>
<path style="fill:#7893b0; stroke:none;" d="M804 399L804 408C805.256 405.006 805.256 401.994 804 399z"/>
<path style="fill:#000000; stroke:none;" d="M689 401L690 402L689 401z"/>
<path style="fill:#89aac8; stroke:none;" d="M258 402L258 406C258.71 404.241 258.71 403.759 258 402z"/>
<path style="fill:#55aaaa; stroke:none;" d="M433 402L434 403L433 402z"/>
<path style="fill:#82a1be; stroke:none;" d="M273 404L273 407C273.696 405.446 273.696 405.554 273 404z"/>
<path style="fill:#819ebc; stroke:none;" d="M846 404L846 412C847.161 409.23 847.161 406.77 846 404z"/>
<path style="fill:#808080; stroke:none;" d="M283 406L284 407L283 406M296 407L297 408L296 407M467 408L468 409L467 408z"/>
<path style="fill:#88a8c5; stroke:none;" d="M804 408L804 417C805.256 414.006 805.256 410.994 804 408z"/>
<path style="fill:#333366; stroke:none;" d="M352 409L352 411C353.635 410.455 353.455 410.635 354 409L352 409z"/>
<path style="fill:#55aaaa; stroke:none;" d="M424 409L425 410L424 409z"/>
<path style="fill:#808080; stroke:none;" d="M466 409L467 410L466 409z"/>
<path style="fill:#718aa7; stroke:none;" d="M257 410L257 417C258.059 414.466 258.059 412.534 257 410z"/>
<path style="fill:#7994b1; stroke:none;" d="M281 410L281 413C281.696 411.446 281.696 411.554 281 410z"/>
<path style="fill:#53627d; stroke:none;" d="M353 410C367.102 448.753 401.898 479.417 437 498.694C448.97 505.268 461.22 512.043 474 516.935C478.221 518.551 487.441 519.315 489.933 523.419C491.658 526.261 489.862 530.969 489.428 534C488.29 541.949 488.385 550.045 487.08 558C485.123 569.935 480.763 580.569 477.001 592C469.871 613.66 463 635.028 463 658C466.086 651.128 466.828 643.096 469.85 636C478.749 615.108 491.385 594.638 495.385 572C498.16 556.298 495.923 538.513 493 523C521.367 529.563 548.788 534.27 578 534.985C587.505 535.218 596.553 533.006 606 533C596.613 562.551 598.56 593.313 610 622C615.771 636.471 624 650.843 637 660C633.059 647.546 624.596 636.693 620.519 624C619.056 619.445 618.777 614.636 617.625 610C615.473 601.34 612.65 592.857 611.296 584C608.794 567.627 609 549.554 609 533C620.567 534.284 634.625 531.24 646 529.095C653.943 527.597 662.135 526.885 670 525.112C689.66 520.678 708.701 512.703 726 502.452C735.585 496.773 747.611 492.627 755 484C745.912 485.565 737.431 490.975 729 494.573C713.438 501.213 697.382 507.788 681 512.116C604.164 532.412 515.498 528.603 446 487.397C425.186 475.056 404.763 461.451 387 444.911C375.365 434.077 365.927 419.107 353 410z"/>
<path style="fill:#819fbd; stroke:none;" d="M272.333 411.667C272.278 411.722 272.222 412.778 272.667 412.333C272.722 412.278 272.778 411.222 272.333 411.667z"/>
<path style="fill:#55aaaa; stroke:none;" d="M412 411L413 412L412 411z"/>
<path style="fill:#000000; stroke:none;" d="M613 411L614 412L613 411z"/>
<path style="fill:#6e85a1; stroke:none;" d="M272 413L272 416C272.696 414.446 272.696 414.554 272 413z"/>
<path style="fill:#005555; stroke:none;" d="M528 413L529 414L528 413z"/>
<path style="fill:#55aaaa; stroke:none;" d="M612 413L613 414L612 413z"/>
<path style="fill:#808080; stroke:none;" d="M726 414L727 415L726 414z"/>
<path style="fill:#6d85a1; stroke:none;" d="M280.333 415.667C280.278 415.722 280.222 416.778 280.667 416.333C280.722 416.278 280.778 415.222 280.333 415.667z"/>
<path style="fill:#7995b3; stroke:none;" d="M845 416L845 421C845.83 418.97 845.83 418.03 845 416z"/>
<path style="fill:#82a1be; stroke:none;" d="M280 417L280 420C280.696 418.446 280.696 418.554 280 417z"/>
<path style="fill:#7f9dba; stroke:none;" d="M271 419L271 426C272.059 423.466 272.059 421.534 271 419z"/>
<path style="fill:#55aaaa; stroke:none;" d="M789 420L790 421L789 420z"/>
<path style="fill:#7e9bb9; stroke:none;" d="M279 423L279 427C279.71 425.24 279.71 424.759 279 423z"/>
<path style="fill:#84a4c1; stroke:none;" d="M256 424L256 429C256.83 426.969 256.83 426.031 256 424z"/>
<path style="fill:#000000; stroke:none;" d="M643 427L640 431C641.756 429.623 642.54 429.106 643 427z"/>
<path style="fill:#6e86a3; stroke:none;" d="M803 427L803 431C803.71 429.24 803.71 428.76 803 427z"/>
<path style="fill:#7894b1; stroke:none;" d="M278 431L278 435C278.71 433.24 278.71 432.759 278 431z"/>
<path style="fill:#7f9dbb; stroke:none;" d="M803 431L803 439C804.161 436.23 804.161 433.77 803 431z"/>
<path style="fill:#005555; stroke:none;" d="M843 431L844 432L843 431z"/>
<path style="fill:#6a819d; stroke:none;" d="M255 433L255 440C256.059 437.466 256.059 435.534 255 433z"/>
<path style="fill:#7994b1; stroke:none;" d="M270 433L270 438C270.83 435.97 270.83 435.031 270 433z"/>
<path style="fill:#fefefe; stroke:none;" d="M570 433.464C558.706 435.459 548.627 439.151 537 439.151C523.136 439.151 509.82 435.005 496 435C486.963 434.997 474.377 433.303 467.34 440.34C454.732 452.949 470.076 466.281 480 473.421C502.229 489.413 533.696 499.431 561 494.385C575.779 491.654 592.319 483.504 598.532 469C603.654 457.045 600.716 440.643 588 434.573C582.905 432.14 575.444 432.502 570 433.464z"/>
<path style="fill:#000000; stroke:none;" d="M842 433C837.985 442.594 830.891 450.963 828 461C831.293 462.788 833.096 464.78 835 468C839.664 461.455 840.048 450.777 841.6 443C842.286 439.565 843.295 436.317 842 433z"/>
<path style="fill:#ebebeb; stroke:none;" d="M488 434C489.769 434.779 491.036 434.912 493 435C491.231 434.221 489.964 434.088 488 434z"/>
<path style="fill:#aaaaaa; stroke:none;" d="M493 434L494 435L493 434z"/>
<path style="fill:#cccccc; stroke:none;" d="M565 434L566 435L565 434z"/>
<path style="fill:#8eb0ce; stroke:none;" d="M278 435L278 439C278.71 437.241 278.71 436.759 278 435z"/>
<path style="fill:#bfbfbf; stroke:none;" d="M478 435L479 436L478 435z"/>
<path style="fill:#808080; stroke:none;" d="M782 435L783 436L782 435M661 436L662 437L661 436z"/>
<path style="fill:#cccccc; stroke:none;" d="M517 437L518 438L517 437z"/>
<path style="fill:#000000; stroke:none;" d="M660 437L661 438L660 437z"/>
<path style="fill:#637793; stroke:none;" d="M270 438L270 444C270.951 441.715 270.951 440.285 270 438z"/>
<path style="fill:#aaaaaa; stroke:none;" d="M469 438L470 439L469 438z"/>
<path style="fill:#cccccc; stroke:none;" d="M593 438L594 439L593 438z"/>
<path style="fill:#808080; stroke:none;" d="M629 438L630 439L629 438z"/>
<path style="fill:#55aaaa; stroke:none;" d="M300 439L301 440L300 439z"/>
<path style="fill:#7792af; stroke:none;" d="M369 439L370 440L369 439z"/>
<path style="fill:#808080; stroke:none;" d="M536.667 439.333C536.222 439.778 537.278 439.722 537.333 439.667C537.778 439.222 536.722 439.278 536.667 439.333z"/>
<path style="fill:#cccccc; stroke:none;" d="M594 439L595 440L594 439z"/>
<path style="fill:#55aaaa; stroke:none;" d="M291 440L292 441L291 440M625 440L626 441L625 440z"/>
<path style="fill:#83a1bf; stroke:none;" d="M791 441L791 448C792.059 445.466 792.059 443.534 791 441z"/>
<path style="fill:#cccccc; stroke:none;" d="M465 442L466 443L465 442z"/>
<path style="fill:#808080; stroke:none;" d="M657 442L658 443L657 442z"/>
<path style="fill:#6b839f; stroke:none;" d="M277 443L277 448C277.83 445.97 277.83 445.031 277 443z"/>
<path style="fill:#7590ac; stroke:none;" d="M372 443L373 444L372 443z"/>
<path style="fill:#aaaaaa; stroke:none;" d="M597 443L598 444L597 443z"/>
<path style="fill:#005555; stroke:none;" d="M841 443L842 444L841 443z"/>
<path style="fill:#7691ae; stroke:none;" d="M802 444L802 447C802.696 445.446 802.696 445.554 802 444z"/>
<path style="fill:#aaaaaa; stroke:none;" d="M598 445L599 446L598 445z"/>
<path style="fill:#cccccc; stroke:none;" d="M463 446L464 447L463 446z"/>
<path style="fill:#7894b1; stroke:none;" d="M254 448L254 453C254.83 450.969 254.83 450.031 254 448z"/>
<path style="fill:#82a2c0; stroke:none;" d="M277 448L277 453C277.83 450.97 277.83 450.03 277 448z"/>
<path style="fill:#637793; stroke:none;" d="M791 448L791 454C791.951 451.715 791.951 450.285 791 448z"/>
<path style="fill:#8cadcb; stroke:none;" d="M269 449L269 464C270.74 459.852 270.74 453.148 269 449z"/>
<path style="fill:#808080; stroke:none;" d="M668 451L669 452L668 451z"/>
<path style="fill:#69809c; stroke:none;" d="M801 452L801 455C801.696 453.446 801.696 453.554 801 452z"/>
<path style="fill:#8baecb; stroke:none;" d="M254 453L254 457C254.71 455.241 254.71 454.76 254 453z"/>
<path style="fill:#7a95b2; stroke:none;" d="M380 453L381 454L380 453z"/>
<path style="fill:#86a7c4; stroke:none;" d="M801.333 455.667C801.278 455.722 801.222 456.778 801.667 456.333C801.722 456.278 801.778 455.222 801.333 455.667z"/>
<path style="fill:#89aac8; stroke:none;" d="M790 457L790 460C790.696 458.446 790.696 458.554 790 457z"/>
<path style="fill:#617692; stroke:none;" d="M790 460L790 464C790.71 462.24 790.71 461.759 790 460z"/>
<path style="fill:#6f87a3; stroke:none;" d="M800.333 460.667C800.278 460.722 800.222 461.778 800.667 461.333C800.722 461.278 800.778 460.222 800.333 460.667z"/>
<path style="fill:#82a1be; stroke:none;" d="M800 462L800 465C800.696 463.446 800.696 463.554 800 462z"/>
<path style="fill:#687f9a; stroke:none;" d="M276 463L276 473C277.346 469.793 277.346 466.207 276 463z"/>
<path style="fill:#819fbd; stroke:none;" d="M253 464L253 473C254.256 470.006 254.256 466.994 253 464M269 464L269 483C271.02 478.187 271.02 468.813 269 464z"/>
<path style="fill:#005555; stroke:none;" d="M410 464L411 465L410 464z"/>
<path style="fill:#cccccc; stroke:none;" d="M599 466L600 467L599 466z"/>
<path style="fill:#809ebc; stroke:none;" d="M789 467L789 470C789.696 468.446 789.696 468.554 789 467z"/>
<path style="fill:#6e85a1; stroke:none;" d="M799.333 467.667C799.278 467.722 799.222 468.778 799.667 468.333C799.722 468.278 799.778 467.222 799.333 467.667z"/>
<path style="fill:#7690ad; stroke:none;" d="M396 469L397 470L396 469z"/>
<path style="fill:#808080; stroke:none;" d="M779 469L780 470L779 469z"/>
<path style="fill:#85a5c2; stroke:none;" d="M799.333 469.667C799.278 469.722 799.222 470.778 799.667 470.333C799.722 470.278 799.778 469.222 799.333 469.667z"/>
<path style="fill:#55aaaa; stroke:none;" d="M780 471L781 472L780 471z"/>
<path style="fill:#738daa; stroke:none;" d="M835.333 471.667C835.278 471.722 835.222 472.778 835.667 472.333C835.722 472.278 835.778 471.222 835.333 471.667z"/>
<path style="fill:#8cadcc; stroke:none;" d="M253 473L253 481C254.161 478.23 254.161 475.77 253 473z"/>
<path style="fill:#7a96b3; stroke:none;" d="M276 473L276 485C277.512 481.396 277.512 476.604 276 473z"/>
<path style="fill:#819fbd; stroke:none;" d="M788 473L788 476C788.696 474.446 788.696 474.554 788 473z"/>
<path style="fill:#738ca9; stroke:none;" d="M798 473L798 476C798.696 474.446 798.696 474.554 798 473z"/>
<path style="fill:#bfbfbf; stroke:none;" d="M594 475L595 476L594 475z"/>
<path style="fill:#7089a5; stroke:none;" d="M834.333 475.667C834.278 475.722 834.222 476.778 834.667 476.333C834.722 476.278 834.778 475.222 834.333 475.667z"/>
<path style="fill:#718ba8; stroke:none;" d="M797 478L797 481C797.696 479.446 797.696 479.554 797 478z"/>
<path style="fill:#69809b; stroke:none;" d="M833.333 479.667C833.278 479.722 833.222 480.778 833.667 480.333C833.722 480.278 833.778 479.222 833.333 479.667z"/>
<path style="fill:#728ba8; stroke:none;" d="M787 480L787 483C787.696 481.446 787.696 481.554 787 480z"/>
<path style="fill:#808080; stroke:none;" d="M292 481L293 482L292 481z"/>
<path style="fill:#000000; stroke:none;" d="M293 481C291.287 485.541 290.316 490.327 289 495C292.695 494.533 296.265 494.031 300 494C298.127 489.501 296.116 484.761 293 481M409 481C412.732 488.311 417.461 493.899 426 494C422.571 488.348 414.57 484.437 409 481z"/>
<path style="fill:#808080; stroke:none;" d="M409 482L410 483L409 482z"/>
<path style="fill:#8bacca; stroke:none;" d="M269 483L269 499C270.812 494.681 270.812 487.319 269 483z"/>
<path style="fill:#bfbfbf; stroke:none;" d="M497 483L498 484L497 483z"/>
<path style="fill:#7690ad; stroke:none;" d="M796 483L796 486C796.696 484.446 796.696 484.554 796 483z"/>
<path style="fill:#005555; stroke:none;" d="M755 484L756 485L755 484z"/>
<path style="fill:#8caecc; stroke:none;" d="M276 485L276 496C277.431 492.59 277.431 488.41 276 485z"/>
<path style="fill:#aaaaaa; stroke:none;" d="M583 485L584 486L583 485z"/>
<path style="fill:#6e86a3; stroke:none;" d="M786.333 485.667C786.278 485.722 786.222 486.778 786.667 486.333C786.722 486.278 786.778 485.222 786.333 485.667z"/>
<path style="fill:#6d85a1; stroke:none;" d="M831.333 486.667C831.278 486.722 831.222 487.778 831.667 487.333C831.722 487.278 831.778 486.222 831.333 486.667z"/>
<path style="fill:#bfbfbf; stroke:none;" d="M507 487L508 488L507 487z"/>
<path style="fill:#cccccc; stroke:none;" d="M510 488L511 489L510 488z"/>
<path style="fill:#82a1be; stroke:none;" d="M795.333 488.667C795.278 488.722 795.222 489.778 795.667 489.333C795.722 489.278 795.778 488.222 795.333 488.667z"/>
<path style="fill:#bfbfbf; stroke:none;" d="M513 489L514 490L513 489z"/>
<path style="fill:#7893af; stroke:none;" d="M785.333 489.667C785.278 489.722 785.222 490.778 785.667 490.333C785.722 490.278 785.778 489.222 785.333 489.667z"/>
<path style="fill:#808080; stroke:none;" d="M516 490L517 491L516 490z"/>
<path style="fill:#aaaaaa; stroke:none;" d="M523 492L524 493L523 492z"/>
<path style="fill:#55aaaa; stroke:none;" d="M779 492L780 493L779 492z"/>
<path style="fill:#809ebb; stroke:none;" d="M794.333 492.667C794.278 492.722 794.222 493.778 794.667 493.333C794.722 493.278 794.778 492.222 794.333 492.667z"/>
<path style="fill:#808080; stroke:none;" d="M289 493L290 494L289 493z"/>
<path style="fill:#86a1bc; stroke:none;" d="M426.667 493.333C426.222 493.778 427.278 493.722 427.333 493.667C427.778 493.222 426.722 493.278 426.667 493.333z"/>
<path style="fill:#000000; stroke:none;" d="M738 496C739.693 497.062 741.04 497.52 743 498C743.562 496.199 743.824 494.878 744 493C741.778 493.81 740.01 494.739 738 496z"/>
<path style="fill:#677e9a; stroke:none;" d="M829.333 493.667C829.278 493.722 829.222 494.778 829.667 494.333C829.722 494.278 829.778 493.222 829.333 493.667z"/>
<path style="fill:#005555; stroke:none;" d="M729 494L730 495L729 494z"/>
<path style="fill:#6e86a3; stroke:none;" d="M784.333 494.667C784.278 494.722 784.222 495.778 784.667 495.333C784.722 495.278 784.778 494.222 784.333 494.667z"/>
<path style="fill:#7d9ab8; stroke:none;" d="M793.333 496.667C793.278 496.722 793.222 497.778 793.667 497.333C793.722 497.278 793.778 496.222 793.333 496.667z"/>
<path style="fill:#7088a5; stroke:none;" d="M828.333 496.667C828.278 496.722 828.222 497.778 828.667 497.333C828.722 497.278 828.778 496.222 828.333 496.667z"/>
<path style="fill:#6f87a4; stroke:none;" d="M783.333 498.667C783.278 498.722 783.222 499.778 783.667 499.333C783.722 499.278 783.778 498.222 783.333 498.667z"/>
<path style="fill:#6d84a1; stroke:none;" d="M782.333 502.667C782.278 502.722 782.222 503.778 782.667 503.333C782.722 503.278 782.778 502.222 782.333 502.667z"/>
<path style="fill:#84a3c0; stroke:none;" d="M791.333 503.667C791.278 503.722 791.222 504.778 791.667 504.333C791.722 504.278 791.778 503.222 791.333 503.667z"/>
<path style="fill:#000000; stroke:none;" d="M694 518C698.615 520.508 704.1 521.99 709 524C712.256 517.486 718.54 518.001 725 518L721 506C711.985 508.597 702.294 513.578 694 518z"/>
<path style="fill:#6a819d; stroke:none;" d="M781.333 506.667C781.278 506.722 781.222 507.778 781.667 507.333C781.722 507.278 781.778 506.222 781.333 506.667z"/>
<path style="fill:#677d99; stroke:none;" d="M825.333 506.667C825.278 506.722 825.222 507.778 825.667 507.333C825.722 507.278 825.778 506.222 825.333 506.667z"/>
<path style="fill:#6e86a3; stroke:none;" d="M270 507L270 516C271.256 513.006 271.256 509.994 270 507z"/>
<path style="fill:#6a819d; stroke:none;" d="M824.333 509.667C824.278 509.722 824.222 510.778 824.667 510.333C824.722 510.278 824.778 509.222 824.333 509.667z"/>
<path style="fill:#687e9a; stroke:none;" d="M780.333 510.667C780.278 510.722 780.222 511.778 780.667 511.333C780.722 511.278 780.778 510.222 780.333 510.667z"/>
<path style="fill:#809ebc; stroke:none;" d="M270 516L270 521C270.83 518.97 270.83 518.031 270 516z"/>
<path style="fill:#000000; stroke:none;" d="M472 516L473 517L472 516M473 517C475.7 519.886 478.486 522.186 482 524L483 520C479.718 518.547 476.553 517.524 473 517z"/>
<path style="fill:#55aaaa; stroke:none;" d="M474 518L475 519L474 518z"/>
<path style="fill:#9cc3e2; stroke:none;" d="M595 524L608 524C605.616 515.971 598.585 518.137 595 524z"/>
<path style="fill:#005555; stroke:none;" d="M834 519L835 520L834 519z"/>
<path style="fill:#69809c; stroke:none;" d="M777.333 520.667C777.278 520.722 777.222 521.778 777.667 521.333C777.722 521.278 777.778 520.222 777.333 520.667z"/>
<path style="fill:#55aaaa; stroke:none;" d="M596 521L597 522L596 521M709 521L710 522L709 521z"/>
<path style="fill:#000000; stroke:none;" d="M680 522C675.459 523.713 670.673 524.684 666 526C672.633 531.574 680.499 537.669 688 542C686.114 535.453 682.962 528.111 680 522z"/>
<path style="fill:#9cc3e2; stroke:none;" d="M493 523C497.161 539.081 499.36 558.736 495.076 575C487.521 603.678 467.833 628.316 464 658C460.672 648.169 463.272 638.686 466 629C463.157 629 459.105 628.322 456.634 630.028C451.82 633.35 450.892 640.642 445.907 644.185C434.506 652.289 419.587 657.667 407 663.742C391.861 671.047 375.74 677.063 360 682.95C344.816 688.629 328.484 694.943 316.039 705.616C309.01 711.644 303.641 719.635 298.127 727C277.665 754.326 265.608 785.369 253.576 817C244.572 840.67 233.724 863.643 224 887C224.627 880.047 227.694 872.771 229.576 866C233.189 852.999 236.639 839.957 240.424 827C242.064 821.387 244.418 815.837 245 810C241.068 815.196 238.675 822.142 235.753 828C227.794 843.959 221.2 860.284 218.439 878C217.493 884.073 217.542 891.618 221.005 896.956C222.933 899.927 226.23 902.337 229.787 900.499C237.124 896.709 237.018 881.952 239.356 875C246.174 854.724 257.518 835.494 266.306 816C285.492 773.44 304.153 727.759 348 705.109C365.71 695.96 385.725 692.809 405 688.576L433 682.576C437.792 681.525 443.982 679.248 448.907 679.757C452.935 680.173 454.654 684.952 456.424 688C460.791 695.516 465.508 702.774 470.333 710C489.279 738.367 511.481 763.239 526.752 794C531.708 803.982 535.867 820.504 550 818.814C565.078 817.011 579.129 801.815 590 792.424C609.954 775.186 631.747 754.908 643.73 731C651.405 715.686 654.953 697.061 655 680C667.184 685.689 679.962 692.044 691 699.771C698.543 705.051 705.096 711.779 712 717.845C726.396 730.495 739.635 743.578 752.285 758C765.555 773.129 778.339 788.831 788.935 806C799.306 822.805 801.139 842.488 806.721 861C808.298 866.227 811.717 877.368 818.042 878.458C827.671 880.117 828.141 864.966 827.985 859C827.808 852.199 824.255 847.222 822.101 841C820.071 835.135 819.399 828.872 817.302 823C814.793 815.976 810.777 809.48 807.139 803C797.686 786.163 787.009 769.862 776.025 754C760.672 731.83 744.859 710.744 723 694.478C707.19 682.715 688.497 675.995 671 667.247C660.096 661.795 649.201 656.222 642 646C652.013 654.513 664.773 657.591 677 661.667C684.82 664.273 692.831 667.794 701 669C692.698 660.625 680.339 656.078 670 650.742C663.412 647.341 657.007 642.427 650 639.972C643.366 637.648 635.958 639.181 630.015 634.581C624.418 630.249 623.288 623.839 620 618C618.94 621.81 621.116 626.298 622.355 630C625.953 640.753 632.563 649.703 637 660C630.363 653.363 623.803 646.94 618.698 639C598.544 607.65 594.654 568.879 606 534C602.087 534 594.966 532.631 591.652 535.028C589.103 536.871 588.511 541.178 587.71 544C584.999 553.553 584.996 563.161 585 573C585.011 602.757 597.036 634.465 616.428 656.999C621.77 663.207 629.178 666.727 634.682 672.518C639.3 677.377 636.086 687.172 635 693C643.924 685.624 648.917 672.859 652 662C653.333 674.198 646.288 687.833 640.2 698C624.308 724.541 599.282 742.663 579.59 766C572.428 774.488 567.469 784.408 560.61 792.996C558.381 795.788 554.968 799.614 551 799.199C546.619 798.741 542.979 794.048 540.286 791C533.671 783.515 526.53 776.567 520 769C503.132 749.454 486.234 729.583 472.003 708C462.396 693.429 453.397 676.672 452 659L454 659C455.105 671.572 464.86 683.46 472.45 693C484.84 708.573 498.621 722.92 511.576 738C520.1 747.924 528.263 760.432 539 768C536.767 760.247 532.269 752.972 528.28 746C517.333 726.864 502.826 709.6 489.627 692C484.25 684.83 479.097 677.581 474.319 670C472.328 666.842 469.056 663.037 468.384 659.286C467.853 656.318 470.206 653.426 471.576 650.999C474.513 645.795 477.139 640.379 479.742 635C487.863 618.214 494.703 600.512 497.576 582C499.826 567.497 500 552.66 500 538C500 531.2 501.155 524.335 493 523z"/>
<path style="fill:#49496d; stroke:none;" d="M585 523C586.506 523.683 587.315 523.826 589 524C587.494 523.317 586.685 523.174 585 523z"/>
<path style="fill:#005555; stroke:none;" d="M589 523C590.248 523.685 590.548 523.749 592 524C590.752 523.315 590.452 523.251 589 523z"/>
<path style="fill:#333366; stroke:none;" d="M592 523C593.248 523.685 593.549 523.749 595 524C593.752 523.315 593.452 523.251 592 523z"/>
<path style="fill:#88a8c6; stroke:none;" d="M276 524L276 532C277.161 529.23 277.161 526.77 276 524z"/>
<path style="fill:#7690ad; stroke:none;" d="M493.333 524.667C493.278 524.722 493.222 525.778 493.667 525.333C493.722 525.278 493.778 524.222 493.333 524.667z"/>
<path style="fill:#7e9cb9; stroke:none;" d="M490 525L490 528C490.696 526.446 490.696 526.554 490 525z"/>
<path style="fill:#000000; stroke:none;" d="M499 525C501.677 536.243 500.255 549.599 499.17 561C497.271 580.948 494.78 599.221 486.988 618C483.041 627.512 478.464 636.85 473.742 646C471.891 649.585 468.237 653.843 468.056 658C467.905 661.478 470.734 665.155 472.45 668C477.24 675.944 482.569 683.578 488.127 691C500.709 707.804 514.021 724.277 525.305 742C533.03 754.134 537.692 766.685 548 777C557.528 769.647 564.393 757.615 573.004 749.004C588.208 733.8 606.546 722.08 621.961 707.089C630.984 698.314 639.066 689.722 636.852 676.04C636.004 670.799 629.785 668.314 626 665.331C619.204 659.976 613.425 653.226 608.696 646C587.872 614.181 576.905 571.591 591 535C569.989 535 548.809 533.794 528 530.728C518.245 529.291 508.733 526.311 499 525z"/>
<path style="fill:#728ba8; stroke:none;" d="M271 526L271 531C271.83 528.969 271.83 528.031 271 526z"/>
<path style="fill:#808080; stroke:none;" d="M499 526L500 527L499 526z"/>
<path style="fill:#7792af; stroke:none;" d="M660.667 526.333C660.222 526.778 661.278 526.722 661.333 526.667C661.778 526.222 660.722 526.278 660.667 526.333z"/>
<path style="fill:#758fab; stroke:none;" d="M655 527C656.248 527.685 656.548 527.749 658 528C656.752 527.315 656.452 527.251 655 527z"/>
<path style="fill:#6d84a1; stroke:none;" d="M649 528C650.248 528.685 650.548 528.749 652 529C650.752 528.315 650.451 528.251 649 528z"/>
<path style="fill:#000000; stroke:none;" d="M760 528L761 532C762.081 530.542 762.436 529.752 763 528L760 528z"/>
<path style="fill:#69809c; stroke:none;" d="M818.333 528.667C818.278 528.722 818.222 529.778 818.667 529.333C818.722 529.278 818.778 528.222 818.333 528.667z"/>
<path style="fill:#7f9dbb; stroke:none;" d="M494 529L494 532C494.696 530.446 494.696 530.554 494 529z"/>
<path style="fill:#6e86a3; stroke:none;" d="M643.667 529.333C643.222 529.778 644.278 529.722 644.333 529.667C644.778 529.222 643.722 529.278 643.667 529.333z"/>
<path style="fill:#84a4c1; stroke:none;" d="M645.667 529.333C645.222 529.778 646.278 529.722 646.333 529.667C646.778 529.222 645.722 529.278 645.667 529.333z"/>
<path style="fill:#7d9ab8; stroke:none;" d="M628 531C629.506 531.683 630.315 531.826 632 532C630.494 531.317 629.685 531.174 628 531z"/>
<path style="fill:#8db0ce; stroke:none;" d="M632 531C633.506 531.683 634.315 531.826 636 532C634.494 531.317 633.685 531.174 632 531z"/>
<path style="fill:#000000; stroke:none;" d="M636 531C637.663 532.503 638.896 533.199 641 534C639.461 531.821 638.645 531.427 636 531z"/>
<path style="fill:#637894; stroke:none;" d="M276 532L276 537C276.83 534.969 276.83 534.03 276 532z"/>
<path style="fill:#809fbd; stroke:none;" d="M489.333 532.667C489.278 532.722 489.222 533.778 489.667 533.333C489.722 533.278 489.778 532.222 489.333 532.667z"/>
<path style="fill:#7691ae; stroke:none;" d="M618 532C619.769 532.779 621.036 532.912 623 533C621.231 532.221 619.964 532.088 618 532z"/>
<path style="fill:#808080; stroke:none;" d="M640 532L641 533L640 532z"/>
<path style="fill:#5d6f8b; stroke:none;" d="M596 533C599.163 534.327 602.586 534 606 534C602.837 532.673 599.414 533 596 533z"/>
<path style="fill:#7994b2; stroke:none;" d="M609 533L609 536C610.016 534.861 610.309 534.388 611 533L609 533z"/>
<path style="fill:#677d99; stroke:none;" d="M773.333 533.667C773.278 533.722 773.222 534.778 773.667 534.333C773.722 534.278 773.778 533.222 773.333 533.667z"/>
<path style="fill:#000000; stroke:none;" d="M611 535C610.72 548.564 609.276 561.356 611 575C622.179 574.337 629.684 579.029 640 582C635.984 573.51 630.075 565.914 625.053 558C620.259 550.446 616.083 542.332 611 535z"/>
<path style="fill:#6a819e; stroke:none;" d="M272 536L272 539C272.696 537.446 272.696 537.554 272 536z"/>
<path style="fill:#718ba8; stroke:none;" d="M495 536L495 540C495.71 538.241 495.71 537.759 495 536z"/>
<path style="fill:#90b4d3; stroke:none;" d="M609 536L609 545C610.256 542.006 610.256 538.994 609 536z"/>
<path style="fill:#6a809d; stroke:none;" d="M772.333 536.667C772.278 536.722 772.222 537.778 772.667 537.333C772.722 537.278 772.778 536.222 772.333 536.667z"/>
<path style="fill:#6a819d; stroke:none;" d="M815.333 538.667C815.278 538.722 815.222 539.778 815.667 539.333C815.722 539.278 815.778 538.222 815.333 538.667z"/>
<path style="fill:#89a9c7; stroke:none;" d="M272.333 539.667C272.278 539.722 272.222 540.778 272.667 540.333C272.722 540.278 272.778 539.222 272.333 539.667z"/>
<path style="fill:#6c83a0; stroke:none;" d="M771.333 539.667C771.278 539.722 771.222 540.778 771.667 540.333C771.722 540.278 771.778 539.222 771.333 539.667z"/>
<path style="fill:#7e9bb8; stroke:none;" d="M277 540L277 547C278.059 544.466 278.059 542.534 277 540z"/>
<path style="fill:#86a6c4; stroke:none;" d="M488 540L488 543C488.696 541.446 488.696 541.554 488 540z"/>
<path style="fill:#808080; stroke:none;" d="M685 540L686 541L685 540M588 541L589 542L588 541z"/>
<path style="fill:#6a819d; stroke:none;" d="M603.333 541.667C603.278 541.722 603.222 542.778 603.667 542.333C603.722 542.278 603.778 541.222 603.333 541.667z"/>
<path style="fill:#000000; stroke:none;" d="M688 542L689 543L688 542z"/>
<path style="fill:#6a819d; stroke:none;" d="M273.333 543.667C273.278 543.722 273.222 544.778 273.667 544.333C273.722 544.278 273.778 543.222 273.333 543.667z"/>
<path style="fill:#6f87a4; stroke:none;" d="M488 543L488 546C488.696 544.446 488.696 544.554 488 543z"/>
<path style="fill:#82a1be; stroke:none;" d="M273.333 545.667C273.278 545.722 273.222 546.778 273.667 546.333C273.722 546.278 273.778 545.222 273.333 545.667z"/>
<path style="fill:#7d9ab7; stroke:none;" d="M496 545L496 550C496.83 547.969 496.83 547.031 496 545z"/>
<path style="fill:#69809b; stroke:none;" d="M602.333 545.667C602.278 545.722 602.222 546.778 602.667 546.333C602.722 546.278 602.778 545.222 602.333 545.667z"/>
<path style="fill:#005555; stroke:none;" d="M826 545L827 546L826 545z"/>
<path style="fill:#000000; stroke:none;" d="M476 547C476.995 549.65 479.627 553.066 479.119 555.985C477.771 563.736 465.828 563.996 460 564C463.894 570.834 470.062 582.204 477 586C479.954 573.081 481.999 560.299 482 547L476 547z"/>
<path style="fill:#748eab; stroke:none;" d="M601.333 549.667C601.278 549.722 601.222 550.778 601.667 550.333C601.722 550.278 601.778 549.222 601.333 549.667z"/>
<path style="fill:#55aaaa; stroke:none;" d="M811 549L812 550L811 549z"/>
<path style="fill:#7690ad; stroke:none;" d="M274 550L274 553C274.696 551.446 274.696 551.554 274 550z"/>
<path style="fill:#7a95b2; stroke:none;" d="M487 550L487 556C487.951 553.715 487.951 552.285 487 550z"/>
<path style="fill:#5e718c; stroke:none;" d="M496 550L496 564C497.667 560.028 497.667 553.972 496 550z"/>
<path style="fill:#000000; stroke:none;" d="M811 550L812 551L811 550z"/>
<path style="fill:#6e86a3; stroke:none;" d="M278 553L278 556C278.696 554.446 278.696 554.554 278 553z"/>
<path style="fill:#82a0be; stroke:none;" d="M600.333 554.667C600.278 554.722 600.222 555.778 600.667 555.333C600.722 555.278 600.778 554.222 600.333 554.667z"/>
<path style="fill:#6e85a1; stroke:none;" d="M275 555L275 558C275.696 556.446 275.696 556.554 275 555z"/>
<path style="fill:#6f87a4; stroke:none;" d="M600 556L600 559C600.696 557.446 600.696 557.554 600 556z"/>
<path style="fill:#55aaaa; stroke:none;" d="M624 557L625 558L624 557z"/>
<path style="fill:#82a0be; stroke:none;" d="M279 559L279 562C279.696 560.446 279.696 560.554 279 559z"/>
<path style="fill:#000000; stroke:none;" d="M271 560C271.18 564.122 272.17 567.974 273 572C274.366 568.182 272.876 563.503 271 560z"/>
<path style="fill:#7c99b6; stroke:none;" d="M486.333 560.667C486.278 560.722 486.222 561.778 486.667 561.333C486.722 561.278 486.778 560.222 486.333 560.667z"/>
<path style="fill:#7691ae; stroke:none;" d="M276 561L276 564C276.696 562.446 276.696 562.554 276 561z"/>
<path style="fill:#667c99; stroke:none;" d="M279 562L279 565C279.696 563.446 279.696 563.554 279 562z"/>
<path style="fill:#728ca8; stroke:none;" d="M599 562L599 581C601.02 576.187 601.02 566.813 599 562z"/>
<path style="fill:#808080; stroke:none;" d="M469 563L470 564L469 563z"/>
<path style="fill:#7792af; stroke:none;" d="M496 564L496 567C496.696 565.446 496.696 565.554 496 564z"/>
<path style="fill:#667c99; stroke:none;" d="M763.333 564.667C763.278 564.722 763.222 565.778 763.667 565.333C763.722 565.278 763.778 564.222 763.333 564.667z"/>
<path style="fill:#7792af; stroke:none;" d="M277 566L277 569C277.696 567.446 277.696 567.554 277 566z"/>
<path style="fill:#6a819d; stroke:none;" d="M485.333 566.667C485.278 566.722 485.222 567.778 485.667 567.333C485.722 567.278 485.778 566.222 485.333 566.667z"/>
<path style="fill:#7f9dba; stroke:none;" d="M280 567L280 570C280.696 568.446 280.696 568.554 280 567z"/>
<path style="fill:#697f9c; stroke:none;" d="M762.333 567.667C762.278 567.722 762.222 568.778 762.667 568.333C762.722 568.278 762.778 567.222 762.333 567.667z"/>
<path style="fill:#687e9a; stroke:none;" d="M484.333 570.667C484.278 570.722 484.222 571.778 484.667 571.333C484.722 571.278 484.778 570.222 484.333 570.667z"/>
<path style="fill:#005555; stroke:none;" d="M806 570L807 571L806 570z"/>
<path style="fill:#7f9dba; stroke:none;" d="M278.333 571.667C278.278 571.722 278.222 572.778 278.667 572.333C278.722 572.278 278.778 571.222 278.333 571.667z"/>
<path style="fill:#748eac; stroke:none;" d="M495 571L495 574C495.696 572.446 495.696 572.554 495 571z"/>
<path style="fill:#808080; stroke:none;" d="M274 572L275 573L274 572z"/>
<path style="fill:#000000; stroke:none;" d="M274 573L274 576C274.696 574.446 274.696 574.554 274 573z"/>
<path style="fill:#7c98b6; stroke:none;" d="M281.333 574.667C281.278 574.722 281.222 575.778 281.667 575.333C281.722 575.278 281.778 574.222 281.333 574.667z"/>
<path style="fill:#55aaaa; stroke:none;" d="M635 574L636 575L635 574z"/>
<path style="fill:#7d99b6; stroke:none;" d="M279.333 575.667C279.278 575.722 279.222 576.778 279.667 576.333C279.722 576.278 279.778 575.222 279.333 575.667z"/>
<path style="fill:#7f9cba; stroke:none;" d="M610 575L610 578C610.696 576.446 610.696 576.554 610 575z"/>
<path style="fill:#55aaaa; stroke:none;" d="M623 575L624 576L623 575z"/>
<path style="fill:#7e9cb9; stroke:none;" d="M494.333 576.667C494.278 576.722 494.222 577.778 494.667 577.333C494.722 577.278 494.778 576.222 494.333 576.667z"/>
<path style="fill:#808080; stroke:none;" d="M626 576L627 577L626 576z"/>
<path style="fill:#000000; stroke:none;" d="M254 578L254 582C254.71 580.24 254.71 579.76 254 578z"/>
<path style="fill:#84a3c1; stroke:none;" d="M280.333 579.667C280.278 579.722 280.222 580.778 280.667 580.333C280.722 580.278 280.778 579.222 280.333 579.667z"/>
<path style="fill:#82a1bf; stroke:none;" d="M282.333 580.667C282.278 580.722 282.222 581.778 282.667 581.333C282.722 581.278 282.778 580.222 282.333 580.667z"/>
<path style="fill:#55aaaa; stroke:none;" d="M585 582L586 583L585 582z"/>
<path style="fill:#000000; stroke:none;" d="M640 582L641 583L640 582z"/>
<path style="fill:#758fab; stroke:none;" d="M611 583L611 586C611.696 584.446 611.696 584.554 611 583z"/>
<path style="fill:#809ebb; stroke:none;" d="M283 586L283 589C283.696 587.446 283.696 587.554 283 586z"/>
<path style="fill:#808080; stroke:none;" d="M475.667 586.333C475.222 586.778 476.278 586.722 476.333 586.667C476.778 586.222 475.722 586.278 475.667 586.333z"/>
<path style="fill:#6d84a1; stroke:none;" d="M600.333 586.667C600.278 586.722 600.222 587.778 600.667 587.333C600.722 587.278 600.778 586.222 600.333 586.667z"/>
<path style="fill:#55aaaa; stroke:none;" d="M792 586L793 587L792 586z"/>
<path style="fill:#000000; stroke:none;" d="M432 587C434.27 591.093 439.23 596.619 438.898 601.572C438.686 604.731 435.612 606.84 432.995 608.03C426.605 610.938 418.404 610.52 412 607.867C404.214 604.64 399.402 596.84 392 593C392.618 595.704 394.174 599.137 393.303 601.907C390.407 611.118 374.99 609.298 368 608C372.853 611.668 380.88 614.096 387 613.791C393.285 613.478 399.694 611.233 406 612.329C412.077 613.385 417.355 617.267 423 619.547C430.681 622.649 438.781 623.8 447 624.015C450.476 624.105 455.458 625.931 458.61 623.968C463.359 621.011 466.423 610.941 468.691 606C470.765 601.483 473.126 596.902 474 592C463.531 597.478 453.992 597.755 443 593.046C439.12 591.383 435.889 588.635 432 587z"/>
<path style="fill:#85a4c3; stroke:none;" d="M600.333 588.667C600.278 588.722 600.222 589.778 600.667 589.333C600.722 589.278 600.778 588.222 600.333 588.667z"/>
<path style="fill:#7690ad; stroke:none;" d="M612.333 588.667C612.278 588.722 612.222 589.778 612.667 589.333C612.722 589.278 612.778 588.222 612.333 588.667z"/>
<path style="fill:#000000; stroke:none;" d="M745 588L746 589L745 588z"/>
<path style="fill:#808080; stroke:none;" d="M791 588L792 589L791 588z"/>
<path style="fill:#000000; stroke:none;" d="M746 589C747.676 593.026 749.79 596.799 751 601C752.88 597.922 753.52 594.558 754 591C751.327 590.149 748.774 589.41 746 589z"/>
<path style="fill:#667b98; stroke:none;" d="M755.333 589.667C755.278 589.722 755.222 590.778 755.667 590.333C755.722 590.278 755.778 589.222 755.333 589.667z"/>
<path style="fill:#55aaaa; stroke:none;" d="M329 591L330 592L329 591z"/>
<path style="fill:#000000; stroke:none;" d="M474 591L475 592L474 591z"/>
<path style="fill:#808080; stroke:none;" d="M708 591L709 592L708 591z"/>
<path style="fill:#53627d; stroke:none;" d="M293 592C293.918 596.434 295.223 600.71 296.667 605C297.698 608.062 298.715 611.197 300.363 613.996C311.133 632.282 330.315 612.456 345 615.519C355.916 617.795 364.892 625.533 376 627.536C385.611 629.268 394.649 625.765 404 626.275C412.106 626.716 419.608 631.59 428 631.961C440.679 632.521 452.553 628.265 465 628C457.653 622.766 446.527 624.639 438 623.246C426.868 621.427 417.764 614.216 407 612.329C398.629 610.861 390.319 614.753 382 613.188C368.755 610.697 357.849 601.008 344 601.008C337.063 601.008 330.123 603.116 324 606.32C320.34 608.236 315.434 612.493 311 611.292C302.891 609.095 299.189 597.039 293 592z"/>
<path style="fill:#000000; stroke:none;" d="M391 592L392 593L391 592z"/>
<path style="fill:#55aaaa; stroke:none;" d="M435 592L436 593L435 592z"/>
<path style="fill:#6f87a4; stroke:none;" d="M601 592L601 595C601.696 593.446 601.696 593.554 601 592z"/>
<path style="fill:#000000; stroke:none;" d="M709 592C714.843 602.495 725.908 611.566 727 624C734.669 624.064 741.457 627.342 749 628C747.111 621.279 747.463 616.722 749 610C731.369 614.198 722.832 599.138 709 592z"/>
<path style="fill:#55aaaa; stroke:none;" d="M710 592L711 593L710 592z"/>
<path style="fill:#000000; stroke:none;" d="M758 592L759 593L758 592z"/>
<path style="fill:#808080; stroke:none;" d="M393 593L394 594L393 593M443 593L444 594L443 593z"/>
<path style="fill:#758fab; stroke:none;" d="M613.333 593.667C613.278 593.722 613.222 594.778 613.667 594.333C613.722 594.278 613.778 593.222 613.333 593.667z"/>
<path style="fill:#000000; stroke:none;" d="M757.333 593.667C757.278 593.722 757.222 594.778 757.667 594.333C757.722 594.278 757.778 593.222 757.333 593.667z"/>
<path style="fill:#005555; stroke:none;" d="M753 594L754 595L753 594M296 595L297 596L296 595z"/>
<path style="fill:#808080; stroke:none;" d="M352 595L353 596L352 595z"/>
<path style="fill:#000000; stroke:none;" d="M756.333 595.667C756.277 595.722 756.222 596.778 756.667 596.333C756.722 596.278 756.778 595.222 756.333 595.667z"/>
<path style="fill:#808080; stroke:none;" d="M587 596L588 597L587 596z"/>
<path style="fill:#7691ae; stroke:none;" d="M602.333 597.667C602.278 597.722 602.222 598.778 602.667 598.333C602.722 598.278 602.778 597.222 602.333 597.667z"/>
<path style="fill:#000000; stroke:none;" d="M755.333 597.667C755.278 597.722 755.222 598.778 755.667 598.333C755.722 598.278 755.778 597.222 755.333 597.667z"/>
<path style="fill:#718aa7; stroke:none;" d="M614.333 598.667C614.278 598.722 614.222 599.778 614.667 599.333C614.722 599.278 614.778 598.222 614.333 598.667z"/>
<path style="fill:#808080; stroke:none;" d="M493 599L494 600L493 599z"/>
<path style="fill:#687e9a; stroke:none;" d="M474.333 600.667C474.278 600.722 474.222 601.778 474.667 601.333C474.722 601.278 474.778 600.222 474.333 600.667z"/>
<path style="fill:#000000; stroke:none;" d="M754 600L755 601L754 600z"/>
<path style="fill:#55aaaa; stroke:none;" d="M470 601L471 602L470 601z"/>
<path style="fill:#647995; stroke:none;" d="M751 601L751 605C751.71 603.24 751.71 602.76 751 601z"/>
<path style="fill:#808080; stroke:none;" d="M722 602L723 603L722 602z"/>
<path style="fill:#000000; stroke:none;" d="M753 602L754 603L753 602z"/>
<path style="fill:#808080; stroke:none;" d="M393 603L394 604L393 603z"/>
<path style="fill:#6e86a2; stroke:none;" d="M473.333 603.667C473.278 603.722 473.222 604.778 473.667 604.333C473.722 604.278 473.778 603.222 473.333 603.667z"/>
<path style="fill:#000000; stroke:none;" d="M752 604L753 605L752 604z"/>
<path style="fill:#86a6c4; stroke:none;" d="M604.333 605.667C604.278 605.722 604.222 606.778 604.667 606.333C604.722 606.278 604.778 605.222 604.333 605.667z"/>
<path style="fill:#000000; stroke:none;" d="M616 605L617 606L616 605M364 606L365 607L364 606z"/>
<path style="fill:#55aaaa; stroke:none;" d="M408 606L409 607L408 606z"/>
<path style="fill:#000000; stroke:none;" d="M617 606C617.432 611.282 618.852 616.166 621 621C622.195 620.402 621.977 620.534 623 619C628.36 630.263 635.048 630.259 646 628C641.732 625.602 636.979 624.5 633 621.468C627.062 616.942 622.763 610.647 617 606M366 607L367 608L366 607z"/>
<path style="fill:#7f9dba; stroke:none;" d="M605.333 608.667C605.278 608.722 605.222 609.778 605.667 609.333C605.722 609.278 605.778 608.222 605.333 608.667z"/>
<path style="fill:#55aaaa; stroke:none;" d="M731 608L732 609L731 608z"/>
<path style="fill:#005555; stroke:none;" d="M378 612L379 613L378 612M345 615L346 616L345 615z"/>
<path style="fill:#808080; stroke:none;" d="M747 615L748 616L747 615z"/>
<path style="fill:#69809c; stroke:none;" d="M469.333 616.667C469.278 616.722 469.222 617.778 469.667 617.333C469.722 617.278 469.778 616.222 469.333 616.667z"/>
<path style="fill:#000000; stroke:none;" d="M693 618L694 619L693 618z"/>
<path style="fill:#53627d; stroke:none;" d="M622 619C622.279 621.794 622.874 624.353 623.853 627C630.862 645.952 652.174 634.089 666 634.499C670.348 634.628 674.233 637.52 678 639.398C683.697 642.24 689.591 644.472 696 644.911C708.473 645.765 716.62 637.742 728 634.942C734.207 633.415 741.579 635.244 748 634.961C754.798 634.66 761.413 632.506 768 631C763.305 629.03 757.964 630.576 753 629.74C744.23 628.262 736.162 623.205 727 624.287C717.095 625.456 708.044 630.984 698 630.971C687.247 630.957 678.868 622.096 668 622.079C659.944 622.066 652.568 625.478 645 627.706C641.305 628.794 636.84 630.621 633.001 629.243C628.156 627.504 625.618 622.304 622 619z"/>
<path style="fill:#000000; stroke:none;" d="M694 619L698 631C702.193 630.913 705.972 630.132 710 629L694 619z"/>
<path style="fill:#55aaaa; stroke:none;" d="M595 621L596 622L595 621z"/>
<path style="fill:#6e86a2; stroke:none;" d="M662.667 622.333C662.222 622.778 663.278 622.722 663.333 622.667C663.778 622.222 662.722 622.278 662.667 622.333z"/>
<path style="fill:#7d99b6; stroke:none;" d="M672.667 622.333C672.223 622.777 673.278 622.722 673.333 622.667C673.778 622.222 672.722 622.278 672.667 622.333z"/>
<path style="fill:#808080; stroke:none;" d="M747 622L748 623L747 622z"/>
<path style="fill:#7089a5; stroke:none;" d="M620.333 623.667C620.278 623.722 620.222 624.778 620.667 624.333C620.722 624.278 620.778 623.222 620.333 623.667z"/>
<path style="fill:#005555; stroke:none;" d="M452 624L453 625L452 624z"/>
<path style="fill:#7a96b2; stroke:none;" d="M723 624C724.248 624.685 724.548 624.749 726 625C724.752 624.315 724.452 624.251 723 624z"/>
<path style="fill:#005555; stroke:none;" d="M734 624L735 625L734 624z"/>
<path style="fill:#87a7c5; stroke:none;" d="M623.333 625.667C623.278 625.722 623.222 626.778 623.667 626.333C623.722 626.278 623.778 625.222 623.333 625.667z"/>
<path style="fill:#005555; stroke:none;" d="M741 626L742 627L741 626z"/>
<path style="fill:#667b97; stroke:none;" d="M465 627L465 629C466.635 628.455 466.455 628.635 467 627L465 627z"/>
<path style="fill:#88a8c6; stroke:none;" d="M458 628C460.332 628.984 462.457 628.981 465 629C462.668 628.015 460.543 628.019 458 628z"/>
<path style="fill:#69829e; stroke:none;" d="M710.667 628.333C710.222 628.778 711.278 628.722 711.333 628.667C711.778 628.222 710.722 628.278 710.667 628.333z"/>
<path style="fill:#88a9c7; stroke:none;" d="M689.667 629.333C689.222 629.778 690.278 629.722 690.333 629.667C690.778 629.222 689.722 629.278 689.667 629.333z"/>
<path style="fill:#748eab; stroke:none;" d="M750.667 629.333C750.222 629.778 751.278 629.722 751.333 629.667C751.778 629.222 750.722 629.278 750.667 629.333z"/>
<path style="fill:#6f88a5; stroke:none;" d="M465.333 630.667C465.278 630.722 465.222 631.778 465.667 631.333C465.722 631.278 465.778 630.222 465.333 630.667z"/>
<path style="fill:#7e9cb9; stroke:none;" d="M692.667 630.333C692.222 630.778 693.278 630.722 693.333 630.667C693.778 630.222 692.722 630.278 692.667 630.333z"/>
<path style="fill:#005555; stroke:none;" d="M441 631L442 632L441 631z"/>
<path style="fill:#7691ae; stroke:none;" d="M757 633C758.248 633.685 758.549 633.749 760 634C758.752 633.315 758.452 633.251 757 633z"/>
<path style="fill:#55aaaa; stroke:none;" d="M453 634L454 635L453 634z"/>
<path style="fill:#728ba8; stroke:none;" d="M464.333 634.667C464.278 634.722 464.222 635.778 464.667 635.333C464.722 635.278 464.778 634.222 464.333 634.667z"/>
<path style="fill:#7995b3; stroke:none;" d="M752 634C753.248 634.685 753.548 634.749 755 635C753.752 634.315 753.452 634.251 752 634z"/>
<path style="fill:#005555; stroke:none;" d="M795 634L796 635L795 634z"/>
<path style="fill:#7690ad; stroke:none;" d="M617 637L618 638L617 637z"/>
<path style="fill:#7b97b4; stroke:none;" d="M635 637C636.248 637.685 636.548 637.749 638 638C636.752 637.315 636.452 637.251 635 637z"/>
<path style="fill:#7f9dba; stroke:none;" d="M463.333 638.667C463.278 638.722 463.222 639.778 463.667 639.333C463.722 639.278 463.778 638.222 463.333 638.667z"/>
<path style="fill:#6a809d; stroke:none;" d="M463.333 640.667C463.278 640.722 463.222 641.778 463.667 641.333C463.722 641.278 463.778 640.222 463.333 640.667z"/>
<path style="fill:#89abc8; stroke:none;" d="M467.333 641.667C467.278 641.722 467.222 642.778 467.667 642.333C467.722 642.278 467.778 641.222 467.333 641.667z"/>
<path style="fill:#53627d; stroke:none;" d="M225 883C229.196 878.813 231.002 872.437 233.201 867C236.854 857.968 240.655 848.984 244.424 840C259.387 804.343 270.89 767.115 293.025 735C300.287 724.464 307.965 712.888 318.001 704.808C340.289 686.863 370.966 679.5 397 668.576C414.44 661.257 430.581 651.252 448 644C441.299 641.603 429.37 646.865 423 649.424C409.193 654.972 394.152 658.615 380 663.333C361.525 669.493 343.503 675.062 326 683.752C319.333 687.062 312.829 689.686 307 694.464C295.42 703.957 286.652 717.272 279 730C260.886 760.129 251.229 791.669 241.231 825C237.645 836.955 234.476 848.994 231.091 861C229.058 868.211 226.107 875.612 225 883z"/>
<path style="fill:#000000; stroke:none;" d="M446 644L447 645L446 644z"/>
<path style="fill:#82a2c0; stroke:none;" d="M462 644L462 653C463.256 650.006 463.256 646.994 462 644z"/>
<path style="fill:#87a6c4; stroke:none;" d="M466.333 644.667C466.278 644.722 466.222 645.778 466.667 645.333C466.722 645.278 466.778 644.222 466.333 644.667z"/>
<path style="fill:#7a96b3; stroke:none;" d="M642 646C642.684 647.58 642.805 647.777 644 649C643.316 647.42 643.195 647.223 642 646z"/>
<path style="fill:#758fab; stroke:none;" d="M624 647L625 648L624 647z"/>
<path style="fill:#7a96b2; stroke:none;" d="M630 647L631 648L630 647z"/>
<path style="fill:#88a8c5; stroke:none;" d="M465.333 648.667C465.278 648.722 465.222 649.778 465.667 649.333C465.722 649.278 465.778 648.222 465.333 648.667z"/>
<path style="fill:#667b97; stroke:none;" d="M644 648C644.994 650.203 644.67 650.048 647 650C645.861 648.985 645.388 648.691 644 648z"/>
<path style="fill:#808080; stroke:none;" d="M665 648L666 649L665 648z"/>
<path style="fill:#6f87a1; stroke:none;" d="M421 649C422.248 649.685 422.548 649.749 424 650C422.752 649.315 422.452 649.251 421 649z"/>
<path style="fill:#7996b3; stroke:none;" d="M416.333 650.667C416.278 650.722 416.222 651.778 416.667 651.333C416.722 651.278 416.778 650.222 416.333 650.667z"/>
<path style="fill:#8bafcd; stroke:none;" d="M417.667 650.333C417.222 650.778 418.278 650.722 418.333 650.667C418.778 650.222 417.722 650.278 417.667 650.333z"/>
<path style="fill:#667c99; stroke:none;" d="M419.667 650.333C419.222 650.778 420.278 650.722 420.333 650.667C420.778 650.222 419.722 650.278 419.667 650.333z"/>
<path style="fill:#53627d; stroke:none;" d="M646 650C650.427 659.292 663.251 663.872 672 668.247C691.785 678.139 711.79 685.771 729 700.081C760.897 726.605 783.104 763.764 804.2 799C811.029 810.406 816.25 822.602 822.985 834C825.636 838.486 827.509 844.117 832 847C826.88 824.87 816.309 802.265 806.248 782C787.623 744.486 765.338 707.121 730 683.029C714.458 672.432 696.597 667.866 679 662C667.978 658.326 657.07 653.189 646 650z"/>
<path style="fill:#9cc3e2; stroke:none;" d="M322 685C331.588 683.291 340.834 676.882 350 673.425C371.355 665.372 393.75 657.148 416 652C409.41 649.638 398.723 654.339 392 655.79C374.531 659.561 357.005 663.621 341 671.756C334.223 675.201 326.85 679.042 322 685z"/>
<path style="fill:#748eac; stroke:none;" d="M464 652L464 655C464.696 653.446 464.696 653.554 464 652z"/>
<path style="fill:#7a95b2; stroke:none;" d="M634 654L635 655L634 654z"/>
<path style="fill:#808080; stroke:none;" d="M615 655L616 656L615 655z"/>
<path style="fill:#69809b; stroke:none;" d="M400.667 656.333C400.222 656.778 401.278 656.722 401.333 656.667C401.778 656.222 400.722 656.278 400.667 656.333z"/>
<path style="fill:#7a96b3; stroke:none;" d="M654 658L655 659L654 658z"/>
<path style="fill:#55aaaa; stroke:none;" d="M376 659L377 660L376 659z"/>
<path style="fill:#8badcb; stroke:none;" d="M452 659L452 664C453.062 662.307 453.52 660.96 454 659L452 659z"/>
<path style="fill:#808080; stroke:none;" d="M372 660L373 661L372 660z"/>
<path style="fill:#6d85a1; stroke:none;" d="M387.667 660.333C387.222 660.778 388.278 660.722 388.333 660.667C388.778 660.222 387.722 660.278 387.667 660.333z"/>
<path style="fill:#697f9c; stroke:none;" d="M384.667 661.333C384.222 661.778 385.278 661.722 385.333 661.667C385.778 661.222 384.722 661.278 384.667 661.333z"/>
<path style="fill:#53627d; stroke:none;" d="M453 661C453.303 675.681 460.226 689.623 467.604 702C482.172 726.438 501.467 748.516 520 770C525.981 776.933 532.666 783.146 538.714 790C542.378 794.152 545.845 799.192 552 798.922C557.891 798.664 561.142 793.602 563.846 789C568.678 780.778 574.243 773.259 580.427 766C606.413 735.498 648.51 708.851 652 665C648.009 670.278 646.067 677.286 642.539 683C637.603 690.995 630.583 698.093 623.83 704.576C598.787 728.619 567.618 746.836 549 777C543.471 771.49 537.385 766.754 532.086 761C521.651 749.671 512.141 737.455 501.831 726C489.08 711.832 475.876 697.723 465.025 682C460.392 675.286 457.193 667.927 453 661z"/>
<path style="fill:#687e9a; stroke:none;" d="M381.667 662.333C381.222 662.778 382.278 662.722 382.333 662.667C382.778 662.222 381.722 662.278 381.667 662.333z"/>
<path style="fill:#808080; stroke:none;" d="M469 662L470 663L469 662z"/>
<path style="fill:#809ebc; stroke:none;" d="M652 662C651.014 663.479 651 663.203 651 665C652.766 664.021 652.955 663.778 652 662z"/>
<path style="fill:#687e9a; stroke:none;" d="M378.667 663.333C378.222 663.778 379.278 663.722 379.333 663.667C379.778 663.222 378.722 663.278 378.667 663.333z"/>
<path style="fill:#667b97; stroke:none;" d="M454.333 663.667C454.278 663.722 454.222 664.778 454.667 664.333C454.722 664.278 454.778 663.222 454.333 663.667z"/>
<path style="fill:#677e9a; stroke:none;" d="M375.667 664.333C375.222 664.778 376.278 664.722 376.333 664.667C376.778 664.222 375.722 664.278 375.667 664.333z"/>
<path style="fill:#55aaaa; stroke:none;" d="M624 664L625 665L624 664z"/>
<path style="fill:#808080; stroke:none;" d="M355 665L356 666L355 665z"/>
<path style="fill:#677e9a; stroke:none;" d="M372.667 665.333C372.222 665.778 373.278 665.722 373.333 665.667C373.778 665.222 372.722 665.278 372.667 665.333z"/>
<path style="fill:#687e9a; stroke:none;" d="M369.667 666.333C369.222 666.778 370.278 666.722 370.333 666.667C370.778 666.222 369.722 666.278 369.667 666.333z"/>
<path style="fill:#687f9b; stroke:none;" d="M366.667 667.333C366.222 667.778 367.278 667.722 367.333 667.667C367.778 667.222 366.722 667.278 366.667 667.333z"/>
<path style="fill:#718aa6; stroke:none;" d="M453 667L453 670C453.696 668.446 453.696 668.554 453 667z"/>
<path style="fill:#758fab; stroke:none;" d="M651 669L651 672C651.696 670.446 651.696 670.554 651 669z"/>
<path style="fill:#84a3c1; stroke:none;" d="M454.333 672.667C454.278 672.722 454.222 673.778 454.667 673.333C454.722 673.278 454.778 672.222 454.333 672.667z"/>
<path style="fill:#7f9cba; stroke:none;" d="M650.333 674.667C650.278 674.722 650.222 675.778 650.667 675.333C650.722 675.278 650.778 674.222 650.333 674.667z"/>
<path style="fill:#808080; stroke:none;" d="M477 675L478 676L477 675z"/>
<path style="fill:#005555; stroke:none;" d="M716 675L717 676L716 675z"/>
<path style="fill:#7a95b2; stroke:none;" d="M646 676L647 677L646 676z"/>
<path style="fill:#55aaaa; stroke:none;" d="M448 679L449 680L448 679M437 681L438 682L437 681M453 682L454 683L453 682z"/>
<path style="fill:#7a95b2; stroke:none;" d="M642 683L643 684L642 683z"/>
<path style="fill:#7a96b3; stroke:none;" d="M466 684L467 685L466 684z"/>
<path style="fill:#809ebc; stroke:none;" d="M321.667 685.333C321.222 685.778 322.278 685.722 322.333 685.667C322.778 685.222 321.722 685.278 321.667 685.333z"/>
<path style="fill:#7b99b6; stroke:none;" d="M319.667 686.333C319.222 686.778 320.278 686.722 320.333 686.667C320.778 686.222 319.722 686.278 319.667 686.333z"/>
<path style="fill:#7994b1; stroke:none;" d="M640 686L641 687L640 686z"/>
<path style="fill:#005555; stroke:none;" d="M734 686L735 687L734 686z"/>
<path style="fill:#7691af; stroke:none;" d="M718 691L719 692L718 691z"/>
<path style="fill:#808080; stroke:none;" d="M679 692L680 693L679 692z"/>
<path style="fill:#005555; stroke:none;" d="M308 693L309 694L308 693z"/>
<path style="fill:#7792af; stroke:none;" d="M476 697L477 698L476 697z"/>
<path style="fill:#808080; stroke:none;" d="M692 700L693 701L692 700M348 704L349 705L348 704z"/>
<path style="fill:#005555; stroke:none;" d="M624 704L625 705L624 704z"/>
<path style="fill:#55aaaa; stroke:none;" d="M467 705L468 706L467 705z"/>
<path style="fill:#7893b0; stroke:none;" d="M634 707L635 708L634 707z"/>
<path style="fill:#808080; stroke:none;" d="M469 708L470 709L469 708z"/>
<path style="fill:#005555; stroke:none;" d="M292 710L293 711L292 710z"/>
<path style="fill:#7690ad; stroke:none;" d="M311 710L312 711L311 710z"/>
<path style="fill:#55aaaa; stroke:none;" d="M707 713L708 714L707 713M332 714L333 715L332 714z"/>
<path style="fill:#7894b1; stroke:none;" d="M627 716L628 717L627 716z"/>
<path style="fill:#808080; stroke:none;" d="M328 717L329 718L328 717z"/>
<path style="fill:#7691ae; stroke:none;" d="M495 719L496 720L495 719z"/>
<path style="fill:#7690ad; stroke:none;" d="M302 721L303 722L302 721z"/>
<path style="fill:#55aaaa; stroke:none;" d="M323 721L324 722L323 721z"/>
<path style="fill:#7894b1; stroke:none;" d="M482 723L483 724L482 723z"/>
<path style="fill:#7994b2; stroke:none;" d="M753 723L754 724L753 723z"/>
<path style="fill:#7690ad; stroke:none;" d="M299 725L300 726L299 725z"/>
<path style="fill:#7994b2; stroke:none;" d="M619 725L620 726L619 725z"/>
<path style="fill:#808080; stroke:none;" d="M721 725L722 726L721 725z"/>
<path style="fill:#005555; stroke:none;" d="M596 728L597 729L596 728z"/>
<path style="fill:#7590ad; stroke:none;" d="M504 729L505 730L504 729z"/>
<path style="fill:#7691ae; stroke:none;" d="M489 732L490 733L489 732z"/>
<path style="fill:#808080; stroke:none;" d="M309 735L310 736L309 735z"/>
<path style="fill:#7893b0; stroke:none;" d="M765 739L766 740L765 739z"/>
<path style="fill:#005555; stroke:none;" d="M783 741L784 742L783 741z"/>
<path style="fill:#758fab; stroke:none;" d="M497 742L498 743L497 742z"/>
<path style="fill:#55aaaa; stroke:none;" d="M303 743L304 744L303 743M742 746L743 747L742 746z"/>
<path style="fill:#7691af; stroke:none;" d="M770 746L771 747L770 746z"/>
<path style="fill:#7893b0; stroke:none;" d="M501 747L502 748L501 747z"/>
<path style="fill:#7590ac; stroke:none;" d="M283 749L284 750L283 749z"/>
<path style="fill:#808080; stroke:none;" d="M299 749L300 750L299 749z"/>
<path style="fill:#758fac; stroke:none;" d="M595 749L596 750L595 749z"/>
<path style="fill:#7691ae; stroke:none;" d="M594 750L595 751L594 750z"/>
<path style="fill:#7792af; stroke:none;" d="M593 751L594 752L593 751z"/>
<path style="fill:#7893b0; stroke:none;" d="M592 752L593 753L592 752z"/>
<path style="fill:#758fab; stroke:none;" d="M506 753L507 754L506 753z"/>
<path style="fill:#7994b2; stroke:none;" d="M591 753L592 754L591 753M590 754L591 755L590 754z"/>
<path style="fill:#005555; stroke:none;" d="M265 755L266 756L265 755z"/>
<path style="fill:#7994b2; stroke:none;" d="M589 755L590 756L589 755z"/>
<path style="fill:#808080; stroke:none;" d="M750 755L751 756L750 755z"/>
<path style="fill:#7994b1; stroke:none;" d="M588 756L589 757L588 756z"/>
<path style="fill:#808080; stroke:none;" d="M625 756L626 757L625 756z"/>
<path style="fill:#7893b0; stroke:none;" d="M777 756L778 757L777 756z"/>
<path style="fill:#7691ae; stroke:none;" d="M587 757L588 758L587 757z"/>
<path style="fill:#758fab; stroke:none;" d="M529 758L530 759L529 758z"/>
<path style="fill:#808080; stroke:none;" d="M293 759L294 760L293 759z"/>
<path style="fill:#7893af; stroke:none;" d="M511 759L512 760L511 759z"/>
<path style="fill:#808080; stroke:none;" d="M758 764L759 765L758 764z"/>
<path style="fill:#55aaaa; stroke:none;" d="M616 766L617 767L616 766z"/>
<path style="fill:#7497ae; stroke:none;" d="M538.667 768.333C538.222 768.778 539.278 768.722 539.333 768.667C539.778 768.222 538.722 768.278 538.667 768.333z"/>
<path style="fill:#005555; stroke:none;" d="M799 768L800 769L799 768z"/>
<path style="fill:#7691af; stroke:none;" d="M787 771L788 772L787 771z"/>
<path style="fill:#005555; stroke:none;" d="M803 776L804 777L803 776M804 778L805 779L804 778z"/>
<path style="fill:#7691ae; stroke:none;" d="M569 779L570 780L569 779z"/>
<path style="fill:#7590ac; stroke:none;" d="M567 782L568 783L567 782M797 787L798 788L797 787z"/>
<path style="fill:#7893af; stroke:none;" d="M539 790L540 791L539 790z"/>
<path style="fill:#005555; stroke:none;" d="M250 792L251 793L250 792z"/>
<path style="fill:#808080; stroke:none;" d="M273 799L274 800L273 799M529 799L530 800L529 799z"/>
<path style="fill:#7a96b2; stroke:none;" d="M550 799C551.506 799.683 552.315 799.826 554 800C552.494 799.317 551.685 799.174 550 799z"/>
<path style="fill:#808080; stroke:none;" d="M576 803L577 804L576 803z"/>
<path style="fill:#55aaaa; stroke:none;" d="M789 806L790 807L789 806z"/>
<path style="fill:#7f9dba; stroke:none;" d="M245 808L245 811C245.696 809.446 245.696 809.554 245 808z"/>
<path style="fill:#55aaaa; stroke:none;" d="M242 814L243 815L242 814z"/>
<path style="fill:#6c84a0; stroke:none;" d="M243.333 816.667C243.278 816.722 243.222 817.778 243.667 817.333C243.722 817.278 243.778 816.222 243.333 816.667z"/>
<path style="fill:#55aaaa; stroke:none;" d="M794 816L795 817L794 816z"/>
<path style="fill:#677d98; stroke:none;" d="M241.333 823.667C241.278 823.722 241.222 824.778 241.667 824.333C241.722 824.278 241.778 823.222 241.333 823.667z"/>
<path style="fill:#7893b0; stroke:none;" d="M817 823L818 824L817 823z"/>
<path style="fill:#6f87a4; stroke:none;" d="M240.333 826.667C240.278 826.722 240.222 827.778 240.667 827.333C240.722 827.278 240.778 826.222 240.333 826.667z"/>
<path style="fill:#6c829e; stroke:none;" d="M238.333 833.667C238.278 833.722 238.222 834.778 238.667 834.333C238.722 834.278 238.778 833.222 238.333 833.667z"/>
<path style="fill:#005555; stroke:none;" d="M823 834L824 835L823 834z"/>
<path style="fill:#6a809d; stroke:none;" d="M236.333 840.667C236.278 840.722 236.222 841.778 236.667 841.333C236.722 841.278 236.778 840.222 236.333 840.667z"/>
<path style="fill:#6a819d; stroke:none;" d="M234.333 847.667C234.278 847.722 234.222 848.778 234.667 848.333C234.722 848.278 234.778 847.222 234.333 847.667z"/>
<path style="fill:#55aaaa; stroke:none;" d="M250 849L251 850L250 849z"/>
<path style="fill:#718aa7; stroke:none;" d="M232.333 854.667C232.278 854.722 232.222 855.778 232.667 855.333C232.722 855.278 232.778 854.222 232.333 854.667z"/>
<path style="fill:#6a819e; stroke:none;" d="M231.333 858.667C231.278 858.722 231.222 859.778 231.667 859.333C231.722 859.278 231.778 858.222 231.333 858.667z"/>
<path style="fill:#667b97; stroke:none;" d="M230.333 862.667C230.278 862.722 230.222 863.778 230.667 863.333C230.722 863.278 230.778 862.222 230.333 862.667z"/>
<path style="fill:#718aa6; stroke:none;" d="M228.333 869.667C228.278 869.722 228.222 870.778 228.667 870.333C228.722 870.278 228.778 869.222 228.333 869.667z"/>
<path style="fill:#808080; stroke:none;" d="M240 871L241 872L240 871z"/>
<path style="fill:#687e9a; stroke:none;" d="M227.333 873.667C227.278 873.722 227.222 874.778 227.667 874.333C227.722 874.278 227.778 873.222 227.333 873.667z"/>
<path style="fill:#55aaaa; stroke:none;" d="M821 878L822 879L821 878z"/>
<path style="fill:#8badcb; stroke:none;" d="M224 883L223 887C224.434 885.607 225.045 884.767 226 883L224 883z"/>
<path style="fill:#55aaaa; stroke:none;" d="M220 896L221 897L220 896z"/>
<path style="fill:#808080; stroke:none;" d="M233 896L234 897L233 896z"/>
<path style="fill:#55aaaa; stroke:none;" d="M222 899L223 900L222 899M230 900L231 901L230 900z"/>
</svg>
