<?xml version="1.0" standalone="yes"?>
<svg xmlns="http://www.w3.org/2000/svg" width="1080" height="1080">
    <path style="fill:#000000; stroke:none;" d="M0 0L0 1080L1080 1080L1080 0L0 0z"/>
    <path style="fill:#53627d; stroke:none;" d="M433 431C422.274 434.812 419 449.891 419 460C419 463.741 418.824 467.669 420.858 470.985C427.089 481.143 441.55 479.68 448 471C441.954 472.6 435.493 474.595 430.344 469.606C424.148 463.602 428.218 451.833 431.015 445C432.149 442.228 433.432 438.589 436.213 437.043C439.417 435.263 443.694 437.44 447 438C443.56 433.37 439.752 431.299 434 431C435.986 415.286 435.91 395.647 444.7 382C457.022 362.869 479.565 349.466 500 340.576C511.29 335.664 522.928 330.369 535 327.665C579.323 317.738 635.098 328.059 662.561 367C671.793 380.091 672.664 397.504 674.17 413C674.792 419.404 675.996 425.536 676 432C678.751 426.835 678.668 420.693 679.424 415C681.504 399.356 682.653 381.86 676.48 367C673.88 360.743 667.825 356.231 665.6 350C663.854 345.114 664.599 339.123 663.244 334C659.123 318.423 650.292 301.069 637.985 290.439C617.512 272.754 594.086 269 568 269C523.82 269 478.408 282.046 452.039 320C444.126 331.389 440.894 344.419 439.285 358C438.855 361.631 439.419 365.413 438.725 369C437.649 374.568 433.837 379.392 432.503 385C429.323 398.372 429.095 417.796 433 431z"/>
    <path style="fill:#7994b1; stroke:none;" d="M545 277C546.769 277.779 548.036 277.912 550 278C548.231 277.221 546.964 277.088 545 277z"/>
    <path style="fill:#9cc3e2; stroke:none;" d="M448 361C459.654 354.296 469.859 345.341 482 339.27C515.562 322.487 551.242 312.516 589 316.17C600.235 317.257 611.267 320.76 622 324.039C630.414 326.61 638.853 330.296 646 335.428C651.125 339.109 655.285 344.335 661 347C658.941 336.417 653.592 327.867 647.667 319C638.117 304.709 625.837 292.451 610 285.312C596.692 279.312 583.206 278.883 569 277.911C515.774 274.266 455.825 302.894 448 361z"/>
    <path style="fill:#85a5c2; stroke:none;" d="M565 277C567.332 277.985 569.457 277.981 572 278C569.669 277.015 567.543 277.019 565 277z"/>
    <path style="fill:#69809b; stroke:none;" d="M572 277C574.052 277.874 575.747 277.953 578 278C575.948 277.126 574.253 277.047 572 277z"/>
    <path style="fill:#7691ae; stroke:none;" d="M539.667 278.333C539.222 278.778 540.278 278.722 540.333 278.667C540.778 278.222 539.722 278.278 539.667 278.333z"/>
    <path style="fill:#728ba8; stroke:none;" d="M584 278C585.248 278.685 585.548 278.749 587 279C585.752 278.315 585.452 278.251 584 278M533.667 279.333C533.222 279.778 534.278 279.722 534.333 279.667C534.778 279.222 533.722 279.278 533.667 279.333z"/>
    <path style="fill:#819fbd; stroke:none;" d="M589 279C590.248 279.685 590.548 279.749 592 280C590.752 279.315 590.452 279.251 589 279z"/>
    <path style="fill:#7b98b5; stroke:none;" d="M529.667 280.333C529.222 280.778 530.278 280.722 530.333 280.667C530.778 280.222 529.722 280.278 529.667 280.333z"/>
    <path style="fill:#6e86a2; stroke:none;" d="M595.667 280.333C595.222 280.778 596.278 280.722 596.333 280.667C596.778 280.222 595.722 280.278 595.667 280.333z"/>
    <path style="fill:#7f9cba; stroke:none;" d="M525.667 281.333C525.222 281.778 526.278 281.722 526.333 281.667C526.778 281.222 525.722 281.278 525.667 281.333z"/>
    <path style="fill:#687d9a; stroke:none;" d="M599.667 281.333C599.222 281.778 600.278 281.722 600.333 281.667C600.778 281.222 599.722 281.278 599.667 281.333z"/>
    <path style="fill:#6b839f; stroke:none;" d="M602.667 282.333C602.222 282.778 603.278 282.722 603.333 282.667C603.778 282.222 602.722 282.278 602.667 282.333z"/>
    <path style="fill:#667c98; stroke:none;" d="M605.667 283.333C605.222 283.778 606.278 283.722 606.333 283.667C606.778 283.222 605.722 283.278 605.667 283.333z"/>
    <path style="fill:#7691af; stroke:none;" d="M619 290L620 291L619 290z"/>
    <path style="fill:#7a95b2; stroke:none;" d="M627 296L628 297L627 296z"/>
    <path style="fill:#7894b1; stroke:none;" d="M484 300L485 301L484 300z"/>
    <path style="fill:#7691ae; stroke:none;" d="M550 316C551.506 316.683 552.315 316.826 554 317C552.494 316.317 551.685 316.174 550 316z"/>
    <path style="fill:#7d9ab7; stroke:none;" d="M587 316C588.769 316.779 590.036 316.912 592 317C590.231 316.221 588.964 316.088 587 316z"/>
    <path style="fill:#7b98b5; stroke:none;" d="M543.667 317.333C543.222 317.778 544.278 317.722 544.333 317.667C544.778 317.222 543.722 317.278 543.667 317.333z"/>
    <path style="fill:#728ba8; stroke:none;" d="M595 317C596.248 317.685 596.549 317.749 598 318C596.752 317.315 596.452 317.251 595 317z"/>
    <path style="fill:#7b97b4; stroke:none;" d="M537.667 318.333C537.222 318.778 538.278 318.722 538.333 318.667C538.778 318.222 537.722 318.278 537.667 318.333z"/>
    <path style="fill:#7e9bb9; stroke:none;" d="M601.667 318.333C601.222 318.778 602.278 318.722 602.333 318.667C602.778 318.222 601.722 318.278 601.667 318.333z"/>
    <path style="fill:#6e85a1; stroke:none;" d="M533.667 319.333C533.222 319.778 534.278 319.722 534.333 319.667C534.778 319.222 533.722 319.278 533.667 319.333z"/>
    <path style="fill:#7893b0; stroke:none;" d="M605.667 319.333C605.222 319.778 606.278 319.722 606.333 319.667C606.778 319.222 605.722 319.278 605.667 319.333z"/>
    <path style="fill:#6d85a1; stroke:none;" d="M529.667 320.333C529.222 320.778 530.278 320.722 530.333 320.667C530.778 320.222 529.722 320.278 529.667 320.333z"/>
    <path style="fill:#7e9bb9; stroke:none;" d="M609.667 320.333C609.222 320.778 610.278 320.722 610.333 320.667C610.778 320.222 609.722 320.278 609.667 320.333z"/>
    <path style="fill:#7893af; stroke:none;" d="M648 320L649 321L648 320z"/>
    <path style="fill:#87a6c4; stroke:none;" d="M619.667 323.333C619.222 323.778 620.278 323.722 620.333 323.667C620.778 323.222 619.722 323.278 619.667 323.333z"/>
    <path style="fill:#7994b1; stroke:none;" d="M650 323L651 324L650 323z"/>
    <path style="fill:#86a5c3; stroke:none;" d="M622.667 324.333C622.222 324.778 623.278 324.722 623.333 324.667C623.778 324.222 622.722 324.278 622.667 324.333z"/>
    <path style="fill:#819fbd; stroke:none;" d="M550 325C553.959 326.661 558.74 326 563 326L587 326C583.041 324.339 578.26 325 574 325L550 325z"/>
    <path style="fill:#84a4c1; stroke:none;" d="M625.667 325.333C625.222 325.778 626.278 325.722 626.333 325.667C626.778 325.222 625.722 325.278 625.667 325.333z"/>
    <path style="fill:#7088a5; stroke:none;" d="M541 326C542.248 326.685 542.548 326.749 544 327C542.752 326.315 542.452 326.251 541 326z"/>
    <path style="fill:#9cc3e2; stroke:none;" d="M444 434C444.036 421.085 450.383 409.235 457.885 399C473.599 377.56 494.101 364.145 520 358.424C570.014 347.378 633.438 353.36 662.934 401C668.494 409.98 670.398 419.946 673 430C668.728 423.261 666.172 415.689 661.641 409C653.834 397.473 642.541 388.013 631 380.356C611.953 367.719 589.228 365 567 365C551.919 365 538.681 365.703 524 369.373C515.497 371.499 505.938 373.209 498 376.984C480.189 385.453 463.766 400.81 452.746 417C448.807 422.787 440.53 432.804 449 438C444.99 437.903 439.077 434.805 435.39 437.042C433.081 438.445 431.959 441.593 431.09 444C428.628 450.819 424.66 464.985 431.148 470.566C435.918 474.669 442.653 472.503 448 471L445 474C451.018 484.412 461.921 493.642 471 501.421C494.697 521.723 521.141 532.183 552 535.17C560.495 535.992 569.474 536.819 578 535.711C591.338 533.977 604.729 528.572 617 523.281C636.639 514.813 661.876 500.572 668 479C659.862 478.827 652.042 475.529 647 469C653.36 473.251 666.668 475.948 672.272 468.772C674.994 465.287 674.979 460.193 674.999 456C675.018 451.999 676.568 443.619 672.682 441.028C667.469 437.552 658.924 441.991 654 444C660.495 437.563 665.724 434.027 675 434C675 418.881 673.565 403.85 670.6 389C669.233 382.152 668.168 375.09 664.522 369C652.85 349.507 633.69 338.895 613 332C597.781 326.928 583.912 326 568 326C557.619 326 547.254 325.539 537 327.46C510.643 332.398 484.203 345.743 463 361.899C454.124 368.662 444.324 378.096 440.785 389C438.606 395.715 438.63 403.082 437.386 410C436.54 414.703 433.197 425.263 436.032 429.502C437.646 431.915 441.451 432.952 444 434z"/>
    <path style="fill:#7e9bb8; stroke:none;" d="M591 326C592.248 326.685 592.548 326.749 594 327C592.752 326.315 592.452 326.251 591 326z"/>
    <path style="fill:#7590ac; stroke:none;" d="M535.667 327.333C535.222 327.778 536.278 327.722 536.333 327.667C536.778 327.222 535.722 327.278 535.667 327.333z"/>
    <path style="fill:#7089a5; stroke:none;" d="M597.667 327.333C597.222 327.778 598.278 327.722 598.333 327.667C598.778 327.222 597.722 327.278 597.667 327.333z"/>
    <path style="fill:#7d9ab7; stroke:none;" d="M531.667 328.333C531.222 328.778 532.278 328.722 532.333 328.667C532.778 328.222 531.722 328.278 531.667 328.333z"/>
    <path style="fill:#748fac; stroke:none;" d="M601.667 328.333C601.222 328.778 602.278 328.722 602.333 328.667C602.778 328.222 601.722 328.278 601.667 328.333z"/>
    <path style="fill:#53627d; stroke:none;" d="M578 329L577 349C580.634 343.9 581.614 334.289 578 329M589 329C589 336.852 590.386 344.227 591 352C593.544 345.937 593.136 334.202 589 329z"/>
    <path style="fill:#677e9a; stroke:none;" d="M605.667 329.333C605.222 329.778 606.278 329.722 606.333 329.667C606.778 329.222 605.722 329.278 605.667 329.333z"/>
    <path style="fill:#7691ae; stroke:none;" d="M458 330L459 331L458 330z"/>
    <path style="fill:#53627d; stroke:none;" d="M543 330C541.134 334.981 541.001 339.731 541 345C543.687 341.09 544.847 334.443 543 330M555 330C554.447 334.377 554.003 338.578 554 343C555.884 339.081 556.705 334.072 555 330z"/>
    <path style="fill:#87a7c6; stroke:none;" d="M598 330L598 336C598.951 334.059 599.439 332.102 600 330L598 330z"/>
    <path style="fill:#69809c; stroke:none;" d="M608.667 330.333C608.222 330.778 609.278 330.722 609.333 330.667C609.778 330.222 608.722 330.278 608.667 330.333z"/>
    <path style="fill:#677d99; stroke:none;" d="M566.333 331.667C566.278 331.722 566.222 332.778 566.667 332.333C566.722 332.278 566.778 331.222 566.333 331.667z"/>
    <path style="fill:#53627d; stroke:none;" d="M599 331C599.004 337.189 600.213 342.904 601 349C603.189 343.784 602.208 335.617 599 331z"/>
    <path style="fill:#6a809d; stroke:none;" d="M611.667 331.333C611.222 331.778 612.278 331.722 612.333 331.667C612.778 331.222 611.722 331.278 611.667 331.333z"/>
    <path style="fill:#667b97; stroke:none;" d="M554.333 332.667C554.278 332.722 554.222 333.778 554.667 333.333C554.722 333.278 554.778 332.222 554.333 332.667z"/>
    <path style="fill:#697f9c; stroke:none;" d="M614.667 332.333C614.222 332.778 615.278 332.722 615.333 332.667C615.778 332.222 614.722 332.278 614.667 332.333z"/>
    <path style="fill:#84a3c1; stroke:none;" d="M532 333C532.572 335.377 532.891 337.558 533 340C534.14 337.266 534.293 335.003 532 333z"/>
    <path style="fill:#738ca9; stroke:none;" d="M541.333 333.667C541.278 333.722 541.222 334.778 541.667 334.333C541.722 334.278 541.778 333.222 541.333 333.667z"/>
    <path style="fill:#53627d; stroke:none;" d="M566 333C565.319 338.388 565 343.563 565 349C567.753 344.435 569.126 337.582 566 333z"/>
    <path style="fill:#6e85a1; stroke:none;" d="M567.333 333.667C567.278 333.722 567.222 334.778 567.667 334.333C567.722 334.278 567.778 333.222 567.333 333.667z"/>
    <path style="fill:#6c829e; stroke:none;" d="M580 333L580 339C580.951 336.715 580.951 335.285 580 333z"/>
    <path style="fill:#687f9b; stroke:none;" d="M617.667 333.333C617.222 333.778 618.278 333.722 618.333 333.667C618.778 333.222 617.722 333.278 617.667 333.333z"/>
    <path style="fill:#53627d; stroke:none;" d="M532 334C530.967 338.338 531 342.562 531 347C533.074 343.099 533.727 338.116 532 334z"/>
    <path style="fill:#687e9a; stroke:none;" d="M620.667 334.333C620.222 334.778 621.278 334.722 621.333 334.667C621.778 334.222 620.722 334.278 620.667 334.333z"/>
    <path style="fill:#7a95b2; stroke:none;" d="M553 335L553 345C554.763 341.95 554.366 338.227 553 335z"/>
    <path style="fill:#7b97b4; stroke:none;" d="M565.333 335.667C565.278 335.722 565.222 336.778 565.667 336.333C565.722 336.278 565.778 335.222 565.333 335.667z"/>
    <path style="fill:#677d98; stroke:none;" d="M601.333 336.667C601.278 336.722 601.222 337.778 601.667 337.333C601.722 337.278 601.778 336.222 601.333 336.667z"/>
    <path style="fill:#718aa7; stroke:none;" d="M610 336L610 339L612 338C611.455 336.365 611.635 336.545 610 336z"/>
    <path style="fill:#53627d; stroke:none;" d="M517 337C516.044 341.017 516 344.886 516 349C517.956 345.32 518.629 340.891 517 337z"/>
    <path style="fill:#6b839f; stroke:none;" d="M543 337L543 340C543.696 338.446 543.696 338.554 543 337z"/>
    <path style="fill:#617692; stroke:none;" d="M577 337L577 341C577.71 339.241 577.71 338.759 577 337z"/>
    <path style="fill:#7c98b6; stroke:none;" d="M592 337L592 347C593.346 343.793 593.346 340.207 592 337z"/>
    <path style="fill:#728ba8; stroke:none;" d="M555 338L555 341C555.696 339.446 555.696 339.554 555 338z"/>
    <path style="fill:#5e718c; stroke:none;" d="M611 338C611.021 340.85 611.19 343.271 612 346C613.275 342.931 612.993 340.631 611 338z"/>
    <path style="fill:#7a96b2; stroke:none;" d="M650 338L651 339L650 338z"/>
    <path style="fill:#87a6c4; stroke:none;" d="M580.333 339.667C580.278 339.722 580.222 340.778 580.667 340.333C580.722 340.278 580.778 339.222 580.333 339.667z"/>
    <path style="fill:#7f9cba; stroke:none;" d="M602 339L602 348C603.256 345.006 603.256 341.994 602 339z"/>
    <path style="fill:#53627d; stroke:none;" d="M621 339L622 351C623.629 347.109 622.956 342.68 621 339z"/>
    <path style="fill:#8eb2d0; stroke:none;" d="M530 340L530 344C530.71 342.241 530.71 341.759 530 340z"/>
    <path style="fill:#7590ac; stroke:none;" d="M599.333 340.667C599.278 340.722 599.222 341.778 599.667 341.333C599.722 341.278 599.778 340.222 599.333 340.667z"/>
    <path style="fill:#7a96b3; stroke:none;" d="M477 341L478 342L477 341z"/>
    <path style="fill:#8bacca; stroke:none;" d="M505 341C504.735 343.388 504.857 345.594 505 348C506.059 345.466 506.059 343.534 505 341z"/>
    <path style="fill:#7691ae; stroke:none;" d="M567 341L567 344C567.696 342.446 567.696 342.554 567 341z"/>
    <path style="fill:#738ca9; stroke:none;" d="M589 341L589 344C589.696 342.446 589.696 342.554 589 341z"/>
    <path style="fill:#677d98; stroke:none;" d="M622.333 341.667C622.278 341.722 622.222 342.778 622.667 342.333C622.722 342.278 622.778 341.222 622.333 341.667z"/>
    <path style="fill:#86a6c4; stroke:none;" d="M515 342L515 347C515.83 344.97 515.83 344.03 515 342z"/>
    <path style="fill:#53627d; stroke:none;" d="M504 343C502.829 346.96 503 350.887 503 355C504.768 351.321 505.592 346.829 504 343z"/>
    <path style="fill:#7792af; stroke:none;" d="M532.333 343.667C532.278 343.722 532.222 344.778 532.667 344.333C532.722 344.278 532.778 343.222 532.333 343.667z"/>
    <path style="fill:#7b98b5; stroke:none;" d="M542.333 343.667C542.278 343.722 542.222 344.778 542.667 344.333C542.722 344.278 542.778 343.222 542.333 343.667z"/>
    <path style="fill:#84a3c0; stroke:none;" d="M579.333 343.667C579.278 343.722 579.222 344.778 579.667 344.333C579.722 344.278 579.778 343.222 579.333 343.667z"/>
    <path style="fill:#86a6c4; stroke:none;" d="M660.333 343.667C660.278 343.722 660.222 344.778 660.667 344.333C660.722 344.278 660.778 343.222 660.333 343.667z"/>
    <path style="fill:#7b97b4; stroke:none;" d="M623 344L623 350C623.951 347.715 623.951 346.285 623 344z"/>
    <path style="fill:#8fb1d0; stroke:none;" d="M631 344L631 350C631.951 348.059 632.439 346.102 633 344L631 344z"/>
    <path style="fill:#718ba8; stroke:none;" d="M541.333 345.667C541.278 345.722 541.222 346.778 541.667 346.333C541.722 346.278 541.778 345.222 541.333 345.667z"/>
    <path style="fill:#87a6c4; stroke:none;" d="M600.333 345.667C600.278 345.722 600.222 346.778 600.667 346.333C600.722 346.278 600.778 345.222 600.333 345.667z"/>
    <path style="fill:#53627d; stroke:none;" d="M632 345C632 351.577 632.345 357.604 634 364C636.309 358.497 635.735 349.697 632 345z"/>
    <path style="fill:#677e99; stroke:none;" d="M441.333 346.667C441.278 346.722 441.222 347.778 441.667 347.333C441.722 347.278 441.778 346.222 441.333 346.667z"/>
    <path style="fill:#7691ae; stroke:none;" d="M621 346L621 349C621.696 347.446 621.696 347.554 621 346z"/>
    <path style="fill:#7792af; stroke:none;" d="M467 347L468 348L467 347z"/>
    <path style="fill:#85a4c2; stroke:none;" d="M502 347L502 352C502.83 349.97 502.83 349.03 502 347z"/>
    <path style="fill:#84a3c1; stroke:none;" d="M576 347C576.307 349.123 576.382 349.686 578 351C577.436 349.248 577.081 348.458 576 347z"/>
    <path style="fill:#7a96b2; stroke:none;" d="M590.333 347.667C590.278 347.722 590.222 348.778 590.667 348.333C590.722 348.278 590.778 347.222 590.333 347.667z"/>
    <path style="fill:#738ca9; stroke:none;" d="M660 347C660.545 348.635 660.365 348.455 662 349L662 347L660 347z"/>
    <path style="fill:#6c829e; stroke:none;" d="M492 348L493 354C494.039 351.471 494.093 349.824 492 348z"/>
    <path style="fill:#8dafce; stroke:none;" d="M602 348C601.014 349.478 601 349.203 601 351C602.766 350.021 602.955 349.778 602 348z"/>
    <path style="fill:#53627d; stroke:none;" d="M492 350L492 358C493.161 355.23 493.161 352.77 492 350z"/>
    <path style="fill:#718ba8; stroke:none;" d="M504 350L504 353C504.696 351.446 504.696 351.554 504 350z"/>
    <path style="fill:#7691ae; stroke:none;" d="M648 351L649 352L648 351z"/>
    <path style="fill:#809ebc; stroke:none;" d="M449.333 352.667C449.278 352.722 449.222 353.778 449.667 353.333C449.722 353.278 449.778 352.222 449.333 352.667z"/>
    <path style="fill:#7a96b2; stroke:none;" d="M491 352L491 357C491.83 354.97 491.83 354.03 491 352z"/>
    <path style="fill:#748eab; stroke:none;" d="M635 352L635 360C636.161 357.23 636.161 354.77 635 352z"/>
    <path style="fill:#8bacca; stroke:none;" d="M643 352L643 357C644.143 354.846 644.205 354.098 643 352z"/>
    <path style="fill:#7994b1; stroke:none;" d="M475 353L476 354L475 353z"/>
    <path style="fill:#84a3c1; stroke:none;" d="M493.333 354.667C493.278 354.722 493.222 355.778 493.667 355.333C493.722 355.278 493.778 354.222 493.333 354.667z"/>
    <path style="fill:#6f87a4; stroke:none;" d="M545 354C553.128 357.411 566.186 355 575 355C566.872 351.589 553.813 354 545 354z"/>
    <path style="fill:#7d9ab8; stroke:none;" d="M575 354C577.613 355.098 580.164 354.993 583 355C580.387 353.902 577.836 354.007 575 354z"/>
    <path style="fill:#53627d; stroke:none;" d="M644 354C644.018 360.629 645.671 366.559 647 373C649.358 367.381 648.176 358.438 644 354z"/>
    <path style="fill:#7d9ab8; stroke:none;" d="M535.667 355.333C535.222 355.778 536.278 355.722 536.333 355.667C536.778 355.222 535.722 355.278 535.667 355.333z"/>
    <path style="fill:#53627d; stroke:none;" d="M444 432C447.835 426.469 450.833 420.425 454.895 415C466.293 399.778 481.086 386.329 498 377.486C506.667 372.954 516.58 370.982 526 368.627C571.174 357.333 622.613 364.273 654.711 401.001C661.035 408.238 665.886 416.358 670 425C672.282 418.62 667.203 407.58 663.985 402C653.762 384.271 637.943 371.125 619 363.811C600.055 356.496 581.062 355 561 355C526.858 355 492.864 360.535 468.015 386C456.149 398.16 444.754 414.479 444 432z"/>
    <path style="fill:#6d85a1; stroke:none;" d="M585 355C586.248 355.685 586.548 355.749 588 356C586.752 355.315 586.452 355.251 585 355z"/>
    <path style="fill:#84a3c1; stroke:none;" d="M448.333 356.667C448.278 356.722 448.222 357.778 448.667 357.333C448.722 357.278 448.778 356.222 448.333 356.667z"/>
    <path style="fill:#7994b2; stroke:none;" d="M529 356C530.248 356.685 530.548 356.749 532 357C530.752 356.315 530.452 356.251 529 356z"/>
    <path style="fill:#718aa6; stroke:none;" d="M591 356C592.248 356.685 592.548 356.749 594 357C592.752 356.315 592.452 356.251 591 356z"/>
    <path style="fill:#7994b1; stroke:none;" d="M469 357L470 358L469 357z"/>
    <path style="fill:#728ba8; stroke:none;" d="M524.667 357.333C524.222 357.778 525.278 357.722 525.333 357.667C525.778 357.222 524.722 357.278 524.667 357.333z"/>
    <path style="fill:#738daa; stroke:none;" d="M596.667 357.333C596.222 357.778 597.278 357.722 597.333 357.667C597.778 357.222 596.722 357.278 596.667 357.333z"/>
    <path style="fill:#7d9ab8; stroke:none;" d="M632 357L632 360C632.696 358.446 632.696 358.554 632 357z"/>
    <path style="fill:#89abc8; stroke:none;" d="M477.667 358.333C477.222 358.778 478.278 358.722 478.333 358.667C478.778 358.222 477.722 358.278 477.667 358.333z"/>
    <path style="fill:#809fbd; stroke:none;" d="M492.333 358.667C492.278 358.722 492.222 359.778 492.667 359.333C492.722 359.278 492.778 358.222 492.333 358.667z"/>
    <path style="fill:#7792af; stroke:none;" d="M519.667 358.333C519.222 358.778 520.278 358.722 520.333 358.667C520.778 358.222 519.722 358.278 519.667 358.333z"/>
    <path style="fill:#809ebb; stroke:none;" d="M601.667 358.333C601.222 358.778 602.278 358.722 602.333 358.667C602.778 358.222 601.722 358.278 601.667 358.333z"/>
    <path style="fill:#53627d; stroke:none;" d="M477 359C474.079 364.029 473.017 368.211 473 374C475.832 370.214 478.413 363.654 477 359z"/>
    <path style="fill:#718aa7; stroke:none;" d="M515.667 359.333C515.222 359.778 516.278 359.722 516.333 359.667C516.778 359.222 515.722 359.278 515.667 359.333z"/>
    <path style="fill:#84a4c1; stroke:none;" d="M605.667 359.333C605.222 359.778 606.278 359.722 606.333 359.667C606.778 359.222 605.722 359.278 605.667 359.333z"/>
    <path style="fill:#7d9bb8; stroke:none;" d="M447.333 360.667C447.278 360.722 447.222 361.778 447.667 361.333C447.722 361.278 447.778 360.222 447.333 360.667z"/>
    <path style="fill:#6e86a2; stroke:none;" d="M511.667 360.333C511.222 360.778 512.278 360.722 512.333 360.667C512.778 360.222 511.722 360.278 511.667 360.333z"/>
    <path style="fill:#89aac8; stroke:none;" d="M635.333 360.667C635.278 360.722 635.222 361.778 635.667 361.333C635.722 361.278 635.778 360.222 635.333 360.667z"/>
    <path style="fill:#6d85a1; stroke:none;" d="M647.333 360.667C647.278 360.722 647.222 361.778 647.667 361.333C647.722 361.278 647.778 360.222 647.333 360.667z"/>
    <path style="fill:#728ba8; stroke:none;" d="M507.667 361.333C507.222 361.778 508.278 361.722 508.333 361.667C508.778 361.222 507.722 361.278 507.667 361.333z"/>
    <path style="fill:#7893af; stroke:none;" d="M462 362L463 363L462 362z"/>
    <path style="fill:#88a9c7; stroke:none;" d="M477.333 362.667C477.278 362.722 477.222 363.778 477.667 363.333C477.722 363.278 477.778 362.222 477.333 362.667z"/>
    <path style="fill:#687e9a; stroke:none;" d="M504.667 362.333C504.222 362.778 505.278 362.722 505.333 362.667C505.778 362.222 504.722 362.278 504.667 362.333z"/>
    <path style="fill:#6f87a4; stroke:none;" d="M633 362L634 367C634.651 364.766 634.318 363.926 633 362z"/>
    <path style="fill:#82a1bf; stroke:none;" d="M644.333 362.667C644.278 362.722 644.222 363.778 644.667 363.333C644.722 363.278 644.778 362.222 644.333 362.667z"/>
    <path style="fill:#7a96b2; stroke:none;" d="M659 362L660 363L659 362z"/>
    <path style="fill:#7a96b3; stroke:none;" d="M546 364C548.89 365.213 551.874 364.998 555 365C552.11 363.787 549.126 364.002 546 364z"/>
    <path style="fill:#8cadcb; stroke:none;" d="M555 364C562.649 367.21 574.712 365 583 365C575.351 361.79 563.288 364 555 364z"/>
    <path style="fill:#6f88a5; stroke:none;" d="M583 364C584.248 364.685 584.549 364.749 586 365C584.752 364.315 584.452 364.251 583 364z"/>
    <path style="fill:#86a6c4; stroke:none;" d="M648 364C647.989 368.015 647.334 372.067 648 376C649.512 372.396 649.512 367.604 648 364z"/>
    <path style="fill:#738daa; stroke:none;" d="M539.667 365.333C539.222 365.778 540.278 365.722 540.333 365.667C540.778 365.222 539.722 365.278 539.667 365.333z"/>
    <path style="fill:#7691af; stroke:none;" d="M588 365C589.248 365.685 589.548 365.749 591 366C589.752 365.315 589.452 365.251 588 365z"/>
    <path style="fill:#7f9dba; stroke:none;" d="M534.667 366.333C534.222 366.778 535.278 366.722 535.333 366.667C535.778 366.222 534.722 366.278 534.667 366.333z"/>
    <path style="fill:#7894b1; stroke:none;" d="M593.667 366.333C593.222 366.778 594.278 366.722 594.333 366.667C594.778 366.222 593.722 366.278 593.667 366.333z"/>
    <path style="fill:#7a96b3; stroke:none;" d="M645.333 366.667C645.278 366.722 645.222 367.778 645.667 367.333C645.722 367.278 645.778 366.222 645.333 366.667z"/>
    <path style="fill:#7f9cba; stroke:none;" d="M655 366L655 369L657 368C656.455 366.365 656.635 366.545 655 366z"/>
    <path style="fill:#89aac8; stroke:none;" d="M530.667 367.333C530.222 367.778 531.278 367.722 531.333 367.667C531.778 367.222 530.722 367.278 530.667 367.333z"/>
    <path style="fill:#6f87a4; stroke:none;" d="M598.667 367.333C598.222 367.778 599.278 367.722 599.333 367.667C599.778 367.222 598.722 367.278 598.667 367.333z"/>
    <path style="fill:#88a9c7; stroke:none;" d="M526.667 368.333C526.222 368.778 527.278 368.722 527.333 368.667C527.778 368.222 526.722 368.278 526.667 368.333z"/>
    <path style="fill:#728ba8; stroke:none;" d="M602.667 368.333C602.222 368.778 603.278 368.722 603.333 368.667C603.778 368.222 602.722 368.278 602.667 368.333z"/>
    <path style="fill:#53627d; stroke:none;" d="M656 368C656.177 372.116 656.97 376.017 658 380C659.751 375.819 658.943 371.384 656 368z"/>
    <path style="fill:#6d84a1; stroke:none;" d="M472 369L472 373C472.71 371.241 472.71 370.759 472 369z"/>
    <path style="fill:#86a6c4; stroke:none;" d="M522.667 369.333C522.222 369.778 523.278 369.722 523.333 369.667C523.778 369.222 522.722 369.278 522.667 369.333z"/>
    <path style="fill:#687d9a; stroke:none;" d="M606.667 369.333C606.222 369.778 607.278 369.722 607.333 369.667C607.778 369.222 606.722 369.278 606.667 369.333z"/>
    <path style="fill:#6a809c; stroke:none;" d="M677.333 369.667C677.278 369.722 677.222 370.778 677.667 370.333C677.722 370.278 677.778 369.222 677.333 369.667z"/>
    <path style="fill:#53627d; stroke:none;" d="M461 370C459.73 376.158 458.167 381.8 460 388C462.388 383.031 463.152 375.13 461 370z"/>
    <path style="fill:#81a0bd; stroke:none;" d="M518.667 370.333C518.222 370.778 519.278 370.722 519.333 370.667C519.778 370.222 518.722 370.278 518.667 370.333z"/>
    <path style="fill:#697f9c; stroke:none;" d="M609.667 370.333C609.222 370.778 610.278 370.722 610.333 370.667C610.778 370.222 609.722 370.278 609.667 370.333z"/>
    <path style="fill:#88a9c7; stroke:none;" d="M646.333 370.667C646.278 370.722 646.222 371.778 646.667 371.333C646.722 371.278 646.778 370.222 646.333 370.667z"/>
    <path style="fill:#69809b; stroke:none;" d="M460.333 371.667C460.278 371.722 460.222 372.778 460.667 372.333C460.723 372.277 460.777 371.223 460.333 371.667z"/>
    <path style="fill:#7c98b6; stroke:none;" d="M514.667 371.333C514.222 371.778 515.278 371.722 515.333 371.667C515.778 371.222 514.722 371.278 514.667 371.333z"/>
    <path style="fill:#89abc8; stroke:none;" d="M511.667 372.333C511.222 372.778 512.278 372.722 512.333 372.667C512.778 372.222 511.722 372.278 511.667 372.333z"/>
    <path style="fill:#60738f; stroke:none;" d="M472 373L472 377C473.073 375.118 473.084 374.863 472 373z"/>
    <path style="fill:#7f9dbb; stroke:none;" d="M507.667 373.333C507.222 373.778 508.278 373.722 508.333 373.667C508.778 373.222 507.722 373.278 507.667 373.333z"/>
    <path style="fill:#7792af; stroke:none;" d="M656 373L656 376C656.696 374.446 656.696 374.554 656 373M459 374L459 377C459.696 375.446 459.696 375.554 459 374z"/>
    <path style="fill:#8eb0ce; stroke:none;" d="M462 374L462 379C462.83 376.969 462.83 376.031 462 374z"/>
    <path style="fill:#87a7c5; stroke:none;" d="M504.667 374.333C504.222 374.778 505.278 374.722 505.333 374.667C505.778 374.222 504.722 374.278 504.667 374.333z"/>
    <path style="fill:#87a7c6; stroke:none;" d="M667.333 374.667C667.278 374.722 667.222 375.778 667.667 375.333C667.722 375.278 667.778 374.222 667.333 374.667z"/>
    <path style="fill:#6d85a1; stroke:none;" d="M659 375C658.841 377.728 658.695 380.285 659 383C660.161 380.23 660.161 377.77 659 375z"/>
    <path style="fill:#7691af; stroke:none;" d="M641 376L642 377L641 376z"/>
    <path style="fill:#809ebc; stroke:none;" d="M668.333 377.667C668.278 377.722 668.222 378.778 668.667 378.333C668.722 378.278 668.778 377.222 668.333 377.667z"/>
    <path style="fill:#7691ae; stroke:none;" d="M629 379L630 380L629 379z"/>
    <path style="fill:#7893b0; stroke:none;" d="M449 381L448 383L450 383C450 381.147 450.3 381.65 449 381z"/>
    <path style="fill:#7b98b5; stroke:none;" d="M669 381L669 384C669.696 382.446 669.696 382.554 669 381z"/>
    <path style="fill:#7a95b2; stroke:none;" d="M471 382L472 383L471 382z"/>
    <path style="fill:#7690ad; stroke:none;" d="M443 383L444 384L443 383z"/>
    <path style="fill:#53627d; stroke:none;" d="M448 383C443.013 391.859 443 401.119 443 411C446.887 404.636 450.219 390.215 448 383z"/>
    <path style="fill:#7690ad; stroke:none;" d="M461 383L461 386C461.696 384.446 461.696 384.554 461 383z"/>
    <path style="fill:#7792af; stroke:none;" d="M470 383L471 384L470 383M469 384L470 385L469 384z"/>
    <path style="fill:#7893b0; stroke:none;" d="M468 385L469 386L468 385z"/>
    <path style="fill:#687d9a; stroke:none;" d="M448 386L448 389C448.696 387.446 448.696 387.554 448 386z"/>
    <path style="fill:#7690ad; stroke:none;" d="M670 386L670 389C670.696 387.446 670.696 387.554 670 386z"/>
    <path style="fill:#748fac; stroke:none;" d="M459 387L459 392C460.516 389.822 460.516 389.178 459 387z"/>
    <path style="fill:#7792af; stroke:none;" d="M480 388L481 389L480 388z"/>
    <path style="fill:#81a0bd; stroke:none;" d="M448 389L448 392C448.696 390.446 448.696 390.554 448 389z"/>
    <path style="fill:#687d9a; stroke:none;" d="M444.333 390.667C444.278 390.722 444.222 391.778 444.667 391.333C444.722 391.278 444.778 390.222 444.333 390.667z"/>
    <path style="fill:#7590ad; stroke:none;" d="M462 392L463 393L462 392z"/>
    <path style="fill:#7691ae; stroke:none;" d="M671.333 392.667C671.278 392.722 671.222 393.778 671.667 393.333C671.722 393.278 671.778 392.222 671.333 392.667z"/>
    <path style="fill:#7691af; stroke:none;" d="M439.333 393.667C439.278 393.722 439.222 394.778 439.667 394.333C439.722 394.278 439.778 393.222 439.333 393.667z"/>
    <path style="fill:#7590ad; stroke:none;" d="M474 393L475 394L474 393z"/>
    <path style="fill:#738ca9; stroke:none;" d="M443.333 394.667C443.278 394.722 443.222 395.778 443.667 395.333C443.722 395.278 443.778 394.222 443.333 394.667z"/>
    <path style="fill:#7995b3; stroke:none;" d="M648 394L649 395L648 394z"/>
    <path style="fill:#7b98b5; stroke:none;" d="M447.333 395.667C447.278 395.722 447.222 396.778 447.667 396.333C447.722 396.278 447.778 395.222 447.333 395.667z"/>
    <path style="fill:#6e86a2; stroke:none;" d="M438.333 398.667C438.278 398.722 438.222 399.778 438.667 399.333C438.722 399.278 438.778 398.222 438.333 398.667z"/>
    <path style="fill:#738ca9; stroke:none;" d="M672 398L672 401C672.696 399.446 672.696 399.554 672 398z"/>
    <path style="fill:#85a4c2; stroke:none;" d="M438 400L438 403C438.696 401.446 438.696 401.554 438 400z"/>
    <path style="fill:#84a4c1; stroke:none;" d="M446.333 400.667C446.278 400.722 446.222 401.778 446.667 401.333C446.722 401.278 446.778 400.222 446.333 400.667z"/>
    <path style="fill:#7994b1; stroke:none;" d="M655 401L656 402L655 401z"/>
    <path style="fill:#7a96b2; stroke:none;" d="M663 401L664 402L663 401z"/>
    <path style="fill:#88a9c7; stroke:none;" d="M445.333 404.667C445.278 404.722 445.222 405.778 445.667 405.333C445.722 405.278 445.778 404.222 445.333 404.667z"/>
    <path style="fill:#7a96b3; stroke:none;" d="M673 404L673 408C673.71 406.24 673.71 405.759 673 404z"/>
    <path style="fill:#6b839f; stroke:none;" d="M437.333 405.667C437.278 405.722 437.222 406.778 437.667 406.333C437.722 406.278 437.778 405.222 437.333 405.667z"/>
    <path style="fill:#7e9cb9; stroke:none;" d="M437 407L437 410C437.696 408.446 437.696 408.554 437 407z"/>
    <path style="fill:#7691ae; stroke:none;" d="M488 407C488.994 409.203 488.67 409.048 491 409C489.861 407.984 489.389 407.691 488 407z"/>
    <path style="fill:#7a96b3; stroke:none;" d="M451 408L452 409L451 408z"/>
    <path style="fill:#53627d; stroke:none;" d="M490 409C498.784 424.181 520.265 421.432 533 414C527.461 412.691 520.903 415.394 515 414.83C506.242 413.994 498.504 410.463 490 409z"/>
    <path style="fill:#6a819d; stroke:none;" d="M622.667 410.333C622.222 410.778 623.278 410.722 623.333 410.667C623.778 410.222 622.722 410.278 622.667 410.333z"/>
    <path style="fill:#82a1be; stroke:none;" d="M443.333 411.667C443.278 411.722 443.222 412.778 443.667 412.333C443.722 412.278 443.778 411.222 443.333 411.667z"/>
    <path style="fill:#53627d; stroke:none;" d="M577 416C587.626 430.73 615.33 427.402 623 411C615.667 413.669 608.823 418.31 601 419.671C592.561 421.14 584.951 418.169 577 416z"/>
    <path style="fill:#6c84a0; stroke:none;" d="M436 412L436 415C436.696 413.446 436.696 413.554 436 412z"/>
    <path style="fill:#84a3c0; stroke:none;" d="M501.667 412.333C501.222 412.778 502.278 412.722 502.333 412.667C502.778 412.222 501.722 412.278 501.667 412.333z"/>
    <path style="fill:#69809c; stroke:none;" d="M668.333 412.667C668.278 412.722 668.222 413.778 668.667 413.333C668.722 413.278 668.778 412.222 668.333 412.667z"/>
    <path style="fill:#738daa; stroke:none;" d="M505.667 413.333C505.222 413.778 506.278 413.722 506.333 413.667C506.778 413.222 505.722 413.278 505.667 413.333z"/>
    <path style="fill:#809ebb; stroke:none;" d="M528 413C529.248 413.685 529.548 413.749 531 414C529.752 413.315 529.451 413.251 528 413z"/>
    <path style="fill:#7994b2; stroke:none;" d="M512 414C513.506 414.683 514.315 414.826 516 415C514.494 414.317 513.685 414.174 512 414z"/>
    <path style="fill:#8caecc; stroke:none;" d="M516 414C518.613 415.098 521.165 414.993 524 415C521.387 413.902 518.836 414.007 516 414z"/>
    <path style="fill:#69809c; stroke:none;" d="M524.667 414.333C524.222 414.778 525.278 414.722 525.333 414.667C525.778 414.222 524.722 414.278 524.667 414.333z"/>
    <path style="fill:#82a0be; stroke:none;" d="M576 415L576 417C577.635 416.455 577.455 416.635 578 415L576 415z"/>
    <path style="fill:#6e86a3; stroke:none;" d="M669.333 415.667C669.278 415.722 669.222 416.778 669.667 416.333C669.722 416.278 669.778 415.222 669.333 415.667z"/>
    <path style="fill:#7a96b3; stroke:none;" d="M674 415L674 418C674.696 416.446 674.696 416.554 674 415z"/>
    <path style="fill:#7d9ab7; stroke:none;" d="M584.667 418.333C584.222 418.778 585.278 418.722 585.333 418.667C585.778 418.222 584.722 418.278 584.667 418.333z"/>
    <path style="fill:#6d84a1; stroke:none;" d="M604.667 418.333C604.222 418.778 605.278 418.722 605.333 418.667C605.778 418.222 604.722 418.278 604.667 418.333z"/>
    <path style="fill:#7f9dba; stroke:none;" d="M435 419L435 424C435.83 421.97 435.83 421.03 435 419z"/>
    <path style="fill:#6a809d; stroke:none;" d="M505.667 419.333C505.222 419.778 506.278 419.722 506.333 419.667C506.778 419.222 505.722 419.278 505.667 419.333z"/>
    <path style="fill:#7995b3; stroke:none;" d="M520.667 419.333C520.222 419.778 521.278 419.722 521.333 419.667C521.778 419.222 520.722 419.278 520.667 419.333z"/>
    <path style="fill:#7089a6; stroke:none;" d="M589 419C593.216 420.769 598.459 420 603 420C598.784 418.231 593.541 419 589 419z"/>
    <path style="fill:#6c83a0; stroke:none;" d="M670.333 419.667C670.278 419.722 670.222 420.778 670.667 420.333C670.722 420.278 670.778 419.222 670.333 419.667z"/>
    <path style="fill:#7b98b5; stroke:none;" d="M509 420C511.613 421.098 514.164 420.993 517 421C514.387 419.902 511.835 420.007 509 420z"/>
    <path style="fill:#7894b1; stroke:none;" d="M449 422L450 423L449 422z"/>
    <path style="fill:#5f728e; stroke:none;" d="M675 422L675 434C676.512 430.396 676.512 425.604 675 422z"/>
    <path style="fill:#677e9a; stroke:none;" d="M671 423C670.798 424.85 670.798 426.15 671 428C671.83 425.97 671.83 425.03 671 423z"/>
    <path style="fill:#667c99; stroke:none;" d="M444.333 425.667C444.278 425.722 444.222 426.778 444.667 426.333C444.722 426.278 444.778 425.222 444.333 425.667z"/>
    <path style="fill:#748eab; stroke:none;" d="M592 425C593.506 425.683 594.315 425.826 596 426C594.494 425.317 593.685 425.174 592 425z"/>
    <path style="fill:#667b97; stroke:none;" d="M596 425C598.332 425.985 600.457 425.981 603 426C600.668 425.015 598.543 425.019 596 425z"/>
    <path style="fill:#7e9bb9; stroke:none;" d="M434 427C434.307 429.123 434.382 429.686 436 431C435.404 429.44 434.911 428.377 434 427z"/>
    <path style="fill:#84a3c1; stroke:none;" d="M671 428C671.545 429.635 671.365 429.455 673 430L673 428L671 428z"/>
    <path style="fill:#2b2b2b; stroke:none;" d="M432 430L433 431L432 430z"/>
    <path style="fill:#738ca9; stroke:none;" d="M444 432L444 435C444.696 433.446 444.696 433.554 444 432z"/>
    <path style="fill:#005555; stroke:none;" d="M427 434L428 435L427 434z"/>
    <path style="fill:#748eab; stroke:none;" d="M666.667 434.333C666.222 434.778 667.278 434.722 667.333 434.667C667.778 434.222 666.722 434.278 666.667 434.333z"/>
    <path style="fill:#53627d; stroke:none;" d="M655 443C660.291 442.06 666.551 438.024 671.891 441.028C680.225 445.715 676.23 465.513 669.895 470.347C663.876 474.94 656.741 472.907 650 472C653.523 476.11 657.661 477.632 663 478.024C667.534 478.357 671.821 479.574 675.96 476.991C684.887 471.419 685.217 459.308 684.985 450C684.878 445.706 684.231 440.639 681.348 437.228C674.347 428.946 659.881 436.234 655 443z"/>
    <path style="fill:#718aa7; stroke:none;" d="M440.667 436.333C440.222 436.778 441.278 436.722 441.333 436.667C441.778 436.222 440.722 436.278 440.667 436.333z"/>
    <path style="fill:#6a819e; stroke:none;" d="M447 437L447 439L449 439C448.455 437.365 448.635 437.545 447 437z"/>
    <path style="fill:#85a4c2; stroke:none;" d="M662.667 440.333C662.222 440.778 663.278 440.722 663.333 440.667C663.778 440.222 662.722 440.278 662.667 440.333z"/>
    <path style="fill:#738ca9; stroke:none;" d="M654.667 443.333C654.222 443.778 655.278 443.722 655.333 443.667C655.778 443.222 654.722 443.278 654.667 443.333z"/>
    <path style="fill:#819fbd; stroke:none;" d="M675 444L675 457C676.591 453.209 676.591 447.791 675 444z"/>
    <path style="fill:#7b98b5; stroke:none;" d="M429.333 448.667C429.278 448.722 429.222 449.778 429.667 449.333C429.722 449.278 429.778 448.222 429.333 448.667z"/>
    <path style="fill:#728ca8; stroke:none;" d="M428 452L428 455C428.696 453.446 428.696 453.554 428 452z"/>
    <path style="fill:#6d84a1; stroke:none;" d="M675 457L675 460C675.696 458.446 675.696 458.554 675 457z"/>
    <path style="fill:#819fbd; stroke:none;" d="M427 458L427 467C428.256 464.006 428.256 460.994 427 458z"/>
    <path style="fill:#728ba8; stroke:none;" d="M674.333 463.667C674.278 463.722 674.222 464.778 674.667 464.333C674.722 464.278 674.778 463.222 674.333 463.667z"/>
    <path style="fill:#627692; stroke:none;" d="M542 467C541.014 468.479 541 468.203 541 470C542.766 469.021 542.955 468.778 542 467z"/>
    <path style="fill:#6f87a3; stroke:none;" d="M564 467C564.545 468.635 564.365 468.455 566 469L566 467L564 467z"/>
    <path style="fill:#53627d; stroke:none;" d="M566 468C564.7 476.227 554.892 477.644 548.043 474.853C545.343 473.752 543.45 471.473 541 470C541.578 480.532 555.546 483.157 563.941 478.682C568.298 476.36 568.725 471.602 566 468z"/>
    <path style="fill:#7691af; stroke:none;" d="M429 469L430 470L429 469z"/>
    <path style="fill:#7e9bb8; stroke:none;" d="M647 469C648.225 471.271 648.491 471.591 651 472C649.659 470.726 648.597 469.959 647 469z"/>
    <path style="fill:#7590ac; stroke:none;" d="M430 470L431 471L430 470z"/>
    <path style="fill:#657a96; stroke:none;" d="M568 470L568 475C568.83 472.97 568.83 472.03 568 470z"/>
    <path style="fill:#6f87a4; stroke:none;" d="M442.667 472.333C442.222 472.778 443.278 472.722 443.333 472.667C443.778 472.222 442.722 472.278 442.667 472.333z"/>
    <path style="fill:#809fbd; stroke:none;" d="M653.667 472.333C653.222 472.778 654.278 472.722 654.333 472.667C654.778 472.222 653.722 472.278 653.667 472.333z"/>
    <path style="fill:#718aa7; stroke:none;" d="M665.667 472.333C665.222 472.778 666.278 472.722 666.333 472.667C666.778 472.222 665.722 472.278 665.667 472.333z"/>
    <path style="fill:#005555; stroke:none;" d="M680 472L681 473L680 472z"/>
    <path style="fill:#61748f; stroke:none;" d="M657 473C658.506 473.683 659.315 473.826 661 474C659.494 473.317 658.685 473.174 657 473z"/>
    <path style="fill:#6e86a3; stroke:none;" d="M549 475C552.697 476.552 557.017 476 561 476C557.303 474.448 552.983 475 549 475z"/>
    <path style="fill:#667b97; stroke:none;" d="M661 478C663.332 478.985 665.457 478.981 668 479C665.668 478.015 663.543 478.019 661 478z"/>
    <path style="fill:#53627d; stroke:none;" d="M448 479C449.529 484.296 457.148 491.802 456.448 497C455.886 501.176 450.808 505.668 448.427 509C442.034 517.946 436.193 527.387 430.861 537C415.936 563.909 404.993 594.056 394.692 623C383.814 653.565 379.117 686.811 376.91 719C373.777 764.718 376.794 809.374 387 854C389.775 847.567 388.55 840.73 388.09 834C387.591 826.723 388 819.293 388 812C388 777.279 384.014 741.588 388.155 707C393.494 662.408 405.562 620.178 423.424 579C435.018 552.272 449.832 526.824 461 500C466.024 506.233 470.931 512.432 477 517.711C497.096 535.19 521.01 542.383 547 545.166C560.329 546.593 574.936 547.328 588 543.845C603.128 539.811 618.086 532.797 631 523.971C636.318 520.337 640.778 515.706 646 512C648.761 524.067 658.344 534.927 663.741 546C675.765 570.669 686.681 597.162 692.576 624C701.766 665.839 705.996 707.446 708.911 750C710.704 776.19 709.187 803.075 714 829C718.521 820.496 717.779 806.491 718.015 797C718.471 778.655 719.917 760.361 718.17 742C716.556 725.044 716.535 707.977 714.831 691C710.786 650.707 702.424 609.725 687.811 572C679.048 549.377 668.813 525.329 650 509C654.631 503.699 660.233 498.536 663 492C650.448 500.738 639.611 511.36 626 518.691C610.868 526.84 591.213 535.108 574 536.829C545.2 539.709 514.416 529.503 490 515.139C473.707 505.554 463.147 489.67 448 479z"/>
    <path style="fill:#677d99; stroke:none;" d="M549 480C551.89 481.213 554.874 480.998 558 481C555.11 479.787 552.126 480.002 549 480z"/>
    <path style="fill:#86a7c4; stroke:none;" d="M558.667 480.333C558.222 480.778 559.278 480.722 559.333 480.667C559.778 480.222 558.722 480.278 558.667 480.333z"/>
    <path style="fill:#748eac; stroke:none;" d="M551 493C552.506 493.683 553.315 493.826 555 494C553.494 493.317 552.685 493.174 551 493z"/>
    <path style="fill:#637693; stroke:none;" d="M555 493C557.89 494.213 560.874 493.998 564 494C561.11 492.787 558.126 493.002 555 493z"/>
    <path style="fill:#7b98b5; stroke:none;" d="M564 493C565.248 493.685 565.548 493.749 567 494C565.752 493.315 565.452 493.251 564 493z"/>
    <path style="fill:#697f9c; stroke:none;" d="M547.667 494.333C547.222 494.778 548.278 494.722 548.333 494.667C548.778 494.222 547.722 494.278 547.667 494.333z"/>
    <path style="fill:#53627d; stroke:none;" d="M524 509C538.904 502.803 554.676 498.187 571 501.888C579.166 503.74 586.341 507.811 594 511C585.404 492.72 558.72 491.344 542 496.294C534.919 498.39 527.296 502.083 524 509z"/>
    <path style="fill:#667c98; stroke:none;" d="M543.667 495.333C543.222 495.778 544.278 495.722 544.333 495.667C544.778 495.222 543.722 495.278 543.667 495.333z"/>
    <path style="fill:#657b97; stroke:none;" d="M540.667 496.333C540.222 496.778 541.278 496.722 541.333 496.667C541.778 496.222 540.722 496.278 540.667 496.333z"/>
    <path style="fill:#7894b1; stroke:none;" d="M656 497L657 498L656 497z"/>
    <path style="fill:#9cc3e2; stroke:none;" d="M461 500C451.12 516.927 442.847 535.188 434.691 553C411.85 602.885 393.491 654.017 388.17 709C386.459 726.68 388 745.234 388 763L388 815C388 823.25 386.5 833.169 389.468 841C401.155 871.839 428.584 886.528 458 896.333C506.598 912.533 558.914 918.917 610 912.282C633.841 909.185 660.319 902.676 677.714 884.83C692.969 869.181 699.691 850.728 704.873 830C707.635 818.955 710.283 807.444 710.545 796C710.854 782.5 709.012 768.467 708.089 755C704.563 703.498 702.426 650.779 686.652 601C680.457 581.451 672.096 561.251 662.741 543C657.524 532.823 650.837 523.361 646 513C638.283 515.989 632.086 522.846 625 527.189C612.829 534.649 599.558 540.106 586 544.481C575.261 547.946 564.041 547.238 553 546.17C527.267 543.68 504.103 537.422 483 521.844C474.499 515.569 468.754 506.882 461 500z"/>
    <path style="fill:#7691ae; stroke:none;" d="M471 501L472 502L471 501z"/>
    <path style="fill:#7b98b5; stroke:none;" d="M546 501C547.769 501.779 549.036 501.912 551 502C549.231 501.221 547.964 501.088 546 501z"/>
    <path style="fill:#8bacca; stroke:none;" d="M551 501C555.724 502.982 561.91 502 567 502C562.276 500.018 556.09 501 551 501z"/>
    <path style="fill:#6e86a2; stroke:none;" d="M567 501C568.248 501.685 568.548 501.749 570 502C568.752 501.315 568.452 501.251 567 501z"/>
    <path style="fill:#83a1bf; stroke:none;" d="M541.667 502.333C541.222 502.778 542.278 502.722 542.333 502.667C542.778 502.222 541.722 502.278 541.667 502.333z"/>
    <path style="fill:#6f87a4; stroke:none;" d="M572.667 502.333C572.222 502.778 573.278 502.722 573.333 502.667C573.778 502.222 572.722 502.278 572.667 502.333z"/>
    <path style="fill:#82a1be; stroke:none;" d="M537.667 503.333C537.222 503.778 538.278 503.722 538.333 503.667C538.778 503.222 537.722 503.278 537.667 503.333z"/>
    <path style="fill:#6e86a2; stroke:none;" d="M576.667 503.333C576.222 503.778 577.278 503.722 577.333 503.667C577.778 503.222 576.722 503.278 576.667 503.333z"/>
    <path style="fill:#87a7c6; stroke:none;" d="M534.667 504.333C534.222 504.778 535.278 504.722 535.333 504.667C535.778 504.222 534.722 504.278 534.667 504.333z"/>
    <path style="fill:#88a9c7; stroke:none;" d="M531.667 505.333C531.222 505.778 532.278 505.722 532.333 505.667C532.778 505.222 531.722 505.278 531.667 505.333z"/>
    <path style="fill:#7994b2; stroke:none;" d="M466 506L467 507L466 506z"/>
    <path style="fill:#718aa7; stroke:none;" d="M523.333 508.667C523.278 508.722 523.222 509.778 523.667 509.333C523.722 509.278 523.778 508.222 523.333 508.667z"/>
    <path style="fill:#7893b0; stroke:none;" d="M642 508L643 509L642 508z"/>
    <path style="fill:#7691ae; stroke:none;" d="M482 510L483 511L482 510z"/>
    <path style="fill:#7894b1; stroke:none;" d="M592 510L593 511L592 510z"/>
    <path style="fill:#6e85a1; stroke:none;" d="M594 510L594 512L596 512C595.455 510.365 595.635 510.545 594 510z"/>
    <path style="fill:#87a7c6; stroke:none;" d="M595.667 512.333C595.222 512.778 596.278 512.722 596.333 512.667C596.778 512.222 595.722 512.278 595.667 512.333z"/>
    <path style="fill:#687d9a; stroke:none;" d="M644.667 512.333C644.222 512.778 645.278 512.722 645.333 512.667C645.778 512.222 644.722 512.278 644.667 512.333z"/>
    <path style="fill:#748fac; stroke:none;" d="M488 514L489 515L488 514z"/>
    <path style="fill:#7792af; stroke:none;" d="M642 514L643 515L642 514z"/>
    <path style="fill:#7691ae; stroke:none;" d="M647 516L648 517L647 516M479 519L480 520L479 519z"/>
    <path style="fill:#005555; stroke:none;" d="M660 521L661 522L660 521z"/>
    <path style="fill:#84a3c1; stroke:none;" d="M516.667 528.333C516.222 528.778 517.278 528.722 517.333 528.667C517.778 528.222 516.722 528.278 516.667 528.333z"/>
    <path style="fill:#88a9c7; stroke:none;" d="M523.667 530.333C523.222 530.778 524.278 530.722 524.333 530.667C524.778 530.222 523.722 530.278 523.667 530.333z"/>
    <path style="fill:#89aac8; stroke:none;" d="M527.667 531.333C527.222 531.778 528.278 531.722 528.333 531.667C528.778 531.222 527.722 531.278 527.667 531.333z"/>
    <path style="fill:#809ebb; stroke:none;" d="M531.667 532.333C531.222 532.778 532.278 532.722 532.333 532.667C532.778 532.222 531.722 532.278 531.667 532.333z"/>
    <path style="fill:#6c839f; stroke:none;" d="M591.667 532.333C591.222 532.778 592.278 532.722 592.333 532.667C592.778 532.222 591.722 532.278 591.667 532.333z"/>
    <path style="fill:#7a96b3; stroke:none;" d="M536.667 533.333C536.222 533.778 537.278 533.722 537.333 533.667C537.778 533.222 536.722 533.278 536.667 533.333z"/>
    <path style="fill:#657b97; stroke:none;" d="M588.667 533.333C588.222 533.778 589.278 533.722 589.333 533.667C589.778 533.222 588.722 533.278 588.667 533.333z"/>
    <path style="fill:#7590ac; stroke:none;" d="M542.667 534.333C542.222 534.778 543.278 534.722 543.333 534.667C543.778 534.222 542.722 534.278 542.667 534.333z"/>
    <path style="fill:#6c829e; stroke:none;" d="M584.667 534.333C584.222 534.778 585.278 534.722 585.333 534.667C585.778 534.222 584.722 534.278 584.667 534.333z"/>
    <path style="fill:#667b97; stroke:none;" d="M548 535C549.248 535.685 549.548 535.749 551 536C549.752 535.315 549.452 535.251 548 535z"/>
    <path style="fill:#8baecb; stroke:none;" d="M551 535C552.506 535.683 553.315 535.826 555 536C553.494 535.317 552.685 535.174 551 535z"/>
    <path style="fill:#7893b0; stroke:none;" d="M579 535C580.248 535.685 580.548 535.749 582 536C580.752 535.315 580.452 535.251 579 535z"/>
    <path style="fill:#7089a6; stroke:none;" d="M559 536C564.222 538.191 571.368 537 577 537C571.778 534.809 564.632 536 559 536z"/>
    <path style="fill:#6c84a0; stroke:none;" d="M519.667 540.333C519.222 540.778 520.278 540.722 520.333 540.667C520.778 540.222 519.722 540.278 519.667 540.333z"/>
    <path style="fill:#6b829e; stroke:none;" d="M523.667 541.333C523.222 541.778 524.278 541.722 524.333 541.667C524.778 541.222 523.722 541.278 523.667 541.333z"/>
    <path style="fill:#005555; stroke:none;" d="M674 541L675 542L674 541z"/>
    <path style="fill:#728ba8; stroke:none;" d="M527.667 542.333C527.222 542.778 528.278 542.722 528.333 542.667C528.778 542.222 527.722 542.278 527.667 542.333z"/>
    <path style="fill:#7a96b2; stroke:none;" d="M532.667 543.333C532.222 543.778 533.278 543.722 533.333 543.667C533.778 543.222 532.722 543.278 532.667 543.333z"/>
    <path style="fill:#7f9dba; stroke:none;" d="M538 544C539.248 544.685 539.549 544.749 541 545C539.752 544.315 539.452 544.251 538 544z"/>
    <path style="fill:#82a1bf; stroke:none;" d="M585.667 544.333C585.222 544.778 586.278 544.722 586.333 544.667C586.778 544.222 585.722 544.278 585.667 544.333z"/>
    <path style="fill:#86a6c4; stroke:none;" d="M544.667 545.333C544.222 545.778 545.278 545.722 545.333 545.667C545.778 545.222 544.722 545.278 544.667 545.333z"/>
    <path style="fill:#617490; stroke:none;" d="M546 545C547.506 545.683 548.315 545.826 550 546C548.494 545.317 547.685 545.174 546 545z"/>
    <path style="fill:#718ba8; stroke:none;" d="M580 545C581.248 545.685 581.548 545.749 583 546C581.752 545.315 581.452 545.251 580 545z"/>
    <path style="fill:#657a96; stroke:none;" d="M555 546C560.715 548.398 568.831 547 575 547C569.285 544.602 561.169 546 555 546z"/>
    <path style="fill:#809ebc; stroke:none;" d="M575 546C576.248 546.685 576.548 546.749 578 547C576.752 546.315 576.452 546.251 575 546z"/>
    <path style="fill:#005555; stroke:none;" d="M678 549L679 550L678 549M410 582L411 583L410 582z"/>
    <path style="fill:#89a9c7; stroke:none;" d="M683.333 592.667C683.278 592.722 683.222 593.778 683.667 593.333C683.722 593.278 683.778 592.222 683.333 592.667z"/>
    <path style="fill:#83a2c0; stroke:none;" d="M688.333 607.667C688.278 607.722 688.222 608.778 688.667 608.333C688.722 608.278 688.778 607.222 688.333 607.667z"/>
    <path style="fill:#005555; stroke:none;" d="M398 613L399 614L398 613z"/>
    <path style="fill:#7792af; stroke:none;" d="M690.333 614.667C690.278 614.722 690.222 615.778 690.667 615.333C690.722 615.278 690.778 614.222 690.333 614.667z"/>
    <path style="fill:#82a2c0; stroke:none;" d="M691.333 619.667C691.278 619.722 691.222 620.778 691.667 620.333C691.722 620.278 691.778 619.222 691.333 619.667z"/>
    <path style="fill:#7691ae; stroke:none;" d="M692.333 623.667C692.278 623.722 692.222 624.778 692.667 624.333C692.722 624.278 692.778 623.222 692.333 623.667z"/>
    <path style="fill:#7893af; stroke:none;" d="M693.333 628.667C693.277 628.722 693.222 629.778 693.667 629.333C693.722 629.278 693.778 628.222 693.333 628.667z"/>
    <path style="fill:#7994b1; stroke:none;" d="M694.333 633.667C694.278 633.722 694.222 634.778 694.667 634.333C694.722 634.278 694.778 633.222 694.333 633.667z"/>
    <path style="fill:#87a7c5; stroke:none;" d="M402.333 634.667C402.278 634.722 402.222 635.778 402.667 635.333C402.722 635.278 402.778 634.222 402.333 634.667z"/>
    <path style="fill:#7995b3; stroke:none;" d="M401.333 637.667C401.278 637.722 401.222 638.778 401.667 638.333C401.722 638.278 401.778 637.222 401.333 637.667z"/>
    <path style="fill:#7792af; stroke:none;" d="M695 638L695 641C695.696 639.446 695.696 639.554 695 638z"/>
    <path style="fill:#7b97b4; stroke:none;" d="M400.333 641.667C400.278 641.722 400.222 642.778 400.667 642.333C400.722 642.278 400.778 641.222 400.333 641.667z"/>
    <path style="fill:#728ca8; stroke:none;" d="M696.333 643.667C696.278 643.722 696.222 644.778 696.667 644.333C696.722 644.278 696.778 643.222 696.333 643.667z"/>
    <path style="fill:#7b97b4; stroke:none;" d="M399.333 645.667C399.278 645.722 399.222 646.778 399.667 646.333C399.722 646.278 399.778 645.222 399.333 645.667z"/>
    <path style="fill:#6e86a2; stroke:none;" d="M697.333 648.667C697.278 648.722 697.222 649.778 697.667 649.333C697.722 649.278 697.778 648.222 697.333 648.667z"/>
    <path style="fill:#7a96b3; stroke:none;" d="M398.333 649.667C398.278 649.722 398.222 650.778 398.667 650.333C398.722 650.278 398.778 649.222 398.333 649.667z"/>
    <path style="fill:#89abc8; stroke:none;" d="M697.333 650.667C697.278 650.722 697.222 651.778 697.667 651.333C697.722 651.278 697.778 650.222 697.333 650.667z"/>
    <path style="fill:#7893b0; stroke:none;" d="M397.333 653.667C397.278 653.722 397.222 654.778 397.667 654.333C397.722 654.278 397.778 653.222 397.333 653.667z"/>
    <path style="fill:#7690ad; stroke:none;" d="M698 654L698 657C698.696 655.446 698.696 655.554 698 654z"/>
    <path style="fill:#819fbd; stroke:none;" d="M396.333 658.667C396.278 658.722 396.222 659.778 396.667 659.333C396.722 659.278 396.778 658.222 396.333 658.667z"/>
    <path style="fill:#7a95b2; stroke:none;" d="M699.333 660.667C699.278 660.722 699.222 661.778 699.667 661.333C699.722 661.278 699.778 660.222 699.333 660.667z"/>
    <path style="fill:#7893b0; stroke:none;" d="M395.333 662.667C395.278 662.722 395.222 663.778 395.667 663.333C395.722 663.278 395.778 662.222 395.333 662.667z"/>
    <path style="fill:#6f87a4; stroke:none;" d="M700.333 665.667C700.277 665.722 700.222 666.778 700.667 666.333C700.722 666.278 700.778 665.222 700.333 665.667z"/>
    <path style="fill:#7893b0; stroke:none;" d="M394 667L394 670C394.696 668.446 394.696 668.554 394 667z"/>
    <path style="fill:#88a9c7; stroke:none;" d="M700.333 667.667C700.277 667.723 700.222 668.778 700.667 668.333C700.722 668.278 700.778 667.222 700.333 667.667z"/>
    <path style="fill:#718ba8; stroke:none;" d="M701 671L701 674C701.696 672.446 701.696 672.554 701 671z"/>
    <path style="fill:#7792af; stroke:none;" d="M393.333 672.667C393.278 672.722 393.222 673.778 393.667 673.333C393.722 673.278 393.778 672.222 393.333 672.667z"/>
    <path style="fill:#738daa; stroke:none;" d="M392 677L392 680C392.696 678.446 392.696 678.554 392 677z"/>
    <path style="fill:#738ca9; stroke:none;" d="M702 677L702 680C702.696 678.446 702.696 678.554 702 677z"/>
    <path style="fill:#005555; stroke:none;" d="M713 681L714 682L713 681z"/>
    <path style="fill:#7690ad; stroke:none;" d="M391.333 683.667C391.278 683.722 391.222 684.778 391.667 684.333C391.722 684.278 391.778 683.222 391.333 683.667z"/>
    <path style="fill:#6f87a4; stroke:none;" d="M703.333 683.667C703.278 683.722 703.222 684.778 703.667 684.333C703.722 684.278 703.778 683.222 703.333 683.667M390.333 689.667C390.278 689.722 390.222 690.778 390.667 690.333C390.722 690.278 390.778 689.222 390.333 689.667z"/>
    <path style="fill:#84a3c1; stroke:none;" d="M390 691L390 694C390.696 692.446 390.696 692.554 390 691z"/>
    <path style="fill:#7b97b4; stroke:none;" d="M704 691L704 698C705.059 695.466 705.059 693.534 704 691z"/>
    <path style="fill:#7d9ab8; stroke:none;" d="M389 696L389 701C389.83 698.969 389.83 698.03 389 696z"/>
    <path style="fill:#667b97; stroke:none;" d="M705 700L705 703C705.696 701.446 705.696 701.554 705 700z"/>
    <path style="fill:#85a4c3; stroke:none;" d="M705 703L705 708C705.83 705.97 705.83 705.03 705 703z"/>
    <path style="fill:#6a819e; stroke:none;" d="M388 704L388 707C388.696 705.446 388.696 705.554 388 704z"/>
    <path style="fill:#697f9c; stroke:none;" d="M387 712L387 717C387.83 714.969 387.83 714.031 387 712z"/>
    <path style="fill:#748eab; stroke:none;" d="M706 713L706 719C706.951 716.715 706.951 715.285 706 713z"/>
    <path style="fill:#7d9ab7; stroke:none;" d="M387 717L387 721C387.71 719.24 387.71 718.76 387 717z"/>
    <path style="fill:#86a7c4; stroke:none;" d="M706 719L706 725C706.951 722.715 706.951 721.285 706 719z"/>
    <path style="fill:#8badcb; stroke:none;" d="M387 721L387 754C389.701 747.564 388 737.951 388 731C388 727.581 388.328 724.166 387 721z"/>
    <path style="fill:#677d98; stroke:none;" d="M707 729L707 734C707.83 731.97 707.83 731.03 707 729z"/>
    <path style="fill:#005555; stroke:none;" d="M717 729L718 730L717 729z"/>
    <path style="fill:#7e9bb9; stroke:none;" d="M707 734L707 739C707.83 736.97 707.83 736.03 707 734z"/>
    <path style="fill:#667b97; stroke:none;" d="M708 746L708 753C709.059 750.466 709.059 748.534 708 746z"/>
    <path style="fill:#809ebc; stroke:none;" d="M708 753L708 759C708.951 756.715 708.951 755.285 708 753z"/>
    <path style="fill:#7f9dba; stroke:none;" d="M387 754L387 771C388.883 766.514 388.883 758.486 387 754z"/>
    <path style="fill:#647894; stroke:none;" d="M709 767L709 774C710.059 771.466 710.06 769.534 709 767z"/>
    <path style="fill:#657a96; stroke:none;" d="M387 771L387 784C388.591 780.209 388.591 774.791 387 771z"/>
    <path style="fill:#88a8c6; stroke:none;" d="M709 774L709 780C709.951 777.715 709.951 776.285 709 774z"/>
    <path style="fill:#7892b0; stroke:none;" d="M710 785L710 794C711.256 791.006 711.256 787.994 710 785z"/>
    <path style="fill:#808080; stroke:none;" d="M391 845L392 846L391 845M396 854L397 855L396 854z"/>
    <path style="fill:#55aaaa; stroke:none;" d="M398 857L399 858L398 857M423 881L424 882L423 881z"/>
    <path style="fill:#808080; stroke:none;" d="M679 882L680 883L679 882z"/>
    <path style="fill:#55aaaa; stroke:none;" d="M428 884L429 885L428 884z"/>
    <path style="fill:#808080; stroke:none;" d="M434 887L435 888L434 887z"/>
    <path style="fill:#55aaaa; stroke:none;" d="M674 887L675 888L674 887z"/>
    <path style="fill:#808080; stroke:none;" d="M491 906L492 907L491 906M635 907L636 908L635 907z"/>
    <path style="fill:#55aaaa; stroke:none;" d="M616 911L617 912L616 911z"/>
    <path style="fill:#808080; stroke:none;" d="M529 912L530 913L529 912z"/>
</svg>
