<?xml version="1.0" standalone="yes"?>
<svg xmlns="http://www.w3.org/2000/svg" width="1080" height="1080">
<path style="fill:#000000; stroke:none;" d="M0 0L0 1080L1080 1080L1080 0L0 0z"/>
<path style="fill:#53627d; stroke:none;" d="M423 552C411.932 580.528 398.164 608.379 390.151 638C371.188 708.101 370.875 783.491 387 854C389.775 847.567 388.55 840.73 388.09 834C387.591 826.723 388 819.293 388 812C388 777.279 384.014 741.588 388.155 707C393.494 662.408 405.562 620.178 423.424 579C435.018 552.272 449.832 526.824 461 500C466.024 506.233 470.931 512.432 477 517.711C497.096 535.19 521.01 542.383 547 545.166C560.329 546.593 574.936 547.328 588 543.845C603.128 539.811 618.086 532.797 631 523.971C636.318 520.337 640.778 515.706 646 512C648.761 524.067 658.344 534.927 663.741 546C675.765 570.669 686.681 597.162 692.576 624C701.766 665.839 705.996 707.446 708.911 750C710.704 776.19 709.187 803.075 714 829C717.106 823.157 716.545 815.461 717.17 809C718.526 794.988 719 781.096 719 767C719 709 709.938 652.436 697 596C703.116 595.87 708.839 594.017 715 594C711.685 591.812 708.019 590.717 704 591.213C701.336 591.542 698.081 593.388 695.699 591.353C693.502 589.477 692.629 585.589 691.601 583C688.836 576.033 686.335 568.959 683.551 562C676.094 543.358 664.892 521.824 649 509C652.25 505.602 655.157 502.352 657 498C645.183 503.266 635.784 513.837 624 519.73C609.075 527.193 590.729 535.157 574 536.829C548.79 539.35 519.972 531.576 498 519.691C487.435 513.977 477.802 507.107 469 498.911C463.268 493.573 458.177 486.347 451 483C452.25 487.248 457.602 492.385 457.534 496.576C457.477 500.083 452.612 504.335 450.63 507C444.933 514.659 439.916 522.824 435 531C432.096 535.83 429.813 541.293 426.648 545.923C425.166 548.092 422.848 549.647 420.6 547.369C418.543 545.284 419.01 541.66 419 539C418.979 533.29 418.009 527.71 418 522C417.963 499.204 414 476.762 414 454C414 422.77 416.451 391.123 433.695 364C449.293 339.467 473.486 323.51 499 310.753C509.852 305.327 520.963 299.522 533 297.261C551.65 293.757 569.348 296.054 588 297.83C606.266 299.57 626.172 302.94 642 313.09C648.81 317.458 654.316 323.316 660 329C683.289 352.289 697.229 382.119 704.87 414C708.844 430.585 709.555 448.098 711.17 465C714.812 503.12 715 541.691 715 580L717 580C717.071 573.591 719.081 567.381 719.845 561C721.396 548.049 722.391 535.01 722.961 522C723.986 498.586 721.492 475.236 719.169 452C717.635 436.655 717.088 421.165 713.996 406C710.792 390.283 704.719 374.423 697.742 360C680.059 323.451 649.801 294.164 608 290.17C593.383 288.773 579.448 292.265 565 292.961C551.956 293.59 539.052 289.593 526 291.289C494.655 295.363 462.344 317.712 441.039 340C400.953 381.937 401.423 448.388 410.414 502C412.477 514.307 414.076 526.792 416.661 539C417.791 544.335 417.724 549.339 423 552z"/>
<path style="fill:#000000; stroke:none;" d="M558 294L559 295L558 294z"/>
<path style="fill:#637895; stroke:none;" d="M547 295C550.697 296.552 555.017 296 559 296C555.303 294.448 550.983 295 547 295z"/>
<path style="fill:#9cc3e2; stroke:none;" d="M419 548L425 550C432.462 537.216 439.182 524.163 447.721 512C450.568 507.945 458.077 501.264 457.759 496C457.448 490.849 451.212 484.732 449 480C460.67 491.67 472.066 504.088 486 513.135C512.071 530.062 546.714 539.776 578 535.711C590.268 534.116 602.652 529.334 614 524.576C632.747 516.715 646.332 504.025 663 493L649 508C655.687 518.111 664.498 526.684 670.935 537C681.491 553.917 688.628 574.166 695 593C698.512 592.135 702.359 591.106 706 591.194C711.677 591.33 716.108 594.747 717 587C715.7 587.65 716 587.147 716 589C714.816 584.995 715.193 581.132 714.911 577C714.045 564.356 714.776 551.637 713.911 539C712.747 522.009 713.706 505.019 712.961 488C711 443.214 705.826 395.342 682.548 356C672.81 339.542 657.701 321.582 641 311.877C623.114 301.482 602.076 299.285 582 297.911C565.368 296.772 549.726 294.502 533 297.464C519.694 299.82 507.97 305.753 496 311.753C465.662 326.961 439.535 347.427 425.312 379C409.352 414.428 413.596 457.599 417.17 495C418.261 506.42 418.538 517.554 419.039 529C419.329 535.624 420.231 541.367 419 548z"/>
<path style="fill:#6d85a1; stroke:none;" d="M563.667 295.333C563.222 295.778 564.278 295.722 564.333 295.667C564.778 295.222 563.722 295.278 563.667 295.333z"/>
<path style="fill:#005555; stroke:none;" d="M632 295L633 296L632 295z"/>
<path style="fill:#758fab; stroke:none;" d="M537 296C538.769 296.779 540.036 296.912 542 297C540.231 296.221 538.964 296.088 537 296z"/>
<path style="fill:#86a7c4; stroke:none;" d="M567 296C568.248 296.685 568.548 296.749 570 297C568.752 296.315 568.452 296.251 567 296z"/>
<path style="fill:#647995; stroke:none;" d="M570 296C571.506 296.683 572.315 296.826 574 297C572.494 296.317 571.685 296.174 570 296z"/>
<path style="fill:#7893b0; stroke:none;" d="M531.667 297.333C531.222 297.778 532.278 297.722 532.333 297.667C532.778 297.222 531.722 297.278 531.667 297.333z"/>
<path style="fill:#88a9c7; stroke:none;" d="M578 297C580.613 298.098 583.165 297.993 586 298C583.387 296.902 580.836 297.007 578 297z"/>
<path style="fill:#809ebc; stroke:none;" d="M527.667 298.333C527.222 298.778 528.278 298.722 528.333 298.667C528.778 298.222 527.722 298.278 527.667 298.333z"/>
<path style="fill:#7691ae; stroke:none;" d="M596 298C597.248 298.685 597.549 298.749 599 299C597.752 298.315 597.451 298.251 596 298z"/>
<path style="fill:#83a2c0; stroke:none;" d="M602 299C603.248 299.685 603.548 299.749 605 300C603.752 299.315 603.452 299.251 602 299z"/>
<path style="fill:#6b829e; stroke:none;" d="M608.667 300.333C608.222 300.778 609.278 300.722 609.333 300.667C609.778 300.222 608.722 300.278 608.667 300.333z"/>
<path style="fill:#687e9a; stroke:none;" d="M612.667 301.333C612.222 301.778 613.278 301.722 613.333 301.667C613.778 301.222 612.722 301.278 612.667 301.333z"/>
<path style="fill:#6b839f; stroke:none;" d="M600 310C601.248 310.685 601.548 310.749 603 311C601.752 310.315 601.452 310.251 600 310z"/>
<path style="fill:#53627d; stroke:none;" d="M601 311C607.991 318.877 617.727 323.733 624.536 332C640.661 351.578 649.489 374.996 656.72 399C659.902 409.562 663.521 420.014 665 431C667.642 427.132 666.592 423.427 666.17 419C665.422 411.165 664.656 403.73 663 396C658.148 373.347 649.878 349.07 634.916 331.001C626.618 320.98 614.335 312.164 601 311z"/>
<path style="fill:#7590ad; stroke:none;" d="M487 316L488 317L487 316z"/>
<path style="fill:#7a95b2; stroke:none;" d="M648 317L649 318L648 317z"/>
<path style="fill:#7c99b6; stroke:none;" d="M502.667 320.333C502.222 320.778 503.278 320.722 503.333 320.667C503.778 320.222 502.722 320.278 502.667 320.333z"/>
<path style="fill:#53627d; stroke:none;" d="M469 392C474.344 383.253 476.32 371.443 480.781 362C487.409 347.969 496.866 335.234 503 321C496.416 323.935 491.864 329.45 487.45 335C475.275 350.309 469.054 372.536 469 392z"/>
<path style="fill:#7691ae; stroke:none;" d="M475 323L476 324L475 323z"/>
<path style="fill:#7893b0; stroke:none;" d="M616 323L617 324L616 323M627 323L628 324L627 323z"/>
<path style="fill:#7691ae; stroke:none;" d="M497 324L498 325L497 324z"/>
<path style="fill:#005555; stroke:none;" d="M674 325L675 326L674 325z"/>
<path style="fill:#7590ad; stroke:none;" d="M632 328L633 329L632 328z"/>
<path style="fill:#7792af; stroke:none;" d="M466 329L467 330L466 329z"/>
<path style="fill:#7590ac; stroke:none;" d="M624 331L625 332L624 331z"/>
<path style="fill:#005555; stroke:none;" d="M681 333L682 334L681 333z"/>
<path style="fill:#7994b1; stroke:none;" d="M670 339L671 340L670 339z"/>
<path style="fill:#005555; stroke:none;" d="M436 345L437 346L436 345z"/>
<path style="fill:#617692; stroke:none;" d="M566 345C565.806 346.857 565.79 348.153 566 350C566.83 347.97 566.83 347.03 566 345z"/>
<path style="fill:#758fab; stroke:none;" d="M634 345L635 346L634 345z"/>
<path style="fill:#53627d; stroke:none;" d="M565 349C559.872 360.513 554.62 373.454 553 386C546.18 386 538.616 388.27 532 387.582C523.729 386.722 517.784 382.665 509 384.681C501.066 386.501 492.874 395.604 486 388C483.302 395.215 491.674 396.459 497 395.816C502.763 395.119 508.136 391.129 514 391.387C519.61 391.633 524.541 396.067 530 397.319C536.714 398.86 543.312 396.811 550 396.17C553.687 395.816 558.549 396.75 561.258 393.566C563.464 390.972 562.897 387.142 563.039 384C563.283 378.638 564.544 373.351 564.911 368C565.298 362.35 567.19 354.229 565 349z"/>
<path style="fill:#005555; stroke:none;" d="M432 350L433 351L432 350z"/>
<path style="fill:#8bacca; stroke:none;" d="M566 350L566 354C566.71 352.24 566.71 351.76 566 350z"/>
<path style="fill:#748fac; stroke:none;" d="M442 351L443 352L442 351z"/>
<path style="fill:#7994b1; stroke:none;" d="M679 351L680 352L679 351z"/>
<path style="fill:#7590ac; stroke:none;" d="M640 355L641 356L640 355z"/>
<path style="fill:#005555; stroke:none;" d="M695 355L696 356L695 355z"/>
<path style="fill:#7792af; stroke:none;" d="M438 356L439 357L438 356z"/>
<path style="fill:#667c99; stroke:none;" d="M565 357L565 360C565.696 358.446 565.696 358.554 565 357z"/>
<path style="fill:#7894b2; stroke:none;" d="M642 359L643 360L642 359z"/>
<path style="fill:#88a8c5; stroke:none;" d="M565 360L565 365C565.83 362.97 565.83 362.03 565 360z"/>
<path style="fill:#6b829e; stroke:none;" d="M473.333 363.667C473.278 363.722 473.222 364.778 473.667 364.333C473.722 364.278 473.778 363.222 473.333 363.667z"/>
<path style="fill:#69809c; stroke:none;" d="M472.333 367.667C472.278 367.722 472.222 368.778 472.667 368.333C472.722 368.278 472.778 367.222 472.333 367.667z"/>
<path style="fill:#53627d; stroke:none;" d="M566 367C566.8 373.328 566.848 379.714 567.921 386C568.347 388.497 568.622 391.545 570.564 393.4C574.274 396.944 584.022 398.952 589 398.995C595.593 399.053 601.517 396.565 608 396.09C621.373 395.11 636.371 396.337 649 391C644.401 389.07 638.92 390.298 634 389.83C623.714 388.851 612.304 386.156 602 387.171C593.075 388.049 583.761 391.452 575.279 385.976C572.585 384.237 572.291 380.804 571.431 378C570.218 374.049 568.629 370.185 566 367z"/>
<path style="fill:#738daa; stroke:none;" d="M566 370L566 375C566.83 372.97 566.83 372.03 566 370z"/>
<path style="fill:#7089a6; stroke:none;" d="M471.333 371.667C471.278 371.722 471.222 372.778 471.667 372.333C471.723 372.277 471.777 371.223 471.333 371.667z"/>
<path style="fill:#85a4c2; stroke:none;" d="M564 371L564 376C564.83 373.97 564.83 373.03 564 371z"/>
<path style="fill:#89a9c7; stroke:none;" d="M648.333 374.667C648.278 374.722 648.222 375.778 648.667 375.333C648.722 375.278 648.778 374.222 648.333 374.667z"/>
<path style="fill:#809ebb; stroke:none;" d="M470.333 375.667C470.278 375.722 470.222 376.778 470.667 376.333C470.722 376.278 470.778 375.222 470.333 375.667z"/>
<path style="fill:#88a9c7; stroke:none;" d="M566 375L566 378C566.696 376.446 566.696 376.554 566 375z"/>
<path style="fill:#667c98; stroke:none;" d="M470.333 377.667C470.278 377.722 470.222 378.778 470.667 378.333C470.722 378.278 470.778 377.222 470.333 377.667z"/>
<path style="fill:#697f9c; stroke:none;" d="M563 379L563 387C564.161 384.23 564.161 381.77 563 379z"/>
<path style="fill:#84a3c0; stroke:none;" d="M469 381L469 384C469.696 382.446 469.696 382.554 469 381z"/>
<path style="fill:#677e9a; stroke:none;" d="M553.333 381.667C553.278 381.722 553.222 382.778 553.667 382.333C553.722 382.278 553.778 381.222 553.333 381.667z"/>
<path style="fill:#667c99; stroke:none;" d="M572.333 381.667C572.278 381.722 572.222 382.778 572.667 382.333C572.722 382.278 572.778 381.222 572.333 381.667z"/>
<path style="fill:#7690ad; stroke:none;" d="M512 383C514.052 383.874 515.747 383.953 518 384C515.948 383.126 514.253 383.047 512 383z"/>
<path style="fill:#7d9ab7; stroke:none;" d="M567 383L567 386C567.696 384.446 567.696 384.554 567 383z"/>
<path style="fill:#6c83a0; stroke:none;" d="M508.667 384.333C508.222 384.778 509.278 384.722 509.333 384.667C509.778 384.222 508.722 384.278 508.667 384.333z"/>
<path style="fill:#6d85a1; stroke:none;" d="M573.333 384.667C573.278 384.722 573.222 385.778 573.667 385.333C573.722 385.278 573.778 384.222 573.333 384.667z"/>
<path style="fill:#6f87a3; stroke:none;" d="M660.333 384.667C660.278 384.722 660.222 385.778 660.667 385.333C660.722 385.278 660.778 384.222 660.333 384.667z"/>
<path style="fill:#89abc8; stroke:none;" d="M471.333 385.667C471.278 385.722 471.222 386.778 471.667 386.333C471.722 386.278 471.778 385.222 471.333 385.667z"/>
<path style="fill:#667b97; stroke:none;" d="M484 385L484 391C485.225 388.987 485.645 387.341 486 385L484 385z"/>
<path style="fill:#809ebc; stroke:none;" d="M545 385C547.613 386.098 550.164 385.993 553 386C550.387 384.902 547.836 385.007 545 385z"/>
<path style="fill:#86a7c4; stroke:none;" d="M652.333 385.667C652.278 385.722 652.222 386.778 652.667 386.333C652.722 386.278 652.778 385.222 652.333 385.667z"/>
<path style="fill:#7a96b3; stroke:none;" d="M539.667 386.333C539.222 386.778 540.278 386.722 540.333 386.667C540.778 386.222 539.722 386.278 539.667 386.333z"/>
<path style="fill:#8caecd; stroke:none;" d="M530 387C532.052 387.874 533.747 387.953 536 388C533.948 387.126 532.253 387.047 530 387z"/>
<path style="fill:#89a9c7; stroke:none;" d="M563.333 387.667C563.278 387.722 563.222 388.778 563.667 388.333C563.722 388.278 563.778 387.222 563.333 387.667z"/>
<path style="fill:#7893b0; stroke:none;" d="M598.667 387.333C598.222 387.778 599.278 387.722 599.333 387.667C599.778 387.222 598.722 387.278 598.667 387.333z"/>
<path style="fill:#728ca8; stroke:none;" d="M610 387C611.769 387.779 613.036 387.912 615 388C613.231 387.221 611.964 387.088 610 387z"/>
<path style="fill:#728ba8; stroke:none;" d="M620 388C621.769 388.779 623.036 388.912 625 389C623.231 388.221 621.964 388.088 620 388z"/>
<path style="fill:#87a7c5; stroke:none;" d="M653.333 388.667C653.278 388.722 653.222 389.778 653.667 389.333C653.722 389.278 653.778 388.222 653.333 388.667z"/>
<path style="fill:#687e9a; stroke:none;" d="M661.333 388.667C661.278 388.722 661.222 389.778 661.667 389.333C661.722 389.278 661.778 388.222 661.333 388.667z"/>
<path style="fill:#809fbd; stroke:none;" d="M468 389L468 395C469.34 392.65 469.282 391.389 468 389z"/>
<path style="fill:#6f87a4; stroke:none;" d="M568 389L568 392C568.696 390.446 568.696 390.554 568 389z"/>
<path style="fill:#7b98b5; stroke:none;" d="M586.667 389.333C586.222 389.778 587.278 389.722 587.333 389.667C587.778 389.222 586.722 389.278 586.667 389.333z"/>
<path style="fill:#7088a5; stroke:none;" d="M631 389C633.332 389.985 635.457 389.981 638 390C635.668 389.015 633.543 389.019 631 389z"/>
<path style="fill:#748eab; stroke:none;" d="M648 389C649.724 390.055 649.921 390.036 652 390C650.494 389.317 649.685 389.174 648 389z"/>
<path style="fill:#6f87a3; stroke:none;" d="M511 391C513.052 391.874 514.747 391.953 517 392C514.948 391.126 513.253 391.047 511 391z"/>
<path style="fill:#85a5c2; stroke:none;" d="M654.333 391.667C654.278 391.722 654.222 392.778 654.667 392.333C654.722 392.278 654.778 391.222 654.333 391.667z"/>
<path style="fill:#819fbd; stroke:none;" d="M507.667 392.333C507.222 392.778 508.278 392.722 508.333 392.667C508.778 392.222 507.722 392.278 507.667 392.333z"/>
<path style="fill:#6e85a1; stroke:none;" d="M662.333 392.667C662.278 392.722 662.222 393.778 662.667 393.333C662.722 393.278 662.778 392.222 662.333 392.667z"/>
<path style="fill:#85a4c2; stroke:none;" d="M420.333 393.667C420.278 393.722 420.222 394.778 420.667 394.333C420.722 394.278 420.778 393.222 420.333 393.667z"/>
<path style="fill:#7690ad; stroke:none;" d="M639 393C640.248 393.685 640.548 393.749 642 394C640.752 393.315 640.452 393.251 639 393z"/>
<path style="fill:#6a819d; stroke:none;" d="M632.667 394.333C632.222 394.778 633.278 394.722 633.333 394.667C633.778 394.222 632.722 394.278 632.667 394.333z"/>
<path style="fill:#819fbd; stroke:none;" d="M634.667 394.333C634.222 394.778 635.278 394.722 635.333 394.667C635.778 394.222 634.722 394.278 634.667 394.333z"/>
<path style="fill:#82a2c0; stroke:none;" d="M655.333 394.667C655.278 394.722 655.222 395.778 655.667 395.333C655.722 395.278 655.778 394.222 655.333 394.667z"/>
<path style="fill:#7590ac; stroke:none;" d="M559 395L560 396L559 395z"/>
<path style="fill:#85a4c2; stroke:none;" d="M573 395C574.506 395.683 575.315 395.826 577 396C575.494 395.317 574.685 395.174 573 395z"/>
<path style="fill:#7a96b3; stroke:none;" d="M623 395C625.332 395.985 627.457 395.981 630 396C627.668 395.015 625.543 395.019 623 395z"/>
<path style="fill:#617692; stroke:none;" d="M490 396C492.052 396.874 493.747 396.953 496 397C493.948 396.126 492.253 396.047 490 396z"/>
<path style="fill:#6e86a2; stroke:none;" d="M547 396C548.506 396.683 549.315 396.826 551 397C549.494 396.317 548.685 396.174 547 396z"/>
<path style="fill:#7f9dba; stroke:none;" d="M551 396C553.332 396.985 555.457 396.981 558 397C555.669 396.015 553.543 396.019 551 396z"/>
<path style="fill:#8aacca; stroke:none;" d="M604 396C607.959 397.661 612.737 397 617 397C613.041 395.339 608.263 396 604 396z"/>
<path style="fill:#748eab; stroke:none;" d="M663 396L663 399C663.696 397.446 663.696 397.554 663 396z"/>
<path style="fill:#89aac8; stroke:none;" d="M419.333 397.667C419.278 397.722 419.222 398.778 419.667 398.333C419.722 398.278 419.778 397.222 419.333 397.667z"/>
<path style="fill:#6c84a0; stroke:none;" d="M529.667 397.333C529.222 397.778 530.278 397.722 530.333 397.667C530.778 397.222 529.722 397.278 529.667 397.333z"/>
<path style="fill:#7088a5; stroke:none;" d="M540.667 397.333C540.222 397.778 541.278 397.722 541.333 397.667C541.778 397.222 540.722 397.278 540.667 397.333z"/>
<path style="fill:#88a8c6; stroke:none;" d="M542.667 397.333C542.222 397.778 543.278 397.722 543.333 397.667C543.778 397.222 542.722 397.278 542.667 397.333z"/>
<path style="fill:#8bacca; stroke:none;" d="M533 398C534.769 398.779 536.036 398.912 538 399C536.231 398.221 534.964 398.088 533 398z"/>
<path style="fill:#819fbd; stroke:none;" d="M596.667 398.333C596.222 398.778 597.278 398.722 597.333 398.667C597.778 398.222 596.722 398.278 596.667 398.333z"/>
<path style="fill:#6c829e; stroke:none;" d="M586 399C588.332 399.985 590.457 399.981 593 400C590.669 399.015 588.543 399.019 586 399z"/>
<path style="fill:#81a0bd; stroke:none;" d="M410.333 400.667C410.278 400.722 410.222 401.778 410.667 401.333C410.722 401.278 410.778 400.222 410.333 400.667z"/>
<path style="fill:#7792af; stroke:none;" d="M418.333 400.667C418.278 400.722 418.222 401.778 418.667 401.333C418.722 401.278 418.778 400.222 418.333 400.667z"/>
<path style="fill:#7893b0; stroke:none;" d="M664.333 401.667C664.278 401.722 664.222 402.778 664.667 402.333C664.722 402.278 664.778 401.222 664.333 401.667z"/>
<path style="fill:#84a3c0; stroke:none;" d="M702.333 404.667C702.278 404.722 702.222 405.778 702.667 405.333C702.722 405.278 702.778 404.222 702.333 404.667z"/>
<path style="fill:#7994b1; stroke:none;" d="M417.333 405.667C417.278 405.722 417.222 406.778 417.667 406.333C417.722 406.278 417.778 405.222 417.333 405.667z"/>
<path style="fill:#7f9dba; stroke:none;" d="M665 407L665 410C665.696 408.446 665.696 408.554 665 407z"/>
<path style="fill:#89aac8; stroke:none;" d="M703.333 408.667C703.278 408.722 703.222 409.778 703.667 409.333C703.722 409.278 703.778 408.222 703.333 408.667z"/>
<path style="fill:#6f88a5; stroke:none;" d="M416.333 410.667C416.278 410.722 416.222 411.778 416.667 411.333C416.722 411.278 416.778 410.222 416.333 410.667z"/>
<path style="fill:#7e9bb8; stroke:none;" d="M660.333 410.667C660.278 410.722 660.222 411.778 660.667 411.333C660.722 411.278 660.778 410.222 660.333 410.667z"/>
<path style="fill:#85a4c3; stroke:none;" d="M416.333 412.667C416.278 412.722 416.222 413.778 416.667 413.333C416.722 413.278 416.778 412.222 416.333 412.667z"/>
<path style="fill:#809fbd; stroke:none;" d="M704.333 412.667C704.278 412.722 704.222 413.778 704.667 413.333C704.722 413.278 704.778 412.222 704.333 412.667z"/>
<path style="fill:#7e9bb9; stroke:none;" d="M661.333 414.667C661.278 414.722 661.222 415.778 661.667 415.333C661.722 415.278 661.778 414.222 661.333 414.667z"/>
<path style="fill:#738ca9; stroke:none;" d="M705.333 416.667C705.278 416.722 705.222 417.778 705.667 417.333C705.722 417.278 705.778 416.222 705.333 416.667z"/>
<path style="fill:#7691ae; stroke:none;" d="M415 417L415 422C415.83 419.97 415.83 419.031 415 417z"/>
<path style="fill:#687e9a; stroke:none;" d="M666 417L666 422C666.83 419.97 666.83 419.03 666 417z"/>
<path style="fill:#7a96b3; stroke:none;" d="M662.333 418.667C662.278 418.722 662.222 419.778 662.667 419.333C662.722 419.278 662.778 418.222 662.333 418.667z"/>
<path style="fill:#718ba8; stroke:none;" d="M706 422L706 425C706.696 423.446 706.696 423.554 706 422z"/>
<path style="fill:#87a6c4; stroke:none;" d="M664.333 427.667C664.278 427.722 664.222 428.778 664.667 428.333C664.722 428.278 664.778 427.222 664.333 427.667z"/>
<path style="fill:#6b829e; stroke:none;" d="M666 429L665 434C666.318 432.074 666.651 431.234 666 429z"/>
<path style="fill:#6e86a2; stroke:none;" d="M707 429L707 432C707.696 430.446 707.696 430.554 707 429z"/>
<path style="fill:#7894b1; stroke:none;" d="M414 430L414 436C414.951 433.715 414.951 432.285 414 430z"/>
<path style="fill:#809ebc; stroke:none;" d="M433 430C434.248 430.685 434.549 430.749 436 431C434.752 430.315 434.452 430.251 433 430z"/>
<path style="fill:#53627d; stroke:none;" d="M448 471C441.954 472.6 435.493 474.595 430.344 469.606C424.148 463.602 428.218 451.833 431.015 445C432.149 442.228 433.432 438.589 436.213 437.043C439.417 435.263 443.694 437.44 447 438C442.608 432.089 434.498 428.111 428.329 434.228C421.201 441.296 419.985 451.547 420 461C420.009 466.821 420.647 471.833 426.015 475.258C429.203 477.291 433.354 477.177 437 476.956C441.731 476.669 445.045 474.563 448 471z"/>
<path style="fill:#88a9c7; stroke:none;" d="M707 432L707 435C707.696 433.446 707.696 433.554 707 432z"/>
<path style="fill:#88a8c6; stroke:none;" d="M665.667 434.333C665.222 434.778 666.278 434.722 666.333 434.667C666.778 434.222 665.722 434.278 665.667 434.333z"/>
<path style="fill:#53627d; stroke:none;" d="M655 443C660.291 442.06 666.551 438.024 671.891 441.028C680.225 445.715 676.23 465.513 669.895 470.347C663.876 474.94 656.741 472.907 650 472C653.446 476.019 657.697 477.827 663 477.985C667.185 478.109 672.291 478.645 675.96 476.258C684.3 470.831 684.041 459.728 683.999 451C683.978 446.695 683.911 441.756 681.272 438.109C674.522 428.776 660.114 435.911 655 443z"/>
<path style="fill:#718aa7; stroke:none;" d="M440.667 436.333C440.222 436.778 441.278 436.722 441.333 436.667C441.778 436.222 440.722 436.278 440.667 436.333z"/>
<path style="fill:#6a819e; stroke:none;" d="M447 437L447 439L449 439C448.455 437.365 448.635 437.545 447 437z"/>
<path style="fill:#7d9ab7; stroke:none;" d="M708 437L708 441C708.71 439.24 708.71 438.76 708 437z"/>
<path style="fill:#85a4c2; stroke:none;" d="M662.667 440.333C662.222 440.778 663.278 440.722 663.333 440.667C663.778 440.222 662.722 440.278 662.667 440.333z"/>
<path style="fill:#6c829e; stroke:none;" d="M683.333 442.667C683.278 442.722 683.222 443.778 683.667 443.333C683.722 443.278 683.778 442.222 683.333 442.667z"/>
<path style="fill:#738ca9; stroke:none;" d="M654.667 443.333C654.222 443.778 655.278 443.722 655.333 443.667C655.778 443.222 654.722 443.278 654.667 443.333z"/>
<path style="fill:#819fbd; stroke:none;" d="M675 444L675 457C676.591 453.209 676.591 447.791 675 444z"/>
<path style="fill:#005555; stroke:none;" d="M718 444L719 445L718 444z"/>
<path style="fill:#667c98; stroke:none;" d="M684 446L684 459C685.591 455.209 685.591 449.791 684 446z"/>
<path style="fill:#7b98b5; stroke:none;" d="M429.333 448.667C429.278 448.722 429.222 449.778 429.667 449.333C429.722 449.278 429.778 448.222 429.333 448.667z"/>
<path style="fill:#7a97b5; stroke:none;" d="M709.333 448.667C709.278 448.722 709.222 449.778 709.667 449.333C709.722 449.278 709.778 448.222 709.333 448.667z"/>
<path style="fill:#687f9b; stroke:none;" d="M420.333 449.667C420.278 449.722 420.222 450.778 420.667 450.333C420.722 450.278 420.778 449.222 420.333 449.667z"/>
<path style="fill:#728ca8; stroke:none;" d="M428 452L428 455C428.696 453.446 428.696 453.554 428 452z"/>
<path style="fill:#6f87a3; stroke:none;" d="M419 453L419 457C419.71 455.241 419.71 454.76 419 453z"/>
<path style="fill:#657b97; stroke:none;" d="M710 455L710 458C710.696 456.446 710.696 456.554 710 455z"/>
<path style="fill:#5f718d; stroke:none;" d="M419 457L419 465C420.161 462.23 420.161 459.77 419 457z"/>
<path style="fill:#6d84a1; stroke:none;" d="M675 457L675 460C675.696 458.446 675.696 458.554 675 457z"/>
<path style="fill:#819fbd; stroke:none;" d="M427 458L427 467C428.256 464.006 428.256 460.994 427 458z"/>
<path style="fill:#87a6c4; stroke:none;" d="M684.333 459.667C684.278 459.722 684.222 460.778 684.667 460.333C684.722 460.278 684.778 459.222 684.333 459.667z"/>
<path style="fill:#86a7c4; stroke:none;" d="M414 462L414 470C415.161 467.23 415.161 464.77 414 462z"/>
<path style="fill:#728ba8; stroke:none;" d="M674.333 463.667C674.278 463.722 674.222 464.778 674.667 464.333C674.722 464.278 674.778 463.222 674.333 463.667z"/>
<path style="fill:#7894b1; stroke:none;" d="M683.333 463.667C683.278 463.722 683.222 464.778 683.667 464.333C683.722 464.278 683.778 463.222 683.333 463.667z"/>
<path style="fill:#7c98b6; stroke:none;" d="M419.333 465.667C419.278 465.722 419.222 466.778 419.667 466.333C419.722 466.278 419.778 465.222 419.333 465.667z"/>
<path style="fill:#8baecb; stroke:none;" d="M711 467L711 471C711.71 469.241 711.71 468.759 711 467z"/>
<path style="fill:#7691af; stroke:none;" d="M429 469L430 470L429 469z"/>
<path style="fill:#7e9bb8; stroke:none;" d="M647 469C648.225 471.271 648.491 471.591 651 472C649.659 470.726 648.597 469.959 647 469z"/>
<path style="fill:#7590ac; stroke:none;" d="M430 470L431 471L430 470z"/>
<path style="fill:#7893b0; stroke:none;" d="M680 471L681 472L680 471z"/>
<path style="fill:#7994b1; stroke:none;" d="M422 472L423 473L422 472z"/>
<path style="fill:#6f87a4; stroke:none;" d="M442.667 472.333C442.222 472.778 443.278 472.722 443.333 472.667C443.778 472.222 442.722 472.278 442.667 472.333z"/>
<path style="fill:#809fbd; stroke:none;" d="M653.667 472.333C653.222 472.778 654.278 472.722 654.333 472.667C654.778 472.222 653.722 472.278 653.667 472.333z"/>
<path style="fill:#718aa7; stroke:none;" d="M665.667 472.333C665.222 472.778 666.278 472.722 666.333 472.667C666.778 472.222 665.722 472.278 665.667 472.333z"/>
<path style="fill:#7590ad; stroke:none;" d="M423 473L424 474L423 473z"/>
<path style="fill:#61748f; stroke:none;" d="M657 473C658.506 473.683 659.315 473.826 661 474C659.494 473.317 658.685 473.174 657 473z"/>
<path style="fill:#88a9c7; stroke:none;" d="M415 475L415 478C415.696 476.446 415.696 476.554 415 475z"/>
<path style="fill:#627793; stroke:none;" d="M430 477C432.332 477.985 434.457 477.981 437 478C434.669 477.015 432.543 477.019 430 477z"/>
<path style="fill:#84a3c0; stroke:none;" d="M437.667 477.333C437.222 477.778 438.278 477.722 438.333 477.667C438.778 477.222 437.722 477.278 437.667 477.333z"/>
<path style="fill:#718ba8; stroke:none;" d="M415 478L415 481C415.696 479.446 415.696 479.554 415 478z"/>
<path style="fill:#5d6f8b; stroke:none;" d="M661 478C663.613 479.098 666.164 478.993 669 479C666.387 477.902 663.835 478.007 661 478z"/>
<path style="fill:#748fac; stroke:none;" d="M669.667 478.333C669.222 478.778 670.278 478.722 670.333 478.667C670.778 478.222 669.722 478.278 669.667 478.333z"/>
<path style="fill:#84a3c1; stroke:none;" d="M712 478L712 484C712.951 481.715 712.951 480.285 712 478z"/>
<path style="fill:#69809b; stroke:none;" d="M449 480C449.564 481.752 449.919 482.542 451 484C450.689 481.709 450.634 481.68 449 480z"/>
<path style="fill:#758fab; stroke:none;" d="M416 485L416 491C416.951 488.715 416.951 487.285 416 485z"/>
<path style="fill:#60728e; stroke:none;" d="M713 491L713 528C716.004 520.841 714 509.744 714 502C714 498.298 714.441 494.435 713 491z"/>
<path style="fill:#005555; stroke:none;" d="M722 491L723 492L722 491z"/>
<path style="fill:#7691ae; stroke:none;" d="M660 496C661.457 494.896 661.897 494.457 663 493C660.876 493.899 660.899 493.876 660 496z"/>
<path style="fill:#647894; stroke:none;" d="M659 495C658.043 496.517 657.613 497.338 657 499C658.63 497.485 659.163 497.145 659 495z"/>
<path style="fill:#667c98; stroke:none;" d="M417 497L417 502C417.83 499.969 417.83 499.03 417 497z"/>
<path style="fill:#7894b1; stroke:none;" d="M656 497L657 498L656 497z"/>
<path style="fill:#7590ac; stroke:none;" d="M457 498L458 499L457 498z"/>
<path style="fill:#9cc3e2; stroke:none;" d="M461 500C451.12 516.927 442.847 535.188 434.691 553C411.85 602.885 393.491 654.017 388.17 709C386.459 726.68 388 745.234 388 763L388 815C388 823.25 386.5 833.169 389.468 841C401.155 871.839 428.584 886.528 458 896.333C506.598 912.533 558.914 918.917 610 912.282C633.841 909.185 660.319 902.676 677.714 884.83C692.969 869.181 699.691 850.728 704.873 830C707.635 818.955 710.283 807.444 710.545 796C710.854 782.5 709.012 768.467 708.089 755C704.563 703.498 702.426 650.779 686.652 601C680.457 581.451 672.096 561.251 662.741 543C657.524 532.823 650.837 523.361 646 513C638.283 515.989 632.086 522.846 625 527.189C612.829 534.649 599.558 540.106 586 544.481C575.261 547.946 564.041 547.238 553 546.17C527.267 543.68 504.103 537.422 483 521.844C474.499 515.569 468.754 506.882 461 500z"/>
<path style="fill:#7691ae; stroke:none;" d="M471 501L472 502L471 501z"/>
<path style="fill:#7792af; stroke:none;" d="M654 502L655 503L654 502z"/>
<path style="fill:#7994b2; stroke:none;" d="M466 506L467 507L466 506z"/>
<path style="fill:#7b97b4; stroke:none;" d="M418 507L418 519C419.512 515.396 419.512 510.604 418 507z"/>
<path style="fill:#7893b0; stroke:none;" d="M642 508L643 509L642 508z"/>
<path style="fill:#7691ae; stroke:none;" d="M482 510L483 511L482 510z"/>
<path style="fill:#687d9a; stroke:none;" d="M644.667 512.333C644.222 512.778 645.278 512.722 645.333 512.667C645.778 512.222 644.722 512.278 644.667 512.333z"/>
<path style="fill:#7792af; stroke:none;" d="M652 512L653 513L652 512z"/>
<path style="fill:#748fac; stroke:none;" d="M488 514L489 515L488 514z"/>
<path style="fill:#7792af; stroke:none;" d="M642 514L643 515L642 514z"/>
<path style="fill:#7691ae; stroke:none;" d="M647 516L648 517L647 516z"/>
<path style="fill:#69809b; stroke:none;" d="M418 519L418 531C419.512 527.396 419.512 522.604 418 519z"/>
<path style="fill:#7691ae; stroke:none;" d="M479 519L480 520L479 519z"/>
<path style="fill:#7690ad; stroke:none;" d="M440 522L441 523L440 522z"/>
<path style="fill:#7a96b3; stroke:none;" d="M664 527L665 528L664 527z"/>
<path style="fill:#84a3c1; stroke:none;" d="M516.667 528.333C516.222 528.778 517.278 528.722 517.333 528.667C517.778 528.222 516.722 528.278 516.667 528.333z"/>
<path style="fill:#7b98b5; stroke:none;" d="M713 528L713 536C714.161 533.23 714.161 530.77 713 528z"/>
<path style="fill:#88a9c7; stroke:none;" d="M523.667 530.333C523.222 530.778 524.278 530.722 524.333 530.667C524.778 530.222 523.722 530.278 523.667 530.333z"/>
<path style="fill:#89aac8; stroke:none;" d="M527.667 531.333C527.222 531.778 528.278 531.722 528.333 531.667C528.778 531.222 527.722 531.278 527.667 531.333z"/>
<path style="fill:#7a96b2; stroke:none;" d="M667 531L668 532L667 531z"/>
<path style="fill:#809ebb; stroke:none;" d="M531.667 532.333C531.222 532.778 532.278 532.722 532.333 532.667C532.778 532.222 531.722 532.278 531.667 532.333z"/>
<path style="fill:#6c839f; stroke:none;" d="M591.667 532.333C591.222 532.778 592.278 532.722 592.333 532.667C592.778 532.222 591.722 532.278 591.667 532.333z"/>
<path style="fill:#7f9dba; stroke:none;" d="M419 533L419 537C419.71 535.241 419.71 534.759 419 533z"/>
<path style="fill:#7a96b3; stroke:none;" d="M536.667 533.333C536.222 533.778 537.278 533.722 537.333 533.667C537.778 533.222 536.722 533.278 536.667 533.333z"/>
<path style="fill:#657b97; stroke:none;" d="M588.667 533.333C588.222 533.778 589.278 533.722 589.333 533.667C589.778 533.222 588.722 533.278 588.667 533.333z"/>
<path style="fill:#7590ac; stroke:none;" d="M542.667 534.333C542.222 534.778 543.278 534.722 543.333 534.667C543.778 534.222 542.722 534.278 542.667 534.333z"/>
<path style="fill:#6c829e; stroke:none;" d="M584.667 534.333C584.222 534.778 585.278 534.722 585.333 534.667C585.778 534.222 584.722 534.278 584.667 534.333z"/>
<path style="fill:#7590ac; stroke:none;" d="M669 534L670 535L669 534z"/>
<path style="fill:#667b97; stroke:none;" d="M548 535C549.248 535.685 549.548 535.749 551 536C549.752 535.315 549.452 535.251 548 535z"/>
<path style="fill:#8baecb; stroke:none;" d="M551 535C552.506 535.683 553.315 535.826 555 536C553.494 535.317 552.685 535.174 551 535z"/>
<path style="fill:#7893b0; stroke:none;" d="M579 535C580.248 535.685 580.548 535.749 582 536C580.752 535.315 580.452 535.251 579 535z"/>
<path style="fill:#7089a6; stroke:none;" d="M559 536C564.222 538.191 571.368 537 577 537C571.778 534.809 564.632 536 559 536z"/>
<path style="fill:#718aa7; stroke:none;" d="M419 537L419 544C420.059 541.466 420.059 539.534 419 537z"/>
<path style="fill:#7894b1; stroke:none;" d="M671 537L672 538L671 537z"/>
<path style="fill:#6c84a0; stroke:none;" d="M519.667 540.333C519.222 540.778 520.278 540.722 520.333 540.667C520.778 540.222 519.722 540.278 519.667 540.333z"/>
<path style="fill:#6b829e; stroke:none;" d="M523.667 541.333C523.222 541.778 524.278 541.722 524.333 541.667C524.778 541.222 523.722 541.278 523.667 541.333z"/>
<path style="fill:#5d7c9b; stroke:none;" d="M417.333 542.667C417.278 542.722 417.222 543.778 417.667 543.333C417.722 543.278 417.778 542.222 417.333 542.667z"/>
<path style="fill:#728ba8; stroke:none;" d="M527.667 542.333C527.222 542.778 528.278 542.722 528.333 542.667C528.778 542.222 527.722 542.278 527.667 542.333z"/>
<path style="fill:#7a96b2; stroke:none;" d="M532.667 543.333C532.222 543.778 533.278 543.722 533.333 543.667C533.778 543.222 532.722 543.278 532.667 543.333z"/>
<path style="fill:#86a6c4; stroke:none;" d="M419.333 544.667C419.278 544.722 419.222 545.778 419.667 545.333C419.722 545.278 419.778 544.222 419.333 544.667z"/>
<path style="fill:#7f9dba; stroke:none;" d="M538 544C539.248 544.685 539.549 544.749 541 545C539.752 544.315 539.452 544.251 538 544z"/>
<path style="fill:#82a1bf; stroke:none;" d="M585.667 544.333C585.222 544.778 586.278 544.722 586.333 544.667C586.778 544.222 585.722 544.278 585.667 544.333z"/>
<path style="fill:#7a96b2; stroke:none;" d="M675 544L676 545L675 544z"/>
<path style="fill:#86a6c4; stroke:none;" d="M544.667 545.333C544.222 545.778 545.278 545.722 545.333 545.667C545.778 545.222 544.722 545.278 544.667 545.333z"/>
<path style="fill:#617490; stroke:none;" d="M546 545C547.506 545.683 548.315 545.826 550 546C548.494 545.317 547.685 545.174 546 545z"/>
<path style="fill:#718ba8; stroke:none;" d="M580 545C581.248 545.685 581.548 545.749 583 546C581.752 545.315 581.452 545.251 580 545z"/>
<path style="fill:#718aa7; stroke:none;" d="M714 545L714 557C715.512 553.396 715.512 548.604 714 545z"/>
<path style="fill:#657a96; stroke:none;" d="M555 546C560.715 548.398 568.831 547 575 547C569.285 544.602 561.169 546 555 546z"/>
<path style="fill:#809ebc; stroke:none;" d="M575 546C576.248 546.685 576.548 546.749 578 547C576.752 546.315 576.452 546.251 575 546z"/>
<path style="fill:#88a8c5; stroke:none;" d="M422.667 549.333C422.222 549.778 423.278 549.722 423.333 549.667C423.778 549.222 422.722 549.278 422.667 549.333z"/>
<path style="fill:#7b97b4; stroke:none;" d="M714 557L714 566C715.256 563.006 715.256 559.994 714 557z"/>
<path style="fill:#89aac8; stroke:none;" d="M714 566L714 574C715.161 571.23 715.161 568.77 714 566z"/>
<path style="fill:#667c99; stroke:none;" d="M717 572L717 579C718.059 576.466 718.06 574.534 717 572M715 580L715 586C716.582 583.943 716.826 582.612 717 580L715 580z"/>
<path style="fill:#005555; stroke:none;" d="M410 582L411 583L410 582z"/>
<path style="fill:#748fac; stroke:none;" d="M716 585L715 589C716.146 587.359 716.393 586.924 716 585z"/>
<path style="fill:#808080; stroke:none;" d="M716 591L717 592L716 591z"/>
<path style="fill:#89a9c7; stroke:none;" d="M683.333 592.667C683.278 592.722 683.222 593.778 683.667 593.333C683.722 593.278 683.778 592.222 683.333 592.667z"/>
<path style="fill:#88a9c7; stroke:none;" d="M696 592C697.506 592.683 698.315 592.826 700 593C698.494 592.317 697.685 592.174 696 592z"/>
<path style="fill:#83a2c0; stroke:none;" d="M688.333 607.667C688.278 607.722 688.222 608.778 688.667 608.333C688.722 608.278 688.778 607.222 688.333 607.667z"/>
<path style="fill:#005555; stroke:none;" d="M398 613L399 614L398 613z"/>
<path style="fill:#7792af; stroke:none;" d="M690.333 614.667C690.278 614.722 690.222 615.778 690.667 615.333C690.722 615.278 690.778 614.222 690.333 614.667z"/>
<path style="fill:#82a2c0; stroke:none;" d="M691.333 619.667C691.278 619.722 691.222 620.778 691.667 620.333C691.722 620.278 691.778 619.222 691.333 619.667z"/>
<path style="fill:#7691ae; stroke:none;" d="M692.333 623.667C692.278 623.722 692.222 624.778 692.667 624.333C692.722 624.278 692.778 623.222 692.333 623.667z"/>
<path style="fill:#7893af; stroke:none;" d="M693.333 628.667C693.277 628.722 693.222 629.778 693.667 629.333C693.722 629.278 693.778 628.222 693.333 628.667z"/>
<path style="fill:#7994b1; stroke:none;" d="M694.333 633.667C694.278 633.722 694.222 634.778 694.667 634.333C694.722 634.278 694.778 633.222 694.333 633.667z"/>
<path style="fill:#87a7c5; stroke:none;" d="M402.333 634.667C402.278 634.722 402.222 635.778 402.667 635.333C402.722 635.278 402.778 634.222 402.333 634.667z"/>
<path style="fill:#7995b3; stroke:none;" d="M401.333 637.667C401.278 637.722 401.222 638.778 401.667 638.333C401.722 638.278 401.778 637.222 401.333 637.667z"/>
<path style="fill:#7792af; stroke:none;" d="M695 638L695 641C695.696 639.446 695.696 639.554 695 638z"/>
<path style="fill:#7b97b4; stroke:none;" d="M400.333 641.667C400.278 641.722 400.222 642.778 400.667 642.333C400.722 642.278 400.778 641.222 400.333 641.667z"/>
<path style="fill:#728ca8; stroke:none;" d="M696.333 643.667C696.278 643.722 696.222 644.778 696.667 644.333C696.722 644.278 696.778 643.222 696.333 643.667z"/>
<path style="fill:#7b97b4; stroke:none;" d="M399.333 645.667C399.278 645.722 399.222 646.778 399.667 646.333C399.722 646.278 399.778 645.222 399.333 645.667z"/>
<path style="fill:#6e86a2; stroke:none;" d="M697.333 648.667C697.278 648.722 697.222 649.778 697.667 649.333C697.722 649.278 697.778 648.222 697.333 648.667z"/>
<path style="fill:#7a96b3; stroke:none;" d="M398.333 649.667C398.278 649.722 398.222 650.778 398.667 650.333C398.722 650.278 398.778 649.222 398.333 649.667z"/>
<path style="fill:#89abc8; stroke:none;" d="M697.333 650.667C697.278 650.722 697.222 651.778 697.667 651.333C697.722 651.278 697.778 650.222 697.333 650.667z"/>
<path style="fill:#7893b0; stroke:none;" d="M397.333 653.667C397.278 653.722 397.222 654.778 397.667 654.333C397.722 654.278 397.778 653.222 397.333 653.667z"/>
<path style="fill:#7690ad; stroke:none;" d="M698 654L698 657C698.696 655.446 698.696 655.554 698 654z"/>
<path style="fill:#819fbd; stroke:none;" d="M396.333 658.667C396.278 658.722 396.222 659.778 396.667 659.333C396.722 659.278 396.778 658.222 396.333 658.667z"/>
<path style="fill:#7a95b2; stroke:none;" d="M699.333 660.667C699.278 660.722 699.222 661.778 699.667 661.333C699.722 661.278 699.778 660.222 699.333 660.667z"/>
<path style="fill:#7893b0; stroke:none;" d="M395.333 662.667C395.278 662.722 395.222 663.778 395.667 663.333C395.722 663.278 395.778 662.222 395.333 662.667z"/>
<path style="fill:#6f87a4; stroke:none;" d="M700.333 665.667C700.277 665.722 700.222 666.778 700.667 666.333C700.722 666.278 700.778 665.222 700.333 665.667z"/>
<path style="fill:#7893b0; stroke:none;" d="M394 667L394 670C394.696 668.446 394.696 668.554 394 667z"/>
<path style="fill:#88a9c7; stroke:none;" d="M700.333 667.667C700.277 667.723 700.222 668.778 700.667 668.333C700.722 668.278 700.778 667.222 700.333 667.667z"/>
<path style="fill:#718ba8; stroke:none;" d="M701 671L701 674C701.696 672.446 701.696 672.554 701 671z"/>
<path style="fill:#7792af; stroke:none;" d="M393.333 672.667C393.278 672.722 393.222 673.778 393.667 673.333C393.722 673.278 393.778 672.222 393.333 672.667z"/>
<path style="fill:#738daa; stroke:none;" d="M392 677L392 680C392.696 678.446 392.696 678.554 392 677z"/>
<path style="fill:#738ca9; stroke:none;" d="M702 677L702 680C702.696 678.446 702.696 678.554 702 677z"/>
<path style="fill:#005555; stroke:none;" d="M713 681L714 682L713 681z"/>
<path style="fill:#7690ad; stroke:none;" d="M391.333 683.667C391.278 683.722 391.222 684.778 391.667 684.333C391.722 684.278 391.778 683.222 391.333 683.667z"/>
<path style="fill:#6f87a4; stroke:none;" d="M703.333 683.667C703.278 683.722 703.222 684.778 703.667 684.333C703.722 684.278 703.778 683.222 703.333 683.667M390.333 689.667C390.278 689.722 390.222 690.778 390.667 690.333C390.722 690.278 390.778 689.222 390.333 689.667z"/>
<path style="fill:#84a3c1; stroke:none;" d="M390 691L390 694C390.696 692.446 390.696 692.554 390 691z"/>
<path style="fill:#7b97b4; stroke:none;" d="M704 691L704 698C705.059 695.466 705.059 693.534 704 691z"/>
<path style="fill:#7d9ab8; stroke:none;" d="M389 696L389 701C389.83 698.969 389.83 698.03 389 696z"/>
<path style="fill:#667b97; stroke:none;" d="M705 700L705 703C705.696 701.446 705.696 701.554 705 700z"/>
<path style="fill:#85a4c3; stroke:none;" d="M705 703L705 708C705.83 705.97 705.83 705.03 705 703z"/>
<path style="fill:#6a819e; stroke:none;" d="M388 704L388 707C388.696 705.446 388.696 705.554 388 704z"/>
<path style="fill:#697f9c; stroke:none;" d="M387 712L387 717C387.83 714.969 387.83 714.031 387 712z"/>
<path style="fill:#748eab; stroke:none;" d="M706 713L706 719C706.951 716.715 706.951 715.285 706 713z"/>
<path style="fill:#7d9ab7; stroke:none;" d="M387 717L387 721C387.71 719.24 387.71 718.76 387 717z"/>
<path style="fill:#86a7c4; stroke:none;" d="M706 719L706 725C706.951 722.715 706.951 721.285 706 719z"/>
<path style="fill:#8badcb; stroke:none;" d="M387 721L387 754C389.701 747.564 388 737.951 388 731C388 727.581 388.328 724.166 387 721z"/>
<path style="fill:#677d98; stroke:none;" d="M707 729L707 734C707.83 731.97 707.83 731.03 707 729z"/>
<path style="fill:#005555; stroke:none;" d="M717 729L718 730L717 729z"/>
<path style="fill:#7e9bb9; stroke:none;" d="M707 734L707 739C707.83 736.97 707.83 736.03 707 734z"/>
<path style="fill:#667b97; stroke:none;" d="M708 746L708 753C709.059 750.466 709.059 748.534 708 746z"/>
<path style="fill:#809ebc; stroke:none;" d="M708 753L708 759C708.951 756.715 708.951 755.285 708 753z"/>
<path style="fill:#7f9dba; stroke:none;" d="M387 754L387 771C388.883 766.514 388.883 758.486 387 754z"/>
<path style="fill:#647894; stroke:none;" d="M709 767L709 774C710.059 771.466 710.06 769.534 709 767z"/>
<path style="fill:#657a96; stroke:none;" d="M387 771L387 784C388.591 780.209 388.591 774.791 387 771z"/>
<path style="fill:#88a8c6; stroke:none;" d="M709 774L709 780C709.951 777.715 709.951 776.285 709 774z"/>
<path style="fill:#7892b0; stroke:none;" d="M710 785L710 794C711.256 791.006 711.256 787.994 710 785z"/>
<path style="fill:#808080; stroke:none;" d="M391 845L392 846L391 845M396 854L397 855L396 854z"/>
<path style="fill:#55aaaa; stroke:none;" d="M398 857L399 858L398 857M423 881L424 882L423 881z"/>
<path style="fill:#808080; stroke:none;" d="M679 882L680 883L679 882z"/>
<path style="fill:#55aaaa; stroke:none;" d="M428 884L429 885L428 884z"/>
<path style="fill:#808080; stroke:none;" d="M434 887L435 888L434 887z"/>
<path style="fill:#55aaaa; stroke:none;" d="M674 887L675 888L674 887z"/>
<path style="fill:#808080; stroke:none;" d="M491 906L492 907L491 906M635 907L636 908L635 907z"/>
<path style="fill:#55aaaa; stroke:none;" d="M616 911L617 912L616 911z"/>
<path style="fill:#808080; stroke:none;" d="M529 912L530 913L529 912z"/>
</svg>
