<?xml version="1.0" standalone="yes"?>
<svg xmlns="http://www.w3.org/2000/svg" width="1080" height="1080">
<path style="fill:#000000; stroke:none;" d="M0 0L0 1080L1080 1080L1080 0L0 0z"/>
<path style="fill:#53627d; stroke:none;" d="M489 301C489.25 295.548 490.679 288.746 497 288C493.29 282.47 488.437 288.811 487 293L485 293C482.705 288.194 476.844 283.361 471.019 284.527C466.216 285.489 465.301 290.373 469 293L469 288C477.088 289.443 482.54 294.728 486 302C479.003 301.058 472.143 298.188 465 299.465C452.124 301.765 440.454 310.81 431.715 320.089C412.541 340.45 402.328 368.052 403.015 396C403.293 407.327 408.163 418.057 410.576 429C412.33 436.956 412 444.901 412 453C414.983 450.017 413.81 442.76 415 438C417.184 429.266 415.071 419.285 413 411C411.839 406.354 412.107 401.427 411 397C409.885 392.539 411.999 386.005 413 382C414.113 377.546 413.911 373.354 415 369C415.524 366.905 417.17 364.992 418 363C422.647 351.847 427.431 342.092 435 332C436.96 329.387 440.04 327.613 442 325C447.818 317.242 458.259 308.642 467 305C472.644 302.648 479.767 305.039 486 304L487 302C487.154 301.908 487.394 304.031 488 301C489.023 302.534 488.805 302.402 490 303C506.428 293.412 524.647 287.715 543 283.127C550.554 281.238 559.15 278.062 567 278.259C603.321 279.17 638.206 302.168 663 327C673.916 337.933 684.358 352.138 689.251 367C692.609 377.201 691.807 386.53 691.089 397C690.583 404.399 690.762 411.613 689.714 419C688.434 428.028 685.724 436.898 685 446C683.222 442.483 682.305 438.113 678.891 435.742C671.093 430.327 659.679 436.513 655 443C660.291 442.06 666.551 438.024 671.891 441.028C680.225 445.715 676.23 465.513 669.895 470.347C663.876 474.94 656.741 472.907 650 472C658.017 481.351 676.094 481.64 682.001 469.999C685.267 463.564 683.961 456.575 686.244 450C693.837 428.127 703.46 406.859 702.871 383C702.478 367.059 696.385 353.352 688.189 340C670.015 310.394 638.376 287.924 606 276.053C593.204 271.362 577.72 267.46 564 268.039C536.7 269.193 509.633 284.255 489 301z"/>
<path style="fill:#69809b; stroke:none;" d="M563 278C565.332 278.985 567.457 278.981 570 279C567.669 278.016 565.543 278.019 563 278z"/>
<path style="fill:#7d99b6; stroke:none;" d="M558.667 279.333C558.222 279.778 559.278 279.722 559.333 279.667C559.778 279.222 558.722 279.278 558.667 279.333z"/>
<path style="fill:#9cc3e2; stroke:none;" d="M413 452C421.282 448.127 423.394 439.015 430.04 433.339C437.607 426.878 445.998 422.523 452.907 415C458.153 409.287 461.747 401.878 465.244 395C472.311 381.098 477 368.734 477 353C490.035 373.581 472.521 404.859 455.996 418.671C450.314 423.42 443.342 426.299 437 430C440.609 433.036 444.798 435.858 449 438C444.99 437.903 439.077 434.805 435.39 437.042C433.081 438.445 431.959 441.593 431.09 444C428.628 450.819 424.66 464.985 431.148 470.566C435.918 474.669 442.653 472.503 448 471L444 474C444.81 476.222 445.739 477.99 447 480C453.911 481.937 459.938 491.047 465 495.985C474.296 505.053 484.665 512.815 496 519.138C519.5 532.248 551.057 539.212 578 535.711C596.165 533.35 616.403 525.215 632 515.796C645.552 507.612 663.961 495.837 667 479C659.254 478.645 651.772 475.18 647 469C653.36 473.251 666.668 475.948 672.272 468.772C674.994 465.287 674.979 460.193 674.999 456C675.018 451.999 676.568 443.619 672.682 441.028C667.469 437.552 658.924 441.991 654 444C660.712 437.347 672.147 428.572 680.606 438.104C682.167 439.863 683.068 441.882 684 444C689.206 433.17 689.521 417.824 690.039 406C690.651 392.047 692.883 377.611 688.402 364C685.709 355.82 680.459 348.068 675.656 341C666.065 326.888 652.788 315.831 639 306C624.543 295.693 608.457 286.348 591 282.236C562.74 275.58 534.585 283.711 508 293.814C501.132 296.424 494.894 300.79 488 303.185C479.462 306.152 470.483 302.727 462 307.353C433.845 322.703 412.797 358.063 412.015 390C411.721 401.967 415.096 413.18 415.91 425C416.533 434.044 415.16 443.232 413 452z"/>
<path style="fill:#89aac8; stroke:none;" d="M573 279C574.248 279.685 574.548 279.749 576 280C574.752 279.315 574.451 279.251 573 279z"/>
<path style="fill:#6e86a2; stroke:none;" d="M576 279C577.248 279.685 577.548 279.749 579 280C577.752 279.315 577.452 279.251 576 279z"/>
<path style="fill:#7b97b4; stroke:none;" d="M553.667 280.333C553.222 280.778 554.278 280.722 554.333 280.667C554.778 280.222 553.722 280.278 553.667 280.333z"/>
<path style="fill:#7f9dbb; stroke:none;" d="M581 280C582.248 280.685 582.548 280.749 584 281C582.752 280.315 582.452 280.251 581 280z"/>
<path style="fill:#7e9cb9; stroke:none;" d="M549.667 281.333C549.222 281.778 550.278 281.722 550.333 281.667C550.778 281.222 549.722 281.278 549.667 281.333z"/>
<path style="fill:#7894b1; stroke:none;" d="M587 281C588.248 281.685 588.549 281.749 590 282C588.752 281.315 588.452 281.251 587 281z"/>
<path style="fill:#7f9dba; stroke:none;" d="M545.667 282.333C545.222 282.778 546.278 282.722 546.333 282.667C546.778 282.222 545.722 282.278 545.667 282.333z"/>
<path style="fill:#7e9bb8; stroke:none;" d="M541.667 283.333C541.222 283.778 542.278 283.722 542.333 283.667C542.778 283.222 541.722 283.278 541.667 283.333M537.667 284.333C537.222 284.778 538.278 284.722 538.333 284.667C538.778 284.222 537.722 284.278 537.667 284.333z"/>
<path style="fill:#7d9ab7; stroke:none;" d="M533.667 285.333C533.222 285.778 534.278 285.722 534.333 285.667C534.778 285.222 533.722 285.278 533.667 285.333z"/>
<path style="fill:#82a1be; stroke:none;" d="M526.667 287.333C526.222 287.778 527.278 287.722 527.333 287.667C527.778 287.222 526.722 287.278 526.667 287.333z"/>
<path style="fill:#404040; stroke:none;" d="M496.667 288.333C496.222 288.778 497.278 288.722 497.333 288.667C497.778 288.222 496.722 288.278 496.667 288.333z"/>
<path style="fill:#88a8c6; stroke:none;" d="M523.667 288.333C523.222 288.778 524.278 288.722 524.333 288.667C524.778 288.222 523.722 288.278 523.667 288.333z"/>
<path style="fill:#88a9c7; stroke:none;" d="M520.667 289.333C520.222 289.778 521.278 289.722 521.333 289.667C521.778 289.222 520.722 289.278 520.667 289.333z"/>
<path style="fill:#87a7c6; stroke:none;" d="M517.667 290.333C517.222 290.778 518.278 290.722 518.333 290.667C518.778 290.222 517.722 290.278 517.667 290.333z"/>
<path style="fill:#86a7c4; stroke:none;" d="M514.667 291.333C514.222 291.778 515.278 291.722 515.333 291.667C515.778 291.222 514.722 291.278 514.667 291.333z"/>
<path style="fill:#7893b0; stroke:none;" d="M622 295L623 296L622 295z"/>
<path style="fill:#005555; stroke:none;" d="M492 298L493 299L492 298z"/>
<path style="fill:#7893b0; stroke:none;" d="M627 298L628 299L627 298z"/>
<path style="fill:#000000; stroke:none;" d="M488 301L489 302L488 301M486 302L487 303L486 302z"/>
<path style="fill:#7c98b5; stroke:none;" d="M488 302L486 303C487.482 303.791 488.796 303.87 488 302z"/>
<path style="fill:#7d99b6; stroke:none;" d="M469.667 304.333C469.222 304.778 470.278 304.722 470.333 304.667C470.778 304.222 469.722 304.278 469.667 304.333z"/>
<path style="fill:#7691ae; stroke:none;" d="M636 304L637 305L636 304z"/>
<path style="fill:#7792af; stroke:none;" d="M643 309L644 310L643 309z"/>
<path style="fill:#7691ae; stroke:none;" d="M647 312L648 313L647 312z"/>
<path style="fill:#005555; stroke:none;" d="M435 316L436 317L435 316M432 319L433 320L432 319z"/>
<path style="fill:#7792af; stroke:none;" d="M446 319L447 320L446 319z"/>
<path style="fill:#7893b0; stroke:none;" d="M442 323L443 324L442 323M435 331L436 332L435 331z"/>
<path style="fill:#7792af; stroke:none;" d="M477 353L477 362C478.315 358.945 478.673 355.893 477 353z"/>
<path style="fill:#53627d; stroke:none;" d="M478 355C477.723 368.422 472.142 380.211 466.247 392C463.04 398.414 459.866 405.298 455.471 411C450.627 417.284 443.94 421.874 439 428C459.968 424.216 476.841 397.651 480.384 378C481.647 370.994 482.287 361.018 478 355z"/>
<path style="fill:#677d99; stroke:none;" d="M486 355L487 357C488.635 356.455 488.455 356.635 489 355L486 355z"/>
<path style="fill:#53627d; stroke:none;" d="M488 356C494.708 364.117 507.369 368.982 517 372.796C543.943 383.468 574.22 387.7 603 388.961C608.882 389.218 615.15 389.405 621 388.714C625.195 388.219 630.898 386.568 635 387.948C638.977 389.285 642.126 393.128 644.999 396.001C653.079 404.08 659.224 413.208 665 423C666.279 419.425 664.859 415.59 663.845 412C660.432 399.914 652.035 392.771 642 386C652.611 383.011 663.273 379.482 674 377C667.423 374.641 656.828 378.638 650 379.754C635.642 382.1 620.546 382.907 606 381.911C582.791 380.321 559.441 376.813 537 370.576C520.978 366.122 504.384 358.42 488 356z"/>
<path style="fill:#7995b3; stroke:none;" d="M488 357L489 358L488 357z"/>
<path style="fill:#005555; stroke:none;" d="M697 357L698 358L697 357z"/>
<path style="fill:#6c83a0; stroke:none;" d="M480.333 359.667C480.278 359.722 480.222 360.778 480.667 360.333C480.722 360.278 480.778 359.222 480.333 359.667z"/>
<path style="fill:#738daa; stroke:none;" d="M481 363L481 375C482.512 371.396 482.512 366.604 481 363z"/>
<path style="fill:#86a6c4; stroke:none;" d="M512.667 363.333C512.222 363.778 513.278 363.722 513.333 363.667C513.778 363.222 512.722 363.278 512.667 363.333z"/>
<path style="fill:#7893b0; stroke:none;" d="M476 365L476 368C476.696 366.446 476.696 366.554 476 365z"/>
<path style="fill:#85a5c2; stroke:none;" d="M522.667 366.333C522.222 366.778 523.278 366.722 523.333 366.667C523.778 366.222 522.722 366.278 522.667 366.333z"/>
<path style="fill:#88a9c7; stroke:none;" d="M689.333 367.667C689.278 367.722 689.222 368.778 689.667 368.333C689.722 368.278 689.778 367.222 689.333 367.667z"/>
<path style="fill:#82a0be; stroke:none;" d="M415.333 368.667C415.278 368.722 415.222 369.778 415.667 369.333C415.722 369.278 415.778 368.222 415.333 368.667z"/>
<path style="fill:#84a4c1; stroke:none;" d="M529.667 368.333C529.222 368.778 530.278 368.722 530.333 368.667C530.778 368.222 529.722 368.278 529.667 368.333z"/>
<path style="fill:#6b839f; stroke:none;" d="M475.333 370.667C475.278 370.722 475.222 371.778 475.667 371.333C475.722 371.278 475.778 370.222 475.333 370.667z"/>
<path style="fill:#7d99b6; stroke:none;" d="M536.667 370.333C536.222 370.778 537.278 370.722 537.333 370.667C537.778 370.222 536.722 370.278 536.667 370.333z"/>
<path style="fill:#7d9ab7; stroke:none;" d="M540.667 371.333C540.222 371.778 541.278 371.722 541.333 371.667C541.778 371.222 540.722 371.278 540.667 371.333z"/>
<path style="fill:#82a1be; stroke:none;" d="M690.333 371.667C690.278 371.722 690.222 372.778 690.667 372.333C690.722 372.278 690.778 371.222 690.333 371.667z"/>
<path style="fill:#89a9c7; stroke:none;" d="M414.333 372.667C414.278 372.722 414.222 373.778 414.667 373.333C414.722 373.278 414.778 372.222 414.333 372.667z"/>
<path style="fill:#7893b0; stroke:none;" d="M544.667 372.333C544.222 372.778 545.278 372.722 545.333 372.667C545.778 372.222 544.722 372.278 544.667 372.333z"/>
<path style="fill:#82a1bf; stroke:none;" d="M549.667 373.333C549.222 373.778 550.278 373.722 550.333 373.667C550.778 373.222 549.722 373.278 549.667 373.333z"/>
<path style="fill:#7c98b6; stroke:none;" d="M553.667 374.333C553.222 374.778 554.278 374.722 554.333 374.667C554.778 374.222 553.722 374.278 553.667 374.333z"/>
<path style="fill:#738daa; stroke:none;" d="M557.667 375.333C557.222 375.778 558.278 375.722 558.333 375.667C558.778 375.222 557.722 375.278 557.667 375.333z"/>
<path style="fill:#7893b0; stroke:none;" d="M691 375L691 379C691.71 377.24 691.71 376.76 691 375z"/>
<path style="fill:#7691af; stroke:none;" d="M413.333 376.667C413.278 376.722 413.222 377.778 413.667 377.333C413.722 377.278 413.778 376.222 413.333 376.667z"/>
<path style="fill:#6a809d; stroke:none;" d="M527.667 376.333C527.222 376.778 528.278 376.722 528.333 376.667C528.778 376.222 527.722 376.278 527.667 376.333z"/>
<path style="fill:#758fab; stroke:none;" d="M562.667 376.333C562.222 376.778 563.278 376.722 563.333 376.667C563.778 376.222 562.722 376.278 562.667 376.333z"/>
<path style="fill:#7b97b4; stroke:none;" d="M667 376C668.248 376.685 668.548 376.749 670 377C668.752 376.315 668.452 376.251 667 376z"/>
<path style="fill:#82a0be; stroke:none;" d="M674.667 376.333C674.222 376.778 675.278 376.722 675.333 376.667C675.778 376.222 674.722 376.278 674.667 376.333z"/>
<path style="fill:#7691ae; stroke:none;" d="M480.333 377.667C480.278 377.722 480.222 378.778 480.667 378.333C480.722 378.278 480.778 377.222 480.333 377.667z"/>
<path style="fill:#6c839f; stroke:none;" d="M530.667 377.333C530.222 377.778 531.278 377.722 531.333 377.667C531.778 377.222 530.722 377.278 530.667 377.333z"/>
<path style="fill:#6c829e; stroke:none;" d="M567.667 377.333C567.222 377.778 568.278 377.722 568.333 377.667C568.778 377.222 567.722 377.278 567.667 377.333z"/>
<path style="fill:#819fbd; stroke:none;" d="M569.667 377.333C569.222 377.778 570.278 377.722 570.333 377.667C570.778 377.222 569.722 377.278 569.667 377.333z"/>
<path style="fill:#7c99b6; stroke:none;" d="M661.667 377.333C661.222 377.778 662.278 377.722 662.333 377.667C662.778 377.222 661.722 377.278 661.667 377.333z"/>
<path style="fill:#7b98b5; stroke:none;" d="M574 378C575.769 378.779 577.036 378.912 579 379C577.231 378.221 575.964 378.088 574 378z"/>
<path style="fill:#7690ad; stroke:none;" d="M656 378C657.248 378.685 657.549 378.749 659 379C657.752 378.315 657.452 378.251 656 378z"/>
<path style="fill:#6e86a3; stroke:none;" d="M537.667 379.333C537.222 379.778 538.278 379.722 538.333 379.667C538.778 379.222 537.722 379.278 537.667 379.333z"/>
<path style="fill:#7a95b2; stroke:none;" d="M583 379C585.052 379.874 586.747 379.953 589 380C586.948 379.126 585.253 379.047 583 379z"/>
<path style="fill:#7d9ab7; stroke:none;" d="M649 379C650.248 379.685 650.549 379.749 652 380C650.752 379.315 650.452 379.251 649 379z"/>
<path style="fill:#90b2d1; stroke:none;" d="M691 379L691 389C692.346 385.793 692.346 382.207 691 379z"/>
<path style="fill:#6a819d; stroke:none;" d="M541.667 380.333C541.222 380.778 542.278 380.722 542.333 380.667C542.778 380.222 541.722 380.278 541.667 380.333z"/>
<path style="fill:#748eac; stroke:none;" d="M592 380C594.052 380.874 595.747 380.953 598 381C595.948 380.126 594.253 380.047 592 380z"/>
<path style="fill:#7089a6; stroke:none;" d="M643 380C644.248 380.685 644.548 380.749 646 381C644.752 380.315 644.452 380.251 643 380z"/>
<path style="fill:#84a4c1; stroke:none;" d="M661.667 380.333C661.222 380.778 662.278 380.722 662.333 380.667C662.778 380.222 661.722 380.278 661.667 380.333z"/>
<path style="fill:#6e86a2; stroke:none;" d="M545.667 381.333C545.222 381.778 546.278 381.722 546.333 381.667C546.778 381.222 545.722 381.278 545.667 381.333z"/>
<path style="fill:#687e9a; stroke:none;" d="M602 381C603.769 381.779 605.036 381.912 607 382C605.231 381.221 603.964 381.088 602 381z"/>
<path style="fill:#7e9cb9; stroke:none;" d="M607 381C608.506 381.683 609.315 381.826 611 382C609.494 381.317 608.685 381.174 607 381z"/>
<path style="fill:#90b3d2; stroke:none;" d="M611 381C615.724 382.982 621.91 382 627 382C622.276 380.018 616.09 381 611 381z"/>
<path style="fill:#7b98b5; stroke:none;" d="M627 381C629.89 382.213 632.874 381.998 636 382C633.11 380.787 630.126 381.002 627 381z"/>
<path style="fill:#87a7c6; stroke:none;" d="M658.667 381.333C658.222 381.778 659.278 381.722 659.333 381.667C659.778 381.222 658.722 381.278 658.667 381.333z"/>
<path style="fill:#6b839f; stroke:none;" d="M412 382L412 385C412.696 383.446 412.696 383.554 412 382z"/>
<path style="fill:#738daa; stroke:none;" d="M549.667 382.333C549.222 382.778 550.278 382.722 550.333 382.667C550.778 382.222 549.722 382.278 549.667 382.333z"/>
<path style="fill:#728ca8; stroke:none;" d="M554 383C555.248 383.685 555.548 383.749 557 384C555.752 383.315 555.452 383.251 554 383z"/>
<path style="fill:#7e9bb8; stroke:none;" d="M651.667 383.333C651.222 383.778 652.278 383.722 652.333 383.667C652.778 383.222 651.722 383.278 651.667 383.333z"/>
<path style="fill:#7792af; stroke:none;" d="M559.667 384.333C559.222 384.778 560.278 384.722 560.333 384.667C560.778 384.222 559.722 384.278 559.667 384.333z"/>
<path style="fill:#7994b1; stroke:none;" d="M647.667 384.333C647.222 384.778 648.278 384.722 648.333 384.667C648.778 384.222 647.722 384.278 647.667 384.333z"/>
<path style="fill:#7a96b2; stroke:none;" d="M565.667 385.333C565.222 385.778 566.278 385.722 566.333 385.667C566.778 385.222 565.722 385.278 565.667 385.333z"/>
<path style="fill:#7c99b6; stroke:none;" d="M643.667 385.333C643.222 385.778 644.278 385.722 644.333 385.667C644.778 385.222 643.722 385.278 643.667 385.333z"/>
<path style="fill:#84a3c0; stroke:none;" d="M572 386C573.249 386.685 573.548 386.749 575 387C573.752 386.315 573.452 386.251 572 386z"/>
<path style="fill:#809ebc; stroke:none;" d="M581 387C582.769 387.779 584.036 387.912 586 388C584.231 387.221 582.964 387.088 581 387z"/>
<path style="fill:#6c84a0; stroke:none;" d="M586 387C587.248 387.685 587.549 387.749 589 388C587.752 387.315 587.451 387.251 586 387z"/>
<path style="fill:#7b97b4; stroke:none;" d="M631 387C632.769 387.779 634.036 387.912 636 388C634.231 387.221 632.964 387.088 631 387z"/>
<path style="fill:#718ba8; stroke:none;" d="M595 388C596.506 388.683 597.315 388.826 599 389C597.494 388.317 596.685 388.174 595 388z"/>
<path style="fill:#6e85a1; stroke:none;" d="M622 388C623.248 388.685 623.549 388.749 625 389C623.752 388.315 623.452 388.251 622 388z"/>
<path style="fill:#809ebc; stroke:none;" d="M625 388C626.248 388.685 626.548 388.749 628 389C626.752 388.315 626.452 388.251 625 388z"/>
<path style="fill:#7792af; stroke:none;" d="M645 388L646 389L645 388z"/>
<path style="fill:#91b4d3; stroke:none;" d="M606 389C609.432 390.44 613.3 390 617 390C613.568 388.56 609.7 389 606 389z"/>
<path style="fill:#7a95b2; stroke:none;" d="M638 389L639 390L638 389z"/>
<path style="fill:#6f87a3; stroke:none;" d="M691 389L691 394C691.83 391.97 691.83 391.03 691 389z"/>
<path style="fill:#667c99; stroke:none;" d="M411 390L411 398C412.161 395.23 412.161 392.77 411 390z"/>
<path style="fill:#7690ad; stroke:none;" d="M648 390L649 391L648 390z"/>
<path style="fill:#7a95b2; stroke:none;" d="M461 401L462 402L461 401z"/>
<path style="fill:#88a9c7; stroke:none;" d="M690 401L690 408C691.059 405.466 691.059 403.534 690 401z"/>
<path style="fill:#84a3c1; stroke:none;" d="M412 402L412 405C412.696 403.446 412.696 403.554 412 402z"/>
<path style="fill:#7691ae; stroke:none;" d="M488 407C488.994 409.203 488.67 409.048 491 409C489.861 407.984 489.389 407.691 488 407z"/>
<path style="fill:#7893af; stroke:none;" d="M465 408L466 409L465 408z"/>
<path style="fill:#637894; stroke:none;" d="M690 408L690 413C690.83 410.97 690.83 410.03 690 408z"/>
<path style="fill:#7b98b5; stroke:none;" d="M413 409L413 412C413.696 410.446 413.696 410.554 413 409z"/>
<path style="fill:#53627d; stroke:none;" d="M490 409C498.784 424.181 520.265 421.432 533 414C527.461 412.691 520.903 415.394 515 414.83C506.242 413.994 498.504 410.463 490 409z"/>
<path style="fill:#6a819d; stroke:none;" d="M622.667 410.333C622.222 410.778 623.278 410.722 623.333 410.667C623.778 410.222 622.722 410.278 622.667 410.333z"/>
<path style="fill:#53627d; stroke:none;" d="M577 416C587.626 430.73 615.33 427.402 623 411C615.667 413.669 608.823 418.31 601 419.671C592.561 421.14 584.951 418.169 577 416z"/>
<path style="fill:#84a3c0; stroke:none;" d="M501.667 412.333C501.222 412.778 502.278 412.722 502.333 412.667C502.778 412.222 501.722 412.278 501.667 412.333z"/>
<path style="fill:#738daa; stroke:none;" d="M505.667 413.333C505.222 413.778 506.278 413.722 506.333 413.667C506.778 413.222 505.722 413.278 505.667 413.333z"/>
<path style="fill:#809ebb; stroke:none;" d="M528 413C529.248 413.685 529.548 413.749 531 414C529.752 413.315 529.451 413.251 528 413z"/>
<path style="fill:#718aa7; stroke:none;" d="M664.333 413.667C664.278 413.722 664.222 414.778 664.667 414.333C664.722 414.278 664.778 413.222 664.333 413.667z"/>
<path style="fill:#7994b2; stroke:none;" d="M512 414C513.506 414.683 514.315 414.826 516 415C514.494 414.317 513.685 414.174 512 414z"/>
<path style="fill:#8caecc; stroke:none;" d="M516 414C518.613 415.098 521.165 414.993 524 415C521.387 413.902 518.836 414.007 516 414z"/>
<path style="fill:#69809c; stroke:none;" d="M524.667 414.333C524.222 414.778 525.278 414.722 525.333 414.667C525.778 414.222 524.722 414.278 524.667 414.333z"/>
<path style="fill:#7894b1; stroke:none;" d="M414.333 415.667C414.278 415.722 414.222 416.778 414.667 416.333C414.722 416.278 414.778 415.222 414.333 415.667z"/>
<path style="fill:#82a0be; stroke:none;" d="M576 415L576 417C577.635 416.455 577.455 416.635 578 415L576 415z"/>
<path style="fill:#87a6c4; stroke:none;" d="M689 416L689 419C689.696 417.446 689.696 417.554 689 416z"/>
<path style="fill:#7a96b2; stroke:none;" d="M665.333 417.667C665.278 417.722 665.222 418.778 665.667 418.333C665.722 418.278 665.778 417.222 665.333 417.667z"/>
<path style="fill:#7d9ab7; stroke:none;" d="M584.667 418.333C584.222 418.778 585.278 418.722 585.333 418.667C585.778 418.222 584.722 418.278 584.667 418.333z"/>
<path style="fill:#6d84a1; stroke:none;" d="M604.667 418.333C604.222 418.778 605.278 418.722 605.333 418.667C605.778 418.222 604.722 418.278 604.667 418.333z"/>
<path style="fill:#7893b0; stroke:none;" d="M455 419L456 420L455 419z"/>
<path style="fill:#6a809d; stroke:none;" d="M505.667 419.333C505.222 419.778 506.278 419.722 506.333 419.667C506.778 419.222 505.722 419.278 505.667 419.333z"/>
<path style="fill:#7995b3; stroke:none;" d="M520.667 419.333C520.222 419.778 521.278 419.722 521.333 419.667C521.778 419.222 520.722 419.278 520.667 419.333z"/>
<path style="fill:#7089a6; stroke:none;" d="M589 419C593.216 420.769 598.459 420 603 420C598.784 418.231 593.541 419 589 419z"/>
<path style="fill:#667c98; stroke:none;" d="M689.333 419.667C689.278 419.722 689.222 420.778 689.667 420.333C689.722 420.278 689.778 419.222 689.333 419.667z"/>
<path style="fill:#7b98b5; stroke:none;" d="M509 420C511.613 421.098 514.164 420.993 517 421C514.387 419.902 511.835 420.007 509 420z"/>
<path style="fill:#7089a5; stroke:none;" d="M415 421L415 426C415.83 423.969 415.83 423.031 415 421z"/>
<path style="fill:#809ebc; stroke:none;" d="M665.667 423.333C665.222 423.778 666.278 423.722 666.333 423.667C666.778 423.222 665.722 423.278 665.667 423.333z"/>
<path style="fill:#7e9cb9; stroke:none;" d="M688 423L688 426C688.696 424.446 688.696 424.554 688 423z"/>
<path style="fill:#7590ad; stroke:none;" d="M442 424L443 425L442 424M447 424L448 425L447 424z"/>
<path style="fill:#748eab; stroke:none;" d="M592 425C593.506 425.683 594.315 425.826 596 426C594.494 425.317 593.685 425.174 592 425z"/>
<path style="fill:#667b97; stroke:none;" d="M596 425C598.332 425.985 600.457 425.981 603 426C600.668 425.015 598.543 425.019 596 425z"/>
<path style="fill:#809ebc; stroke:none;" d="M433 430C435.682 430.888 437.403 430.094 440 429C437.464 428.37 435.515 429.224 433 430z"/>
<path style="fill:#7894b1; stroke:none;" d="M687.333 429.667C687.278 429.722 687.222 430.778 687.667 430.333C687.722 430.278 687.778 429.222 687.333 429.667z"/>
<path style="fill:#53627d; stroke:none;" d="M448 471C441.954 472.6 435.493 474.595 430.344 469.606C424.148 463.602 428.218 451.833 431.015 445C432.149 442.228 433.432 438.589 436.213 437.043C439.417 435.263 443.694 437.44 447 438C441.203 430.198 431.974 428.646 425.789 437.015C416.192 450.001 413.683 480.187 436.999 477.895C441.817 477.422 445.134 474.683 448 471z"/>
<path style="fill:#748eab; stroke:none;" d="M666.667 434.333C666.222 434.778 667.278 434.722 667.333 434.667C667.778 434.222 666.722 434.278 666.667 434.333z"/>
<path style="fill:#7a96b3; stroke:none;" d="M686 434L686 437C686.696 435.446 686.696 435.554 686 434z"/>
<path style="fill:#718aa7; stroke:none;" d="M440.667 436.333C440.222 436.778 441.278 436.722 441.333 436.667C441.778 436.222 440.722 436.278 440.667 436.333z"/>
<path style="fill:#809ebb; stroke:none;" d="M415.333 437.667C415.278 437.722 415.222 438.778 415.667 438.333C415.722 438.278 415.778 437.222 415.333 437.667z"/>
<path style="fill:#6a819e; stroke:none;" d="M447 437L447 439L449 439C448.455 437.365 448.635 437.545 447 437z"/>
<path style="fill:#7894b1; stroke:none;" d="M685 439L685 442C685.696 440.446 685.696 440.554 685 439z"/>
<path style="fill:#005555; stroke:none;" d="M690 439L691 440L690 439z"/>
<path style="fill:#85a4c2; stroke:none;" d="M662.667 440.333C662.222 440.778 663.278 440.722 663.333 440.667C663.778 440.222 662.722 440.278 662.667 440.333z"/>
<path style="fill:#6c829e; stroke:none;" d="M683.333 442.667C683.278 442.722 683.222 443.778 683.667 443.333C683.722 443.278 683.778 442.222 683.333 442.667z"/>
<path style="fill:#7690ad; stroke:none;" d="M414.333 443.667C414.278 443.722 414.222 444.778 414.667 444.333C414.722 444.278 414.778 443.222 414.333 443.667z"/>
<path style="fill:#738ca9; stroke:none;" d="M654.667 443.333C654.222 443.778 655.278 443.722 655.333 443.667C655.778 443.222 654.722 443.278 654.667 443.333z"/>
<path style="fill:#000000; stroke:none;" d="M421 444L422 445L421 444z"/>
<path style="fill:#819fbd; stroke:none;" d="M675 444L675 457C676.591 453.209 676.591 447.791 675 444z"/>
<path style="fill:#7793b0; stroke:none;" d="M684.333 444.667C684.278 444.722 684.222 445.778 684.667 445.333C684.722 445.278 684.778 444.222 684.333 444.667z"/>
<path style="fill:#7b98b5; stroke:none;" d="M429.333 448.667C429.278 448.722 429.222 449.778 429.667 449.333C429.722 449.278 429.778 448.222 429.333 448.667z"/>
<path style="fill:#7d9cb9; stroke:none;" d="M413.333 449.667C413.278 449.722 413.222 450.778 413.667 450.333C413.722 450.278 413.778 449.222 413.333 449.667z"/>
<path style="fill:#728ca8; stroke:none;" d="M428 452L428 455C428.696 453.446 428.696 453.554 428 452z"/>
<path style="fill:#6d84a1; stroke:none;" d="M675 457L675 460C675.696 458.446 675.696 458.554 675 457z"/>
<path style="fill:#819fbd; stroke:none;" d="M427 458L427 467C428.256 464.006 428.256 460.994 427 458z"/>
<path style="fill:#728ba8; stroke:none;" d="M674.333 463.667C674.278 463.722 674.222 464.778 674.667 464.333C674.722 464.278 674.778 463.222 674.333 463.667z"/>
<path style="fill:#627692; stroke:none;" d="M542 467C541.014 468.479 541 468.203 541 470C542.766 469.021 542.955 468.778 542 467z"/>
<path style="fill:#6f87a3; stroke:none;" d="M564 467C564.545 468.635 564.365 468.455 566 469L566 467L564 467z"/>
<path style="fill:#53627d; stroke:none;" d="M566 468C564.7 476.227 554.892 477.644 548.043 474.853C545.343 473.752 543.45 471.473 541 470C541.578 480.532 555.546 483.157 563.941 478.682C568.298 476.36 568.725 471.602 566 468z"/>
<path style="fill:#7691af; stroke:none;" d="M429 469L430 470L429 469z"/>
<path style="fill:#7e9bb8; stroke:none;" d="M647 469C648.225 471.271 648.491 471.591 651 472C649.659 470.726 648.597 469.959 647 469z"/>
<path style="fill:#7590ac; stroke:none;" d="M430 470L431 471L430 470z"/>
<path style="fill:#657a96; stroke:none;" d="M568 470L568 475C568.83 472.97 568.83 472.03 568 470z"/>
<path style="fill:#6f87a3; stroke:none;" d="M442.667 472.333C442.222 472.778 443.278 472.722 443.333 472.667C443.778 472.222 442.722 472.278 442.667 472.333z"/>
<path style="fill:#809fbd; stroke:none;" d="M653.667 472.333C653.222 472.778 654.278 472.722 654.333 472.667C654.778 472.222 653.722 472.278 653.667 472.333z"/>
<path style="fill:#718aa7; stroke:none;" d="M665.667 472.333C665.222 472.778 666.278 472.722 666.333 472.667C666.778 472.222 665.722 472.278 665.667 472.333z"/>
<path style="fill:#005555; stroke:none;" d="M680 472L681 473L680 472z"/>
<path style="fill:#61748f; stroke:none;" d="M657 473C658.506 473.683 659.315 473.826 661 474C659.494 473.317 658.685 473.174 657 473z"/>
<path style="fill:#6e86a3; stroke:none;" d="M549 475C552.697 476.552 557.017 476 561 476C557.303 474.448 552.983 475 549 475z"/>
<path style="fill:#667b97; stroke:none;" d="M661 478C663.052 478.874 664.747 478.953 667 479C664.948 478.126 663.253 478.047 661 478z"/>
<path style="fill:#7d9ab7; stroke:none;" d="M448 479L448 481L450 481C449.455 479.365 449.635 479.545 448 479z"/>
<path style="fill:#677d99; stroke:none;" d="M549 480C551.89 481.213 554.874 480.998 558 481C555.11 479.787 552.126 480.002 549 480z"/>
<path style="fill:#86a7c4; stroke:none;" d="M558.667 480.333C558.222 480.778 559.278 480.722 559.333 480.667C559.778 480.222 558.722 480.278 558.667 480.333z"/>
<path style="fill:#53627d; stroke:none;" d="M449 481C450.412 485.8 457.096 492.187 456.448 497C455.886 501.176 450.808 505.668 448.427 509C442.034 517.946 436.193 527.387 430.861 537C415.936 563.909 404.993 594.056 394.692 623C383.814 653.565 379.117 686.811 376.91 719C373.777 764.718 376.794 809.374 387 854C389.775 847.567 388.55 840.73 388.09 834C387.591 826.723 388 819.293 388 812C388 777.279 384.014 741.588 388.155 707C393.494 662.408 405.562 620.178 423.424 579C435.018 552.272 449.832 526.824 461 500C466.024 506.233 470.931 512.432 477 517.711C497.096 535.19 521.01 542.383 547 545.166C560.329 546.593 574.936 547.328 588 543.845C603.128 539.811 618.086 532.797 631 523.971C636.318 520.337 640.778 515.706 646 512C648.761 524.067 658.344 534.927 663.741 546C675.765 570.669 686.681 597.162 692.576 624C701.766 665.839 705.996 707.446 708.911 750C710.704 776.19 709.187 803.075 714 829C718.521 820.496 717.779 806.491 718.015 797C718.471 778.655 719.917 760.361 718.17 742C716.556 725.044 716.535 707.977 714.831 691C710.786 650.707 702.424 609.725 687.811 572C679.048 549.377 668.813 525.329 650 509C654.631 503.699 660.233 498.536 663 492C649.885 499.581 639.602 511.365 626 518.691C610.868 526.84 591.213 535.108 574 536.829C548.79 539.35 519.972 531.576 498 519.691C487.435 513.977 477.802 507.107 469 498.911C462.664 493.011 456.926 484.696 449 481z"/>
<path style="fill:#748eac; stroke:none;" d="M551 493C552.506 493.683 553.315 493.826 555 494C553.494 493.317 552.685 493.174 551 493z"/>
<path style="fill:#637693; stroke:none;" d="M555 493C557.89 494.213 560.874 493.998 564 494C561.11 492.787 558.126 493.002 555 493z"/>
<path style="fill:#7b98b5; stroke:none;" d="M564 493C565.248 493.685 565.548 493.749 567 494C565.752 493.315 565.452 493.251 564 493z"/>
<path style="fill:#697f9c; stroke:none;" d="M547.667 494.333C547.222 494.778 548.278 494.722 548.333 494.667C548.778 494.222 547.722 494.278 547.667 494.333z"/>
<path style="fill:#53627d; stroke:none;" d="M524 509C538.904 502.803 554.676 498.187 571 501.888C579.166 503.74 586.341 507.811 594 511C585.404 492.72 558.72 491.344 542 496.294C534.919 498.39 527.296 502.083 524 509z"/>
<path style="fill:#667c98; stroke:none;" d="M543.667 495.333C543.222 495.778 544.278 495.722 544.333 495.667C544.778 495.222 543.722 495.278 543.667 495.333z"/>
<path style="fill:#657b97; stroke:none;" d="M540.667 496.333C540.222 496.778 541.278 496.722 541.333 496.667C541.778 496.222 540.722 496.278 540.667 496.333z"/>
<path style="fill:#9cc3e2; stroke:none;" d="M461 500C451.12 516.927 442.847 535.188 434.691 553C411.85 602.885 393.491 654.017 388.17 709C386.459 726.68 388 745.234 388 763L388 815C388 823.25 386.5 833.169 389.468 841C401.155 871.839 428.584 886.528 458 896.333C506.598 912.533 558.914 918.917 610 912.282C633.841 909.185 660.319 902.676 677.714 884.83C692.969 869.181 699.691 850.728 704.873 830C707.635 818.955 710.283 807.444 710.545 796C710.854 782.5 709.012 768.467 708.089 755C704.563 703.498 702.426 650.779 686.652 601C680.457 581.451 672.096 561.251 662.741 543C657.524 532.823 650.837 523.361 646 513C638.283 515.989 632.086 522.846 625 527.189C612.829 534.649 599.558 540.106 586 544.481C575.261 547.946 564.041 547.238 553 546.17C527.267 543.68 504.103 537.422 483 521.844C474.499 515.569 468.754 506.882 461 500z"/>
<path style="fill:#7691ae; stroke:none;" d="M471 501L472 502L471 501z"/>
<path style="fill:#7b98b5; stroke:none;" d="M546 501C547.769 501.779 549.036 501.912 551 502C549.231 501.221 547.964 501.088 546 501z"/>
<path style="fill:#8bacca; stroke:none;" d="M551 501C555.724 502.982 561.91 502 567 502C562.276 500.018 556.09 501 551 501z"/>
<path style="fill:#6e86a2; stroke:none;" d="M567 501C568.248 501.685 568.548 501.749 570 502C568.752 501.315 568.452 501.251 567 501z"/>
<path style="fill:#83a1bf; stroke:none;" d="M541.667 502.333C541.222 502.778 542.278 502.722 542.333 502.667C542.778 502.222 541.722 502.278 541.667 502.333z"/>
<path style="fill:#6f87a4; stroke:none;" d="M572.667 502.333C572.222 502.778 573.278 502.722 573.333 502.667C573.778 502.222 572.722 502.278 572.667 502.333z"/>
<path style="fill:#82a1be; stroke:none;" d="M537.667 503.333C537.222 503.778 538.278 503.722 538.333 503.667C538.778 503.222 537.722 503.278 537.667 503.333z"/>
<path style="fill:#6e86a2; stroke:none;" d="M576.667 503.333C576.222 503.778 577.278 503.722 577.333 503.667C577.778 503.222 576.722 503.278 576.667 503.333z"/>
<path style="fill:#87a7c6; stroke:none;" d="M534.667 504.333C534.222 504.778 535.278 504.722 535.333 504.667C535.778 504.222 534.722 504.278 534.667 504.333z"/>
<path style="fill:#88a9c7; stroke:none;" d="M531.667 505.333C531.222 505.778 532.278 505.722 532.333 505.667C532.778 505.222 531.722 505.278 531.667 505.333z"/>
<path style="fill:#7994b2; stroke:none;" d="M466 506L467 507L466 506z"/>
<path style="fill:#718aa7; stroke:none;" d="M523.333 508.667C523.278 508.722 523.222 509.778 523.667 509.333C523.722 509.278 523.778 508.222 523.333 508.667z"/>
<path style="fill:#7893b0; stroke:none;" d="M642 508L643 509L642 508z"/>
<path style="fill:#7691ae; stroke:none;" d="M482 510L483 511L482 510z"/>
<path style="fill:#7894b1; stroke:none;" d="M592 510L593 511L592 510z"/>
<path style="fill:#6e85a1; stroke:none;" d="M594 510L594 512L596 512C595.455 510.365 595.635 510.545 594 510z"/>
<path style="fill:#87a7c6; stroke:none;" d="M595.667 512.333C595.222 512.778 596.278 512.722 596.333 512.667C596.778 512.222 595.722 512.278 595.667 512.333z"/>
<path style="fill:#687d9a; stroke:none;" d="M644.667 512.333C644.222 512.778 645.278 512.722 645.333 512.667C645.778 512.222 644.722 512.278 644.667 512.333z"/>
<path style="fill:#748fac; stroke:none;" d="M488 514L489 515L488 514z"/>
<path style="fill:#7792af; stroke:none;" d="M642 514L643 515L642 514z"/>
<path style="fill:#7691ae; stroke:none;" d="M647 516L648 517L647 516M479 519L480 520L479 519z"/>
<path style="fill:#005555; stroke:none;" d="M660 521L661 522L660 521z"/>
<path style="fill:#84a3c1; stroke:none;" d="M516.667 528.333C516.222 528.778 517.278 528.722 517.333 528.667C517.778 528.222 516.722 528.278 516.667 528.333z"/>
<path style="fill:#88a9c7; stroke:none;" d="M523.667 530.333C523.222 530.778 524.278 530.722 524.333 530.667C524.778 530.222 523.722 530.278 523.667 530.333z"/>
<path style="fill:#89aac8; stroke:none;" d="M527.667 531.333C527.222 531.778 528.278 531.722 528.333 531.667C528.778 531.222 527.722 531.278 527.667 531.333z"/>
<path style="fill:#809ebb; stroke:none;" d="M531.667 532.333C531.222 532.778 532.278 532.722 532.333 532.667C532.778 532.222 531.722 532.278 531.667 532.333z"/>
<path style="fill:#6c839f; stroke:none;" d="M591.667 532.333C591.222 532.778 592.278 532.722 592.333 532.667C592.778 532.222 591.722 532.278 591.667 532.333z"/>
<path style="fill:#7a96b3; stroke:none;" d="M536.667 533.333C536.222 533.778 537.278 533.722 537.333 533.667C537.778 533.222 536.722 533.278 536.667 533.333z"/>
<path style="fill:#657b97; stroke:none;" d="M588.667 533.333C588.222 533.778 589.278 533.722 589.333 533.667C589.778 533.222 588.722 533.278 588.667 533.333z"/>
<path style="fill:#7590ac; stroke:none;" d="M542.667 534.333C542.222 534.778 543.278 534.722 543.333 534.667C543.778 534.222 542.722 534.278 542.667 534.333z"/>
<path style="fill:#6c829e; stroke:none;" d="M584.667 534.333C584.222 534.778 585.278 534.722 585.333 534.667C585.778 534.222 584.722 534.278 584.667 534.333z"/>
<path style="fill:#667b97; stroke:none;" d="M548 535C549.248 535.685 549.548 535.749 551 536C549.752 535.315 549.452 535.251 548 535z"/>
<path style="fill:#8baecb; stroke:none;" d="M551 535C552.506 535.683 553.315 535.826 555 536C553.494 535.317 552.685 535.174 551 535z"/>
<path style="fill:#7893b0; stroke:none;" d="M579 535C580.248 535.685 580.548 535.749 582 536C580.752 535.315 580.452 535.251 579 535z"/>
<path style="fill:#7089a6; stroke:none;" d="M559 536C564.222 538.191 571.368 537 577 537C571.778 534.809 564.632 536 559 536z"/>
<path style="fill:#6c84a0; stroke:none;" d="M519.667 540.333C519.222 540.778 520.278 540.722 520.333 540.667C520.778 540.222 519.722 540.278 519.667 540.333z"/>
<path style="fill:#6b829e; stroke:none;" d="M523.667 541.333C523.222 541.778 524.278 541.722 524.333 541.667C524.778 541.222 523.722 541.278 523.667 541.333z"/>
<path style="fill:#005555; stroke:none;" d="M674 541L675 542L674 541z"/>
<path style="fill:#728ba8; stroke:none;" d="M527.667 542.333C527.222 542.778 528.278 542.722 528.333 542.667C528.778 542.222 527.722 542.278 527.667 542.333z"/>
<path style="fill:#7a96b2; stroke:none;" d="M532.667 543.333C532.222 543.778 533.278 543.722 533.333 543.667C533.778 543.222 532.722 543.278 532.667 543.333z"/>
<path style="fill:#7f9dba; stroke:none;" d="M538 544C539.248 544.685 539.549 544.749 541 545C539.752 544.315 539.452 544.251 538 544z"/>
<path style="fill:#82a1bf; stroke:none;" d="M585.667 544.333C585.222 544.778 586.278 544.722 586.333 544.667C586.778 544.222 585.722 544.278 585.667 544.333z"/>
<path style="fill:#86a6c4; stroke:none;" d="M544.667 545.333C544.222 545.778 545.278 545.722 545.333 545.667C545.778 545.222 544.722 545.278 544.667 545.333z"/>
<path style="fill:#617490; stroke:none;" d="M546 545C547.506 545.683 548.315 545.826 550 546C548.494 545.317 547.685 545.174 546 545z"/>
<path style="fill:#718ba8; stroke:none;" d="M580 545C581.248 545.685 581.548 545.749 583 546C581.752 545.315 581.452 545.251 580 545z"/>
<path style="fill:#657a96; stroke:none;" d="M555 546C560.715 548.398 568.831 547 575 547C569.285 544.602 561.169 546 555 546z"/>
<path style="fill:#809ebc; stroke:none;" d="M575 546C576.248 546.685 576.548 546.749 578 547C576.752 546.315 576.452 546.251 575 546z"/>
<path style="fill:#005555; stroke:none;" d="M678 549L679 550L678 549M410 582L411 583L410 582z"/>
<path style="fill:#89a9c7; stroke:none;" d="M683.333 592.667C683.278 592.722 683.222 593.778 683.667 593.333C683.722 593.278 683.778 592.222 683.333 592.667z"/>
<path style="fill:#83a2c0; stroke:none;" d="M688.333 607.667C688.278 607.722 688.222 608.778 688.667 608.333C688.722 608.278 688.778 607.222 688.333 607.667z"/>
<path style="fill:#005555; stroke:none;" d="M398 613L399 614L398 613z"/>
<path style="fill:#7792af; stroke:none;" d="M690.333 614.667C690.278 614.722 690.222 615.778 690.667 615.333C690.722 615.278 690.778 614.222 690.333 614.667z"/>
<path style="fill:#82a2c0; stroke:none;" d="M691.333 619.667C691.278 619.722 691.222 620.778 691.667 620.333C691.722 620.278 691.778 619.222 691.333 619.667z"/>
<path style="fill:#7691ae; stroke:none;" d="M692.333 623.667C692.278 623.722 692.222 624.778 692.667 624.333C692.722 624.278 692.778 623.222 692.333 623.667z"/>
<path style="fill:#7893af; stroke:none;" d="M693.333 628.667C693.277 628.722 693.222 629.778 693.667 629.333C693.722 629.278 693.778 628.222 693.333 628.667z"/>
<path style="fill:#7994b1; stroke:none;" d="M694.333 633.667C694.278 633.722 694.222 634.778 694.667 634.333C694.722 634.278 694.778 633.222 694.333 633.667z"/>
<path style="fill:#87a7c5; stroke:none;" d="M402.333 634.667C402.278 634.722 402.222 635.778 402.667 635.333C402.722 635.278 402.778 634.222 402.333 634.667z"/>
<path style="fill:#7995b3; stroke:none;" d="M401.333 637.667C401.278 637.722 401.222 638.778 401.667 638.333C401.722 638.278 401.778 637.222 401.333 637.667z"/>
<path style="fill:#7792af; stroke:none;" d="M695 638L695 641C695.696 639.446 695.696 639.554 695 638z"/>
<path style="fill:#7b97b4; stroke:none;" d="M400.333 641.667C400.278 641.722 400.222 642.778 400.667 642.333C400.722 642.278 400.778 641.222 400.333 641.667z"/>
<path style="fill:#728ca8; stroke:none;" d="M696.333 643.667C696.278 643.722 696.222 644.778 696.667 644.333C696.722 644.278 696.778 643.222 696.333 643.667z"/>
<path style="fill:#7b97b4; stroke:none;" d="M399.333 645.667C399.278 645.722 399.222 646.778 399.667 646.333C399.722 646.278 399.778 645.222 399.333 645.667z"/>
<path style="fill:#6e86a2; stroke:none;" d="M697.333 648.667C697.278 648.722 697.222 649.778 697.667 649.333C697.722 649.278 697.778 648.222 697.333 648.667z"/>
<path style="fill:#7a96b3; stroke:none;" d="M398.333 649.667C398.278 649.722 398.222 650.778 398.667 650.333C398.722 650.278 398.778 649.222 398.333 649.667z"/>
<path style="fill:#89abc8; stroke:none;" d="M697.333 650.667C697.278 650.722 697.222 651.778 697.667 651.333C697.722 651.278 697.778 650.222 697.333 650.667z"/>
<path style="fill:#7893b0; stroke:none;" d="M397.333 653.667C397.278 653.722 397.222 654.778 397.667 654.333C397.722 654.278 397.778 653.222 397.333 653.667z"/>
<path style="fill:#7690ad; stroke:none;" d="M698 654L698 657C698.696 655.446 698.696 655.554 698 654z"/>
<path style="fill:#819fbd; stroke:none;" d="M396.333 658.667C396.278 658.722 396.222 659.778 396.667 659.333C396.722 659.278 396.778 658.222 396.333 658.667z"/>
<path style="fill:#7a95b2; stroke:none;" d="M699.333 660.667C699.278 660.722 699.222 661.778 699.667 661.333C699.722 661.278 699.778 660.222 699.333 660.667z"/>
<path style="fill:#7893b0; stroke:none;" d="M395.333 662.667C395.278 662.722 395.222 663.778 395.667 663.333C395.722 663.278 395.778 662.222 395.333 662.667z"/>
<path style="fill:#6f87a4; stroke:none;" d="M700.333 665.667C700.277 665.722 700.222 666.778 700.667 666.333C700.722 666.278 700.778 665.222 700.333 665.667z"/>
<path style="fill:#7893b0; stroke:none;" d="M394 667L394 670C394.696 668.446 394.696 668.554 394 667z"/>
<path style="fill:#88a9c7; stroke:none;" d="M700.333 667.667C700.277 667.723 700.222 668.778 700.667 668.333C700.722 668.278 700.778 667.222 700.333 667.667z"/>
<path style="fill:#718ba8; stroke:none;" d="M701 671L701 674C701.696 672.446 701.696 672.554 701 671z"/>
<path style="fill:#7792af; stroke:none;" d="M393.333 672.667C393.278 672.722 393.222 673.778 393.667 673.333C393.722 673.278 393.778 672.222 393.333 672.667z"/>
<path style="fill:#738daa; stroke:none;" d="M392 677L392 680C392.696 678.446 392.696 678.554 392 677z"/>
<path style="fill:#738ca9; stroke:none;" d="M702 677L702 680C702.696 678.446 702.696 678.554 702 677z"/>
<path style="fill:#005555; stroke:none;" d="M713 681L714 682L713 681z"/>
<path style="fill:#7690ad; stroke:none;" d="M391.333 683.667C391.278 683.722 391.222 684.778 391.667 684.333C391.722 684.278 391.778 683.222 391.333 683.667z"/>
<path style="fill:#6f87a4; stroke:none;" d="M703.333 683.667C703.278 683.722 703.222 684.778 703.667 684.333C703.722 684.278 703.778 683.222 703.333 683.667M390.333 689.667C390.278 689.722 390.222 690.778 390.667 690.333C390.722 690.278 390.778 689.222 390.333 689.667z"/>
<path style="fill:#84a3c1; stroke:none;" d="M390 691L390 694C390.696 692.446 390.696 692.554 390 691z"/>
<path style="fill:#7b97b4; stroke:none;" d="M704 691L704 698C705.059 695.466 705.059 693.534 704 691z"/>
<path style="fill:#7d9ab8; stroke:none;" d="M389 696L389 701C389.83 698.969 389.83 698.03 389 696z"/>
<path style="fill:#667b97; stroke:none;" d="M705 700L705 703C705.696 701.446 705.696 701.554 705 700z"/>
<path style="fill:#85a4c3; stroke:none;" d="M705 703L705 708C705.83 705.97 705.83 705.03 705 703z"/>
<path style="fill:#6a819e; stroke:none;" d="M388 704L388 707C388.696 705.446 388.696 705.554 388 704z"/>
<path style="fill:#697f9c; stroke:none;" d="M387 712L387 717C387.83 714.969 387.83 714.031 387 712z"/>
<path style="fill:#748eab; stroke:none;" d="M706 713L706 719C706.951 716.715 706.951 715.285 706 713z"/>
<path style="fill:#7d9ab7; stroke:none;" d="M387 717L387 721C387.71 719.24 387.71 718.76 387 717z"/>
<path style="fill:#86a7c4; stroke:none;" d="M706 719L706 725C706.951 722.715 706.951 721.285 706 719z"/>
<path style="fill:#8badcb; stroke:none;" d="M387 721L387 754C389.701 747.564 388 737.951 388 731C388 727.581 388.328 724.166 387 721z"/>
<path style="fill:#677d98; stroke:none;" d="M707 729L707 734C707.83 731.97 707.83 731.03 707 729z"/>
<path style="fill:#005555; stroke:none;" d="M717 729L718 730L717 729z"/>
<path style="fill:#7e9bb9; stroke:none;" d="M707 734L707 739C707.83 736.97 707.83 736.03 707 734z"/>
<path style="fill:#667b97; stroke:none;" d="M708 746L708 753C709.059 750.466 709.059 748.534 708 746z"/>
<path style="fill:#809ebc; stroke:none;" d="M708 753L708 759C708.951 756.715 708.951 755.285 708 753z"/>
<path style="fill:#7f9dba; stroke:none;" d="M387 754L387 771C388.883 766.514 388.883 758.486 387 754z"/>
<path style="fill:#647894; stroke:none;" d="M709 767L709 774C710.059 771.466 710.06 769.534 709 767z"/>
<path style="fill:#657a96; stroke:none;" d="M387 771L387 784C388.591 780.209 388.591 774.791 387 771z"/>
<path style="fill:#88a8c6; stroke:none;" d="M709 774L709 780C709.951 777.715 709.951 776.285 709 774z"/>
<path style="fill:#7892b0; stroke:none;" d="M710 785L710 794C711.256 791.006 711.256 787.994 710 785z"/>
<path style="fill:#808080; stroke:none;" d="M391 845L392 846L391 845M396 854L397 855L396 854z"/>
<path style="fill:#55aaaa; stroke:none;" d="M398 857L399 858L398 857M423 881L424 882L423 881z"/>
<path style="fill:#808080; stroke:none;" d="M679 882L680 883L679 882z"/>
<path style="fill:#55aaaa; stroke:none;" d="M428 884L429 885L428 884z"/>
<path style="fill:#808080; stroke:none;" d="M434 887L435 888L434 887z"/>
<path style="fill:#55aaaa; stroke:none;" d="M674 887L675 888L674 887z"/>
<path style="fill:#808080; stroke:none;" d="M491 906L492 907L491 906M635 907L636 908L635 907z"/>
<path style="fill:#55aaaa; stroke:none;" d="M616 911L617 912L616 911z"/>
<path style="fill:#808080; stroke:none;" d="M529 912L530 913L529 912z"/>
</svg>
