<?xml version="1.0" standalone="yes"?>
<svg xmlns="http://www.w3.org/2000/svg" width="1080" height="1080">
<path style="fill:#000000; stroke:none;" d="M0 0L0 1080L1080 1080L1080 0L0 0z"/>
<path style="fill:#53627d; stroke:none;" d="M546 261C522.432 256.138 500.882 263.098 478 268.349C462.726 271.854 447.146 275.455 436.468 288.039C433.323 291.745 430.795 296.116 430.185 301C429.34 307.764 431.392 314.936 427.146 320.911C418.686 332.814 402.337 337.947 397.623 353C393.569 365.946 399 380.771 399 394C399 413.285 380.719 446.303 408 455.251C411.626 456.44 415.204 456.921 419 457C419 461.596 418.346 466.889 420.858 470.985C427.167 481.27 441.374 479.516 448 471C441.954 472.6 435.493 474.595 430.344 469.606C424.148 463.602 428.218 451.833 431.015 445C432.149 442.228 433.432 438.589 436.213 437.043C439.417 435.263 443.694 437.44 447 438C445.748 436.315 444.682 434.869 442.941 433.628C429.578 424.098 421.998 442.733 420 453C413.683 450.006 406.101 447.327 403.804 439.999C401.143 431.51 406.488 421.186 408.525 413C411.737 400.091 410.597 388.074 409.961 375C409.645 368.501 407.691 362.13 410.92 356C417.392 343.711 431.894 337.845 438.633 326C442.831 318.62 440.27 310.599 442.653 303C444.465 297.219 450.349 292.113 455 288.529C463.067 282.314 473.36 280.537 483 278.127C497.193 274.578 513.226 268.244 528 269.043C537.58 269.561 546.188 273.993 556 274L552 282C555.847 280.497 558.348 277.031 562.089 275.6C565.373 274.343 569.532 275.037 573 274.576C585.028 272.977 601.278 270.231 613 274.421C624.126 278.397 626.129 291.828 633.439 299.911C637.936 304.883 643.326 308.996 647.829 314C654.833 321.782 660.94 330.325 668.089 338C677.418 348.015 687.782 357.212 693.485 370C697.366 378.701 698.971 389.521 698.971 399C698.971 405.859 697.017 412.204 699.225 419C701.285 425.343 711.079 431.819 708.886 439C706.049 448.288 692.384 454.187 684 457C684 450.988 685.02 443.289 681.272 438.109C674.59 428.871 660.071 435.97 655 443C660.291 442.06 666.551 438.024 671.891 441.028C680.225 445.715 676.23 465.513 669.895 470.347C663.876 474.94 656.741 472.907 650 472C655.451 478.358 669.725 481.719 676.907 476.347C681.136 473.183 682.189 466.947 687.055 464.703C698.913 459.234 716.615 458.846 720.467 443C722.008 436.659 720.658 429.449 717.161 424C714.682 420.136 710.598 416.738 709.854 412C707.565 397.412 711.498 383.537 706.302 369C700.212 351.962 686.076 338.873 674.089 326C668.203 319.679 663.37 312.505 657.711 306C652.81 300.367 647.164 295.425 642.043 290C634.457 281.964 631.775 270.479 621 265.681C608.046 259.912 589.912 263 576 263C580.075 258.959 585.91 252.038 592.424 253.024C595.229 253.448 597.67 255.525 600 257C599.379 255.189 598.906 253.655 597.566 252.204C587.397 241.196 574.137 256.773 566 261.566C563.154 263.243 558.191 263.974 555.256 261.973C552.56 260.134 554.039 257.309 555.158 255C557.06 251.079 559.118 246.462 557.397 242.043C555.098 236.141 547.411 235.502 542.001 236.109C539.382 236.402 535.636 237.629 535.636 240.896C535.636 246.733 546.675 241.535 549.184 245.333C551.414 248.708 546.355 256.964 546 261z"/>
<path style="fill:#7e9bb9; stroke:none;" d="M519 269C523.216 270.769 528.459 270 533 270C528.784 268.231 523.541 269 519 269z"/>
<path style="fill:#7994b2; stroke:none;" d="M514.667 270.333C514.222 270.778 515.278 270.722 515.333 270.667C515.778 270.222 514.722 270.278 514.667 270.333z"/>
<path style="fill:#9cc3e2; stroke:none;" d="M420 452C421.613 445.21 427.102 430.338 436 431.068C440.794 431.461 444.874 435.897 449 438C444.99 437.903 439.077 434.805 435.39 437.042C433.081 438.445 431.959 441.593 431.09 444C428.628 450.819 424.66 464.985 431.148 470.566C435.918 474.669 442.653 472.503 448 471L444 474C444.81 476.222 445.739 477.99 447 480C453.911 481.937 459.938 491.047 465 495.985C474.296 505.053 484.665 512.815 496 519.138C519.5 532.248 551.057 539.212 578 535.711C596.165 533.35 616.403 525.215 632 515.796C645.552 507.612 663.961 495.837 667 479C659.254 478.645 651.772 475.18 647 469C653.36 473.251 666.668 475.948 672.272 468.772C674.994 465.287 674.979 460.193 674.999 456C675.018 451.999 676.568 443.619 672.682 441.028C667.469 437.552 658.924 441.991 654 444C657.071 440.956 660.081 437.799 664 435.839C679.141 428.27 684.992 443.838 685 456C694.628 454.557 711.645 445.997 708.569 434C706.734 426.841 699.379 422.628 698.213 415C695.994 400.485 698.623 386.531 694.507 372C689.371 353.866 670.817 340.758 659.134 327C654.658 321.729 650.762 316 645.961 311.001C641.024 305.861 635.225 301.713 630.9 296C626.264 289.876 624.554 281.184 617.985 276.703C613.514 273.654 608.156 274 603 274C593.247 273.999 583.703 274.246 574 274.911C569.969 275.187 564.993 274.094 561.17 275.6C557.134 277.189 554.031 281.081 550 283C552.48 280.447 554.504 278.224 556 275C547.671 274.641 540.159 270.752 532 270.093C514.295 268.663 496.964 274.886 480 279.127C470.476 281.508 460.816 282.881 453 289.329C449.584 292.147 445.362 295.759 443.742 300C440.649 308.097 443.302 316.961 438.637 325C432.141 336.192 418.9 341.904 412.148 353C406.003 363.1 411.821 378.951 411.821 390C411.821 399.18 409.907 408.205 407.445 417C405.312 424.621 402.197 434.023 404.434 441.985C406.196 448.26 414.137 451.399 420 452z"/>
<path style="fill:#7a96b2; stroke:none;" d="M509.667 271.333C509.222 271.778 510.278 271.722 510.333 271.667C510.778 271.222 509.722 271.278 509.667 271.333z"/>
<path style="fill:#69809b; stroke:none;" d="M538.667 271.333C538.222 271.778 539.278 271.722 539.333 271.667C539.778 271.222 538.722 271.278 538.667 271.333z"/>
<path style="fill:#809ebc; stroke:none;" d="M505.667 272.333C505.222 272.778 506.278 272.722 506.333 272.667C506.778 272.222 505.722 272.278 505.667 272.333z"/>
<path style="fill:#718aa7; stroke:none;" d="M541.667 272.333C541.222 272.778 542.278 272.722 542.333 272.667C542.778 272.222 541.722 272.278 541.667 272.333z"/>
<path style="fill:#809fbd; stroke:none;" d="M501.667 273.333C501.222 273.778 502.278 273.722 502.333 273.667C502.778 273.222 501.722 273.278 501.667 273.333z"/>
<path style="fill:#748eab; stroke:none;" d="M545.667 273.333C545.222 273.778 546.278 273.722 546.333 273.667C546.778 273.222 545.722 273.278 545.667 273.333z"/>
<path style="fill:#667b97; stroke:none;" d="M581 273C582.769 273.779 584.036 273.912 586 274C584.231 273.221 582.964 273.088 581 273z"/>
<path style="fill:#8bacca; stroke:none;" d="M586 273C592.687 275.806 602.767 274 610 274C603.313 271.194 593.233 273 586 273z"/>
<path style="fill:#7f9dba; stroke:none;" d="M497.667 274.333C497.222 274.778 498.278 274.722 498.333 274.667C498.778 274.222 497.722 274.278 497.667 274.333z"/>
<path style="fill:#85a4c2; stroke:none;" d="M550 274C551.248 274.685 551.548 274.749 553 275C551.752 274.315 551.451 274.251 550 274z"/>
<path style="fill:#6b839f; stroke:none;" d="M553 274C554.248 274.685 554.548 274.749 556 275C554.752 274.315 554.452 274.251 553 274z"/>
<path style="fill:#85a4c2; stroke:none;" d="M573 274C574.769 274.779 576.036 274.912 578 275C576.231 274.221 574.964 274.088 573 274z"/>
<path style="fill:#667c99; stroke:none;" d="M613.667 274.333C613.222 274.778 614.278 274.722 614.333 274.667C614.778 274.222 613.722 274.278 613.667 274.333z"/>
<path style="fill:#7e9bb9; stroke:none;" d="M493.667 275.333C493.222 275.778 494.278 275.722 494.333 275.667C494.778 275.222 493.722 275.278 493.667 275.333z"/>
<path style="fill:#7d9ab8; stroke:none;" d="M489.667 276.333C489.222 276.778 490.278 276.722 490.333 276.667C490.778 276.222 489.722 276.278 489.667 276.333z"/>
<path style="fill:#7e9bb9; stroke:none;" d="M485.667 277.333C485.222 277.778 486.278 277.722 486.333 277.667C486.778 277.222 485.722 277.278 485.667 277.333z"/>
<path style="fill:#7f9cba; stroke:none;" d="M481.667 278.333C481.222 278.778 482.278 278.722 482.333 278.667C482.778 278.222 481.722 278.278 481.667 278.333z"/>
<path style="fill:#7590ac; stroke:none;" d="M620 278L621 279L620 278z"/>
<path style="fill:#809ebc; stroke:none;" d="M477.667 279.333C477.222 279.778 478.278 279.722 478.333 279.667C478.778 279.222 477.722 279.278 477.667 279.333z"/>
<path style="fill:#83a1bf; stroke:none;" d="M473.667 280.333C473.222 280.778 474.278 280.722 474.333 280.667C474.778 280.222 473.722 280.278 473.667 280.333z"/>
<path style="fill:#809fbd; stroke:none;" d="M469.667 281.333C469.222 281.778 470.278 281.722 470.333 281.667C470.778 281.222 469.722 281.278 469.667 281.333z"/>
<path style="fill:#7b98b5; stroke:none;" d="M551 281L550 283L552 283C552 281.147 552.3 281.65 551 281z"/>
<path style="fill:#005555; stroke:none;" d="M441 283L442 284L441 283z"/>
<path style="fill:#7590ac; stroke:none;" d="M632 298L633 299L632 298z"/>
<path style="fill:#7c99b6; stroke:none;" d="M442 302L442 312C443.346 308.793 443.346 305.207 442 302z"/>
<path style="fill:#7893af; stroke:none;" d="M637 303L638 304L637 303z"/>
<path style="fill:#005555; stroke:none;" d="M659 308L660 309L659 308z"/>
<path style="fill:#677e9a; stroke:none;" d="M441 316L441 319C441.696 317.446 441.696 317.554 441 316z"/>
<path style="fill:#005555; stroke:none;" d="M426 322L427 323L426 322z"/>
<path style="fill:#738ca9; stroke:none;" d="M511 323C513.613 324.098 516.165 323.993 519 324C516.387 322.902 513.836 323.007 511 323z"/>
<path style="fill:#53627d; stroke:none;" d="M476 352C482.728 354.823 497.58 354.547 501.991 347.895C505.916 341.976 504.467 335.218 512.004 331.573C517.209 329.055 525.646 328.922 529.258 334.109C531.085 336.733 530.546 339.986 532.012 342.714C534.247 346.876 537.009 348.858 536.945 354C536.863 360.657 536 367.288 536 374C541.077 364.52 547.02 345.033 532 342C532.733 338.05 534.023 332.926 531.821 329.214C526.932 320.973 508.097 322.538 502.109 328.214C496.644 333.393 498.978 342.539 492.867 346.853C488.163 350.172 481.365 350.3 476 352z"/>
<path style="fill:#7b98b5; stroke:none;" d="M523.667 324.333C523.222 324.778 524.278 324.722 524.333 324.667C524.778 324.222 523.722 324.278 523.667 324.333z"/>
<path style="fill:#7894b1; stroke:none;" d="M657 325L658 326L657 325z"/>
<path style="fill:#87a6c4; stroke:none;" d="M593.333 328.667C593.278 328.722 593.222 329.778 593.667 329.333C593.722 329.278 593.778 328.222 593.333 328.667z"/>
<path style="fill:#677e9a; stroke:none;" d="M592 329L591 331L593 331C593 329.147 593.3 329.65 592 329z"/>
<path style="fill:#7c99b6; stroke:none;" d="M514 330C517.697 331.552 522.017 331 526 331C522.303 329.448 517.983 330 514 330z"/>
<path style="fill:#748eab; stroke:none;" d="M545 330C548.697 331.552 553.017 331 557 331C553.303 329.448 548.983 330 545 330z"/>
<path style="fill:#667c98; stroke:none;" d="M541.667 331.333C541.222 331.778 542.278 331.722 542.333 331.667C542.778 331.222 541.722 331.278 541.667 331.333z"/>
<path style="fill:#53627d; stroke:none;" d="M534 341C544.047 330.73 562.11 339.302 575 338.985C581.908 338.816 588.408 337.316 592 331C588.082 332.314 584.239 334.728 580 334.61C568.85 334.299 558.359 330.523 547 331.039C540.131 331.352 534.562 333.565 534 341z"/>
<path style="fill:#6a809d; stroke:none;" d="M560 331C561.248 331.685 561.549 331.749 563 332C561.752 331.315 561.452 331.251 560 331z"/>
<path style="fill:#6a819e; stroke:none;" d="M533 332L533 336C533.71 334.24 533.71 333.759 533 332z"/>
<path style="fill:#7d9ab8; stroke:none;" d="M567.667 332.333C567.222 332.778 568.278 332.722 568.333 332.667C568.778 332.222 567.722 332.278 567.667 332.333z"/>
<path style="fill:#7792af; stroke:none;" d="M588 332L589 333L588 332z"/>
<path style="fill:#7a96b2; stroke:none;" d="M663 332L664 333L663 332z"/>
<path style="fill:#7893b0; stroke:none;" d="M572 333C573.248 333.685 573.548 333.749 575 334C573.751 333.315 573.452 333.251 572 333z"/>
<path style="fill:#7590ad; stroke:none;" d="M664 333L665 334L664 333z"/>
<path style="fill:#6d85a1; stroke:none;" d="M578 334C580.052 334.874 581.747 334.953 584 335C581.948 334.126 580.253 334.047 578 334z"/>
<path style="fill:#8fb3d1; stroke:none;" d="M530 335L530 343C531.161 340.23 531.161 337.77 530 335z"/>
<path style="fill:#7994b2; stroke:none;" d="M588 335L589 336L588 335z"/>
<path style="fill:#7a96b3; stroke:none;" d="M428 336L429 337L428 336z"/>
<path style="fill:#738ca9; stroke:none;" d="M497.333 336.667C497.278 336.722 497.222 337.778 497.667 337.333C497.722 337.278 497.778 336.222 497.333 336.667z"/>
<path style="fill:#7792af; stroke:none;" d="M549 336C550.248 336.685 550.548 336.749 552 337C550.752 336.315 550.452 336.251 549 336M536 337L537 338L536 337z"/>
<path style="fill:#7994b2; stroke:none;" d="M556.667 337.333C556.222 337.778 557.278 337.722 557.333 337.667C557.778 337.222 556.722 337.278 556.667 337.333z"/>
<path style="fill:#819fbd; stroke:none;" d="M562.667 338.333C562.222 338.778 563.278 338.722 563.333 338.667C563.778 338.222 562.722 338.278 562.667 338.333z"/>
<path style="fill:#7089a6; stroke:none;" d="M580 338C581.248 338.685 581.548 338.749 583 339C581.752 338.315 581.452 338.251 580 338z"/>
<path style="fill:#7691ae; stroke:none;" d="M504 339L504 342C504.696 340.446 504.696 340.554 504 339z"/>
<path style="fill:#8eb1cf; stroke:none;" d="M569 339C571.613 340.098 574.165 339.993 577 340C574.387 338.902 571.836 339.007 569 339z"/>
<path style="fill:#718ba8; stroke:none;" d="M530.667 343.333C530.222 343.778 531.278 343.722 531.333 343.667C531.778 343.222 530.722 343.278 530.667 343.333z"/>
<path style="fill:#7893af; stroke:none;" d="M495 345L496 346L495 345z"/>
<path style="fill:#005555; stroke:none;" d="M692 346L693 347L692 346z"/>
<path style="fill:#7a96b3; stroke:none;" d="M492 347L493 348L492 347z"/>
<path style="fill:#7691ae; stroke:none;" d="M502 347L503 348L502 347z"/>
<path style="fill:#6a819e; stroke:none;" d="M489.667 348.333C489.222 348.778 490.278 348.722 490.333 348.667C490.778 348.222 489.722 348.278 489.667 348.333z"/>
<path style="fill:#86a6c4; stroke:none;" d="M536.333 348.667C536.278 348.722 536.222 349.778 536.667 349.333C536.722 349.278 536.778 348.222 536.333 348.667z"/>
<path style="fill:#7590ad; stroke:none;" d="M541.333 349.667C541.278 349.722 541.222 350.778 541.667 350.333C541.722 350.278 541.778 349.222 541.333 349.667z"/>
<path style="fill:#7d9ab8; stroke:none;" d="M480 350C481.248 350.685 481.549 350.749 483 351C481.752 350.315 481.452 350.251 480 350z"/>
<path style="fill:#7b98b5; stroke:none;" d="M473 352C474.809 352.574 475.069 352.465 477 352C475.341 351.594 474.758 351.691 473 352z"/>
<path style="fill:#7994b1; stroke:none;" d="M480 353C481.506 353.683 482.315 353.826 484 354C482.494 353.317 481.685 353.174 480 353z"/>
<path style="fill:#69809b; stroke:none;" d="M484 353C486.332 353.985 488.457 353.981 491 354C488.668 353.015 486.543 353.019 484 353z"/>
<path style="fill:#84a3c1; stroke:none;" d="M491.667 353.333C491.222 353.778 492.278 353.722 492.333 353.667C492.778 353.222 491.722 353.278 491.667 353.333z"/>
<path style="fill:#758fab; stroke:none;" d="M536.333 357.667C536.278 357.722 536.222 358.778 536.667 358.333C536.722 358.278 536.778 357.222 536.333 357.667z"/>
<path style="fill:#82a0be; stroke:none;" d="M541.333 357.667C541.278 357.722 541.222 358.778 541.667 358.333C541.722 358.278 541.778 357.222 541.333 357.667z"/>
<path style="fill:#758fab; stroke:none;" d="M409 358L409 367C410.256 364.006 410.256 360.994 409 358z"/>
<path style="fill:#7994b1; stroke:none;" d="M687 359L688 360L687 359z"/>
<path style="fill:#7c98b6; stroke:none;" d="M535.333 361.667C535.278 361.722 535.222 362.778 535.667 362.333C535.722 362.278 535.778 361.222 535.333 361.667z"/>
<path style="fill:#687f9b; stroke:none;" d="M535 363L535 368C535.83 365.97 535.83 365.03 535 363z"/>
<path style="fill:#005555; stroke:none;" d="M396 364L397 365L396 364z"/>
<path style="fill:#87a7c5; stroke:none;" d="M538.333 366.667C538.278 366.722 538.222 367.778 538.667 367.333C538.722 367.278 538.778 366.222 538.333 366.667z"/>
<path style="fill:#60738f; stroke:none;" d="M409 367L409 371C409.71 369.241 409.71 368.76 409 367z"/>
<path style="fill:#7b98b5; stroke:none;" d="M535.333 368.667C535.278 368.722 535.222 369.778 535.667 369.333C535.722 369.278 535.778 368.222 535.333 368.667z"/>
<path style="fill:#7e9bb9; stroke:none;" d="M537.333 370.667C537.278 370.722 537.222 371.778 537.667 371.333C537.722 371.278 537.778 370.222 537.333 370.667z"/>
<path style="fill:#809fbd; stroke:none;" d="M410 374L410 380C410.951 377.715 410.951 376.285 410 374z"/>
<path style="fill:#86a6c4; stroke:none;" d="M695.333 375.667C695.278 375.722 695.222 376.778 695.667 376.333C695.722 376.278 695.778 375.222 695.333 375.667z"/>
<path style="fill:#819fbd; stroke:none;" d="M696.333 379.667C696.278 379.722 696.222 380.778 696.667 380.333C696.722 380.278 696.778 379.222 696.333 379.667z"/>
<path style="fill:#667c99; stroke:none;" d="M410 380L410 383C410.696 381.446 410.696 381.554 410 380z"/>
<path style="fill:#7f9dba; stroke:none;" d="M697 383L697 387C697.71 385.241 697.71 384.759 697 383z"/>
<path style="fill:#7b98b5; stroke:none;" d="M411 386L411 394C412.161 391.23 412.161 388.77 411 386z"/>
<path style="fill:#667c99; stroke:none;" d="M698 393L698 405C699.512 401.396 699.512 396.604 698 393z"/>
<path style="fill:#819fbd; stroke:none;" d="M410 403L410 406C410.696 404.446 410.696 404.554 410 403z"/>
<path style="fill:#53627d; stroke:none;" d="M515.019 404.758C506.935 407.727 510.857 419.349 518.941 416.242C525.992 413.533 522.912 401.859 515.019 404.758z"/>
<path style="fill:#667c98; stroke:none;" d="M594 406C595.506 406.683 596.315 406.826 598 407C596.494 406.317 595.685 406.174 594 406z"/>
<path style="fill:#53627d; stroke:none;" d="M592.148 408.028C584.599 412.48 592.716 423.571 599.682 418.971C606.239 414.642 599.508 403.687 592.148 408.028z"/>
<path style="fill:#7b98b5; stroke:none;" d="M409.333 408.667C409.278 408.722 409.222 409.778 409.667 409.333C409.722 409.278 409.778 408.222 409.333 408.667z"/>
<path style="fill:#8caecc; stroke:none;" d="M514 408C515.506 408.683 516.315 408.826 518 409C516.494 408.317 515.685 408.174 514 408z"/>
<path style="fill:#7f9dba; stroke:none;" d="M523 408L523 412C523.71 410.24 523.71 409.76 523 408z"/>
<path style="fill:#9cc3e2; stroke:none;" d="M514 409L514 412L518 412L518 409L514 409z"/>
<path style="fill:#7590ac; stroke:none;" d="M509 410L509 413C509.696 411.446 509.696 411.554 509 410z"/>
<path style="fill:#7a96b2; stroke:none;" d="M513.333 410.667C513.278 410.722 513.222 411.778 513.667 411.333C513.722 411.278 513.778 410.222 513.333 410.667z"/>
<path style="fill:#2b5555; stroke:none;" d="M709 410L709 413C709.696 411.446 709.696 411.554 709 410z"/>
<path style="fill:#6a809d; stroke:none;" d="M588 411L588 415C588.71 413.241 588.71 412.759 588 411z"/>
<path style="fill:#718ba8; stroke:none;" d="M595.667 411.333C595.222 411.778 596.278 411.722 596.333 411.667C596.778 411.222 595.722 411.278 595.667 411.333z"/>
<path style="fill:#7c99b6; stroke:none;" d="M602 411L602 414C602.696 412.446 602.696 412.554 602 411z"/>
<path style="fill:#9cc3e2; stroke:none;" d="M593 413L593 415L597 416L597 412L593 413z"/>
<path style="fill:#87a7c6; stroke:none;" d="M597 413L597 416C597.696 414.446 597.696 414.554 597 413z"/>
<path style="fill:#7f9dbb; stroke:none;" d="M407.333 416.667C407.278 416.722 407.222 417.778 407.667 417.333C407.722 417.278 407.778 416.222 407.333 416.667z"/>
<path style="fill:#809fbd; stroke:none;" d="M698.333 416.667C698.278 416.722 698.222 417.778 698.667 417.333C698.722 417.278 698.778 416.222 698.333 416.667z"/>
<path style="fill:#819fbd; stroke:none;" d="M595 420C596.248 420.685 596.549 420.749 598 421C596.752 420.315 596.452 420.251 595 420z"/>
<path style="fill:#7f9dba; stroke:none;" d="M405.333 423.667C405.278 423.722 405.222 424.778 405.667 424.333C405.722 424.278 405.778 423.222 405.333 423.667z"/>
<path style="fill:#85a4c2; stroke:none;" d="M404.333 427.667C404.278 427.722 404.222 428.778 404.667 428.333C404.722 428.278 404.778 427.222 404.333 427.667z"/>
<path style="fill:#7691ae; stroke:none;" d="M705 428L706 429L705 428z"/>
<path style="fill:#005555; stroke:none;" d="M719 428L720 429L719 428z"/>
<path style="fill:#809ebc; stroke:none;" d="M433 430C434.248 430.685 434.549 430.749 436 431C434.752 430.315 434.452 430.251 433 430z"/>
<path style="fill:#7e9bb9; stroke:none;" d="M403 431L403 440C404.256 437.006 404.256 433.994 403 431z"/>
<path style="fill:#748eab; stroke:none;" d="M666.667 434.333C666.222 434.778 667.278 434.722 667.333 434.667C667.778 434.222 666.722 434.278 666.667 434.333z"/>
<path style="fill:#627793; stroke:none;" d="M709 435L709 439C709.71 437.241 709.71 436.759 709 435z"/>
<path style="fill:#718aa7; stroke:none;" d="M440.667 436.333C440.222 436.778 441.278 436.722 441.333 436.667C441.778 436.222 440.722 436.278 440.667 436.333z"/>
<path style="fill:#6a819e; stroke:none;" d="M447 437L447 439L449 439C448.455 437.365 448.635 437.545 447 437z"/>
<path style="fill:#85a4c2; stroke:none;" d="M662.667 440.333C662.222 440.778 663.278 440.722 663.333 440.667C663.778 440.222 662.722 440.278 662.667 440.333z"/>
<path style="fill:#6c829e; stroke:none;" d="M683.333 442.667C683.278 442.722 683.222 443.778 683.667 443.333C683.722 443.278 683.778 442.222 683.333 442.667z"/>
<path style="fill:#738ca9; stroke:none;" d="M654.667 443.333C654.222 443.778 655.278 443.722 655.333 443.667C655.778 443.222 654.722 443.278 654.667 443.333z"/>
<path style="fill:#819fbd; stroke:none;" d="M675 444L675 457C676.591 453.209 676.591 447.791 675 444z"/>
<path style="fill:#667c98; stroke:none;" d="M684 446C684 449.884 682.419 456.018 687 457C685.006 453.414 685.524 449.63 684 446z"/>
<path style="fill:#7b98b5; stroke:none;" d="M429.333 448.667C429.278 448.722 429.222 449.778 429.667 449.333C429.722 449.278 429.778 448.222 429.333 448.667z"/>
<path style="fill:#687f9b; stroke:none;" d="M420.333 449.667C420.278 449.722 420.222 450.778 420.667 450.333C420.722 450.278 420.778 449.222 420.333 449.667z"/>
<path style="fill:#7a96b3; stroke:none;" d="M696 451L697 452L696 451z"/>
<path style="fill:#7a96b2; stroke:none;" d="M419 452L420 453L419 452z"/>
<path style="fill:#728ca8; stroke:none;" d="M428 452L428 455C428.696 453.446 428.696 453.554 428 452z"/>
<path style="fill:#6d84a1; stroke:none;" d="M675 457L675 460C675.696 458.446 675.696 458.554 675 457z"/>
<path style="fill:#819fbd; stroke:none;" d="M427 458L427 467C428.256 464.006 428.256 460.994 427 458z"/>
<path style="fill:#005555; stroke:none;" d="M703 459L704 460L703 459z"/>
<path style="fill:#728ba8; stroke:none;" d="M674.333 463.667C674.278 463.722 674.222 464.778 674.667 464.333C674.722 464.278 674.778 463.222 674.333 463.667z"/>
<path style="fill:#627692; stroke:none;" d="M542 467C541.014 468.479 541 468.203 541 470C542.766 469.021 542.955 468.778 542 467z"/>
<path style="fill:#6f87a3; stroke:none;" d="M564 467C564.545 468.635 564.365 468.455 566 469L566 467L564 467z"/>
<path style="fill:#53627d; stroke:none;" d="M566 468C564.7 476.227 554.892 477.644 548.043 474.853C545.343 473.752 543.45 471.473 541 470C541.578 480.532 555.546 483.157 563.941 478.682C568.298 476.36 568.725 471.602 566 468z"/>
<path style="fill:#7691af; stroke:none;" d="M429 469L430 470L429 469z"/>
<path style="fill:#7e9bb8; stroke:none;" d="M647 469C648.225 471.271 648.491 471.591 651 472C649.659 470.726 648.597 469.959 647 469z"/>
<path style="fill:#7590ac; stroke:none;" d="M430 470L431 471L430 470z"/>
<path style="fill:#657a96; stroke:none;" d="M568 470L568 475C568.83 472.97 568.83 472.03 568 470z"/>
<path style="fill:#6f87a3; stroke:none;" d="M442.667 472.333C442.222 472.778 443.278 472.722 443.333 472.667C443.778 472.222 442.722 472.278 442.667 472.333z"/>
<path style="fill:#809fbd; stroke:none;" d="M653.667 472.333C653.222 472.778 654.278 472.722 654.333 472.667C654.778 472.222 653.722 472.278 653.667 472.333z"/>
<path style="fill:#718aa7; stroke:none;" d="M665.667 472.333C665.222 472.778 666.278 472.722 666.333 472.667C666.778 472.222 665.722 472.278 665.667 472.333z"/>
<path style="fill:#005555; stroke:none;" d="M680 472L681 473L680 472z"/>
<path style="fill:#61748f; stroke:none;" d="M657 473C658.506 473.683 659.315 473.826 661 474C659.494 473.317 658.685 473.174 657 473z"/>
<path style="fill:#6e86a3; stroke:none;" d="M549 475C552.697 476.552 557.017 476 561 476C557.303 474.448 552.983 475 549 475z"/>
<path style="fill:#667b97; stroke:none;" d="M661 478C663.052 478.874 664.747 478.953 667 479C664.948 478.126 663.253 478.047 661 478z"/>
<path style="fill:#7e9bb8; stroke:none;" d="M448 479L448 481L450 481C449.455 479.365 449.635 479.545 448 479z"/>
<path style="fill:#677d99; stroke:none;" d="M549 480C551.89 481.213 554.874 480.998 558 481C555.11 479.787 552.126 480.002 549 480z"/>
<path style="fill:#86a7c4; stroke:none;" d="M558.667 480.333C558.222 480.778 559.278 480.722 559.333 480.667C559.778 480.222 558.722 480.278 558.667 480.333z"/>
<path style="fill:#53627d; stroke:none;" d="M449 481C450.412 485.8 457.096 492.187 456.448 497C455.886 501.176 450.808 505.668 448.427 509C442.034 517.946 436.193 527.387 430.861 537C415.936 563.909 404.993 594.056 394.692 623C383.814 653.565 379.117 686.811 376.91 719C373.777 764.718 376.794 809.374 387 854C389.775 847.567 388.55 840.73 388.09 834C387.591 826.723 388 819.293 388 812C388 777.279 384.014 741.588 388.155 707C393.494 662.408 405.562 620.178 423.424 579C435.018 552.272 449.832 526.824 461 500C466.024 506.233 470.931 512.432 477 517.711C497.096 535.19 521.01 542.383 547 545.166C560.329 546.593 574.936 547.328 588 543.845C603.128 539.811 618.086 532.797 631 523.971C636.318 520.337 640.778 515.706 646 512C648.761 524.067 658.344 534.927 663.741 546C675.765 570.669 686.681 597.162 692.576 624C701.766 665.839 705.996 707.446 708.911 750C710.704 776.19 709.187 803.075 714 829C718.521 820.496 717.779 806.491 718.015 797C718.471 778.655 719.917 760.361 718.17 742C716.556 725.044 716.535 707.977 714.831 691C710.786 650.707 702.424 609.725 687.811 572C679.048 549.377 668.813 525.329 650 509C654.631 503.699 660.233 498.536 663 492C649.885 499.581 639.602 511.365 626 518.691C610.868 526.84 591.213 535.108 574 536.829C548.79 539.35 519.972 531.576 498 519.691C487.435 513.977 477.802 507.107 469 498.911C462.664 493.011 456.926 484.696 449 481z"/>
<path style="fill:#7a95b2; stroke:none;" d="M606 488L605 490L607 490C607 488.147 607.3 488.65 606 488z"/>
<path style="fill:#53627d; stroke:none;" d="M555 505C570.461 513.22 597.988 505.434 606 490C597.483 493.223 589.917 497.578 581 500.091C572.499 502.487 563.36 502.523 555 505z"/>
<path style="fill:#6c829e; stroke:none;" d="M589.667 497.333C589.222 497.778 590.278 497.722 590.333 497.667C590.778 497.222 589.722 497.278 589.667 497.333z"/>
<path style="fill:#6c83a0; stroke:none;" d="M582.667 499.333C582.222 499.778 583.278 499.722 583.333 499.667C583.778 499.222 582.722 499.278 582.667 499.333z"/>
<path style="fill:#7690ad; stroke:none;" d="M597 499L598 500L597 499z"/>
<path style="fill:#9cc3e2; stroke:none;" d="M461 500C451.12 516.927 442.847 535.188 434.691 553C411.85 602.885 393.491 654.017 388.17 709C386.459 726.68 388 745.234 388 763L388 815C388 823.25 386.5 833.169 389.468 841C401.155 871.839 428.584 886.528 458 896.333C506.598 912.533 558.914 918.917 610 912.282C633.841 909.185 660.319 902.676 677.714 884.83C692.969 869.181 699.691 850.728 704.873 830C707.635 818.955 710.283 807.444 710.545 796C710.854 782.5 709.012 768.467 708.089 755C704.563 703.498 702.426 650.779 686.652 601C680.457 581.451 672.096 561.251 662.741 543C657.524 532.823 650.837 523.361 646 513C638.283 515.989 632.086 522.846 625 527.189C612.829 534.649 599.558 540.106 586 544.481C575.261 547.946 564.041 547.238 553 546.17C527.267 543.68 504.103 537.422 483 521.844C474.499 515.569 468.754 506.882 461 500z"/>
<path style="fill:#6c84a0; stroke:none;" d="M578.667 500.333C578.222 500.778 579.278 500.722 579.333 500.667C579.778 500.222 578.722 500.278 578.667 500.333z"/>
<path style="fill:#7691ae; stroke:none;" d="M471 501L472 502L471 501z"/>
<path style="fill:#7893b0; stroke:none;" d="M573 501C574.248 501.685 574.548 501.749 576 502C574.752 501.315 574.451 501.251 573 501z"/>
<path style="fill:#7590ad; stroke:none;" d="M594 501L595 502L594 501z"/>
<path style="fill:#84a3c1; stroke:none;" d="M567 502C568.248 502.685 568.548 502.749 570 503C568.752 502.315 568.452 502.251 567 502z"/>
<path style="fill:#7d9ab7; stroke:none;" d="M560.667 503.333C560.222 503.778 561.278 503.722 561.333 503.667C561.778 503.222 560.722 503.278 560.667 503.333z"/>
<path style="fill:#69809c; stroke:none;" d="M562 503C563.248 503.685 563.548 503.749 565 504C563.752 503.315 563.452 503.251 562 503z"/>
<path style="fill:#86a5c3; stroke:none;" d="M553 506C554.58 505.317 554.777 505.195 556 504C553.908 504.406 553.98 504.217 553 506z"/>
<path style="fill:#7994b2; stroke:none;" d="M466 506L467 507L466 506z"/>
<path style="fill:#7691af; stroke:none;" d="M557.667 506.333C557.222 506.778 558.278 506.722 558.333 506.667C558.778 506.222 557.722 506.278 557.667 506.333z"/>
<path style="fill:#7089a5; stroke:none;" d="M580 506C581.248 506.685 581.548 506.749 583 507C581.752 506.315 581.452 506.251 580 506z"/>
<path style="fill:#6d84a1; stroke:none;" d="M563 507C564.506 507.683 565.315 507.826 567 508C565.494 507.317 564.685 507.174 563 507z"/>
<path style="fill:#7a95b2; stroke:none;" d="M575 507C576.248 507.685 576.548 507.749 578 508C576.752 507.315 576.452 507.251 575 507z"/>
<path style="fill:#7893b0; stroke:none;" d="M642 508L643 509L642 508z"/>
<path style="fill:#7691ae; stroke:none;" d="M482 510L483 511L482 510z"/>
<path style="fill:#687d9a; stroke:none;" d="M644.667 512.333C644.222 512.778 645.278 512.722 645.333 512.667C645.778 512.222 644.722 512.278 644.667 512.333z"/>
<path style="fill:#748fac; stroke:none;" d="M488 514L489 515L488 514z"/>
<path style="fill:#7792af; stroke:none;" d="M642 514L643 515L642 514z"/>
<path style="fill:#7691ae; stroke:none;" d="M647 516L648 517L647 516M479 519L480 520L479 519z"/>
<path style="fill:#005555; stroke:none;" d="M660 521L661 522L660 521z"/>
<path style="fill:#84a3c1; stroke:none;" d="M516.667 528.333C516.222 528.778 517.278 528.722 517.333 528.667C517.778 528.222 516.722 528.278 516.667 528.333z"/>
<path style="fill:#88a9c7; stroke:none;" d="M523.667 530.333C523.222 530.778 524.278 530.722 524.333 530.667C524.778 530.222 523.722 530.278 523.667 530.333z"/>
<path style="fill:#89aac8; stroke:none;" d="M527.667 531.333C527.222 531.778 528.278 531.722 528.333 531.667C528.778 531.222 527.722 531.278 527.667 531.333z"/>
<path style="fill:#809ebb; stroke:none;" d="M531.667 532.333C531.222 532.778 532.278 532.722 532.333 532.667C532.778 532.222 531.722 532.278 531.667 532.333z"/>
<path style="fill:#6c839f; stroke:none;" d="M591.667 532.333C591.222 532.778 592.278 532.722 592.333 532.667C592.778 532.222 591.722 532.278 591.667 532.333z"/>
<path style="fill:#7a96b3; stroke:none;" d="M536.667 533.333C536.222 533.778 537.278 533.722 537.333 533.667C537.778 533.222 536.722 533.278 536.667 533.333z"/>
<path style="fill:#657b97; stroke:none;" d="M588.667 533.333C588.222 533.778 589.278 533.722 589.333 533.667C589.778 533.222 588.722 533.278 588.667 533.333z"/>
<path style="fill:#7590ac; stroke:none;" d="M542.667 534.333C542.222 534.778 543.278 534.722 543.333 534.667C543.778 534.222 542.722 534.278 542.667 534.333z"/>
<path style="fill:#6c829e; stroke:none;" d="M584.667 534.333C584.222 534.778 585.278 534.722 585.333 534.667C585.778 534.222 584.722 534.278 584.667 534.333z"/>
<path style="fill:#667b97; stroke:none;" d="M548 535C549.248 535.685 549.548 535.749 551 536C549.752 535.315 549.452 535.251 548 535z"/>
<path style="fill:#8baecb; stroke:none;" d="M551 535C552.506 535.683 553.315 535.826 555 536C553.494 535.317 552.685 535.174 551 535z"/>
<path style="fill:#7893b0; stroke:none;" d="M579 535C580.248 535.685 580.548 535.749 582 536C580.752 535.315 580.452 535.251 579 535z"/>
<path style="fill:#7089a6; stroke:none;" d="M559 536C564.222 538.191 571.368 537 577 537C571.778 534.809 564.632 536 559 536z"/>
<path style="fill:#6c84a0; stroke:none;" d="M519.667 540.333C519.222 540.778 520.278 540.722 520.333 540.667C520.778 540.222 519.722 540.278 519.667 540.333z"/>
<path style="fill:#6b829e; stroke:none;" d="M523.667 541.333C523.222 541.778 524.278 541.722 524.333 541.667C524.778 541.222 523.722 541.278 523.667 541.333z"/>
<path style="fill:#005555; stroke:none;" d="M674 541L675 542L674 541z"/>
<path style="fill:#728ba8; stroke:none;" d="M527.667 542.333C527.222 542.778 528.278 542.722 528.333 542.667C528.778 542.222 527.722 542.278 527.667 542.333z"/>
<path style="fill:#7a96b2; stroke:none;" d="M532.667 543.333C532.222 543.778 533.278 543.722 533.333 543.667C533.778 543.222 532.722 543.278 532.667 543.333z"/>
<path style="fill:#7f9dba; stroke:none;" d="M538 544C539.248 544.685 539.549 544.749 541 545C539.752 544.315 539.452 544.251 538 544z"/>
<path style="fill:#82a1bf; stroke:none;" d="M585.667 544.333C585.222 544.778 586.278 544.722 586.333 544.667C586.778 544.222 585.722 544.278 585.667 544.333z"/>
<path style="fill:#86a6c4; stroke:none;" d="M544.667 545.333C544.222 545.778 545.278 545.722 545.333 545.667C545.778 545.222 544.722 545.278 544.667 545.333z"/>
<path style="fill:#617490; stroke:none;" d="M546 545C547.506 545.683 548.315 545.826 550 546C548.494 545.317 547.685 545.174 546 545z"/>
<path style="fill:#718ba8; stroke:none;" d="M580 545C581.248 545.685 581.548 545.749 583 546C581.752 545.315 581.452 545.251 580 545z"/>
<path style="fill:#657a96; stroke:none;" d="M555 546C560.715 548.398 568.831 547 575 547C569.285 544.602 561.169 546 555 546z"/>
<path style="fill:#809ebc; stroke:none;" d="M575 546C576.248 546.685 576.548 546.749 578 547C576.752 546.315 576.452 546.251 575 546z"/>
<path style="fill:#005555; stroke:none;" d="M678 549L679 550L678 549M410 582L411 583L410 582z"/>
<path style="fill:#89a9c7; stroke:none;" d="M683.333 592.667C683.278 592.722 683.222 593.778 683.667 593.333C683.722 593.278 683.778 592.222 683.333 592.667z"/>
<path style="fill:#83a2c0; stroke:none;" d="M688.333 607.667C688.278 607.722 688.222 608.778 688.667 608.333C688.722 608.278 688.778 607.222 688.333 607.667z"/>
<path style="fill:#005555; stroke:none;" d="M398 613L399 614L398 613z"/>
<path style="fill:#7792af; stroke:none;" d="M690.333 614.667C690.278 614.722 690.222 615.778 690.667 615.333C690.722 615.278 690.778 614.222 690.333 614.667z"/>
<path style="fill:#82a2c0; stroke:none;" d="M691.333 619.667C691.278 619.722 691.222 620.778 691.667 620.333C691.722 620.278 691.778 619.222 691.333 619.667z"/>
<path style="fill:#7691ae; stroke:none;" d="M692.333 623.667C692.278 623.722 692.222 624.778 692.667 624.333C692.722 624.278 692.778 623.222 692.333 623.667z"/>
<path style="fill:#7893af; stroke:none;" d="M693.333 628.667C693.277 628.722 693.222 629.778 693.667 629.333C693.722 629.278 693.778 628.222 693.333 628.667z"/>
<path style="fill:#7994b1; stroke:none;" d="M694.333 633.667C694.278 633.722 694.222 634.778 694.667 634.333C694.722 634.278 694.778 633.222 694.333 633.667z"/>
<path style="fill:#87a7c5; stroke:none;" d="M402.333 634.667C402.278 634.722 402.222 635.778 402.667 635.333C402.722 635.278 402.778 634.222 402.333 634.667z"/>
<path style="fill:#7995b3; stroke:none;" d="M401.333 637.667C401.278 637.722 401.222 638.778 401.667 638.333C401.722 638.278 401.778 637.222 401.333 637.667z"/>
<path style="fill:#7792af; stroke:none;" d="M695 638L695 641C695.696 639.446 695.696 639.554 695 638z"/>
<path style="fill:#7b97b4; stroke:none;" d="M400.333 641.667C400.278 641.722 400.222 642.778 400.667 642.333C400.722 642.278 400.778 641.222 400.333 641.667z"/>
<path style="fill:#728ca8; stroke:none;" d="M696.333 643.667C696.278 643.722 696.222 644.778 696.667 644.333C696.722 644.278 696.778 643.222 696.333 643.667z"/>
<path style="fill:#7b97b4; stroke:none;" d="M399.333 645.667C399.278 645.722 399.222 646.778 399.667 646.333C399.722 646.278 399.778 645.222 399.333 645.667z"/>
<path style="fill:#6e86a2; stroke:none;" d="M697.333 648.667C697.278 648.722 697.222 649.778 697.667 649.333C697.722 649.278 697.778 648.222 697.333 648.667z"/>
<path style="fill:#7a96b3; stroke:none;" d="M398.333 649.667C398.278 649.722 398.222 650.778 398.667 650.333C398.722 650.278 398.778 649.222 398.333 649.667z"/>
<path style="fill:#89abc8; stroke:none;" d="M697.333 650.667C697.278 650.722 697.222 651.778 697.667 651.333C697.722 651.278 697.778 650.222 697.333 650.667z"/>
<path style="fill:#7893b0; stroke:none;" d="M397.333 653.667C397.278 653.722 397.222 654.778 397.667 654.333C397.722 654.278 397.778 653.222 397.333 653.667z"/>
<path style="fill:#7690ad; stroke:none;" d="M698 654L698 657C698.696 655.446 698.696 655.554 698 654z"/>
<path style="fill:#819fbd; stroke:none;" d="M396.333 658.667C396.278 658.722 396.222 659.778 396.667 659.333C396.722 659.278 396.778 658.222 396.333 658.667z"/>
<path style="fill:#7a95b2; stroke:none;" d="M699.333 660.667C699.278 660.722 699.222 661.778 699.667 661.333C699.722 661.278 699.778 660.222 699.333 660.667z"/>
<path style="fill:#7893b0; stroke:none;" d="M395.333 662.667C395.278 662.722 395.222 663.778 395.667 663.333C395.722 663.278 395.778 662.222 395.333 662.667z"/>
<path style="fill:#6f87a4; stroke:none;" d="M700.333 665.667C700.277 665.722 700.222 666.778 700.667 666.333C700.722 666.278 700.778 665.222 700.333 665.667z"/>
<path style="fill:#7893b0; stroke:none;" d="M394 667L394 670C394.696 668.446 394.696 668.554 394 667z"/>
<path style="fill:#88a9c7; stroke:none;" d="M700.333 667.667C700.277 667.723 700.222 668.778 700.667 668.333C700.722 668.278 700.778 667.222 700.333 667.667z"/>
<path style="fill:#718ba8; stroke:none;" d="M701 671L701 674C701.696 672.446 701.696 672.554 701 671z"/>
<path style="fill:#7792af; stroke:none;" d="M393.333 672.667C393.278 672.722 393.222 673.778 393.667 673.333C393.722 673.278 393.778 672.222 393.333 672.667z"/>
<path style="fill:#738daa; stroke:none;" d="M392 677L392 680C392.696 678.446 392.696 678.554 392 677z"/>
<path style="fill:#738ca9; stroke:none;" d="M702 677L702 680C702.696 678.446 702.696 678.554 702 677z"/>
<path style="fill:#005555; stroke:none;" d="M713 681L714 682L713 681z"/>
<path style="fill:#7690ad; stroke:none;" d="M391.333 683.667C391.278 683.722 391.222 684.778 391.667 684.333C391.722 684.278 391.778 683.222 391.333 683.667z"/>
<path style="fill:#6f87a4; stroke:none;" d="M703.333 683.667C703.278 683.722 703.222 684.778 703.667 684.333C703.722 684.278 703.778 683.222 703.333 683.667M390.333 689.667C390.278 689.722 390.222 690.778 390.667 690.333C390.722 690.278 390.778 689.222 390.333 689.667z"/>
<path style="fill:#84a3c1; stroke:none;" d="M390 691L390 694C390.696 692.446 390.696 692.554 390 691z"/>
<path style="fill:#7b97b4; stroke:none;" d="M704 691L704 698C705.059 695.466 705.059 693.534 704 691z"/>
<path style="fill:#7d9ab8; stroke:none;" d="M389 696L389 701C389.83 698.969 389.83 698.03 389 696z"/>
<path style="fill:#667b97; stroke:none;" d="M705 700L705 703C705.696 701.446 705.696 701.554 705 700z"/>
<path style="fill:#85a4c3; stroke:none;" d="M705 703L705 708C705.83 705.97 705.83 705.03 705 703z"/>
<path style="fill:#6a819e; stroke:none;" d="M388 704L388 707C388.696 705.446 388.696 705.554 388 704z"/>
<path style="fill:#697f9c; stroke:none;" d="M387 712L387 717C387.83 714.969 387.83 714.031 387 712z"/>
<path style="fill:#748eab; stroke:none;" d="M706 713L706 719C706.951 716.715 706.951 715.285 706 713z"/>
<path style="fill:#7d9ab7; stroke:none;" d="M387 717L387 721C387.71 719.24 387.71 718.76 387 717z"/>
<path style="fill:#86a7c4; stroke:none;" d="M706 719L706 725C706.951 722.715 706.951 721.285 706 719z"/>
<path style="fill:#8badcb; stroke:none;" d="M387 721L387 754C389.701 747.564 388 737.951 388 731C388 727.581 388.328 724.166 387 721z"/>
<path style="fill:#677d98; stroke:none;" d="M707 729L707 734C707.83 731.97 707.83 731.03 707 729z"/>
<path style="fill:#005555; stroke:none;" d="M717 729L718 730L717 729z"/>
<path style="fill:#7e9bb9; stroke:none;" d="M707 734L707 739C707.83 736.97 707.83 736.03 707 734z"/>
<path style="fill:#667b97; stroke:none;" d="M708 746L708 753C709.059 750.466 709.059 748.534 708 746z"/>
<path style="fill:#809ebc; stroke:none;" d="M708 753L708 759C708.951 756.715 708.951 755.285 708 753z"/>
<path style="fill:#7f9dba; stroke:none;" d="M387 754L387 771C388.883 766.514 388.883 758.486 387 754z"/>
<path style="fill:#647894; stroke:none;" d="M709 767L709 774C710.059 771.466 710.06 769.534 709 767z"/>
<path style="fill:#657a96; stroke:none;" d="M387 771L387 784C388.591 780.209 388.591 774.791 387 771z"/>
<path style="fill:#88a8c6; stroke:none;" d="M709 774L709 780C709.951 777.715 709.951 776.285 709 774z"/>
<path style="fill:#7892b0; stroke:none;" d="M710 785L710 794C711.256 791.006 711.256 787.994 710 785z"/>
<path style="fill:#808080; stroke:none;" d="M391 845L392 846L391 845M396 854L397 855L396 854z"/>
<path style="fill:#55aaaa; stroke:none;" d="M398 857L399 858L398 857M423 881L424 882L423 881z"/>
<path style="fill:#808080; stroke:none;" d="M679 882L680 883L679 882z"/>
<path style="fill:#55aaaa; stroke:none;" d="M428 884L429 885L428 884z"/>
<path style="fill:#808080; stroke:none;" d="M434 887L435 888L434 887z"/>
<path style="fill:#55aaaa; stroke:none;" d="M674 887L675 888L674 887z"/>
<path style="fill:#808080; stroke:none;" d="M491 906L492 907L491 906M635 907L636 908L635 907z"/>
<path style="fill:#55aaaa; stroke:none;" d="M616 911L617 912L616 911z"/>
<path style="fill:#808080; stroke:none;" d="M529 912L530 913L529 912z"/>
</svg>
