<?xml version="1.0" standalone="yes"?>
<svg xmlns="http://www.w3.org/2000/svg" width="1080" height="1080">
<path style="fill:#000000; stroke:none;" d="M0 0L0 1080L1080 1080L1080 0L0 0z"/>
<path style="fill:#53627d; stroke:none;" d="M557 249L551 252C554.681 245.591 560.967 249.37 563.821 255.004C566.516 260.323 564.004 268.216 564 274C572.599 266.28 574.23 249.901 562.985 243.558C556.813 240.077 546.542 240.804 546.558 249.985C546.564 253.692 550.239 256.654 553.772 254.779C556.073 253.557 556.525 251.299 557 249z"/>
<path style="fill:#000000; stroke:none;" d="M554 247C552.449 248.715 551.756 249.823 551 252L555 251L554 247z"/>
<path style="fill:#005555; stroke:none;" d="M554 248L554 250C555.635 249.455 555.455 249.635 556 248L554 248z"/>
<path style="fill:#53627d; stroke:none;" d="M404 575C401.501 571.157 398.758 567.7 398.186 563C397.438 556.853 400.047 551.774 401.486 546C403.095 539.544 403.567 532.56 402.384 526C399.782 511.569 387.438 500.998 382.963 487C378.388 472.69 379.897 452.704 385.876 439C391.725 425.593 401.138 413.809 408.136 401C417.131 384.534 414.452 368.751 416.17 351C418.297 329.023 428.046 305.495 447 293.101C459.626 284.845 473.841 285.698 488 282.576C499.414 280.059 509.686 274.082 521 271.669C526.728 270.447 533.169 270.782 539 271.039C543.521 271.239 547.94 272.262 552 274.277C555.487 276.007 558.884 279.323 563 279.012C567.329 278.685 571.667 276.477 576 275.755C583.877 274.442 592.037 275 600 275C610.279 275 621.334 273.843 629.996 280.532C639.151 287.603 641.767 299.525 645.026 310C649.042 322.912 654.588 336.532 663.326 347C671.923 357.3 683.078 360.685 694 367.468C701.768 372.292 709.051 380.181 713.743 388C721.702 401.264 723.274 418.837 721.83 434C721.034 442.365 718.409 450.637 718.039 459C717.785 464.768 717.215 471.592 719.532 477C722.918 484.902 729.627 490.796 729.66 500C729.679 505.554 727.46 510.854 725.657 516C720.876 529.642 713.73 543.783 704.535 555C700.248 560.231 694.9 564.463 691 570C703.712 566.081 712.578 557.302 720.575 547C732.89 531.135 743.331 512.731 740.816 492C739.603 482.009 729.9 474.874 729.725 465C729.582 456.903 731.361 449.029 731.911 441C733.498 417.825 732.438 390.389 716.7 372C712.451 367.035 707.579 361.932 702 358.468C690.474 351.31 678.272 347.624 670.043 336C664.315 327.909 660.33 318.451 657.435 309C654.509 299.448 652.883 289.391 647.095 281C635.491 264.178 618.453 263.859 600 265.834C591.988 266.692 583.572 267.504 576 270.464C570.768 272.509 566.069 275.634 561 278C556.292 269.001 546.551 265.139 537 263.589C531.578 262.71 525.49 260.92 520 261.209C505.477 261.973 492.194 269.809 478 272.386C463.528 275.013 450.319 275.475 438 284.666C415.21 301.669 409.713 328.297 407.17 355C406.41 362.982 407.17 371.055 405.522 378.985C402.195 394.985 389.955 409.864 382.309 424C371.504 443.976 367.199 467.609 372.896 490C376.222 503.075 385.326 512.237 391.19 524C393.431 528.496 394.984 533.937 394.917 539C394.87 542.609 393.116 545.556 392.39 549C390.303 558.889 392.592 572.697 404 575z"/>
<path style="fill:#005555; stroke:none;" d="M524 261L525 262L524 261z"/>
<path style="fill:#758eac; stroke:none;" d="M529 262C530.248 262.685 530.549 262.749 532 263C530.752 262.315 530.452 262.251 529 262z"/>
<path style="fill:#9cc3e2; stroke:none;" d="M532 262C536.054 263.82 540.764 264.171 545 265.699C551.747 268.133 556.691 272.36 561 278C565.609 276.542 571.304 274.116 574 270C567.816 269.05 566.23 272.157 562 276C563.285 272.958 563.85 270.297 564 267C553.035 264.731 543.322 262 532 262z"/>
<path style="fill:#728ba8; stroke:none;" d="M536.667 263.333C536.222 263.778 537.278 263.722 537.333 263.667C537.778 263.222 536.722 263.278 536.667 263.333z"/>
<path style="fill:#55aaaa; stroke:none;" d="M557 265L558 266L557 265z"/>
<path style="fill:#7691ae; stroke:none;" d="M551 268L552 269L551 268z"/>
<path style="fill:#7995b3; stroke:none;" d="M554 270L555 271L554 270z"/>
<path style="fill:#7c98b6; stroke:none;" d="M521 271C522.769 271.779 524.036 271.912 526 272C524.231 271.221 522.964 271.088 521 271z"/>
<path style="fill:#8daecc; stroke:none;" d="M526 271C527.506 271.683 528.315 271.826 530 272C528.494 271.317 527.685 271.174 526 271z"/>
<path style="fill:#9cc3e2; stroke:none;" d="M406 577C404.521 576.014 404.797 576 403 576C405.277 579.086 407.682 581.078 411 583C419.097 562.13 428.585 542.009 440.425 523C444.065 517.157 448.004 511.51 452.127 506C454.039 503.444 457.282 500.301 457.716 497C458.387 491.9 451.153 484.606 449 480C460.67 491.67 472.066 504.088 486 513.135C512.071 530.062 546.714 539.776 578 535.711C590.268 534.116 602.652 529.334 614 524.576C632.747 516.715 646.332 504.025 663 493L649 508C654.801 516.771 662.246 524.378 668.279 533C676.487 544.732 683.227 559.176 687 573C689.804 572.234 692.365 571.23 695 570C693.341 569.594 692.758 569.691 691 570C704.904 556.096 715.953 541.373 723.396 523C726.859 514.451 729.846 505.351 728.826 496C727.531 484.115 716.556 476.535 717.04 464C717.34 456.251 719.771 448.679 720.714 441C722.81 423.932 722.684 402.026 713.536 387C700.387 365.401 674.469 362.232 660.209 342C652.688 331.329 647.889 318.35 643.887 306C641.414 298.371 639.793 290.443 634.471 284.093C628.366 276.811 620.706 276.51 612 275.911C601.396 275.18 590.617 274.131 580 275.576C574.421 276.336 565.167 275.772 563 282C559.776 279.222 556.93 276.159 552.999 274.353C530.57 264.047 508.449 277.999 487 283.116C477.455 285.393 467.394 284.923 458 287.49C447.35 290.4 437.893 298.208 431.49 307C423.618 317.811 418.071 333.622 417.09 347C416.238 358.624 417.918 370.504 415.32 382C410.67 402.577 394.978 418.273 386.324 437C381.002 448.516 379.921 464.505 381.171 477C382.076 486.055 385.233 495.227 389.926 503C394.318 510.275 400.079 516.569 402.239 525C403.634 530.442 403.608 537.555 402.24 543C400.375 550.42 396.637 558.191 398.533 566C399.66 570.643 403.027 573.519 406 577z"/>
<path style="fill:#7e9cb9; stroke:none;" d="M517.667 272.333C517.222 272.778 518.278 272.722 518.333 272.667C518.778 272.222 517.722 272.278 517.667 272.333z"/>
<path style="fill:#6a819d; stroke:none;" d="M547.667 272.333C547.222 272.778 548.278 272.722 548.333 272.667C548.778 272.222 547.722 272.278 547.667 272.333z"/>
<path style="fill:#687d9a; stroke:none;" d="M563 272L563 275C563.696 273.446 563.696 273.554 563 272z"/>
<path style="fill:#84a4c1; stroke:none;" d="M514.667 273.333C514.222 273.778 515.278 273.722 515.333 273.667C515.778 273.222 514.722 273.278 514.667 273.333z"/>
<path style="fill:#82a1be; stroke:none;" d="M562.667 275.333C562.222 275.778 563.278 275.722 563.333 275.667C563.778 275.222 562.722 275.278 562.667 275.333z"/>
<path style="fill:#7d9ab7; stroke:none;" d="M577 275C578.506 275.683 579.315 275.826 581 276C579.494 275.317 578.685 275.174 577 275z"/>
<path style="fill:#87a6c4; stroke:none;" d="M608 275C610.89 276.213 613.874 275.998 617 276C614.11 274.787 611.126 275.002 608 275z"/>
<path style="fill:#687e9a; stroke:none;" d="M617.667 275.333C617.222 275.778 618.278 275.722 618.333 275.667C618.778 275.222 617.722 275.278 617.667 275.333z"/>
<path style="fill:#005555; stroke:none;" d="M642 275L643 276L642 275z"/>
<path style="fill:#728ba8; stroke:none;" d="M571.667 276.333C571.222 276.778 572.278 276.722 572.333 276.667C572.778 276.222 571.722 276.278 571.667 276.333z"/>
<path style="fill:#7a95b2; stroke:none;" d="M621.667 276.333C621.222 276.778 622.278 276.722 622.333 276.667C622.778 276.222 621.722 276.278 621.667 276.333z"/>
<path style="fill:#7a96b3; stroke:none;" d="M627 278L628 279L627 278z"/>
<path style="fill:#6f87a4; stroke:none;" d="M560 279C560.902 280.923 561.076 280.999 563 282C562.548 279.763 562.229 279.511 560 279z"/>
<path style="fill:#7792af; stroke:none;" d="M630 280L631 281L630 280z"/>
<path style="fill:#84a3c0; stroke:none;" d="M492.667 281.333C492.222 281.778 493.278 281.722 493.333 281.667C493.778 281.222 492.722 281.278 492.667 281.333z"/>
<path style="fill:#7c99b6; stroke:none;" d="M488.667 282.333C488.222 282.778 489.278 282.722 489.333 282.667C489.778 282.222 488.722 282.278 488.667 282.333z"/>
<path style="fill:#748eac; stroke:none;" d="M483 283C484.248 283.685 484.548 283.749 486 284C484.752 283.315 484.452 283.251 483 283z"/>
<path style="fill:#667c98; stroke:none;" d="M476 284C477.248 284.685 477.548 284.749 479 285C477.752 284.315 477.452 284.251 476 284z"/>
<path style="fill:#87a7c6; stroke:none;" d="M479.667 284.333C479.222 284.778 480.278 284.722 480.333 284.667C480.778 284.222 479.722 284.278 479.667 284.333z"/>
<path style="fill:#7792af; stroke:none;" d="M467 285C469.332 285.985 471.457 285.981 474 286C471.668 285.015 469.543 285.019 467 285z"/>
<path style="fill:#7691ae; stroke:none;" d="M635 285L636 286L635 285z"/>
<path style="fill:#7893b0; stroke:none;" d="M461.667 286.333C461.222 286.778 462.278 286.722 462.333 286.667C462.778 286.222 461.722 286.278 461.667 286.333z"/>
<path style="fill:#7a96b2; stroke:none;" d="M439 298L440 299L439 298z"/>
<path style="fill:#748fac; stroke:none;" d="M434 303L435 304L434 303z"/>
<path style="fill:#82a0be; stroke:none;" d="M643.333 304.667C643.278 304.722 643.222 305.778 643.667 305.333C643.722 305.278 643.778 304.222 643.333 304.667z"/>
<path style="fill:#89a9c7; stroke:none;" d="M422.333 324.667C422.278 324.722 422.222 325.778 422.667 325.333C422.722 325.278 422.778 324.222 422.333 324.667z"/>
<path style="fill:#85a4c2; stroke:none;" d="M421.333 327.667C421.278 327.722 421.222 328.778 421.667 328.333C421.722 328.278 421.778 327.222 421.333 327.667z"/>
<path style="fill:#86a5c3; stroke:none;" d="M419.333 334.667C419.278 334.722 419.222 335.778 419.667 335.333C419.722 335.278 419.778 334.222 419.333 334.667z"/>
<path style="fill:#6d87a3; stroke:none;" d="M409 336L409 339C409.696 337.446 409.696 337.554 409 336z"/>
<path style="fill:#8aabca; stroke:none;" d="M408 338C407.806 339.857 407.79 341.153 408 343C408.83 340.97 408.83 340.03 408 338z"/>
<path style="fill:#84a4c1; stroke:none;" d="M418.333 338.667C418.278 338.722 418.222 339.778 418.667 339.333C418.722 339.278 418.778 338.222 418.333 338.667z"/>
<path style="fill:#758fab; stroke:none;" d="M659 341L660 342L659 341z"/>
<path style="fill:#9cc3e2; stroke:none;" d="M407 342C405.35 354.988 404 367.876 404 381C408.01 373.458 406.508 361.437 407.09 353C407.354 349.159 408.519 345.653 407 342z"/>
<path style="fill:#748eab; stroke:none;" d="M417.333 342.667C417.278 342.722 417.222 343.778 417.667 343.333C417.722 343.278 417.778 342.222 417.333 342.667z"/>
<path style="fill:#6d85a1; stroke:none;" d="M408.333 343.667C408.278 343.722 408.222 344.778 408.667 344.333C408.722 344.278 408.778 343.222 408.333 343.667z"/>
<path style="fill:#748eab; stroke:none;" d="M545 346C545.406 348.092 545.217 348.02 547 349C546.309 347.612 546.015 347.139 545 346z"/>
<path style="fill:#738ca9; stroke:none;" d="M416 348L416 352C416.71 350.241 416.71 349.759 416 348z"/>
<path style="fill:#738daa; stroke:none;" d="M407 349L407 353C407.71 351.241 407.71 350.759 407 349z"/>
<path style="fill:#53627d; stroke:none;" d="M546 349C546.489 351.899 547.864 355.045 547.247 358C544.995 368.789 529.09 379.693 519 382.153C512.142 383.825 504.706 381.626 498 383.649C492.582 385.283 488.598 389.513 485.44 394.001C479.689 402.172 477.825 415.414 481.108 425C482.606 429.374 486.407 433.267 486.681 438C486.92 442.121 484.115 446.128 483 450C488.484 445.532 492.083 439.26 490.62 432C489.852 428.189 487.57 424.902 487.13 421C486.498 415.382 488.33 409.734 491.272 405C499.351 392.001 510.369 393.909 523 389.638C536.322 385.133 548.376 372.32 549 358C557.739 372.214 569.441 383.57 585 390.124C603.193 397.788 622.843 397.587 640 408.699C645.607 412.331 653.374 418.201 655.208 425C655.992 427.909 654.983 431.037 655.064 434C655.152 437.206 655.692 439.832 655 443C660.291 442.06 666.551 438.024 671.891 441.028C680.225 445.715 676.23 465.513 669.895 470.347C663.876 474.94 656.741 472.907 650 472C653.446 476.019 657.697 477.827 663 477.985C667.185 478.109 672.291 478.645 675.96 476.258C684.3 470.831 684.041 459.728 683.999 451C683.978 446.695 683.911 441.756 681.272 438.109C676.236 431.146 664.231 433.775 659 439C656.416 434.23 659.181 430.199 658.953 425C658.722 419.734 655.965 414.987 652.671 411C635.066 389.685 608.448 389.683 585 379.572C568.74 372.56 559.272 359.702 546 349z"/>
<path style="fill:#81a0bd; stroke:none;" d="M416 352L416 372C418.087 367.027 418.087 356.973 416 352z"/>
<path style="fill:#7a96b3; stroke:none;" d="M672 355L673 356L672 355z"/>
<path style="fill:#005555; stroke:none;" d="M696 355L697 356L696 355z"/>
<path style="fill:#6f88a5; stroke:none;" d="M547.333 357.667C547.278 357.722 547.222 358.778 547.667 358.333C547.722 358.278 547.778 357.222 547.333 357.667z"/>
<path style="fill:#89aac8; stroke:none;" d="M549 358C549.406 360.092 549.217 360.02 551 361C550.309 359.612 550.016 359.139 549 358z"/>
<path style="fill:#7a96b3; stroke:none;" d="M678 359L679 360L678 359z"/>
<path style="fill:#7f9dba; stroke:none;" d="M406 362L406 371C407.256 368.006 407.256 364.994 406 362z"/>
<path style="fill:#85a4c3; stroke:none;" d="M548.333 363.667C548.278 363.722 548.222 364.778 548.667 364.333C548.722 364.278 548.778 363.222 548.333 363.667z"/>
<path style="fill:#7792af; stroke:none;" d="M543 365L544 366L543 365z"/>
<path style="fill:#7893b0; stroke:none;" d="M563 366L564 367L563 366z"/>
<path style="fill:#55aaaa; stroke:none;" d="M404 367L405 368L404 367z"/>
<path style="fill:#7a96b2; stroke:none;" d="M694 367L695 368L694 367z"/>
<path style="fill:#7691ae; stroke:none;" d="M697 369L698 370L697 369z"/>
<path style="fill:#7690ad; stroke:none;" d="M536 372L537 373L536 372z"/>
<path style="fill:#7893af; stroke:none;" d="M405 377L405 380C405.696 378.446 405.696 378.554 405 377z"/>
<path style="fill:#687e9a; stroke:none;" d="M415 377L415 380C415.696 378.446 415.696 378.554 415 377z"/>
<path style="fill:#7995b3; stroke:none;" d="M567 379L568 380L567 379z"/>
<path style="fill:#89aac8; stroke:none;" d="M415.333 380.667C415.278 380.722 415.222 381.778 415.667 381.333C415.722 381.278 415.778 380.222 415.333 380.667z"/>
<path style="fill:#728daa; stroke:none;" d="M404 381L404 384C404.696 382.446 404.696 382.554 404 381z"/>
<path style="fill:#6a819d; stroke:none;" d="M521.667 381.333C521.222 381.778 522.278 381.722 522.333 381.667C522.778 381.222 521.722 381.278 521.667 381.333z"/>
<path style="fill:#7691ae; stroke:none;" d="M709 381L710 382L709 381z"/>
<path style="fill:#6a819e; stroke:none;" d="M500 382C502.052 382.874 503.747 382.953 506 383C503.948 382.126 502.253 382.047 500 382z"/>
<path style="fill:#86a5c3; stroke:none;" d="M506 382C507.506 382.683 508.315 382.826 510 383C508.494 382.317 507.685 382.174 506 382z"/>
<path style="fill:#7893b0; stroke:none;" d="M571 382L572 383L571 382z"/>
<path style="fill:#88a8c6; stroke:none;" d="M595.667 383.333C595.222 383.778 596.278 383.722 596.333 383.667C596.778 383.222 595.722 383.278 595.667 383.333z"/>
<path style="fill:#7f9dbb; stroke:none;" d="M414.333 384.667C414.278 384.722 414.222 385.778 414.667 385.333C414.722 385.278 414.778 384.222 414.333 384.667z"/>
<path style="fill:#7893af; stroke:none;" d="M532 384L533 385L532 384z"/>
<path style="fill:#7691af; stroke:none;" d="M574 384L575 385L574 384z"/>
<path style="fill:#7995b3; stroke:none;" d="M598.667 384.333C598.222 384.778 599.278 384.722 599.333 384.667C599.778 384.222 598.722 384.278 598.667 384.333z"/>
<path style="fill:#7893af; stroke:none;" d="M602.667 385.333C602.222 385.778 603.278 385.722 603.333 385.667C603.778 385.222 602.722 385.278 602.667 385.333z"/>
<path style="fill:#7894b1; stroke:none;" d="M712 385L713 386L712 385z"/>
<path style="fill:#7691ae; stroke:none;" d="M529 386L530 387L529 386z"/>
<path style="fill:#84a3c1; stroke:none;" d="M607.667 386.333C607.222 386.778 608.278 386.722 608.333 386.667C608.778 386.222 607.722 386.278 607.667 386.333z"/>
<path style="fill:#86a5c3; stroke:none;" d="M611.667 387.333C611.222 387.778 612.278 387.722 612.333 387.667C612.778 387.222 611.722 387.278 611.667 387.333z"/>
<path style="fill:#88a9c7; stroke:none;" d="M520.667 390.333C520.222 390.778 521.278 390.722 521.333 390.667C521.778 390.222 520.722 390.278 520.667 390.333z"/>
<path style="fill:#7590ad; stroke:none;" d="M715 390L716 391L715 390z"/>
<path style="fill:#7691af; stroke:none;" d="M487 391L488 392L487 391z"/>
<path style="fill:#7792af; stroke:none;" d="M515 391C516.248 391.685 516.548 391.749 518 392C516.752 391.315 516.451 391.251 515 391z"/>
<path style="fill:#667c98; stroke:none;" d="M507 392C508.248 392.685 508.548 392.749 510 393C508.752 392.315 508.452 392.251 507 392z"/>
<path style="fill:#84a4c1; stroke:none;" d="M510.667 392.333C510.222 392.778 511.278 392.722 511.333 392.667C511.778 392.222 510.722 392.278 510.667 392.333z"/>
<path style="fill:#6d85a1; stroke:none;" d="M591.667 392.333C591.222 392.778 592.278 392.722 592.333 392.667C592.778 392.222 591.722 392.278 591.667 392.333z"/>
<path style="fill:#84a3c1; stroke:none;" d="M503.667 393.333C503.222 393.778 504.278 393.722 504.333 393.667C504.778 393.222 503.722 393.278 503.667 393.333z"/>
<path style="fill:#005555; stroke:none;" d="M728 393L729 394L728 393z"/>
<path style="fill:#7b97b4; stroke:none;" d="M598 394C599.248 394.685 599.548 394.749 601 395C599.752 394.315 599.452 394.251 598 394z"/>
<path style="fill:#7691af; stroke:none;" d="M603 395C604.248 395.685 604.548 395.749 606 396C604.752 395.315 604.452 395.251 603 395z"/>
<path style="fill:#748fac; stroke:none;" d="M608 396C609.248 396.685 609.549 396.749 611 397C609.752 396.315 609.452 396.251 608 396z"/>
<path style="fill:#667b97; stroke:none;" d="M613.667 397.333C613.222 397.778 614.278 397.722 614.333 397.667C614.778 397.222 613.722 397.278 613.667 397.333M620.667 399.333C620.222 399.778 621.278 399.722 621.333 399.667C621.778 399.222 620.722 399.278 620.667 399.333z"/>
<path style="fill:#85a5c2; stroke:none;" d="M719.333 401.667C719.278 401.722 719.222 402.778 719.667 402.333C719.722 402.278 719.778 401.222 719.333 401.667z"/>
<path style="fill:#7994b1; stroke:none;" d="M492 402L493 403L492 402z"/>
<path style="fill:#7a96b2; stroke:none;" d="M643 402L644 403L643 402z"/>
<path style="fill:#7691ae; stroke:none;" d="M406 403L407 404L406 403z"/>
<path style="fill:#6b829e; stroke:none;" d="M480.333 404.667C480.278 404.722 480.222 405.778 480.667 405.333C480.722 405.278 480.778 404.222 480.333 404.667z"/>
<path style="fill:#53627d; stroke:none;" d="M515.019 404.758C506.935 407.727 510.857 419.349 518.941 416.242C525.992 413.533 522.912 401.859 515.019 404.758z"/>
<path style="fill:#7088a5; stroke:none;" d="M720 405L720 408C720.696 406.446 720.696 406.554 720 405z"/>
<path style="fill:#667c98; stroke:none;" d="M594 406C595.506 406.683 596.315 406.826 598 407C596.494 406.317 595.685 406.174 594 406z"/>
<path style="fill:#53627d; stroke:none;" d="M592.148 408.028C584.599 412.48 592.716 423.571 599.682 418.971C606.239 414.642 599.508 403.687 592.148 408.028z"/>
<path style="fill:#687e9a; stroke:none;" d="M479 408L479 420C480.512 416.396 480.512 411.604 479 408z"/>
<path style="fill:#8caecc; stroke:none;" d="M514 408C515.506 408.683 516.315 408.826 518 409C516.494 408.317 515.685 408.174 514 408z"/>
<path style="fill:#7f9dba; stroke:none;" d="M523 408L523 412C523.71 410.24 523.71 409.76 523 408z"/>
<path style="fill:#9cc3e2; stroke:none;" d="M514 409L514 412L518 412L518 409L514 409z"/>
<path style="fill:#7590ac; stroke:none;" d="M509 410L509 413C509.696 411.446 509.696 411.554 509 410z"/>
<path style="fill:#7a96b2; stroke:none;" d="M513.333 410.667C513.278 410.722 513.222 411.778 513.667 411.333C513.722 411.278 513.778 410.222 513.333 410.667z"/>
<path style="fill:#6a809d; stroke:none;" d="M588 411L588 415C588.71 413.241 588.71 412.759 588 411z"/>
<path style="fill:#718ba8; stroke:none;" d="M595.667 411.333C595.222 411.778 596.278 411.722 596.333 411.667C596.778 411.222 595.722 411.278 595.667 411.333z"/>
<path style="fill:#7c99b6; stroke:none;" d="M602 411L602 414C602.696 412.446 602.696 412.554 602 411z"/>
<path style="fill:#9cc3e2; stroke:none;" d="M593 413L593 415L597 416L597 412L593 413z"/>
<path style="fill:#7590ac; stroke:none;" d="M400 413L401 414L400 413z"/>
<path style="fill:#7c98b6; stroke:none;" d="M487.333 413.667C487.278 413.722 487.222 414.778 487.667 414.333C487.722 414.278 487.778 413.222 487.333 413.667z"/>
<path style="fill:#87a7c6; stroke:none;" d="M597 413L597 416C597.696 414.446 597.696 414.554 597 413z"/>
<path style="fill:#687d9a; stroke:none;" d="M721 414L721 419C721.83 416.97 721.83 416.03 721 414z"/>
<path style="fill:#7c99b6; stroke:none;" d="M721 419L721 437C722.952 432.349 722.952 423.651 721 419z"/>
<path style="fill:#819fbd; stroke:none;" d="M595 420C596.248 420.685 596.549 420.749 598 421C596.752 420.315 596.452 420.251 595 420z"/>
<path style="fill:#89abc8; stroke:none;" d="M480.333 423.667C480.278 423.722 480.222 424.778 480.667 424.333C480.722 424.278 480.778 423.222 480.333 423.667z"/>
<path style="fill:#687f9b; stroke:none;" d="M487.333 423.667C487.278 423.722 487.222 424.778 487.667 424.333C487.722 424.278 487.778 423.222 487.333 423.667z"/>
<path style="fill:#6d85a1; stroke:none;" d="M659 423L659 429C659.951 426.715 659.951 425.285 659 423z"/>
<path style="fill:#88a9c7; stroke:none;" d="M655 424L655 429C655.83 426.97 655.83 426.03 655 424z"/>
<path style="fill:#809ebc; stroke:none;" d="M433 430C434.248 430.685 434.549 430.749 436 431C434.752 430.315 434.452 430.251 433 430z"/>
<path style="fill:#53627d; stroke:none;" d="M448 471C441.954 472.6 435.493 474.595 430.344 469.606C424.148 463.602 428.218 451.833 431.015 445C432.149 442.228 433.432 438.589 436.213 437.043C439.417 435.263 443.694 437.44 447 438C442.608 432.089 434.498 428.111 428.329 434.228C421.201 441.296 419.985 451.547 420 461C420.009 466.821 420.647 471.833 426.015 475.258C429.203 477.291 433.354 477.177 437 476.956C441.731 476.669 445.045 474.563 448 471z"/>
<path style="fill:#7893b0; stroke:none;" d="M484 431L485 432L484 431z"/>
<path style="fill:#7590ac; stroke:none;" d="M654 432L654 436C654.71 434.241 654.71 433.759 654 432z"/>
<path style="fill:#86a6c4; stroke:none;" d="M491 434L491 438C491.71 436.241 491.71 435.759 491 434z"/>
<path style="fill:#748eab; stroke:none;" d="M666.667 434.333C666.222 434.778 667.278 434.722 667.333 434.667C667.778 434.222 666.722 434.278 666.667 434.333z"/>
<path style="fill:#687f9b; stroke:none;" d="M656.333 435.667C656.278 435.722 656.222 436.778 656.667 436.333C656.722 436.278 656.778 435.222 656.333 435.667z"/>
<path style="fill:#718aa7; stroke:none;" d="M440.667 436.333C440.222 436.778 441.278 436.722 441.333 436.667C441.778 436.222 440.722 436.278 440.667 436.333z"/>
<path style="fill:#6a819e; stroke:none;" d="M447 437L447 439L449 439C448.455 437.365 448.635 437.545 447 437z"/>
<path style="fill:#6c84a0; stroke:none;" d="M486.333 440.667C486.278 440.722 486.222 441.778 486.667 441.333C486.722 441.278 486.778 440.222 486.333 440.667z"/>
<path style="fill:#85a4c2; stroke:none;" d="M662.667 440.333C662.222 440.778 663.278 440.722 663.333 440.667C663.778 440.222 662.722 440.278 662.667 440.333z"/>
<path style="fill:#6c829e; stroke:none;" d="M683.333 442.667C683.278 442.722 683.222 443.778 683.667 443.333C683.722 443.278 683.778 442.222 683.333 442.667z"/>
<path style="fill:#7c99b6; stroke:none;" d="M720 442L720 445C720.696 443.446 720.696 443.554 720 442z"/>
<path style="fill:#738ca9; stroke:none;" d="M654.667 443.333C654.222 443.778 655.278 443.722 655.333 443.667C655.778 443.222 654.722 443.278 654.667 443.333z"/>
<path style="fill:#819fbd; stroke:none;" d="M675 444L675 457C676.591 453.209 676.591 447.791 675 444z"/>
<path style="fill:#7f9dba; stroke:none;" d="M383.333 445.667C383.278 445.722 383.222 446.778 383.667 446.333C383.722 446.278 383.778 445.222 383.333 445.667z"/>
<path style="fill:#7893b0; stroke:none;" d="M486 446L487 447L486 446z"/>
<path style="fill:#667c98; stroke:none;" d="M684 446L684 459C685.591 455.209 685.591 449.791 684 446z"/>
<path style="fill:#7b98b5; stroke:none;" d="M429.333 448.667C429.278 448.722 429.222 449.778 429.667 449.333C429.722 449.278 429.778 448.222 429.333 448.667z"/>
<path style="fill:#728ba8; stroke:none;" d="M719.333 448.667C719.278 448.722 719.222 449.778 719.667 449.333C719.722 449.278 719.778 448.222 719.333 448.667z"/>
<path style="fill:#718aa7; stroke:none;" d="M382.333 449.667C382.278 449.722 382.222 450.778 382.667 450.333C382.722 450.278 382.778 449.222 382.333 449.667z"/>
<path style="fill:#687f9b; stroke:none;" d="M420.333 449.667C420.278 449.722 420.222 450.778 420.667 450.333C420.722 450.278 420.778 449.222 420.333 449.667z"/>
<path style="fill:#6a819e; stroke:none;" d="M482 450L483 451L482 450z"/>
<path style="fill:#89abc8; stroke:none;" d="M382.333 451.667C382.278 451.722 382.222 452.778 382.667 452.333C382.722 452.278 382.778 451.222 382.333 451.667z"/>
<path style="fill:#728ca8; stroke:none;" d="M428 452L428 455C428.696 453.446 428.696 453.554 428 452z"/>
<path style="fill:#6f87a3; stroke:none;" d="M419 453L419 457C419.71 455.241 419.71 454.76 419 453z"/>
<path style="fill:#7792af; stroke:none;" d="M718.333 453.667C718.278 453.722 718.222 454.778 718.667 454.333C718.722 454.278 718.778 453.222 718.333 453.667z"/>
<path style="fill:#6a819d; stroke:none;" d="M381 455L381 458C381.696 456.446 381.696 456.554 381 455z"/>
<path style="fill:#5f718d; stroke:none;" d="M419 457L419 465C420.161 462.23 420.161 459.77 419 457z"/>
<path style="fill:#6d84a1; stroke:none;" d="M675 457L675 460C675.696 458.446 675.696 458.554 675 457z"/>
<path style="fill:#819fbd; stroke:none;" d="M427 458L427 467C428.256 464.006 428.256 460.994 427 458z"/>
<path style="fill:#87a6c4; stroke:none;" d="M684.333 459.667C684.278 459.722 684.222 460.778 684.667 460.333C684.722 460.278 684.778 459.222 684.333 459.667z"/>
<path style="fill:#7c99b6; stroke:none;" d="M717 459L717 465C717.951 462.715 717.951 461.285 717 459z"/>
<path style="fill:#728ba8; stroke:none;" d="M674.333 463.667C674.278 463.722 674.222 464.778 674.667 464.333C674.722 464.278 674.778 463.222 674.333 463.667z"/>
<path style="fill:#7894b1; stroke:none;" d="M683.333 463.667C683.278 463.722 683.222 464.778 683.667 464.333C683.722 464.278 683.778 463.222 683.333 463.667z"/>
<path style="fill:#7c98b6; stroke:none;" d="M419.333 465.667C419.278 465.722 419.222 466.778 419.667 466.333C419.722 466.278 419.778 465.222 419.333 465.667z"/>
<path style="fill:#6b839f; stroke:none;" d="M717 465L717 470C717.83 467.97 717.83 467.03 717 465z"/>
<path style="fill:#627692; stroke:none;" d="M542 467C541.014 468.479 541 468.203 541 470C542.766 469.021 542.955 468.778 542 467z"/>
<path style="fill:#6f87a3; stroke:none;" d="M564 467C564.545 468.635 564.365 468.455 566 469L566 467L564 467z"/>
<path style="fill:#53627d; stroke:none;" d="M566 468C564.7 476.227 554.892 477.644 548.043 474.853C545.343 473.752 543.45 471.473 541 470C541.578 480.532 555.546 483.157 563.941 478.682C568.298 476.36 568.725 471.602 566 468z"/>
<path style="fill:#7691af; stroke:none;" d="M429 469L430 470L429 469z"/>
<path style="fill:#7e9bb8; stroke:none;" d="M647 469C648.225 471.271 648.491 471.591 651 472C649.659 470.726 648.597 469.959 647 469z"/>
<path style="fill:#7590ac; stroke:none;" d="M430 470L431 471L430 470z"/>
<path style="fill:#657a96; stroke:none;" d="M568 470L568 475C568.83 472.97 568.83 472.03 568 470z"/>
<path style="fill:#89aac8; stroke:none;" d="M717.333 470.667C717.278 470.722 717.222 471.778 717.667 471.333C717.722 471.278 717.778 470.222 717.333 470.667z"/>
<path style="fill:#7893b0; stroke:none;" d="M680 471L681 472L680 471z"/>
<path style="fill:#7994b1; stroke:none;" d="M422 472L423 473L422 472z"/>
<path style="fill:#6f87a4; stroke:none;" d="M442.667 472.333C442.222 472.778 443.278 472.722 443.333 472.667C443.778 472.222 442.722 472.278 442.667 472.333z"/>
<path style="fill:#809fbd; stroke:none;" d="M653.667 472.333C653.222 472.778 654.278 472.722 654.333 472.667C654.778 472.222 653.722 472.278 653.667 472.333z"/>
<path style="fill:#718aa7; stroke:none;" d="M665.667 472.333C665.222 472.778 666.278 472.722 666.333 472.667C666.778 472.222 665.722 472.278 665.667 472.333z"/>
<path style="fill:#7590ad; stroke:none;" d="M423 473L424 474L423 473z"/>
<path style="fill:#61748f; stroke:none;" d="M657 473C658.506 473.683 659.315 473.826 661 474C659.494 473.317 658.685 473.174 657 473z"/>
<path style="fill:#6e86a3; stroke:none;" d="M549 475C552.697 476.552 557.017 476 561 476C557.303 474.448 552.983 475 549 475z"/>
<path style="fill:#627793; stroke:none;" d="M430 477C432.332 477.985 434.457 477.981 437 478C434.669 477.015 432.543 477.019 430 477z"/>
<path style="fill:#84a3c0; stroke:none;" d="M437.667 477.333C437.222 477.778 438.278 477.722 438.333 477.667C438.778 477.222 437.722 477.278 437.667 477.333z"/>
<path style="fill:#5d6f8b; stroke:none;" d="M661 478C663.613 479.098 666.164 478.993 669 479C666.387 477.902 663.835 478.007 661 478z"/>
<path style="fill:#748fac; stroke:none;" d="M669.667 478.333C669.222 478.778 670.278 478.722 670.333 478.667C670.778 478.222 669.722 478.278 669.667 478.333z"/>
<path style="fill:#758fab; stroke:none;" d="M381 479L381 482C381.696 480.446 381.696 480.554 381 479z"/>
<path style="fill:#69809b; stroke:none;" d="M449 480C449.564 481.752 449.919 482.542 451 484C450.689 481.709 450.634 481.68 449 480z"/>
<path style="fill:#677d99; stroke:none;" d="M549 480C551.89 481.213 554.874 480.998 558 481C555.11 479.787 552.126 480.002 549 480z"/>
<path style="fill:#86a7c4; stroke:none;" d="M558.667 480.333C558.222 480.778 559.278 480.722 559.333 480.667C559.778 480.222 558.722 480.278 558.667 480.333z"/>
<path style="fill:#53627d; stroke:none;" d="M451 483C452.25 487.248 457.602 492.385 457.534 496.576C457.468 500.585 451.414 505.886 449.152 509C442.478 518.19 436.395 528.083 430.862 538C416.182 564.314 405.405 593.76 395.053 622C383.786 652.735 379.135 686.54 376.91 719C373.777 764.718 376.794 809.374 387 854C389.775 847.567 388.55 840.73 388.09 834C387.591 826.723 388 819.293 388 812C388 777.279 384.014 741.588 388.155 707C393.494 662.408 405.562 620.178 423.424 579C435.018 552.272 449.832 526.824 461 500C466.024 506.233 470.931 512.432 477 517.711C497.096 535.19 521.01 542.383 547 545.166C560.329 546.593 574.936 547.328 588 543.845C603.128 539.811 618.086 532.797 631 523.971C636.318 520.337 640.778 515.706 646 512C648.761 524.067 658.344 534.927 663.741 546C675.765 570.669 686.681 597.162 692.576 624C701.766 665.839 705.996 707.446 708.911 750C710.704 776.19 709.187 803.075 714 829C718.521 820.496 717.779 806.491 718.015 797C718.471 778.655 719.917 760.361 718.17 742C716.556 725.044 716.535 707.977 714.831 691C710.675 649.6 702.193 607.398 686.228 569C677.429 547.837 667.399 523.847 649 509C652.25 505.602 655.157 502.352 657 498C645.183 503.266 635.784 513.837 624 519.73C609.075 527.193 590.729 535.157 574 536.829C548.79 539.35 519.972 531.576 498 519.691C487.435 513.977 477.802 507.107 469 498.911C463.268 493.573 458.177 486.347 451 483z"/>
<path style="fill:#738ca9; stroke:none;" d="M382.333 484.667C382.278 484.722 382.222 485.778 382.667 485.333C382.722 485.278 382.778 484.222 382.333 484.667z"/>
<path style="fill:#7893b0; stroke:none;" d="M725 486L726 487L725 486z"/>
<path style="fill:#677d99; stroke:none;" d="M383.333 488.667C383.278 488.722 383.222 489.778 383.667 489.333C383.722 489.278 383.778 488.222 383.333 488.667z"/>
<path style="fill:#7a95b2; stroke:none;" d="M606 488L605 490L607 490C607 488.147 607.3 488.65 606 488z"/>
<path style="fill:#53627d; stroke:none;" d="M555 505C570.461 513.22 597.988 505.434 606 490C597.483 493.223 589.917 497.578 581 500.091C572.499 502.487 563.36 502.523 555 505z"/>
<path style="fill:#7e9bb9; stroke:none;" d="M728.333 492.667C728.278 492.722 728.222 493.778 728.667 493.333C728.722 493.278 728.778 492.222 728.333 492.667z"/>
<path style="fill:#7691ae; stroke:none;" d="M660 496C661.457 494.896 661.897 494.457 663 493C660.876 493.899 660.899 493.876 660 496z"/>
<path style="fill:#647894; stroke:none;" d="M659 495C658.043 496.517 657.613 497.338 657 499C658.63 497.485 659.163 497.145 659 495z"/>
<path style="fill:#6c829e; stroke:none;" d="M589.667 497.333C589.222 497.778 590.278 497.722 590.333 497.667C590.778 497.222 589.722 497.278 589.667 497.333z"/>
<path style="fill:#7894b1; stroke:none;" d="M656 497L657 498L656 497z"/>
<path style="fill:#677d99; stroke:none;" d="M729 497L729 503C729.951 500.715 729.951 499.285 729 497z"/>
<path style="fill:#7590ac; stroke:none;" d="M457 498L458 499L457 498z"/>
<path style="fill:#6c83a0; stroke:none;" d="M582.667 499.333C582.222 499.778 583.278 499.722 583.333 499.667C583.778 499.222 582.722 499.278 582.667 499.333z"/>
<path style="fill:#7690ad; stroke:none;" d="M597 499L598 500L597 499z"/>
<path style="fill:#9cc3e2; stroke:none;" d="M461 500C451.12 516.927 442.847 535.188 434.691 553C411.85 602.885 393.491 654.017 388.17 709C386.459 726.68 388 745.234 388 763L388 815C388 823.25 386.5 833.169 389.468 841C401.155 871.839 428.584 886.528 458 896.333C506.598 912.533 558.914 918.917 610 912.282C633.841 909.185 660.319 902.676 677.714 884.83C692.969 869.181 699.691 850.728 704.873 830C707.635 818.955 710.283 807.444 710.545 796C710.854 782.5 709.012 768.467 708.089 755C704.563 703.498 702.426 650.779 686.652 601C680.457 581.451 672.096 561.251 662.741 543C657.524 532.823 650.837 523.361 646 513C638.283 515.989 632.086 522.846 625 527.189C612.829 534.649 599.558 540.106 586 544.481C575.261 547.946 564.041 547.238 553 546.17C527.267 543.68 504.103 537.422 483 521.844C474.499 515.569 468.754 506.882 461 500z"/>
<path style="fill:#6c84a0; stroke:none;" d="M578.667 500.333C578.222 500.778 579.278 500.722 579.333 500.667C579.778 500.222 578.722 500.278 578.667 500.333z"/>
<path style="fill:#7691ae; stroke:none;" d="M471 501L472 502L471 501z"/>
<path style="fill:#7893b0; stroke:none;" d="M573 501C574.248 501.685 574.548 501.749 576 502C574.752 501.315 574.451 501.251 573 501z"/>
<path style="fill:#7590ad; stroke:none;" d="M594 501L595 502L594 501z"/>
<path style="fill:#84a3c1; stroke:none;" d="M567 502C568.248 502.685 568.548 502.749 570 503C568.752 502.315 568.452 502.251 567 502z"/>
<path style="fill:#7792af; stroke:none;" d="M654 502L655 503L654 502z"/>
<path style="fill:#7d9ab7; stroke:none;" d="M560.667 503.333C560.222 503.778 561.278 503.722 561.333 503.667C561.778 503.222 560.722 503.278 560.667 503.333z"/>
<path style="fill:#69809c; stroke:none;" d="M562 503C563.248 503.685 563.548 503.749 565 504C563.752 503.315 563.452 503.251 562 503z"/>
<path style="fill:#86a5c3; stroke:none;" d="M553 506C554.58 505.317 554.777 505.195 556 504C553.908 504.406 553.98 504.217 553 506z"/>
<path style="fill:#99bbdd; stroke:none;" d="M379.333 505.667C379.278 505.722 379.222 506.778 379.667 506.333C379.722 506.278 379.778 505.222 379.333 505.667z"/>
<path style="fill:#7893b0; stroke:none;" d="M392 506L393 507L392 506z"/>
<path style="fill:#7994b2; stroke:none;" d="M466 506L467 507L466 506z"/>
<path style="fill:#7691af; stroke:none;" d="M557.667 506.333C557.222 506.778 558.278 506.722 558.333 506.667C558.778 506.222 557.722 506.278 557.667 506.333z"/>
<path style="fill:#7089a5; stroke:none;" d="M580 506C581.248 506.685 581.548 506.749 583 507C581.752 506.315 581.452 506.251 580 506z"/>
<path style="fill:#7a96b2; stroke:none;" d="M728 506L728 509C728.696 507.446 728.696 507.554 728 506z"/>
<path style="fill:#9cc3e2; stroke:none;" d="M380 507C381.782 517.35 389.139 525.26 392.301 535C393.425 538.462 393 542.408 393 546C398.367 533.209 389.328 515.548 380 507z"/>
<path style="fill:#6d84a1; stroke:none;" d="M563 507C564.506 507.683 565.315 507.826 567 508C565.494 507.317 564.685 507.174 563 507z"/>
<path style="fill:#7a95b2; stroke:none;" d="M575 507C576.248 507.685 576.548 507.749 578 508C576.752 507.315 576.452 507.251 575 507z"/>
<path style="fill:#7893b0; stroke:none;" d="M642 508L643 509L642 508z"/>
<path style="fill:#7691ae; stroke:none;" d="M482 510L483 511L482 510z"/>
<path style="fill:#687d9a; stroke:none;" d="M644.667 512.333C644.222 512.778 645.278 512.722 645.333 512.667C645.778 512.222 644.722 512.278 644.667 512.333z"/>
<path style="fill:#7792af; stroke:none;" d="M652 512L653 513L652 512z"/>
<path style="fill:#748fac; stroke:none;" d="M488 514L489 515L488 514z"/>
<path style="fill:#7792af; stroke:none;" d="M642 514L643 515L642 514z"/>
<path style="fill:#7a96b2; stroke:none;" d="M398 515L399 516L398 515z"/>
<path style="fill:#7691ae; stroke:none;" d="M647 516L648 517L647 516M479 519L480 520L479 519z"/>
<path style="fill:#7690ad; stroke:none;" d="M440 522L441 523L440 522z"/>
<path style="fill:#7b97b4; stroke:none;" d="M402.333 525.667C402.278 525.722 402.222 526.778 402.667 526.333C402.722 526.278 402.778 525.222 402.333 525.667z"/>
<path style="fill:#7a96b3; stroke:none;" d="M664 527L665 528L664 527z"/>
<path style="fill:#84a3c1; stroke:none;" d="M516.667 528.333C516.222 528.778 517.278 528.722 517.333 528.667C517.778 528.222 516.722 528.278 516.667 528.333z"/>
<path style="fill:#7d99b6; stroke:none;" d="M393.333 529.667C393.278 529.722 393.222 530.778 393.667 530.333C393.722 530.278 393.778 529.222 393.333 529.667z"/>
<path style="fill:#88a9c7; stroke:none;" d="M523.667 530.333C523.222 530.778 524.278 530.722 524.333 530.667C524.778 530.222 523.722 530.278 523.667 530.333z"/>
<path style="fill:#89aac8; stroke:none;" d="M527.667 531.333C527.222 531.778 528.278 531.722 528.333 531.667C528.778 531.222 527.722 531.278 527.667 531.333z"/>
<path style="fill:#7a96b2; stroke:none;" d="M667 531L668 532L667 531z"/>
<path style="fill:#809ebb; stroke:none;" d="M531.667 532.333C531.222 532.778 532.278 532.722 532.333 532.667C532.778 532.222 531.722 532.278 531.667 532.333z"/>
<path style="fill:#6c839f; stroke:none;" d="M591.667 532.333C591.222 532.778 592.278 532.722 592.333 532.667C592.778 532.222 591.722 532.278 591.667 532.333z"/>
<path style="fill:#7a96b3; stroke:none;" d="M536.667 533.333C536.222 533.778 537.278 533.722 537.333 533.667C537.778 533.222 536.722 533.278 536.667 533.333z"/>
<path style="fill:#657b97; stroke:none;" d="M588.667 533.333C588.222 533.778 589.278 533.722 589.333 533.667C589.778 533.222 588.722 533.278 588.667 533.333z"/>
<path style="fill:#55aaaa; stroke:none;" d="M392 534L393 535L392 534z"/>
<path style="fill:#7691ae; stroke:none;" d="M394 534L394 538C394.71 536.24 394.71 535.76 394 534z"/>
<path style="fill:#7590ac; stroke:none;" d="M542.667 534.333C542.222 534.778 543.278 534.722 543.333 534.667C543.778 534.222 542.722 534.278 542.667 534.333z"/>
<path style="fill:#6c829e; stroke:none;" d="M584.667 534.333C584.222 534.778 585.278 534.722 585.333 534.667C585.778 534.222 584.722 534.278 584.667 534.333z"/>
<path style="fill:#7590ac; stroke:none;" d="M669 534L670 535L669 534z"/>
<path style="fill:#667b97; stroke:none;" d="M548 535C549.248 535.685 549.548 535.749 551 536C549.752 535.315 549.452 535.251 548 535z"/>
<path style="fill:#8baecb; stroke:none;" d="M551 535C552.506 535.683 553.315 535.826 555 536C553.494 535.317 552.685 535.174 551 535z"/>
<path style="fill:#7893b0; stroke:none;" d="M579 535C580.248 535.685 580.548 535.749 582 536C580.752 535.315 580.452 535.251 579 535z"/>
<path style="fill:#7089a6; stroke:none;" d="M559 536C564.222 538.191 571.368 537 577 537C571.778 534.809 564.632 536 559 536z"/>
<path style="fill:#7894b1; stroke:none;" d="M671 537L672 538L671 537z"/>
<path style="fill:#84a3c0; stroke:none;" d="M394 538L394 544C394.951 541.715 394.951 540.285 394 538z"/>
<path style="fill:#6f87a4; stroke:none;" d="M402 540L402 543C402.696 541.446 402.696 541.554 402 540z"/>
<path style="fill:#6c84a0; stroke:none;" d="M519.667 540.333C519.222 540.778 520.278 540.722 520.333 540.667C520.778 540.222 519.722 540.278 519.667 540.333z"/>
<path style="fill:#6b829e; stroke:none;" d="M523.667 541.333C523.222 541.778 524.278 541.722 524.333 541.667C524.778 541.222 523.722 541.278 523.667 541.333z"/>
<path style="fill:#728ba8; stroke:none;" d="M527.667 542.333C527.222 542.778 528.278 542.722 528.333 542.667C528.778 542.222 527.722 542.278 527.667 542.333z"/>
<path style="fill:#7a96b2; stroke:none;" d="M532.667 543.333C532.222 543.778 533.278 543.722 533.333 543.667C533.778 543.222 532.722 543.278 532.667 543.333z"/>
<path style="fill:#7f9dba; stroke:none;" d="M538 544C539.248 544.685 539.549 544.749 541 545C539.752 544.315 539.452 544.251 538 544z"/>
<path style="fill:#82a1bf; stroke:none;" d="M585.667 544.333C585.222 544.778 586.278 544.722 586.333 544.667C586.778 544.222 585.722 544.278 585.667 544.333z"/>
<path style="fill:#7a96b2; stroke:none;" d="M675 544L676 545L675 544z"/>
<path style="fill:#86a6c4; stroke:none;" d="M544.667 545.333C544.222 545.778 545.278 545.722 545.333 545.667C545.778 545.222 544.722 545.278 544.667 545.333z"/>
<path style="fill:#617490; stroke:none;" d="M546 545C547.506 545.683 548.315 545.826 550 546C548.494 545.317 547.685 545.174 546 545z"/>
<path style="fill:#718ba8; stroke:none;" d="M580 545C581.248 545.685 581.548 545.749 583 546C581.752 545.315 581.452 545.251 580 545z"/>
<path style="fill:#657a96; stroke:none;" d="M555 546C560.715 548.398 568.831 547 575 547C569.285 544.602 561.169 546 555 546z"/>
<path style="fill:#809ebc; stroke:none;" d="M575 546C576.248 546.685 576.548 546.749 578 547C576.752 546.315 576.452 546.251 575 546z"/>
<path style="fill:#85a4c2; stroke:none;" d="M399.333 551.667C399.278 551.722 399.222 552.778 399.667 552.333C399.722 552.278 399.778 551.222 399.333 551.667z"/>
<path style="fill:#005555; stroke:none;" d="M391 554L392 555L391 554z"/>
<path style="fill:#7b98b5; stroke:none;" d="M398.333 555.667C398.278 555.722 398.222 556.778 398.667 556.333C398.722 556.278 398.778 555.222 398.333 555.667z"/>
<path style="fill:#809fbb; stroke:none;" d="M696.667 567.333C696.222 567.778 697.278 567.722 697.333 567.667C697.778 567.222 696.722 567.278 696.667 567.333z"/>
<path style="fill:#95bfdf; stroke:none;" d="M695.667 568.333C695.222 568.778 696.278 568.722 696.333 568.667C696.778 568.222 695.722 568.278 695.667 568.333z"/>
<path style="fill:#8bacca; stroke:none;" d="M402 575C403.376 575.911 404.44 576.404 406 577C404.686 575.382 404.123 575.307 402 575z"/>
<path style="fill:#89a9c7; stroke:none;" d="M683.333 592.667C683.278 592.722 683.222 593.778 683.667 593.333C683.722 593.278 683.778 592.222 683.333 592.667z"/>
<path style="fill:#83a2c0; stroke:none;" d="M688.333 607.667C688.278 607.722 688.222 608.778 688.667 608.333C688.722 608.278 688.778 607.222 688.333 607.667z"/>
<path style="fill:#005555; stroke:none;" d="M398 613L399 614L398 613z"/>
<path style="fill:#7792af; stroke:none;" d="M690.333 614.667C690.278 614.722 690.222 615.778 690.667 615.333C690.722 615.278 690.778 614.222 690.333 614.667z"/>
<path style="fill:#82a2c0; stroke:none;" d="M691.333 619.667C691.278 619.722 691.222 620.778 691.667 620.333C691.722 620.278 691.778 619.222 691.333 619.667z"/>
<path style="fill:#7691ae; stroke:none;" d="M692.333 623.667C692.278 623.722 692.222 624.778 692.667 624.333C692.722 624.278 692.778 623.222 692.333 623.667z"/>
<path style="fill:#7893af; stroke:none;" d="M693.333 628.667C693.277 628.722 693.222 629.778 693.667 629.333C693.722 629.278 693.778 628.222 693.333 628.667z"/>
<path style="fill:#7994b1; stroke:none;" d="M694.333 633.667C694.278 633.722 694.222 634.778 694.667 634.333C694.722 634.278 694.778 633.222 694.333 633.667z"/>
<path style="fill:#87a7c5; stroke:none;" d="M402.333 634.667C402.278 634.722 402.222 635.778 402.667 635.333C402.722 635.278 402.778 634.222 402.333 634.667z"/>
<path style="fill:#7995b3; stroke:none;" d="M401.333 637.667C401.278 637.722 401.222 638.778 401.667 638.333C401.722 638.278 401.778 637.222 401.333 637.667z"/>
<path style="fill:#7792af; stroke:none;" d="M695 638L695 641C695.696 639.446 695.696 639.554 695 638z"/>
<path style="fill:#7b97b4; stroke:none;" d="M400.333 641.667C400.278 641.722 400.222 642.778 400.667 642.333C400.722 642.278 400.778 641.222 400.333 641.667z"/>
<path style="fill:#728ca8; stroke:none;" d="M696.333 643.667C696.278 643.722 696.222 644.778 696.667 644.333C696.722 644.278 696.778 643.222 696.333 643.667z"/>
<path style="fill:#7b97b4; stroke:none;" d="M399.333 645.667C399.278 645.722 399.222 646.778 399.667 646.333C399.722 646.278 399.778 645.222 399.333 645.667z"/>
<path style="fill:#6e86a2; stroke:none;" d="M697.333 648.667C697.278 648.722 697.222 649.778 697.667 649.333C697.722 649.278 697.778 648.222 697.333 648.667z"/>
<path style="fill:#7a96b3; stroke:none;" d="M398.333 649.667C398.278 649.722 398.222 650.778 398.667 650.333C398.722 650.278 398.778 649.222 398.333 649.667z"/>
<path style="fill:#89abc8; stroke:none;" d="M697.333 650.667C697.278 650.722 697.222 651.778 697.667 651.333C697.722 651.278 697.778 650.222 697.333 650.667z"/>
<path style="fill:#7893b0; stroke:none;" d="M397.333 653.667C397.278 653.722 397.222 654.778 397.667 654.333C397.722 654.278 397.778 653.222 397.333 653.667z"/>
<path style="fill:#7690ad; stroke:none;" d="M698 654L698 657C698.696 655.446 698.696 655.554 698 654z"/>
<path style="fill:#819fbd; stroke:none;" d="M396.333 658.667C396.278 658.722 396.222 659.778 396.667 659.333C396.722 659.278 396.778 658.222 396.333 658.667z"/>
<path style="fill:#7a95b2; stroke:none;" d="M699.333 660.667C699.278 660.722 699.222 661.778 699.667 661.333C699.722 661.278 699.778 660.222 699.333 660.667z"/>
<path style="fill:#7893b0; stroke:none;" d="M395.333 662.667C395.278 662.722 395.222 663.778 395.667 663.333C395.722 663.278 395.778 662.222 395.333 662.667z"/>
<path style="fill:#6f87a4; stroke:none;" d="M700.333 665.667C700.277 665.722 700.222 666.778 700.667 666.333C700.722 666.278 700.778 665.222 700.333 665.667z"/>
<path style="fill:#7893b0; stroke:none;" d="M394 667L394 670C394.696 668.446 394.696 668.554 394 667z"/>
<path style="fill:#88a9c7; stroke:none;" d="M700.333 667.667C700.277 667.723 700.222 668.778 700.667 668.333C700.722 668.278 700.778 667.222 700.333 667.667z"/>
<path style="fill:#718ba8; stroke:none;" d="M701 671L701 674C701.696 672.446 701.696 672.554 701 671z"/>
<path style="fill:#7792af; stroke:none;" d="M393.333 672.667C393.278 672.722 393.222 673.778 393.667 673.333C393.722 673.278 393.778 672.222 393.333 672.667z"/>
<path style="fill:#738daa; stroke:none;" d="M392 677L392 680C392.696 678.446 392.696 678.554 392 677z"/>
<path style="fill:#738ca9; stroke:none;" d="M702 677L702 680C702.696 678.446 702.696 678.554 702 677z"/>
<path style="fill:#005555; stroke:none;" d="M713 681L714 682L713 681z"/>
<path style="fill:#7690ad; stroke:none;" d="M391.333 683.667C391.278 683.722 391.222 684.778 391.667 684.333C391.722 684.278 391.778 683.222 391.333 683.667z"/>
<path style="fill:#6f87a4; stroke:none;" d="M703.333 683.667C703.278 683.722 703.222 684.778 703.667 684.333C703.722 684.278 703.778 683.222 703.333 683.667M390.333 689.667C390.278 689.722 390.222 690.778 390.667 690.333C390.722 690.278 390.778 689.222 390.333 689.667z"/>
<path style="fill:#84a3c1; stroke:none;" d="M390 691L390 694C390.696 692.446 390.696 692.554 390 691z"/>
<path style="fill:#7b97b4; stroke:none;" d="M704 691L704 698C705.059 695.466 705.059 693.534 704 691z"/>
<path style="fill:#7d9ab8; stroke:none;" d="M389 696L389 701C389.83 698.969 389.83 698.03 389 696z"/>
<path style="fill:#667b97; stroke:none;" d="M705 700L705 703C705.696 701.446 705.696 701.554 705 700z"/>
<path style="fill:#85a4c3; stroke:none;" d="M705 703L705 708C705.83 705.97 705.83 705.03 705 703z"/>
<path style="fill:#6a819e; stroke:none;" d="M388 704L388 707C388.696 705.446 388.696 705.554 388 704z"/>
<path style="fill:#697f9c; stroke:none;" d="M387 712L387 717C387.83 714.969 387.83 714.031 387 712z"/>
<path style="fill:#748eab; stroke:none;" d="M706 713L706 719C706.951 716.715 706.951 715.285 706 713z"/>
<path style="fill:#7d9ab7; stroke:none;" d="M387 717L387 721C387.71 719.24 387.71 718.76 387 717z"/>
<path style="fill:#86a7c4; stroke:none;" d="M706 719L706 725C706.951 722.715 706.951 721.285 706 719z"/>
<path style="fill:#8badcb; stroke:none;" d="M387 721L387 754C389.701 747.564 388 737.951 388 731C388 727.581 388.328 724.166 387 721z"/>
<path style="fill:#677d98; stroke:none;" d="M707 729L707 734C707.83 731.97 707.83 731.03 707 729z"/>
<path style="fill:#005555; stroke:none;" d="M717 729L718 730L717 729z"/>
<path style="fill:#7e9bb9; stroke:none;" d="M707 734L707 739C707.83 736.97 707.83 736.03 707 734z"/>
<path style="fill:#667b97; stroke:none;" d="M708 746L708 753C709.059 750.466 709.059 748.534 708 746z"/>
<path style="fill:#809ebc; stroke:none;" d="M708 753L708 759C708.951 756.715 708.951 755.285 708 753z"/>
<path style="fill:#7f9dba; stroke:none;" d="M387 754L387 771C388.883 766.514 388.883 758.486 387 754z"/>
<path style="fill:#647894; stroke:none;" d="M709 767L709 774C710.059 771.466 710.06 769.534 709 767z"/>
<path style="fill:#657a96; stroke:none;" d="M387 771L387 784C388.591 780.209 388.591 774.791 387 771z"/>
<path style="fill:#88a8c6; stroke:none;" d="M709 774L709 780C709.951 777.715 709.951 776.285 709 774z"/>
<path style="fill:#7892b0; stroke:none;" d="M710 785L710 794C711.256 791.006 711.256 787.994 710 785z"/>
<path style="fill:#808080; stroke:none;" d="M391 845L392 846L391 845M396 854L397 855L396 854z"/>
<path style="fill:#55aaaa; stroke:none;" d="M398 857L399 858L398 857M423 881L424 882L423 881z"/>
<path style="fill:#808080; stroke:none;" d="M679 882L680 883L679 882z"/>
<path style="fill:#55aaaa; stroke:none;" d="M428 884L429 885L428 884z"/>
<path style="fill:#808080; stroke:none;" d="M434 887L435 888L434 887z"/>
<path style="fill:#55aaaa; stroke:none;" d="M674 887L675 888L674 887z"/>
<path style="fill:#808080; stroke:none;" d="M491 906L492 907L491 906M635 907L636 908L635 907z"/>
<path style="fill:#55aaaa; stroke:none;" d="M616 911L617 912L616 911z"/>
<path style="fill:#808080; stroke:none;" d="M529 912L530 913L529 912z"/>
</svg>
