<?xml version="1.0" encoding="utf-8"?>
<!DOCTYPE svg PUBLIC "-//W3C//DTD SVG 20010904//EN" "http://www.w3.org/TR/2001/REC-SVG-20010904/DTD/svg10.dtd">
<svg version="1.0" xmlns="http://www.w3.org/2000/svg" width="1080px" height="1080px" viewBox="0 0 1080 1080" preserveAspectRatio="xMidYMid meet">
 <g fill="#e2c8a2">
  <path d="M0 540 l0 -540 540 0 540 0 0 540 0 540 -540 0 -540 0 0 -540z m880.5 389.2 c13.3 -6.9 14.6 -8.8 15.3 -20.6 0.5 -7.8 0.6 -8.2 5.5 -14.6 8.3 -10.8 11.7 -20.3 11.7 -32.9 0 -7.6 -3.3 -14.2 -7.7 -15.5 -2.9 -0.9 -3.2 -1.4 -3.8 -6 -0.8 -6.1 -4 -13.8 -6.5 -16.1 -1.8 -1.6 -2.3 -1.5 -9.7 2.5 -4.3 2.4 -12.4 7.4 -18 11.2 -7.8 5.2 -11.1 6.8 -13.8 6.8 -3.3 0 -3.5 -0.2 -3.5 -3.3 0 -2.5 0.9 -4.2 4.1 -7.2 7.9 -7.7 29.1 -33 31.7 -38 2.2 -4.2 2.7 -6.3 2.7 -13 0 -7.3 -0.3 -8.4 -3.1 -12.5 -2.3 -3.3 -3.6 -4.4 -5.3 -4.3 -3.2 0.4 -12.5 4.9 -20.4 10 -13.9 8.9 -16.9 4.2 -6.8 -10.8 7.3 -10.8 10.6 -20 9.8 -27.8 -0.5 -5.7 -4.8 -17.1 -6.5 -17.1 -1 0 -14.7 5.9 -17.5 7.6 -1.7 1 -1.6 1.2 0.4 3.5 4.4 5 5.4 8.1 5.4 16.4 -0.1 12.2 -3 17.2 -24.6 42.6 -2.5 3 -5.8 7.1 -7.3 9.1 l-2.8 3.8 2.8 1 c12.2 4.5 16.2 6.8 22 12.5 8.1 8.1 10.4 14.8 10.4 30.8 0 13 -1.5 19.8 -6.6 30.7 -6.4 13.7 -15.8 30.3 -17.4 30.7 -2.2 0.6 -5.4 11.3 -4.8 16.1 0.7 4.9 3.6 11.2 5.2 11.2 0.7 0 5 -3.2 9.7 -7.1 4.6 -3.9 11.3 -9.5 14.8 -12.5 5 -4.2 7.3 -5.4 9.8 -5.4 l3.3 0 -0.1 8.3 c-0.1 8.2 0.9 12.8 3.8 15.9 1.8 2.1 3.2 1.6 17.8 -6z m-90.2 -8.8 c1.8 -0.9 7.3 -4.5 12.4 -8 5 -3.5 9.8 -6.4 10.5 -6.4 1.6 0 10.4 -31 12.6 -44.7 1.4 -8.5 1.4 -9.6 -0.3 -15.9 -1.6 -5.9 -2 -6.5 -3.1 -4.9 -0.7 1 -3.5 4.1 -6.1 6.9 -21.5 23 -39.5 48.1 -41 57 -1.2 7.7 4 17.6 9.4 17.6 1.3 0 3.8 -0.7 5.6 -1.6z m-63.5 -8.7 c10.8 -10.2 28.6 -26.5 41.3 -37.7 20.6 -18.3 24.5 -21.7 30.9 -27 10.6 -8.8 17.6 -14 19 -14 3.8 0 -5.6 -6.1 -14.5 -9.4 -6.1 -2.3 -11.1 -5.9 -13.4 -9.7 l-1.8 -2.9 -9.3 9.8 c-5.2 5.3 -14.2 14.7 -20 20.7 -11.5 11.9 -35.2 37.9 -42 46 -7.5 8.9 -9.5 15.8 -6.9 23.6 1.2 3.4 5.5 8.9 7.1 8.9 0.5 0 4.8 -3.7 9.6 -8.3z m-78.2 -10.6 c4.9 -3.3 15.9 -12.2 24.5 -19.8 8.6 -7.6 18.5 -16.3 22 -19.4 3.5 -3.1 12 -10.5 18.9 -16.5 21.9 -19.3 66.8 -54.6 82.3 -64.9 4 -2.7 8.3 -7.1 14.6 -15.3 10.6 -13.7 13 -17.7 11.4 -19.3 -0.7 -0.7 -8.1 -1.5 -18.5 -2.1 -9.5 -0.5 -20.9 -1.2 -25.3 -1.6 l-8 -0.7 -0.3 -3.7 c-0.2 -2.1 -0.1 -3.8 0.2 -3.8 0.2 0 4.7 -1.1 9.8 -2.5 11 -3 31.4 -6.5 37.8 -6.5 3.9 0 5.1 -0.6 9 -4.3 2.5 -2.3 12.4 -11.5 22 -20.4 9.6 -8.9 22 -20.5 27.4 -25.7 7.5 -7.3 10.6 -9.6 12.6 -9.6 l2.7 0 0.6 19.8 c0.3 10.8 1.4 28.7 2.6 39.7 1.1 11 2.5 29.7 3 41.5 1.1 22.4 2.3 29.7 7.5 44.9 3.5 10.2 8.3 18.3 16.1 27.1 9 10.2 10.5 13.3 11.2 23.8 l0.7 8.7 1.7 -5.5 c1 -3 1.8 -6.7 1.8 -8.2 0.1 -4.9 -3.8 -13.1 -10.4 -22 -7 -9.5 -10.4 -15.7 -14.2 -25.7 -4.4 -11.7 -5.3 -17.3 -6.3 -39.1 -0.6 -11.8 -1.7 -27.8 -2.5 -35.5 -4.3 -41 -4.7 -47.1 -4.2 -65.5 0.5 -15.4 3.3 -41.6 5.2 -48 1.1 -3.7 2.6 -20.3 2.6 -27.7 -0.1 -10.1 -1.3 -15.7 -5.6 -24.8 -8.8 -18.5 -19.4 -30.1 -50.5 -55 -24.3 -19.5 -40 -34.7 -40 -38.8 0 -5.9 -4.6 -12.7 -8.5 -12.7 -1.8 0 -3 -1.8 -6.7 -9.7 -6.4 -13.6 -7.9 -17.2 -13.1 -30.3 -16 -40.7 -22.4 -68.1 -28.7 -123.5 -3.4 -29.7 -6.9 -50.2 -10.6 -61.5 -4.2 -12.7 -14.6 -34.5 -22.1 -45.9 -6.2 -9.5 -18.7 -22.5 -28.3 -29.3 -14.9 -10.5 -37.1 -20.3 -58.4 -25.8 -42 -10.8 -77.6 -12.6 -98.6 -5.1 l-5.5 2 12.5 0 c16.2 0.1 68.2 5.8 88.8 9.8 l8.2 1.6 0 3.3 c0 3.1 -0.6 3.6 -10.9 9.8 -8.6 5.2 -11.7 6.6 -14.9 6.6 -2.3 0 -4.4 -0.5 -4.7 -1 -1 -1.7 -2 -1.2 -11.3 5 -6.2 4.1 -10 6 -12.1 6 l-3.1 0 0 -7.5 c0 -8.3 -1.4 -12.8 -5.2 -16.3 l-2.4 -2.2 -4 3 c-15.2 11.5 -27.1 19 -30.1 19 -3.2 0 -3.3 -0.2 -3.3 -3.8 0 -5.8 -2.8 -13.9 -5.8 -17.2 l-2.7 -2.9 -24.7 12.3 c-13.5 6.8 -29.9 14.3 -36.3 16.6 -12.6 4.7 -14.7 6.4 -16.6 13.2 -1.3 4.9 -0.5 10.4 2.2 14.7 1.7 2.8 2.4 3.2 4.7 2.7 1.5 -0.4 4.8 -0.9 7.5 -1.3 l4.7 -0.6 0 3.5 c0 3.3 -1.3 4.7 -18.5 20.4 -19.1 17.4 -21.5 20.5 -21.5 27.7 0 8.5 5.5 16.7 11.3 16.7 2.4 0 2.7 0.4 2.7 3.4 0 2.6 -1.1 4.7 -4.6 8.8 -5 5.7 -8.1 11.8 -9 17.7 -1.3 8.1 4.1 18.2 8.9 16.6 1.2 -0.4 4.1 -1 6.5 -1.2 l4.2 -0.5 0 3.9 c0 2.7 -0.6 4.6 -2 5.8 -4.6 4.2 -7.4 17.7 -4.9 24.2 1.4 3.8 5.8 8.3 8.2 8.3 3.1 0 15.6 -6.8 25.4 -13.8 9.2 -6.7 9.3 -6.7 9.3 -11 0 -3.5 0.9 -5.7 4.8 -11.5 2.7 -4 8.8 -13.5 13.7 -21.2 18.3 -29.1 39.7 -54.8 76 -91.2 10 -10 17.3 -17.7 16.2 -17.2 -1 0.6 -6.7 4.1 -12.5 7.8 -33.6 21 -53.4 29.1 -71.9 29.1 l-8.3 0 0 -3.5 c0 -3 0.5 -3.7 2.8 -4.5 6.4 -2.3 19.3 -9.9 40.6 -23.7 26.9 -17.5 56.5 -29.5 68.9 -27.8 7.5 1.1 9.7 3.9 9.7 12.5 0 6.4 -0.2 7.1 -4.3 12.6 -2.4 3.3 -6.6 7.9 -9.3 10.4 -2.7 2.5 -12.6 11.4 -21.9 19.9 -22.4 20.4 -47.4 45.6 -55.5 55.9 -6 7.7 -14.9 21.1 -21.4 32.5 l-2.7 4.8 5.1 -2.6 c17.5 -8.9 65.7 -25.5 73.9 -25.5 2.8 0 3.1 0.3 3.1 3.3 0 3 -0.4 3.4 -7.7 6.7 -4.2 1.9 -15.5 7.9 -25.2 13.4 -40.9 23 -52.4 28.7 -59.1 29.4 -5.3 0.5 -4.5 -0.2 -19.5 17.2 -14.3 16.7 -16.8 24.5 -11.3 35.4 1.8 3.5 2.2 3.8 5.1 3.2 4.7 -0.9 12.3 -5.9 21.3 -13.8 9.5 -8.4 43 -37 52.9 -45 3.8 -3.2 8 -5.8 9.2 -5.8 1.5 0 2.3 -0.7 2.5 -2.2 0.2 -1.9 1 -2.4 4.1 -2.6 l3.8 -0.3 -0.3 3.8 c-0.3 3.3 -0.7 3.8 -3 4.1 -1.7 0.2 -2.8 0.9 -2.8 1.9 0 0.9 -8.7 10.1 -19.4 20.5 -21.5 20.8 -23.4 23.7 -22.2 32.3 0.3 2.5 0.9 6.4 1.2 8.8 0.6 4.1 0.5 4.3 -2.9 5.5 -4.5 1.6 -7.8 4.2 -11.8 9.5 -3.2 4 -2.3 3.7 2.9 -1 2.2 -2.1 8.4 -3.3 17 -3.3 16.1 0 30.2 4.9 40.6 14.2 9.1 8.1 10.1 10.8 10.1 26.8 0 13.1 -0.1 13.7 -3.2 20.2 -3.3 7.1 -5.9 10.8 -13.1 19.5 -7 8.4 -15.1 12.3 -35.2 16.9 l-10.5 2.4 11 -0.4 c18.9 -0.8 28.5 -4.4 39 -15 8.4 -8.5 14.3 -17.1 18.1 -26.4 2.4 -5.8 3.6 -7.4 7.6 -10.1 2.7 -1.7 6.1 -3.1 7.8 -3.1 l3 0 -0.1 8.3 c-0.1 4.5 0.1 10.5 0.6 13.4 l0.7 5.2 -15 15.8 c-22.4 23.4 -28.4 31.6 -29.8 40.5 -0.8 4.4 1.1 11.1 4 14.5 2.1 2.4 2.9 2.7 9 2.5 l6.6 -0.2 0 3.4 c0 2.6 -1 4.5 -4.3 8.2 -6.5 7.4 -8.6 14.1 -6.6 21.8 1.3 5.4 6.6 11.6 9.8 11.6 3.4 0 2.9 5.9 -0.8 9.4 -6.3 6 -7.8 18.2 -3.5 27.1 1.8 3.7 2.2 4 5.8 3.8 5.7 -0.4 12.9 -4.4 24.1 -13.3 5.5 -4.5 16.3 -12.3 24 -17.5 7.7 -5.2 17 -11.9 20.6 -14.7 28.8 -23 36.8 -28.8 39.8 -28.8 2.9 0 3.1 0.3 3.1 3.4 0 3 -1.2 4.4 -10.7 13.2 -8.9 8.2 -10.3 10 -8.5 10.2 1.7 0.3 2.2 1 2.2 3.5 0 2.9 -0.5 3.5 -4.7 5.4 -2.9 1.3 -9.5 6.6 -16.3 13.1 -11.7 11 -19.7 18 -32.8 28.6 -4 3.2 -7.1 6 -7 6.2 0.2 0.1 8 -1.3 17.3 -3.1 21.6 -4.4 40.9 -6.8 49.1 -6.3 5.7 0.3 6.9 0.8 9.7 3.6 3.1 3.1 3.2 3.5 3.2 11.5 0 16.6 -6.2 24.2 -50.2 62.1 -9.5 8.1 -17.5 15.1 -17.7 15.5 -0.3 0.4 5.6 1.1 13.2 1.4 20.7 1 31.3 4.5 36.1 12 1.4 2 3.3 3.7 4.3 3.7 1.4 0 1.8 0.8 1.8 3.4 0 1.8 -0.6 3.9 -1.4 4.5 -0.7 0.6 -1.6 3.6 -1.8 6.5 -0.8 9.6 -4.4 15.1 -29.3 45 -7.1 8.4 -8.4 9.5 -11.2 9.6 -3.1 0 -3.3 -0.2 -3.3 -3.6 0 -2.2 1.7 -7 4.5 -12.7 l4.6 -9.2 -5.7 6 c-25.6 27.3 -34.1 37.6 -37 45 -1.5 4 -1.5 5.3 -0.5 10.1 0.7 3 2.2 6.6 3.4 7.9 2 2.3 2.6 2.4 5.7 1.5 8.8 -2.4 14.5 -6.8 62.5 -47.8 51.3 -43.9 55.3 -47.3 68.7 -58 7 -5.6 13.5 -10.2 14.3 -10.2 0.8 0 1.5 -0.7 1.5 -1.5 0 -1 1.1 -1.5 3.5 -1.5 3.3 0 3.5 0.2 3.5 3.5 0 2.4 -0.5 3.5 -1.5 3.5 -0.8 0 -1.5 0.4 -1.5 1 0 0.5 -3.9 4.7 -8.7 9.2 -41.9 39.6 -107.7 106.9 -113.1 115.6 -3.8 6.2 -5.3 12.8 -4.2 17.9 1 4.4 3.6 9.3 4.9 9.3 0.4 0 4.8 -2.7 9.7 -5.9z m-183.7 -9.8 c1.6 -3.4 1.6 -26.5 0 -55.3 -2.7 -51.9 -11 -95.4 -26.4 -139.3 -3 -8.7 -5.5 -17.1 -5.5 -18.6 0 -2.5 0.8 -3.1 11.3 -7.6 17.3 -7.4 38.5 -18.2 45.5 -23.2 7.5 -5.3 14.3 -14.1 16.2 -20.8 1.1 -4 1.1 -5.4 -0.1 -8.8 -0.8 -2.2 -1.9 -4.2 -2.4 -4.4 -0.6 -0.2 -1.9 1.3 -3 3.3 -3.7 6.9 -11 12.1 -29.9 21.4 -16.6 8.2 -41.3 18.7 -61.1 26.1 -4.4 1.7 -9 3.7 -10.2 4.5 -1.2 0.8 -3.1 1.4 -4.1 1.4 -1.1 0 -4 1.1 -6.6 2.5 -2.6 1.4 -6 2.5 -7.7 2.5 -1.6 0 -3.8 0.9 -5 2.1 -1.1 1.1 -3.6 2.3 -5.5 2.6 -1.9 0.3 -3.4 1 -3.4 1.4 0 0.5 -1.5 0.9 -3.2 0.9 -3.7 0 -28.1 7.8 -28.6 9.1 -0.2 0.5 -1.8 0.9 -3.6 0.9 -1.8 0 -3.7 0.5 -4.4 1.2 -0.7 0.7 -6.9 1.3 -17.6 1.6 l-16.4 0.5 -1.2 -3.9 c-6.7 -21.1 -35.9 -79 -51.2 -101.6 -2.1 -3.1 -4.2 -6.8 -4.8 -8.2 -1.7 -4.5 -7.5 -7.8 -22.7 -13.1 -13.6 -4.7 -24.9 -9.4 -45.5 -19 -7.4 -3.4 -7.8 -3.7 -7.8 -6.9 0 -4.4 3.8 -9.5 17.6 -23.6 13.2 -13.5 20 -21.2 26 -29.6 9.9 -13.9 15.2 -30.3 13.9 -43.8 -0.8 -8 -9.6 -34.8 -19.9 -60.6 -19.5 -48.4 -24.6 -62.4 -24.6 -67.2 0 -2.6 0.3 -2.8 4.3 -2.8 2.4 0 6.6 0.7 9.3 1.5 5.7 1.7 22.1 4.8 34.9 6.6 11.3 1.7 47.4 1.6 57.5 0 13.1 -2.2 25.2 -5.9 45.6 -14 11 -4.4 22.6 -9.1 25.8 -10.6 3.9 -1.7 7.2 -2.5 9.8 -2.3 l4 0.3 2.2 7 c2.9 8.9 7.3 17.5 17.8 35.1 25.8 42.6 30.8 48.4 53.8 61.1 11.9 6.5 13.1 7 10.4 4.1 -11 -11.8 -34.5 -48 -40.1 -62 -11 -27.2 -10.7 -68.1 0.8 -103.1 6.6 -20.2 23.8 -52.5 34 -63.7 5.8 -6.5 5.8 -7 -0.1 -1 -11.4 11.4 -26.6 36.3 -35 57.5 -9 22.4 -14 46.7 -13.9 66.8 0 7.4 0.7 16.5 1.5 20.7 0.8 4.1 1.7 9.9 2.1 12.8 l0.5 5.2 -3.4 0 c-3.2 0 -3.7 -0.5 -8.1 -7.8 -7.1 -12 -11.3 -21.7 -14 -32.2 -4.6 -17.8 -5.2 -23.2 -5.2 -49.5 0.1 -22.2 0.3 -26.2 2.3 -35.5 4.6 -20.7 13.7 -41 25.6 -56.7 15.5 -20.4 17.1 -21.6 33.2 -25 11.3 -2.4 15.1 -2.8 31.1 -2.8 l18.3 0 -8.3 -2.8 c-14.2 -4.8 -22.4 -6 -37.5 -5.5 -9.4 0.3 -14.5 0.8 -16.4 1.8 -4.3 2.4 -19.9 20.8 -29.7 34.9 l-5.1 7.4 -12.2 5.2 c-6.8 2.9 -16.3 7.1 -21.2 9.4 -4.9 2.2 -10.4 4.1 -12.2 4.1 -3.2 0 -3.4 -0.2 -3.4 -3.5 0 -1.9 0.4 -3.5 0.9 -3.5 1.2 0 31.1 -17.3 38.2 -22.1 12.4 -8.4 16.1 -17.5 10.1 -24.9 l-1.8 -2.3 -7 2.3 c-9.9 3.3 -26 9.4 -32.4 12.4 -3 1.4 -7.1 2.6 -9.1 2.6 -3.4 0 -3.5 -0.1 -4.8 -5.3 -0.7 -2.8 -1.5 -6.9 -1.8 -8.9 -0.5 -3.6 -0.5 -3.6 -7.6 -5.2 -10.8 -2.3 -20 -3.5 -32.4 -4.2 -9.4 -0.6 -11.3 -1 -11.3 -2.3 -0.1 -1.8 -2.3 -5.1 -3.5 -5.1 -0.4 0 -4.1 2 -8.1 4.5 -4.8 2.9 -10.3 5.2 -15.7 6.5 -43.6 11.1 -66.3 22.8 -90.8 47 -27.4 27 -38.8 50.7 -38.9 80.5 0 9.9 1.7 16.5 6.5 25.1 6.5 11.6 17.6 21.4 33.1 29.2 5.6 2.8 6.2 3.4 6.7 7 0.4 2.1 2.1 8.3 3.7 13.8 1.7 5.4 4 14.2 5.1 19.4 1.8 8.9 5.3 20.4 23.6 76.7 6.6 20.5 7.5 24 7.6 31.5 0.2 8 0 8.6 -4.6 18.2 -2.6 5.5 -6.8 12.7 -9.2 16 -4.9 7 -20.1 22 -32.5 32.3 -14.4 11.9 -18 17.1 -18 25.8 0.1 5 4.2 11.7 8.7 14.3 9.7 5.4 52.1 24 66.8 29.3 13.2 4.8 16.5 6.4 18.8 9.1 3.6 4.4 13.7 20.2 13.7 21.6 0 3.9 35.6 78.5 39.7 83.3 0.8 0.9 2.4 3.6 3.6 6 4.9 9.5 12.4 11 30.8 6 14.4 -3.8 45.9 -14.4 74.6 -25 16.5 -6.1 23.2 -8.1 26 -7.9 3.7 0.3 3.8 0.4 4.6 5.3 2.9 17.9 6.2 34.6 9.1 46.9 3.9 15.9 6.4 28.4 10.6 53.1 1.6 9.4 5 27.1 7.6 39.5 4.2 20.1 4.8 24.5 5.4 41 0.5 13.3 1.2 19.6 2.3 22.3 1.9 4.4 2.9 4.6 4.6 1z m111.8 -34.3 c1.3 -5.2 2.7 -13.9 3 -19.2 l0.6 -9.8 2.9 0 c3.7 0 9.1 -2.8 14.9 -7.7 30.4 -25.5 59.1 -51.7 60.4 -54.9 2.6 -7 -9.1 -11.3 -31 -11.4 -12.6 0 -20.1 -1.4 -24.1 -4.5 -3.1 -2.4 -3.4 -3 -3.4 -8.1 0 -5.5 0.1 -5.7 6.8 -12.6 3.7 -3.9 14.4 -14 23.7 -22.6 30.8 -28.2 46 -44 44.1 -45.9 -0.8 -0.8 -10.3 0.9 -31.1 5.8 -21.7 5.1 -26.6 5.9 -40 6.7 l-10.9 0.7 -4.9 6 c-7.3 9 -15.7 21.2 -17.4 25.4 -3.4 8 -0.5 22.7 5.1 25.2 2.1 1 3.7 0.8 8.9 -1 3.5 -1.1 7.6 -2.1 9.1 -2.1 2.5 0 2.7 0.3 2.4 3.4 -0.3 2.9 -2.8 6 -17.1 20.5 -15.2 15.5 -17.1 17.1 -20.2 17.1 -3.3 0 -3.4 -0.2 -4.2 -4.7 -0.4 -2.7 -0.8 -10.2 -0.7 -16.8 0 -12.6 0.8 -17 7.4 -45.5 2.2 -9.1 4.6 -21.4 5.5 -27.4 2.6 -17.7 0.4 -27.9 -12 -54.7 -11.7 -25.3 -20.3 -45.5 -22.7 -53 -1.9 -6.3 -2.3 -9.4 -2.2 -20.8 l0.1 -13.3 -1.9 3.6 c-1 2 -2.6 6.4 -3.4 9.8 -3.8 14.6 0.5 30.3 17.7 65.6 15.9 32.9 16.3 34.2 16.3 53.7 0 15.5 -0.2 16.6 -5.1 39 -7.2 31.9 -7.6 34.6 -7.6 46.5 -0.1 7.3 0.5 12.3 1.7 16.5 3.3 10.7 3.2 14.5 -0.4 21.9 -2.8 5.6 -3.2 7.3 -2.6 11.3 0.3 2.5 1.4 6 2.4 7.7 2 3.3 1.7 3.3 12.3 2 l5.6 -0.6 2.5 6.3 c4.6 11.5 5.3 16.4 5.2 33.9 0 9.1 -0.4 18.3 -0.7 20.5 l-0.6 4 1.5 -3.5 c0.9 -1.9 2.7 -7.8 4.1 -13z m-213.8 -266.8 c6.1 -6 6.4 -6.4 1.6 -2.2 -3.3 2.8 -9.2 7.3 -13.2 9.8 -11 7.3 -11.3 7.5 -3.4 3.5 4.8 -2.5 10 -6.4 15 -11.1z m24.7 -71.5 c1.6 -1.9 4.9 -5.9 7.4 -9 4.2 -5.2 4.8 -5.6 8.8 -5.7 3.7 0 4.2 0.3 4.2 2.3 0 2.5 3.3 10.2 4.7 11 0.6 0.4 4.2 -3.2 8.2 -7.8 6.4 -7.5 7.6 -8.5 10.5 -8.5 2.8 0 3.6 0.5 4.6 3 0.7 1.6 1.9 3.5 2.7 4.2 2.1 1.7 4.9 -1.9 5.8 -7.5 0.3 -2.3 2.5 -8 4.7 -12.6 4.9 -9.9 5.4 -15.2 2 -21.8 -2.5 -4.8 -3.9 -6 -5.5 -4.4 -0.6 0.6 -2.6 1.1 -4.4 1.1 -2.9 0 -3.3 -0.4 -4.4 -3.8 -0.6 -2.1 -1.9 -4.9 -2.9 -6.2 l-1.8 -2.4 -6 4.7 c-4.2 3.3 -7 4.7 -9.1 4.7 -2.8 0 -3.1 -0.3 -3.1 -3 0 -3.6 -3.7 -12 -5.7 -12.7 -0.8 -0.3 -1.9 -0.1 -2.6 0.6 -1.6 1.6 -8.7 1.4 -8.7 -0.3 0 -0.7 -0.9 -2.5 -2.1 -4 l-2 -2.6 -6.2 5 c-4.5 3.6 -7 5 -9.3 5 -2.9 0 -3.4 -0.4 -5 -5 -1 -2.8 -2.6 -5.8 -3.6 -6.7 -1.7 -1.5 -2.3 -1.2 -9.6 6.3 -4.2 4.4 -13.3 14 -20.2 21.4 l-12.5 13.4 0 5.1 c0.1 3.3 0.8 6.3 2.2 8.6 1.1 1.9 2.3 5.6 2.7 8.4 0.3 2.7 1.6 6.9 2.7 9.3 2 4 2.3 4.2 3.8 2.8 1 -0.9 3.1 -1.6 4.8 -1.6 2.7 0 3.2 0.4 3.7 3.4 0.4 1.9 1.5 4.5 2.6 5.8 l2 2.3 2.1 -2.5 c1.1 -1.4 6.1 -7.3 11.2 -13.2 8.6 -10 9.4 -10.7 13 -10.7 3.4 -0.1 3.7 0.1 3.7 2.7 0 1.5 -0.7 4.9 -1.5 7.7 -0.9 2.7 -1.3 6.1 -1 7.5 0.7 3.2 4.2 9 5.4 9 0.5 0 2.2 -1.5 3.7 -3.3z m-91.1 -51.7 c1.6 -0.7 1.1 -0.9 -2 -0.9 -2.9 -0.1 -3.6 0.2 -2.5 0.9 1.7 1.1 1.9 1.1 4.5 0z m10.8 -14.7 c-3.2 -4.8 -9.5 -6.5 -14.3 -3.8 -2.4 1.4 -2.2 1.4 3.9 1.5 7 0 10.1 1.7 10.1 5.4 0 1.6 0.2 1.8 0.9 0.7 0.6 -0.9 0.4 -2.3 -0.6 -3.8z"/>
  <path d="M684.2 746.3 c0.3 -3.6 0.5 -3.8 4.1 -4.1 l3.8 -0.3 -0.3 3.8 c-0.3 3.6 -0.5 3.8 -4.1 4.1 l-3.8 0.3 0.3 -3.8z"/>
  <path d="M891 616.7 c0 -4.3 -3.9 -11.9 -6.7 -13.2 -2.8 -1.2 -3 -5.4 -0.7 -12.6 1.4 -4.3 1.5 -5.9 0.5 -10.3 -0.7 -3.2 -2.2 -6.2 -3.6 -7.6 -2.4 -2.3 -2.6 -2.3 -5.8 -0.7 -1.7 1 -6.3 3.7 -10.2 6.2 -4.5 2.9 -8.1 4.5 -10.2 4.5 -3.1 0 -3.3 -0.2 -3.3 -3.3 0 -2.6 1 -4.2 4.6 -7.7 5.2 -5 12.5 -15.7 14.2 -20.9 0.7 -1.9 1.2 -4.9 1.2 -6.7 0 -3.2 0.2 -3.4 3.3 -3.4 2.8 0 4.1 0.9 9 6.8 3.1 3.7 8 11.2 10.8 16.8 6.5 13.1 7.8 22.3 5.9 42.2 l-1.2 13.2 -3.9 0 c-3.7 0 -3.9 -0.1 -3.9 -3.3z"/>
  <path d="M731.5 586 c-4.6 -1.8 -6.9 -5.8 -7.3 -12.3 l-0.4 -6.2 6.6 -8.9 c3.7 -4.9 11.7 -14.3 17.9 -21 6.1 -6.7 12 -13.1 13.1 -14.4 l2 -2.2 -3.5 0.6 c-1.9 0.3 -15.9 3.3 -31.2 6.5 -15.3 3.3 -29.8 5.9 -32.3 5.9 -4.3 0 -4.4 -0.1 -4.4 -3.3 0 -3.1 0.6 -3.7 8.3 -8.2 23.9 -14.3 45.2 -21.8 65.2 -23 11.2 -0.7 17.8 1.3 21.1 6.2 l2.1 3.2 6 -6.2 c3.3 -3.4 7.7 -8.3 9.8 -10.9 5.7 -7.2 7.8 -6.8 19 3.5 5 4.6 15.6 13.6 23.8 20.1 13.4 10.7 14.7 12.1 14.7 14.9 0 2.9 -0.9 3.7 -9.6 9.5 -6.8 4.4 -10.5 6.2 -12.9 6.2 -3 0 -3.3 -0.3 -3.9 -3.8 -0.9 -6.2 -3.9 -9.2 -9 -9.2 l-4.3 0 -0.6 -4.8 c-0.7 -6 -3.6 -12.2 -5.6 -12.2 -0.8 0 -8.5 4.1 -17.1 9.2 -14.4 8.6 -16.5 10.3 -30.2 23.7 -8.2 7.9 -14.6 14.6 -14.5 14.8 0.2 0.1 8.2 -1.7 17.8 -4.1 17.9 -4.5 32 -7 46.6 -8.2 6.8 -0.6 8.7 -0.4 10.8 1 2.2 1.5 2.5 2.3 2.5 8.1 l0 6.5 -3.5 0 c-2.9 0 -3.6 -0.4 -4.1 -2.5 -0.3 -1.4 -1.2 -2.5 -1.8 -2.5 -2.2 0 -17.8 5.6 -38.1 13.7 -11 4.4 -23.3 8.8 -27.2 9.7 -7.5 1.7 -22.4 2.1 -25.8 0.6z"/>
  <path d="M755 484.8 c0.1 -2.8 1.1 -4.2 7.4 -9.5 12 -10.1 16.1 -21 12.1 -32.4 -0.9 -2.4 -2.3 -5.1 -3.2 -6.1 -1.5 -1.7 -1.9 -1.7 -8.2 1.8 -3.6 2 -13 8.1 -20.9 13.5 -11.3 7.8 -15.1 9.9 -17.8 9.9 -3.1 0 -3.4 -0.2 -3.4 -3 0 -2.2 1.5 -4.8 5.4 -9.4 8.3 -9.8 10.9 -14.8 10.9 -21.1 0 -6.6 -2.9 -12.9 -6.1 -13.3 -2.1 -0.3 -21.5 11 -31.1 18.2 -2.1 1.6 -4.8 2.6 -6.8 2.6 -3 0 -3.3 -0.3 -3.3 -3.1 0 -2.7 1.9 -5.1 11.8 -15.4 11.2 -11.5 24.9 -27.1 32 -36.2 1.8 -2.2 4.7 -7.2 6.4 -11 3 -6.2 3.3 -7.7 3.3 -16.5 0 -8.3 -0.3 -10 -2.1 -12.5 -2 -2.6 -2.5 -2.8 -8.3 -2.5 l-6.1 0.4 0 -6.4 c0 -3.6 -0.7 -8.7 -1.5 -11.4 -2.4 -8 -2.1 -10.1 2.3 -12.3 5.4 -2.8 7.7 -7.2 7.7 -15.1 0 -5.2 -0.5 -7.1 -2.3 -9.8 -2.8 -3.9 -4 -3.7 -12.4 1.9 -4 2.7 -6.8 3.9 -9.2 3.9 -3.3 0 -3.6 -0.2 -3.6 -2.9 0 -1.6 0.7 -4.8 1.5 -7.1 2.1 -5.9 1.9 -11.9 -0.6 -18.5 -2.6 -7 -4.2 -7.9 -9.8 -5.4 -2.4 1 -5.6 1.9 -7.2 1.9 -2.6 0 -2.9 -0.3 -2.9 -3.4 0 -1.8 0.8 -4.4 1.9 -5.7 4.5 -5.8 9.1 -19.4 9.1 -26.9 0 -4.9 -3.4 -11.8 -6.4 -13.2 -1.4 -0.6 -3.5 -3.1 -4.7 -5.5 -3.3 -6.9 -4.1 -6.9 -16.4 -0.2 -12.6 6.9 -15.8 7.4 -17.4 2.8 -1.9 -5.6 -1.4 -10.3 1.5 -13 1.4 -1.3 3.5 -4.1 4.5 -6.1 4.5 -8.7 0.4 -22.8 -6.7 -22.8 -2.3 0 -2.4 -0.3 -2.4 -7 l0 -7 3.3 0 c1.9 0 6.2 1.2 9.8 2.6 25.3 10.3 42.6 24.4 54.6 44.6 10 16.9 18.3 36.5 21.2 50.3 1.5 7 4.9 28.8 5.6 36 3.5 33.1 8.4 63.1 13.6 84 6.2 24.6 22.8 69.1 32.8 88.1 1.7 3.3 3.1 7.3 3.1 9 0 2.9 -0.7 3.6 -9.7 8.9 -5.4 3.2 -12.8 7.7 -16.5 10.1 -5.1 3.4 -7.7 4.4 -10.8 4.4 -3.9 0 -4 -0.1 -4 -3.2z"/>
  <path d="M619.5 452 c-3.8 -1.5 -4.8 -3.7 -4.3 -9.8 0.4 -5.4 1 -6.8 8.3 -17.3 18 -26.1 21.5 -31.4 20.7 -31.7 -0.5 -0.1 -9 1.8 -18.8 4.4 -14.4 3.8 -19.6 4.7 -26.7 4.8 l-8.8 0.1 0.6 2.5 c0.9 3.8 3.8 7.3 7.3 9 2.6 1.2 3.2 2.1 3.2 4.7 0 2.5 -1 4 -5.1 7.7 -7.8 7 -9.6 6.6 -20.3 -3.9 -4.7 -4.7 -8.8 -8.5 -9.1 -8.5 -0.4 0 -2.2 -1.1 -4.1 -2.4 -1.9 -1.2 -7.5 -3.6 -12.4 -5.2 -8.7 -2.8 -9 -3 -9 -5.9 0 -2.5 1.1 -3.8 6.8 -8 3.7 -2.7 8.2 -6.2 10 -7.7 2.2 -1.9 4.4 -2.8 6.9 -2.8 l3.6 0 -0.6 6.8 c-0.6 7.8 0.7 14.3 3.5 16.9 1.9 1.7 2.1 1.6 6.3 -3.2 2.5 -2.8 4.4 -5.3 4.5 -5.7 0 -0.5 0.7 -0.8 1.5 -0.8 1 0 1.5 -1 1.5 -3.1 0 -1.7 0.5 -3.9 1 -4.9 1.2 -2.3 44.7 -32.8 62 -43.6 23.3 -14.4 62.8 -32.4 71.2 -32.4 2.4 0 2.8 0.4 2.8 3 0 3.3 -1.9 5.3 -18 18.7 -13.1 11 -31.9 25 -43.1 32.2 l-9.3 6.1 5.3 0 c4.5 0 5.7 0.4 8.3 3 3 3 3 3.1 2.6 12.9 -0.3 9.6 -0.4 10 -4.3 15.7 -2.2 3.3 -11.4 13.5 -20.5 22.7 -9.1 9.2 -16.6 17.2 -16.8 17.7 -0.2 0.6 0.3 1.3 1.2 1.6 1 0.4 1.6 1.8 1.6 4 0 3.3 -0.1 3.4 -3.7 3.3 -2.1 0 -4.7 -0.4 -5.8 -0.9z"/>
  <path d="M226 314.3 c-22.1 -2.2 -49.4 -8.9 -63.7 -15.8 -15.6 -7.4 -24.3 -14 -24.3 -18.2 0 -1.8 -0.6 -2.3 -2.4 -2.3 -1.8 0 -3 -1.3 -5.7 -6.2 l-3.4 -6.3 0.1 -19 c0 -16 0.4 -19.9 2 -25 1.9 -5.8 2.1 -6 5.6 -6.3 4 -0.3 4.1 -0.1 5.2 7.3 0.4 2.2 1.4 5.7 2.3 7.8 l1.7 3.8 7.3 -0.6 7.3 -0.7 0 3.3 c0 3 -0.9 4.1 -6.5 8.7 -6.8 5.6 -11.9 12.1 -13.1 16.6 -0.3 1.5 0 5.3 0.7 8.5 l1.3 5.9 4 -1.2 c2.3 -0.7 8.3 -4 13.5 -7.4 6.8 -4.5 10.4 -6.2 12.8 -6.2 2.9 0 3.3 0.3 3.3 2.5 0 1.4 -0.9 5.3 -2 8.6 -1.8 5.2 -1.9 6.7 -0.9 9.8 2.9 9 7.7 9.2 23.5 1 9.4 -4.8 10.3 -5.5 10.9 -8.6 1.2 -6.8 22.4 -36.6 50.6 -71.3 17.1 -21.1 23.2 -29 22.7 -29.5 -0.2 -0.2 -11.1 6.8 -24.3 15.6 -13.2 8.8 -31.4 20.5 -40.5 25.9 -9.1 5.4 -18.3 11.2 -20.4 12.9 -2.6 2.1 -5 3.1 -7.2 3.1 -3.3 0 -3.4 -0.2 -3.4 -3.8 0 -6.9 9.2 -18 27.8 -33.5 24.6 -20.5 62.2 -39.6 81.2 -41.4 7 -0.7 8 0.4 8.7 9.1 1 11.8 -4.3 19.9 -37.2 57.6 -19.1 21.8 -28 32.4 -34 40.3 -2.7 3.7 -2.3 3.5 10.1 -4.4 14.6 -9.2 36.2 -20 50.6 -25.3 7.7 -2.9 11.2 -3.6 16.7 -3.6 7.8 0 9.1 1 9.1 6.9 0 2.9 -0.2 3.1 -3.9 3.1 -2.2 0 -4.1 -0.5 -4.4 -1.2 -1 -2.9 -25.8 11 -60.1 33.7 -24.3 16 -23.2 15.4 -30.3 16.3 l-5.8 0.7 -0.6 4 c-0.8 4.6 0.9 11.4 3.2 12.8 2.9 1.8 10.6 -1.2 24.1 -9.5 14.6 -8.8 18.8 -9.9 18.8 -4.8 0 1.6 -0.5 5 -1.2 7.5 -1.1 3.9 -1 5.3 0.5 9.4 0.9 2.7 1.7 6 1.7 7.5 l0 2.6 -14.2 -0.2 c-7.9 0 -15.9 -0.3 -17.8 -0.5z"/>
  <path d="M269 311.9 c0 -3.3 0.3 -3.5 8.8 -7.6 4.9 -2.3 11.5 -5.7 14.8 -7.7 3.9 -2.4 7.1 -3.6 9.5 -3.6 l3.7 0 0.7 7.6 c0.4 4.2 0.3 7.9 -0.2 8.3 -1.5 1.4 -20.6 5.1 -29.1 5.8 l-8.2 0.6 0 -3.4z"/>
  <path d="M352 269 c0 -3.9 0.1 -4 3.5 -4 3.4 0 3.5 0.1 3.5 4 0 3.9 -0.1 4 -3.5 4 -3.4 0 -3.5 -0.1 -3.5 -4z"/>
  <path d="M350.1 249.7 c-0.7 -1.3 -1.1 -3.7 -0.9 -5.3 0.3 -2.6 0.7 -2.9 4.6 -3.2 l4.2 -0.3 0 5.5 0 5.6 -3.3 0 c-2.5 0 -3.7 -0.6 -4.6 -2.3z"/>
  <path d="M352 207.9 c0 -4 2.3 -5.8 7.3 -5.9 3.6 0 3.7 0.1 3.7 3.9 0 4.2 -1.3 5.1 -7.7 5.1 -3 0 -3.3 -0.3 -3.3 -3.1z"/>
  <path d="M164 173.6 c0 -4.2 4.1 -8.2 17.9 -17.1 12.8 -8.3 17.3 -10.5 21.6 -10.5 3.3 0 3.5 0.2 3.5 3.3 -0.1 3 -0.9 3.8 -18.5 15.5 -20.7 13.7 -24.5 15 -24.5 8.8z"/>
  <path d="M216 173.8 c0 -2.4 0.7 -3.7 2.4 -4.8 17.8 -11 47.5 -32.8 51.5 -37.7 l3.2 -4 16.2 -1.1 c8.9 -0.7 18.6 -1.5 21.5 -1.8 l5.2 -0.7 0 3.5 c0 3.3 -0.2 3.5 -7.2 6.2 -10.5 4.1 -48.4 22.8 -68.7 34 -19.9 10.9 -24.1 12 -24.1 6.4z"/>
  <path d="M572 802.5 c0 -3.3 0.2 -3.5 3.5 -3.5 3.3 0 3.5 0.2 3.5 3.5 0 3.3 -0.2 3.5 -3.5 3.5 -3.3 0 -3.5 -0.2 -3.5 -3.5z"/>
 </g>
 <g fill="#e2743d">
  <path d="M859.7 938 c-3.2 -3.8 -5.1 -12.5 -4.2 -19.2 l0.7 -5.1 -2.8 2.1 c-1.6 1.1 -7.2 5.7 -12.4 10.3 -19.9 17.3 -22.9 17.9 -27 5.4 -1.7 -5.1 -1.5 -14.4 0.4 -18.9 0.8 -2 1.3 -3.6 1.1 -3.6 -0.3 0 -5.4 3.3 -11.4 7.4 -6 4.1 -12.7 8 -14.9 8.5 -10.8 3 -17.2 -3.9 -17.2 -18.7 0 -4.9 0.6 -7.2 3.5 -12.9 5.6 -10.7 22.1 -32.1 38 -49.1 5.2 -5.6 8.1 -9.7 5.4 -7.6 -8.8 6.7 -17.7 13.9 -23.9 19.3 -4.1 3.6 -8.8 7.8 -10.5 9.2 -11.1 9.7 -34 30.4 -45.3 40.9 -7.3 6.9 -14.6 13.5 -16.2 14.8 -8.4 6.9 -17 -1.2 -17.1 -16.2 -0.2 -10.6 1.8 -13.6 25.8 -40 7.6 -8.3 14 -15.3 14.3 -15.6 0.3 -0.3 5.5 -5.7 11.5 -12 23.1 -24.1 33.7 -35 34 -35 0.3 0 0.2 0.7 -0.1 1.5 -2 5 5.5 13.6 14.7 16.9 13 4.7 18.7 10 21.9 20.2 2.2 7.3 2.5 14.9 1 24 -0.9 5.1 -7.4 30.1 -10.1 38.9 l-0.9 3 2 -2.5 c3.7 -4.7 19.1 -36.5 20.5 -42.5 2.2 -8.9 1.9 -21.1 -0.7 -29.2 -3 -9.3 -11.2 -17.6 -21.3 -21.7 -11.6 -4.8 -13.5 -5.8 -13.5 -7.1 0 -1.4 9.4 -13.6 22 -28.5 16.3 -19.4 18.6 -31.7 7.8 -42 -1.6 -1.6 -3.9 -3.2 -5 -3.6 -1.7 -0.5 -1.3 -1 2.8 -3.3 11.1 -6 22.3 -10.3 24.9 -9.7 4.2 1.1 7.7 10 8.3 20.7 0.6 11 -1.9 19 -9.2 29.8 -2.9 4.2 -5.5 8.2 -6 8.9 -0.4 0.7 2.3 -0.7 6.1 -3.1 7.8 -5 15.9 -8.9 22 -10.7 4.9 -1.5 6.1 -0.9 9.9 5.2 4.8 7.5 4.8 22.2 0 31.6 -2.6 5.1 -18.5 24.3 -29.4 35.5 -3.7 3.7 -6.3 6.7 -5.9 6.7 0.4 0 5.4 -3.1 11 -6.9 12.4 -8.3 26.6 -16.1 29.4 -16.1 4.2 0 9.5 9.1 10.8 18.6 0.6 4.6 0.9 5.1 3.8 6 5.1 1.5 7.7 7.7 7.7 18.5 0 15.8 -2.8 24.3 -11.7 35.9 -4.9 6.4 -5 6.8 -5.5 14.6 -0.7 12.5 -1.6 13.5 -18.7 22.2 -7.9 3.9 -15.2 7.2 -16.2 7.2 -0.9 0 -2.9 -1.3 -4.2 -3z"/>
  <path d="M634 908 c-5.2 -7.3 -4.9 -20.5 0.8 -30.2 5.3 -9.2 68.2 -73.8 113.4 -116.5 4.8 -4.6 8.5 -8.3 8.3 -8.3 -0.8 0 -24.6 19.2 -38 30.6 -6.6 5.6 -26.4 22.5 -44 37.6 -51 43.5 -56 47.2 -66.5 48.5 -6.3 0.7 -8.4 -0.9 -10.5 -8 -2.1 -6.9 -1.9 -14.3 0.5 -19.6 3.7 -8.1 16.8 -23.4 44.5 -51.9 15.4 -15.9 18.2 -17.9 13.8 -10.1 -8.9 15.9 -19.7 36.9 -19.1 37.4 0.2 0.2 3.9 -4 8.3 -9.2 24.4 -29 28.4 -35.2 29.3 -44.6 0.2 -2.9 1.2 -6.1 2.1 -7.2 1.5 -1.8 1.5 -1.9 -0.2 -0.6 -2 1.6 -1.9 1.6 -3.7 -2.7 -3.9 -9.8 -17.9 -14 -47 -14.1 l-10.4 -0.1 3.9 -4.1 c2.2 -2.2 11.7 -10.7 21 -18.7 32.3 -27.8 42.1 -37.7 46.7 -46.9 4.4 -9 4.5 -15.9 0.4 -20.2 -1.6 -1.7 -4.5 -3.4 -6.4 -3.7 -4.6 -0.9 -26.1 1.9 -47.2 6.2 -9.6 1.9 -20.4 3.8 -23.9 4.1 l-6.4 0.6 1.8 -2.4 c1 -1.3 5.6 -5.5 10.3 -9.4 18.8 -15.6 24.2 -20.3 35.2 -30.7 6.7 -6.3 13.6 -11.9 16.5 -13.3 l5 -2.4 -5.5 -0.1 -5.5 -0.1 14 -13.6 14 -13.6 -9 6.9 c-11.6 8.8 -24.3 18.7 -31.4 24.5 -3.1 2.5 -11.4 8.4 -18.6 13.2 -7.1 4.7 -17.4 12.1 -22.9 16.4 -12.8 10.2 -15.7 11.9 -23.8 13.9 -6 1.4 -7.1 1.5 -9.1 0.1 -3.3 -2.1 -5.9 -10.5 -5.9 -19 0 -8.3 1.9 -13.6 6.5 -18.4 3 -3.2 3 -3.3 0.8 -3.3 -3.6 0 -8.7 -6 -10.1 -12.1 -2.2 -9.1 0.2 -21 5 -25.4 1.2 -1.1 3 -3.1 4 -4.5 l1.8 -2.5 -6.5 0 c-5.8 0 -6.8 -0.3 -8.9 -2.8 -3.1 -3.7 -4.7 -9.9 -4.2 -17.2 0.7 -11.2 5.4 -18.1 29.9 -43.8 l15.1 -15.7 -1.2 -3.6 c-0.7 -2 -1 -6.6 -0.8 -10.3 l0.3 -6.8 -4.7 3.1 c-2.6 1.7 -4.8 3.7 -4.8 4.4 0 0.6 -0.7 1.2 -1.6 1.2 -1.5 0 -1.6 -0.7 -0.8 -5.7 1.4 -9.4 0.8 -17.2 -2 -24.9 -1.4 -3.9 -2.6 -8.6 -2.6 -10.5 0 -3 0.1 -3.1 1.4 -1.4 1.3 1.8 1.4 1.8 4.2 -0.2 1.6 -1.2 4.2 -3.5 5.8 -5.2 2.4 -2.5 2.7 -3.1 1.2 -3.1 -1 0 -3.3 -1.5 -5.1 -3.3 -2.5 -2.5 -3.7 -4.9 -4.6 -9.4 l-1.2 -6 -5.4 6.3 c-3.4 4 -6.2 6.4 -7.5 6.4 -1.7 0 -1.8 0.2 -0.8 1.5 1.1 1.3 0.8 1.5 -1.4 1.5 -1.7 0 -3.6 -1 -5.1 -2.7 -3.5 -4 -3.2 -6 0.4 -3.4 3.8 2.8 5 2.7 2.3 -0.1 -3 -3.3 -4.6 -10.8 -3.8 -18 0.6 -5.8 0.5 -6 -1.3 -4.7 -1 0.8 -5.7 4.3 -10.4 7.9 l-8.5 6.5 2.6 1.1 2.7 1.1 -2.5 0.6 c-5.3 1.2 -30.2 1.8 -29.5 0.8 0.3 -0.6 1.2 -1.1 2 -1.1 1.1 0 1.2 -0.7 0.4 -3.2 -1.5 -5.5 -1 -15.9 1 -20.3 1.1 -2.6 8.6 -10.6 21.2 -23 10.7 -10.4 18.5 -18.3 17.4 -17.5 -5.3 3.9 -41.6 34.5 -55.5 46.9 -15.1 13.4 -26.2 19.4 -32.1 17.6 -2.7 -0.9 -6 -7.8 -6.6 -14.1 -1.1 -10.3 1.8 -16.5 14.8 -31.9 14.4 -17 14 -16.7 19 -16.9 6.1 -0.2 17.9 -6.1 56.6 -27.9 9.4 -5.4 20.6 -11.3 24.7 -13.3 12.5 -5.9 10.1 -5.7 -11.9 1.3 -18.6 6 -39.4 14.2 -53.7 21.4 -6.5 3.3 -11.8 5.6 -11.8 5.3 0 -1.1 14.6 -26.6 19.7 -34.4 11.6 -17.6 31.7 -39 65.8 -70.1 9.3 -8.4 19.2 -17.4 21.9 -19.9 7.9 -7.2 13.6 -15.6 13.6 -19.9 -0.1 -7.7 -6 -10.8 -16.4 -8.4 -13.5 3.1 -37.7 14.5 -56.2 26.6 -20.8 13.5 -33.1 20.7 -40.9 23.9 -3 1.3 -3 1.3 2.1 1.6 14.4 0.9 37.4 -8.7 69.9 -29.2 17.7 -11.1 31.5 -17.6 31.5 -14.7 0 0.6 -10.7 11.8 -23.8 24.8 -41.8 41.8 -62.4 66.1 -81.7 96.8 -4.9 7.7 -11 17.2 -13.7 21.2 -5.2 7.8 -5.5 8.9 -3.4 11.8 1.3 1.7 0.5 2.5 -9.3 9.6 -12 8.7 -23.5 14.9 -29.1 15.6 -3.1 0.4 -4.3 0 -7.3 -2.6 -4.3 -3.9 -5.8 -8 -5.9 -16.5 0 -7.5 2.3 -15.4 5.9 -19.7 2.8 -3.3 2.6 -4.6 -0.5 -3 -1.2 0.6 -3.9 1.1 -6.2 1.1 -7.7 0 -11.7 -7.5 -10.7 -20 0.6 -8.1 3.2 -14 9.2 -21 l4.8 -5.5 -3.1 -0.5 c-7.1 -1.2 -11.3 -8.4 -11.3 -19.8 -0.1 -10.1 1.3 -12.1 21.6 -30.6 10.2 -9.3 18.4 -17.1 18.2 -17.3 -0.2 -0.2 -2.3 0.4 -4.7 1.2 -5.7 2 -8.3 1.9 -10.4 -0.4 -5.9 -6.5 -5.9 -23.6 -0.2 -30 0.9 -1 6.9 -3.7 13.2 -6.1 6.4 -2.4 22.8 -9.8 36.5 -16.6 13.9 -6.9 26.2 -12.4 27.8 -12.4 5.2 0 9.7 7.5 10.9 18.1 l0.7 5.8 11.5 -8 c6.3 -4.4 13.3 -9.3 15.4 -10.9 5.1 -3.9 9.3 -3.9 12.8 -0.3 3.8 4 4.9 7.7 4.9 16 0 5.5 0.3 7.1 1.2 6.6 0.7 -0.5 4.8 -3.2 9.1 -6.1 8.8 -5.8 12.1 -7.1 14.5 -5.3 0.9 0.6 2.1 1.4 2.8 1.7 0.7 0.3 6.3 -2.5 12.5 -6.3 8.6 -5.2 10.8 -6.9 9.1 -7.1 -1.3 -0.2 -2.3 -0.8 -2.3 -1.3 0 -1.7 9.4 -0.9 17 1.4 6.1 1.9 7.6 2.7 7.8 4.5 0.3 1.6 -0.1 2 -1.2 1.6 -1.3 -0.5 -1.6 0.2 -1.6 3.6 0 2.2 0.4 3.9 0.9 3.5 2 -1.2 6.2 2 8.2 6.2 1.6 3.2 2.1 6.2 2.1 11.7 -0.1 8.2 -1.5 12.1 -6.4 17.3 -2.8 2.9 -2.9 3.4 -1.9 6.6 l1.2 3.5 9.1 -5 c13.8 -7.6 15.3 -8.1 18.7 -6.3 1.6 0.8 3.8 3.3 5 5.8 1.2 2.4 3.3 4.9 4.7 5.6 9.8 4.4 7.9 31.4 -3.2 46.9 l-1.7 2.2 4.4 -2 c8.8 -3.9 12.8 -2.5 15.9 5.7 2.6 6.8 2.8 17.8 0.5 24.2 -0.8 2.2 -1.2 4.1 -0.9 4.1 0.3 0 3.1 -1.7 6.2 -3.8 11.1 -7.4 13.9 -7.8 17.9 -2.5 2.6 3.4 2.8 4.3 2.8 13.2 0 11.2 -1.6 15.1 -7.7 18.2 l-3.6 1.8 1.4 4.7 c0.8 2.6 1.4 7.6 1.4 11.1 0 3.4 0.2 6.3 0.5 6.3 0.2 0 2.3 -0.7 4.5 -1.6 4.1 -1.7 4.1 -1.7 7.1 1.2 4 3.9 5.2 9.1 4.7 21 -0.4 8.7 -0.9 11 -3.6 16.8 -1.8 3.8 -4.6 8.7 -6.4 10.9 -7 9 -20.7 24.6 -32.2 36.6 -6.7 6.9 -11 11.8 -9.6 10.8 13 -8.8 30.2 -19.2 33.2 -20.1 8.1 -2.2 12.1 3.4 12.2 16.9 0.1 7.1 -0.2 8.6 -2.8 12.9 -1.5 2.6 -5.3 7.7 -8.2 11.2 -3 3.5 -5.2 6.4 -5 6.4 0.3 0 7 -4.5 14.9 -10 15 -10.3 28.1 -18 30.8 -18 4.7 0 9 10 9 20.9 0 10.8 -3.7 18.1 -13.6 26.4 -4 3.4 -6.9 6.3 -6.5 6.5 0.5 0.2 3.9 -1.7 7.7 -4.1 3.7 -2.4 11.2 -7 16.5 -10.1 6.6 -4 9.5 -6.2 9.1 -7.2 -0.3 -1 0.2 -1.4 1.8 -1.4 1.8 0 3.2 1.4 5.8 5.7 1.9 3.2 5.9 8.5 8.8 12 4 4.7 5.3 7 5.3 9.4 0 2.6 -0.3 2.9 -1.4 2 -1.1 -0.9 -2.4 0.1 -6.4 5.1 -2.8 3.5 -8.4 9.6 -12.5 13.6 l-7.4 7.4 -0.7 -3.5 c-1.6 -8.8 -9.9 -12.6 -23.2 -10.7 -19.3 2.6 -37.4 9.5 -59.3 22.5 -4.6 2.8 -7.7 5.1 -6.9 5.3 0.8 0.1 12.9 -2.2 26.9 -5.2 26.8 -5.8 41.9 -8.6 45.7 -8.6 2.3 0 2.3 0 0.6 2.9 -0.9 1.6 -8.3 10 -16.2 18.7 -8 8.8 -17.2 19.5 -20.5 23.9 -5.1 7 -5.8 8.4 -5.3 11.5 0.3 1.9 1.8 4.7 3.5 6.4 2.5 2.5 4 3 9 3.4 8.9 0.6 19 -2 41.5 -11 23.1 -9.3 39 -14.8 42.3 -14.8 1.6 0 2.7 0.9 3.7 3.3 l1.4 3.2 0.1 -3.7 c0.1 -6 -2.5 -7.1 -13.5 -5.8 -16.8 2 -22 3.1 -46.2 9.1 -13.4 3.4 -24.6 5.8 -24.9 5.5 -0.9 -0.8 8.3 -10.9 22.9 -25.1 11.8 -11.6 14.9 -14 28.1 -21.8 17.9 -10.7 20.4 -11.8 23.3 -10.5 2.7 1.3 5.4 6.8 6.1 13 l0.6 4.8 3.7 -0.6 c3.2 -0.5 4 -0.2 6.3 2.6 1.5 1.7 3 4.9 3.3 7.1 0.4 2.1 0.8 3.9 0.9 3.9 0.2 0 4.6 -2.8 9.9 -6.3 7.4 -4.9 9.3 -6.6 8.4 -7.5 -0.9 -0.9 -0.4 -1.2 2.1 -1.2 2.7 0 4.7 1.2 10.2 6.1 5.7 5 6.9 6.6 6.9 9.1 0 2.6 -0.2 2.9 -1.5 1.8 -1.3 -1.1 -1.5 -0.7 -1.5 2.2 0 7.4 -5.5 17.4 -14.8 27.2 l-5.7 5.9 4 -2.3 c2.2 -1.3 5.9 -3.6 8.3 -5.2 10.1 -6.6 12.5 -7.1 17 -3.3 5 4.2 6.7 16 3.6 25.1 -0.8 2.5 -1.4 4.7 -1.2 4.7 4.8 2.4 8.8 8.8 8.8 14.4 0 4.9 2 4 2.1 -0.9 l0.2 -4.3 1 5.4 c0.8 4.4 0.6 8.6 -1.6 24 -1.5 10.2 -3 21.8 -3.4 25.6 -0.6 7.5 -3.3 13.8 -3.3 7.9 0 -3 -0.3 -2.8 -9.7 6.3 -5.4 5.2 -17.7 16.7 -27.3 25.6 -9.6 8.9 -19.5 18.1 -22 20.4 -3.9 3.7 -5.1 4.3 -9 4.3 -8.9 0 -45.7 7.3 -47.8 9.5 -1.2 1.1 6.5 1.9 30.1 3 18.3 0.9 21.1 1.3 22.4 3.2 3 4 0.7 8.5 -12.9 25.9 -5.3 6.9 -9.8 11.4 -13.6 14 -15.5 10.2 -60.3 45.6 -82.2 64.8 -6.9 6 -15.4 13.4 -18.9 16.5 -3.5 3.1 -13.4 11.8 -22 19.4 -16.7 14.8 -33.4 26.7 -37.5 26.7 -1.6 0 -3.2 -1 -4.6 -3z m-10.4 -460.1 c-1.6 -1.2 -2.6 -2.9 -2.4 -4 0.2 -1 8.2 -9.9 17.8 -19.6 9.7 -9.8 19.3 -20.4 21.5 -23.6 3.5 -5.1 4 -6.7 4.3 -12.7 0.4 -6.6 0.3 -7.1 -2.6 -10 -3.6 -3.6 -7.2 -3.8 -18.8 -1.4 -4.2 0.8 -8 1.4 -8.6 1.2 -0.6 -0.2 3 -2.7 7.9 -5.6 13 -7.5 23.2 -14.3 36.8 -24.5 12.8 -9.7 32.8 -26.1 35.9 -29.5 1.8 -2.1 1.8 -2.1 -1 -1.3 -8.4 2.5 -35.8 14.6 -47 20.9 -13.6 7.5 -30 18.1 -53.9 34.9 -26.1 18.3 -28 20.3 -23.7 24.6 3.5 3.5 11.5 2.8 34.2 -3.1 10.7 -2.7 21.4 -5.3 23.7 -5.7 3.9 -0.6 4.1 -0.5 3.6 1.5 -0.6 2.2 -10.4 17.2 -24.6 37.7 -10 14.4 -10.8 18.7 -4.2 21.3 3.5 1.5 3.9 1.1 1.1 -1.1z"/>
  <path d="M459.7 897.2 c-3.9 -4.3 -4.1 -6.5 -6.6 -68.2 -2.3 -56.2 -4.4 -70.2 -15.6 -105.3 -7.9 -24.8 -12.3 -37.6 -12.4 -35.9 -0.1 1.8 -3.1 1.5 -3.1 -0.3 0 -0.9 -0.6 -1.8 -1.3 -2.1 -0.7 -0.2 -9.8 2.8 -20.2 6.7 -26.3 9.8 -63.7 22.4 -77.4 26 -9.5 2.6 -12.8 3 -20.2 2.7 -10.5 -0.4 -13 -1.8 -17.1 -9.7 l-2.7 -5.2 8.7 0.7 c18 1.3 42.3 -5.6 82.6 -23.3 22.9 -10 40.9 -17.3 42.9 -17.3 1 0 1.7 -0.4 1.7 -0.8 0 -0.5 5.2 -3.2 11.5 -6.2 6.4 -2.9 11.4 -5.5 11.2 -5.6 -0.2 -0.2 -8 2.6 -17.3 6.2 -9.3 3.6 -21.8 8.4 -27.9 10.6 -6 2.2 -12.9 4.9 -15.2 5.9 -2.4 1.1 -5.1 1.9 -6.2 1.9 -1.1 0 -2.1 0.4 -2.3 0.8 -0.4 1 -5 2.7 -23.9 8.7 -21.2 6.8 -34.9 9.2 -34.9 6.1 0 -1.3 3.1 -2.5 8 -3.1 0.8 -0.1 2.8 -0.7 4.4 -1.4 1.6 -0.6 3.5 -1 4.2 -0.7 0.7 0.3 1.4 0.1 1.6 -0.3 0.2 -0.4 8.5 -3.5 18.6 -6.9 10 -3.3 18 -5.7 17.7 -5.2 -0.3 0.4 0.4 0.6 1.5 0.3 1.1 -0.3 1.8 -0.9 1.5 -1.3 -0.6 -1 4.6 -3.2 8 -3.4 1.4 0 2.5 -0.4 2.5 -0.9 0 -0.4 0.3 -0.6 0.8 -0.5 0.4 0 2.4 -0.6 4.4 -1.5 2.1 -1 4.5 -1.8 5.5 -2 1 -0.2 2.8 -0.8 4 -1.5 1.2 -0.7 5.7 -2.5 10 -4.1 35.4 -13.3 75.6 -32.1 83.6 -39.1 2.6 -2.3 5.9 -6.1 7.3 -8.5 2.8 -4.9 4.7 -6 7.6 -4.4 4.5 2.4 6.2 13.6 3.3 22 -2.3 6.4 -8.7 14.2 -15.7 19.2 -7 5 -28.3 15.8 -45.5 23.2 l-11.2 4.8 5.5 15.6 c5.2 14.8 7.7 23.6 14.4 50.1 7.7 30.2 11.7 68.7 13.4 127.7 0.5 17.1 -0.2 22.1 -3.5 25.4 -2.4 2.4 -4.1 2.4 -6.2 0.1z"/>
  <path d="M580.5 833.8 c-0.2 -0.7 -1.3 -4.9 -2.3 -9.3 -1.1 -4.4 -5 -14.5 -8.7 -22.5 -12.1 -26.1 -15.9 -38.4 -12.5 -40.5 0.6 -0.3 1 0.3 1 1.5 0 1.2 0.3 2 0.8 1.8 0.4 -0.1 8.3 -8.1 17.6 -17.5 l16.9 -17.2 -5.6 1.9 c-6.3 2.2 -12.8 2.6 -15.9 0.9 -4.7 -2.5 -7.8 -16.7 -5.8 -26.5 1.4 -6.9 12.2 -23.2 22.8 -34.5 3.2 -3.5 3.5 -3.6 7.4 -2.6 5.4 1.3 20.4 -0.5 38.3 -4.8 19 -4.6 38.6 -8.5 42.5 -8.5 3 0 3.2 0.2 2.5 2.8 -2.2 8.7 -8.9 16.2 -41 45.7 -37.2 34.2 -39.1 36.7 -32.2 41.8 4.8 3.6 5.8 3.8 24.7 4.7 17.8 0.9 25.6 2.4 29.1 5.6 2.5 2.3 3.3 7.4 1.7 11.2 -1.6 3.9 -25.7 25.9 -60.7 55.6 -5.3 4.5 -14.5 9 -16.6 8.2 -1 -0.4 -1.5 0.1 -1.5 1.4 0 2.2 -1.8 2.7 -2.5 0.8z"/>
  <path d="M545.6 813.1 c-2.8 -3.1 -4.5 -9.1 -4.6 -15.7 0 -4.9 0.6 -7.3 3 -12 1.6 -3.2 3 -6.5 3 -7.1 0 -0.7 0.9 -1.3 1.9 -1.3 1.4 0 2.3 1.1 3.2 3.8 0.7 2 3.6 9 6.6 15.5 3.4 7.6 5.3 13.2 5.3 15.5 -0.1 3.4 -0.2 3.5 -1.4 1.9 -1.3 -1.7 -1.7 -1.7 -6.7 -0.3 -6.8 2.1 -8.2 2 -10.3 -0.3z"/>
  <path d="M895.2 781 c0 -1.9 0.2 -2.7 0.5 -1.7 0.2 0.9 0.2 2.5 0 3.5 -0.3 0.9 -0.5 0.1 -0.5 -1.8z"/>
  <path d="M562.6 706.5 c0.6 -4.5 2.4 -10.8 2.9 -10.3 0.2 0.2 -0.5 3.5 -1.5 7.3 -1.2 4.2 -1.8 5.4 -1.4 3z"/>
  <path d="M287.8 689.6 c-4 -5.2 -16.2 -26.8 -34.5 -61.1 -8.2 -15.3 -12.7 -22.9 -10.8 -18 1.2 3 1.8 10.5 0.9 10.5 -0.5 0 -3.3 -3.7 -6.1 -8.3 -9.1 -14.2 -8.9 -14.1 -26.8 -20.6 -14.7 -5.3 -57.1 -23.9 -66.8 -29.3 -5.5 -3.1 -8.6 -9.3 -8.7 -17.3 0 -12 2.5 -16 18 -28.8 4.7 -3.9 13.6 -12 19.8 -18.1 10.9 -10.7 11.2 -10.9 11.2 -7.8 0 2.4 -2.7 6.7 -12.7 19.9 -6.9 9.2 -15.9 20.8 -20 25.8 -4 4.9 -7.3 9.5 -7.3 10.2 0 2.3 5.3 7.4 10.3 10 8.1 4.1 21.3 8.9 33.5 12.1 6.1 1.7 11.2 2.8 11.2 2.6 0 -0.2 -5.5 -3.1 -12.2 -6.5 -6.8 -3.4 -15.8 -8.4 -20 -11.1 -7.8 -5 -7.8 -5 -7.8 -9.4 0 -4.1 0.2 -4.4 2.6 -4.4 1.9 0 2.5 0.4 2 1.5 -0.6 1.5 1.9 2.8 26.4 13.8 6.3 2.8 18.2 7.4 26.3 10.2 15.2 5.3 21 8.6 22.7 13.1 0.6 1.4 2.7 5.1 4.8 8.2 15.2 22.5 44.5 80.5 51.2 101.5 0.6 2 1.8 3.7 2.6 3.7 0.8 0 1.4 0.7 1.4 1.5 0 1 -1.1 1.5 -3.5 1.5 -3.1 0 -4 -0.7 -7.7 -5.4z"/>
  <path d="M168 531.1 c0 -2.7 2.6 -6.9 13.7 -21.9 27.2 -37 33.1 -47.4 31.9 -56.4 -0.7 -5 -9.6 -33.8 -24.4 -78.3 -15.9 -48.3 -18.2 -55.5 -18.2 -58 0 -2.2 0.4 -2.5 3.9 -2.5 2.6 0 4.1 0.5 4.5 1.6 0.9 2.3 0.8 2.4 -1.3 2.4 -1.9 0 -1.8 0.4 0.9 8.5 2.9 8.5 8.7 23.5 21.6 55.5 3.6 9.1 9.5 25 13 35.4 5.5 15.9 6.6 20.4 7.1 28 1.3 21 -5.7 38.4 -23.7 59.1 -5.7 6.5 -19.5 20.9 -25.4 26.4 l-3.6 3.5 0 -3.3z"/>
  <path d="M380.2 524.7 c-5 -5.3 -6.4 -13.4 -3.8 -22 0.8 -2.6 1.1 -4.7 0.8 -4.6 -0.8 0.1 -12.2 13 -19.6 22.2 -2.7 3.2 -5.5 5.7 -6.6 5.7 -2.5 0 -6.8 -5.3 -7.6 -9.6 l-0.6 -3.5 -2.4 2.2 c-4.9 4.6 -10.6 -1.3 -12 -12.6 -0.4 -2.8 -1.6 -6.6 -2.8 -8.5 -1.7 -2.8 -2.1 -5.1 -2.1 -11.6 l0 -8 12.5 -13.4 c29.1 -31.2 30.8 -32.5 35.4 -28.1 1.2 1.1 3 4.3 4 7.1 1.2 3.5 2.2 4.8 3 4.2 0.6 -0.5 3.7 -3 6.9 -5.5 3.3 -2.6 6.7 -4.7 7.7 -4.7 2.1 0 7 5.4 7 7.7 0 0.8 0.3 1.3 0.8 1.1 0.4 -0.2 2 -1 3.5 -1.8 4.2 -2 7.6 -0.4 10.3 5 1.3 2.5 2.4 6 2.4 7.8 l0 3.3 6.6 -5.1 c3.6 -2.7 7.4 -5 8.5 -5 2.7 0 6.3 4.1 7.8 8.9 l1.1 4 2.9 -1.7 c6.6 -3.8 12.5 4.1 12.6 16.8 0 6.8 -0.4 8.3 -4.2 16 -2.3 4.7 -4.5 10.3 -4.8 12.5 -0.9 5.5 -2.9 8.2 -6.5 9 -3.6 0.8 -5.4 -0.4 -7.9 -5.3 l-1.8 -3.4 -7.3 8.6 c-7.6 8.9 -10.8 10.9 -13.7 8.5 -2.1 -1.8 -5.2 -8.7 -5.3 -11.6 0 -3.7 -2.2 -2.6 -7 3.5 -6.5 8.1 -12.5 14.2 -14.2 14.2 -0.8 0 -2.4 -1 -3.6 -2.3z"/>
  <path d="M806.7 471.3 c-4.8 -6.7 -5.7 -8.7 -5.7 -12.5 0.1 -3 0.2 -3.1 1.4 -1.5 0.7 0.9 2.2 1.7 3.4 1.7 2.8 0 7 5.3 7.7 9.8 0.4 2 0.9 4.5 1.2 5.5 0.3 1.3 -0.2 1.7 -2 1.7 -1.9 0 -3.5 -1.3 -6 -4.7z"/>
  <path d="M163.6 330.7 c-2 -6.8 -3.9 -14.1 -4.3 -16.1 -0.3 -2.1 -1.2 -4 -1.9 -4.3 -2.6 -1 -1.4 -2.3 2.1 -2.3 5.5 0 7 2.4 8.3 12.6 2.4 19.3 2.6 22.4 1 22.4 -1 0 -2.6 -3.9 -5.2 -12.3z"/>
  <path d="M251.7 314.3 c-1.3 -1.2 -0.7 -2.3 1.2 -2.3 1.9 0 1.9 -0.2 0.5 -3.6 -1.8 -4.3 -2 -12.7 -0.5 -16.7 0.6 -1.6 1.1 -3 1.1 -3.3 0 -0.2 -5.5 3 -12.2 7.1 -11.5 7.1 -22 11.5 -27.3 11.5 -4.8 0 -8.1 -8.4 -7 -18 0.9 -7.5 1.5 -8.4 5.7 -7.7 5.3 0.8 9.1 -1.1 30.9 -15.5 26 -17.1 38.4 -24.7 51.2 -30.9 10.4 -5.1 14.4 -6 15.3 -3.4 0.4 0.8 1 1.5 1.5 1.5 0.6 0 0.5 -0.9 -0.1 -2 -0.8 -1.5 -2.1 -2 -5.1 -2 -9.8 0 -44.6 16.2 -69.2 32.2 -19.6 12.7 -22.4 14.4 -23.2 13.6 -1.7 -1.7 16.5 -25.1 42.6 -54.9 26.1 -29.8 33.3 -39 37.6 -47.6 3 -6 3.4 -7.7 2.8 -11.1 -1 -6.3 -2.2 -6.7 -11.2 -4.2 -28 7.7 -63.6 29.3 -87.4 53.1 -5.9 5.9 -13.6 16.5 -12.7 17.4 0.3 0.3 2.2 -0.9 4.4 -2.6 2.1 -1.7 11.3 -7.5 20.4 -12.9 9.1 -5.4 27 -16.9 39.8 -25.5 21.7 -14.4 36.8 -23.3 37.9 -22.2 1.6 1.6 -7.9 15.1 -29.3 41.3 -29.2 36 -50.5 66 -50.6 71.6 -0.1 2.5 -1.1 3.4 -9.3 7.8 -13.8 7.5 -24.1 9.5 -28.5 5.5 -2.1 -1.9 -4 -8 -4 -12.6 0.1 -1.9 0.9 -5.7 1.9 -8.6 2.1 -6.1 2.7 -6.2 -9.9 2.1 -4.6 3 -10.5 6 -13.2 6.7 -4.1 0.9 -4.7 1.3 -3.6 2.6 1 1.2 0.7 1.4 -2.2 1.1 -4.2 -0.4 -7 -4 -7.6 -9.9 l-0.5 -4.4 1.6 2.8 c0.9 1.5 1.7 2.7 1.8 2.7 0.1 0 0.2 -3.7 0.2 -8.2 0 -7.7 0.2 -8.6 3.3 -13 1.8 -2.6 6.1 -7.1 9.6 -10 3.6 -2.9 6.4 -5.4 6.3 -5.5 -0.1 -0.1 -2.4 0.3 -5 0.9 -2.7 0.5 -5.8 0.7 -7.1 0.4 -2.7 -0.7 -5.2 -5.6 -6.1 -12.2 -1 -6.4 -2.2 -8.8 -3.1 -5.7 -0.9 3.3 -2.4 1.8 -2.4 -2.5 0 -7.4 12.2 -26.1 25.2 -38.8 8.7 -8.5 44.1 -32.5 53.2 -36.1 15.5 -6 51.3 -14.3 62.1 -14.3 3.6 0 6.5 0.2 6.5 0.4 0 0.2 -2.1 2.7 -4.7 5.6 -5.3 5.8 -14.9 13 -35.5 26.9 -15.3 10.3 -18.7 13.4 -8.2 7.7 30.2 -16.7 55.9 -29.6 73.9 -37.3 l8 -3.4 -5.7 0.4 c-3.2 0.2 -5.7 0.3 -5.5 0.1 0.1 -0.1 2.7 -1.2 5.7 -2.3 4.1 -1.6 7.8 -2.1 14.8 -2.1 5.5 0 9.2 0.4 9.2 1 0 0.6 -0.7 1 -1.6 1 -1.2 0 -1.5 0.6 -0.9 2.3 0.4 1.2 1.2 4.2 1.8 6.7 0.6 2.5 1.2 4.7 1.3 4.8 0.1 0.2 3.8 -1.2 8.1 -3.1 16.5 -7.4 40.2 -15.3 42.8 -14.3 3 1.1 5.5 6.9 5.5 12.8 0 12.6 -4 16.4 -36.2 34.8 -7.1 3.9 -12.8 7.3 -12.8 7.5 0 0.2 7.3 -3 16.3 -7 8.9 -3.9 17.9 -7.8 20.1 -8.6 2.1 -0.8 4.1 -2 4.3 -2.6 0.9 -2.3 2.3 -1.4 2.3 1.4 0 1.5 -1.8 6.4 -4 10.9 -8.7 17.8 -14.6 36.8 -17.2 54.9 -1.8 13.5 -1.6 38.9 0.6 51.5 1 5.8 1.6 12.3 1.4 14.5 l-0.3 3.9 -8.5 1.9 c-4.7 1 -16.7 3.8 -26.8 6.3 -10.1 2.4 -19.9 4.4 -21.8 4.4 -3.4 0 -4.6 -1.3 -2 -2.3 1 -0.4 1.2 -1.8 0.9 -5.4 -0.3 -2.6 -0.7 -5 -0.9 -5.2 -0.2 -0.2 -2 0.7 -4.1 2 -2.1 1.2 -9 4.9 -15.3 8.2 l-11.5 5.8 5.5 -0.6 5.5 -0.6 -4.4 2.1 c-3.5 1.6 -6.3 2 -15 2 -5.9 0 -11.1 -0.3 -11.4 -0.7z m102.9 -70 c-1.3 -1.4 -2.5 0.9 -1.3 2.8 1.2 2 1.2 2 1.5 -0.1 0.2 -1.2 0.1 -2.4 -0.2 -2.7z m5.3 -37.9 c0.2 -0.2 0.2 -0.7 -0.2 -1 -0.3 -0.3 -1.6 0.2 -2.9 1.1 l-2.3 1.7 2.5 -0.7 c1.4 -0.4 2.7 -0.9 2.9 -1.1z m-156.4 -57.2 c-1.2 -1.3 -29.3 16.8 -34 21.8 -1.8 2 4.2 -1.5 15.6 -9.1 10.3 -6.8 18.6 -12.5 18.4 -12.7z"/>
  <path d="M208.5 309 c-0.4 -0.6 0.6 -0.7 2.7 -0.3 4.4 0.8 4.8 1.3 1 1.3 -1.7 0 -3.4 -0.4 -3.7 -1z"/>
  <path d="M385 150.3 c2.4 -3.5 4.4 -6.3 4.6 -6.3 1.3 0 -2.4 6.4 -5.3 9.1 l-3.6 3.4 4.3 -6.2z"/>
  <path d="M249 119.6 c0 -0.9 0.4 -1.6 1 -1.6 0.5 0 5 -2.5 10 -5.5 5 -3 9.7 -5.5 10.5 -5.5 1.6 0 5.5 5.2 5.5 7.4 0 0.9 0.7 1.6 1.5 1.6 0.8 0 1.5 0.6 1.5 1.4 0 1 -2.5 1.5 -9.7 2 -5.4 0.3 -12.2 0.9 -15 1.2 -4.5 0.6 -5.3 0.4 -5.3 -1z"/>
 </g>
 <g fill="#53637d">
  <path d="M565.5 895 c1 -12.5 1.5 -17.2 2.6 -25 0.6 -4.1 1.2 -13.8 1.2 -21.5 0.1 -17.4 -0.8 -21.2 -11.2 -43.9 -19.5 -42.6 -20 -50.5 -7.4 -106.1 4.1 -18.1 4.5 -21.3 4.6 -33.5 0.1 -16.7 -0.7 -19.2 -16.2 -51.2 -10.3 -21.2 -15.7 -34.8 -18.1 -45.4 -1.6 -6.8 -1.3 -19.9 0.5 -26.6 1.6 -6.2 6.7 -16.9 10.9 -23 l2.5 -3.8 -9.7 0 c-7.8 0 -10.8 -0.5 -15.2 -2.3 -5.4 -2.2 -18.6 -11.5 -17.7 -12.4 0.3 -0.2 2.8 0.7 5.6 2.2 2.8 1.4 7.9 3.3 11.4 4.1 5.3 1.4 7.2 1.5 13.2 0.4 9.9 -1.7 22.1 -5.7 28.1 -9.1 7.4 -4.2 17.3 -16.2 22.7 -27.7 3 -6.2 3.2 -7.5 3.2 -17.2 0 -12.7 -1.5 -16.2 -10.1 -23.8 -6.8 -6.1 -15.5 -10.5 -24.8 -12.5 -7.9 -1.8 -20.7 -1.6 -24.7 0.2 -4.9 2.4 -17.8 16.7 -21 23.3 l-3 6.3 0.2 -5 c0.7 -13.5 13 -32.6 24.1 -37.6 4.3 -1.9 7.5 -2.4 16.9 -2.7 10.8 -0.4 12.1 -0.2 20.1 2.6 10.3 3.6 15.9 7.3 25.4 16.7 8 7.9 10.9 13.8 12.7 26.3 1.5 10.2 -0.2 19.2 -5.8 30.7 -4.9 9.9 -14.3 21.9 -21.8 27.6 -5.3 3.9 -14.6 7.6 -22 8.5 -4.7 0.7 -4.7 0.7 -6.1 5.8 -2.9 10.1 -3.9 17.3 -3.9 27.1 0 12 2.1 19.1 13.3 44 4 8.8 10.1 22.4 13.6 30.2 13.4 29.8 14.1 42.1 4.9 81.3 -11.9 50.3 -11.5 54.9 7.7 96.3 9.3 20.1 11.3 27.9 10.5 41.7 -0.8 13.2 -2.3 19.5 -9.3 39.5 -8.6 24.7 -8.5 24.5 -7.9 15.5z"/>
  <path d="M927.1 889.5 c0 -3.3 0.6 -9.4 1.4 -13.5 1.7 -9.5 1.2 -18.8 -1.4 -23.7 -1.1 -2.1 -5 -7.2 -8.6 -11.3 -10.6 -12 -15.9 -23.1 -20.5 -42.5 -2.2 -9.2 -2.7 -15.2 -3.5 -36 -0.3 -8.2 -1.6 -24.2 -2.8 -35.5 -1.6 -15.8 -2.1 -26.6 -2.1 -47.5 0 -24.7 0.2 -28.4 2.7 -43.5 7.3 -43.5 7.1 -51.7 -1.3 -68.5 -8.1 -16.4 -16.2 -24.7 -48.5 -50.5 -36.4 -29.1 -46.1 -41.6 -63 -81.5 -16.7 -39.3 -26.5 -74.9 -32 -116 -0.8 -6.6 -1.8 -13.3 -2 -15 -0.2 -1.6 -0.9 -7.7 -1.5 -13.5 -0.6 -5.8 -1.3 -11.6 -1.5 -13 -0.2 -1.4 -1.1 -7 -2 -12.5 -3.9 -25 -10.1 -42.2 -23.8 -65.3 -17.9 -30.3 -52.3 -49.7 -100.2 -56.6 -44.2 -6.4 -82.3 -9 -97.4 -6.6 -3.5 0.6 -6.5 0.9 -6.7 0.7 -0.7 -0.6 13.5 -7.4 20.1 -9.7 22.9 -7.9 62 -6 105.1 5 21.3 5.5 43.5 15.3 58.4 25.8 9.6 6.8 22.1 19.8 28.3 29.3 7.5 11.4 17.9 33.2 22.1 45.9 3.7 11.3 7.2 31.8 10.6 61.5 6.3 55.4 12.7 82.7 28.7 123.5 5.3 13.5 5.6 14.3 12.2 28.3 10.6 22.8 22.9 36.6 56.1 63.2 23.2 18.6 36.3 31.2 42.9 41.5 5.6 8.5 10.6 19.3 12 25.6 2.2 9.5 1.8 27.5 -0.9 43.4 -0.5 3 -1.2 7.1 -1.5 9 -0.3 1.9 -1.2 8 -2.1 13.5 -0.8 5.5 -1.7 17 -2.1 25.5 -0.5 15.2 -0.1 22.2 4.2 62.5 0.8 7.7 1.9 23.7 2.5 35.5 1 21.8 1.9 27.4 6.3 39.1 3.8 10 7.2 16.2 14.2 25.7 12.7 17 13.6 26.8 4.3 46.9 -1.7 3.8 -3.9 9.1 -4.9 11.8 l-1.8 5 0 -6z"/>
  <path d="M448.2 823.2 c-3.4 -17.4 -6.8 -35.7 -7.6 -40.7 -2.2 -13.8 -5.4 -29.6 -9.1 -45 -5.3 -22.1 -9.3 -44.9 -11 -61.7 -0.4 -3.8 -0.9 -6.8 -1.2 -6.8 -1.1 0 -24.7 9.8 -41.9 17.3 -38.1 16.8 -62.4 23.8 -81.8 23.9 -6.2 0 -8.5 -0.5 -10.5 -2 -1.7 -1.2 -7.6 -11.8 -17.1 -30.8 -16.8 -33.3 -20.7 -41.8 -24.5 -52.9 -4 -11.7 -9.8 -23.8 -15 -31 -2.5 -3.5 -4.5 -6.6 -4.5 -7 0 -0.3 2.1 0.9 4.6 2.7 7.8 5.5 16.6 16 22 25.9 37.7 69.5 35.7 65.8 40.6 72 l4 5.1 14.2 -0.5 c11 -0.4 16.2 -1.1 23.5 -3.1 13.3 -3.7 34.1 -11 60.1 -21.1 37.6 -14.5 42.7 -16.5 64 -24 11.3 -4 23.6 -8.7 27.4 -10.4 3.8 -1.7 7 -3 7.2 -2.9 0.1 0.2 -3.1 2.7 -7.2 5.7 -4.5 3.2 -18.1 10.4 -34.7 18.3 -14.9 7.2 -27.3 13.2 -27.5 13.3 -0.2 0.1 1.5 4.7 3.6 10.1 3.7 9.3 11.1 31.3 18.2 53.7 5.8 18.5 8.9 37.6 10.5 63.5 1.6 25.7 2 58.8 0.7 59.6 -0.4 0.2 -3.6 -13.8 -7 -31.2z"/>
  <path d="M324 609.1 c24.7 -12.5 45.2 -28.6 53.5 -41.6 3.7 -6 7.5 -13.9 10.1 -21.5 l1.9 -5.5 0.3 3.7 c0.5 5.5 -3.4 20.4 -7.6 28.7 -5.2 10.7 -20.5 25.9 -31.8 31.9 -9.3 4.8 -21.3 8.2 -28.8 8.2 l-5.1 0 7.5 -3.9z"/>
  <path d="M213 579 c-14.1 -3.1 -41.1 -10.7 -49.3 -13.9 -15.4 -6.2 -20.4 -9.5 -22.6 -15.3 -1.5 -4.1 -0.2 -7.1 7.4 -16.5 20.4 -25.1 39.8 -52.2 45.2 -62.9 7.6 -15.2 7.5 -16.1 -2.1 -45.9 -24 -74.2 -23.4 -71.9 -26.1 -95 -0.9 -7.1 -1.8 -13.8 -2.1 -14.8 -0.3 -1 -4.2 -3.6 -8.7 -5.9 -17.7 -8.8 -28.4 -18 -35.2 -30.2 -5.1 -9.1 -6.5 -15.2 -6.5 -28.1 0 -33 10.5 -55.5 38.9 -83.5 22.4 -22.1 44.5 -34.3 79.7 -44 23.5 -6.4 30.2 -7.3 49.9 -6.6 16.9 0.5 28.9 2 41.7 5 6.3 1.4 13.8 4.1 13.8 4.8 0 0.2 -3.9 0.4 -8.8 0.5 -8.5 0.1 -20 1 -50.7 3.9 -24.1 2.2 -56 10.2 -74.8 18.8 -13.2 6 -27.4 16 -39.5 28 -17.3 16.9 -26.4 30.5 -31.4 46.6 -2 6.5 -2.3 9.6 -2.3 23 0 15.1 0.1 15.6 2.8 20.8 8.6 16.4 29.9 29.6 58.7 36.6 27.1 6.5 31.7 7 62.5 7.1 31.1 0 26.2 0.7 65.5 -9 9.6 -2.4 22.2 -5.3 28 -6.5 5.8 -1.2 10.9 -2.6 11.4 -3 0.5 -0.5 0.1 -5.5 -1 -11.7 -2.2 -13 -2.5 -43.8 -0.6 -57.8 3.8 -26.5 14.4 -53.8 29 -74.4 8 -11.3 23.5 -29.2 27 -31.1 3.6 -1.9 32.5 -2.7 41.9 -1 9.2 1.6 26.4 7.2 34.7 11.4 5 2.6 7.6 3.4 10 3 2.6 -0.5 2.8 -0.4 1.3 0.6 -1.3 0.8 -1.5 1.5 -0.8 2.4 0.8 1 0.4 1.2 -1.7 0.9 -5.1 -0.7 -35.4 23.7 -50 40.3 -12.7 14.3 -28.9 44.1 -36.1 66.1 -9.4 28.6 -11.3 59.5 -5.1 83.6 3.5 13.8 6.2 19.3 22.8 46.2 12.1 19.5 28.4 38.4 41.7 48.2 2.9 2.1 2.9 2.2 0.5 1.6 -4.3 -1 -15.9 -6.7 -33.5 -16.6 -27 -15.1 -30.8 -19.3 -57.3 -63.1 -10.5 -17.5 -14.9 -26.2 -17.8 -35.1 -1.2 -3.8 -2.6 -7.1 -3.2 -7.3 -0.5 -0.1 -3.6 0.9 -6.8 2.3 -3.3 1.5 -14.8 6.2 -25.8 10.6 -20.3 8.1 -32.3 11.8 -45.6 14 -10.2 1.7 -51.8 1.8 -63.5 0.1 -13.7 -2 -28.5 -4.9 -36.7 -7.2 -4 -1.1 -7.3 -2 -7.4 -2 -0.1 0 1.3 4.4 3.1 9.8 4.1 12 30.1 91.5 35 107.2 2.2 6.8 3.9 14.5 4.2 19 0.9 12.2 -2.6 18.9 -27.5 53 -19.2 26.3 -27.2 37.6 -27.2 38.8 0 1.4 13.8 10.1 25 15.7 12.9 6.4 35.3 18.5 36.5 19.6 1.2 1.2 -0.4 1 -10.5 -1.1z m181.2 -249.2 c-4.2 -13.4 -4.7 -39.5 -1.2 -58.8 4 -22.3 10.4 -41.2 20.8 -61.5 16.9 -33 37.8 -54.6 68.5 -70.5 4.8 -2.5 8.7 -4.8 8.7 -5.1 0 -1.5 -18.3 -3.3 -32 -3.3 -11.9 0 -16.8 0.5 -27.4 2.7 -16.1 3.4 -17.7 4.6 -33.2 25 -11.9 15.7 -21.1 36 -25.5 56.7 -2 9.1 -2.3 13.5 -2.4 32.5 0 20 0.4 25.6 3.1 38.8 0.4 1.9 1.2 2.7 2.7 2.7 2 0 2 0.1 0.3 1.3 -1.7 1.3 -1.7 1.6 0.4 8.8 2.5 8.2 5.9 15.4 12.8 27.1 4.8 8.1 6.1 9.2 4.4 3.6z"/>
  <path d="M532.9 478.1 c-3.3 -3.4 -3.9 -8.3 -1.4 -13.1 l1.6 -3 -3.1 0 c-4.2 0 -8 -3.9 -8 -8.2 0 -1.8 1.4 -5.7 3.1 -8.7 3.7 -6.4 13.8 -17.1 16.1 -17.1 1.8 0 -0.5 4.7 -8.4 17 -4.4 7 -5.1 8.9 -3.7 10.6 1.7 2.1 7.8 0.7 11.7 -2.7 1.8 -1.6 3.5 -2.9 3.7 -2.9 0.7 0 -0.7 3.3 -2 5 -0.7 0.8 -2.3 4.3 -3.5 7.8 -2.6 7.1 -1.8 11.2 2 11.2 2.7 0 13.2 -4.3 17 -7 4.3 -3.1 3.9 -0.4 -0.7 5 -4.3 5 -12.1 9 -17.6 9 -2.9 0 -4.6 -0.7 -6.8 -2.9z"/>
  <path d="M287.5 469.3 c-9.3 -4.8 -10.1 -11.5 -2.6 -19.6 3.8 -4.1 7.8 -5.9 13.1 -5.9 8 0 14 4.7 14 11 0 1.5 -1.3 4.9 -2.9 7.4 -4.8 7.6 -14.6 10.8 -21.6 7.1z m11.5 -7.8 c7 -3.6 5.1 -8.5 -3.3 -8.5 -3.4 0 -5.3 0.6 -6.7 2 -5.5 5.5 2.2 10.5 10 6.5z"/>
  <path d="M276.4 410.6 c-2 -0.9 -3.5 -2.5 -4.3 -4.6 -1.9 -5.6 -1.2 -6.5 1.9 -2.2 4.1 5.7 10.1 6.4 23.9 2.6 0.9 -0.2 -1.1 0.9 -4.4 2.6 -6.6 3.3 -12 3.8 -17.1 1.6z"/>
 </g>
</svg>